<svg version="1.1" viewBox="0.0 0.0 960.0 540.0" fill="none" stroke="none" stroke-linecap="square" stroke-miterlimit="10" xmlns:xlink="http://www.w3.org/1999/xlink" xmlns="http://www.w3.org/2000/svg"><clipPath id="g1184764c479_1_0.0"><path d="m0 0l960.0 0l0 540.0l-960.0 0l0 -540.0z" clip-rule="nonzero"/></clipPath><g clip-path="url(#g1184764c479_1_0.0)"><path fill="#000000" d="m0 0l960.0 0l0 540.0l-960.0 0z" fill-rule="evenodd"/><path fill="#000000" fill-opacity="0.0" d="m95.120735 210.44095l769.7638 0l0 77.5748l-769.7638 0z" fill-rule="evenodd"/><path fill="#ffffff" d="m165.28387 271.88095l0 -46.5625l18.15625 0q5.3125 0 9.03125 2.015625q3.71875 2.015625 5.671875 5.5625q1.953125 3.546875 1.953125 8.140625q0 4.625 -1.984375 8.140625q-1.984375 3.515625 -5.75 5.5q-3.765625 1.984375 -9.140625 1.984375l-11.6875 0l0 -7.6875l10.15625 0q2.9375 0 4.828125 -1.015625q1.890625 -1.015625 2.8125 -2.796875q0.921875 -1.78125 0.921875 -4.125q0 -2.34375 -0.921875 -4.109375q-0.921875 -1.765625 -2.828125 -2.75q-1.90625 -0.984375 -4.84375 -0.984375l-6.84375 0l0 38.6875l-9.53125 0zm41.25 0l0 -34.9375l9.0625 0l0 6.09375l0.375 0q0.96875 -3.25 3.234375 -4.90625q2.265625 -1.65625 5.203125 -1.65625q0.71875 0 1.5625 0.078125q0.84375 0.078125 1.46875 0.234375l0 8.375q-0.625 -0.21875 -1.8125 -0.34375q-1.1875 -0.125 -2.25 -0.125q-2.125 0 -3.84375 0.921875q-1.71875 0.921875 -2.671875 2.5625q-0.953125 1.640625 -0.953125 3.828125l0 19.875l-9.375 0zm40.28125 0.6875q-5.34375 0 -9.21875 -2.1875q-3.875 -2.1875 -5.953125 -6.21875q-2.078125 -4.03125 -2.078125 -9.5625q0 -5.40625 2.0625 -9.46875q2.0625 -4.0625 5.84375 -6.34375q3.78125 -2.28125 8.875 -2.28125q3.4375 0 6.40625 1.09375q2.96875 1.09375 5.21875 3.296875q2.25 2.203125 3.515625 5.515625q1.265625 3.3125 1.265625 7.8125l0 2.625l-29.34375 0l0 -5.875l24.75 0l-4.375 1.5625q0 -2.71875 -0.828125 -4.734375q-0.828125 -2.015625 -2.46875 -3.125q-1.640625 -1.109375 -4.046875 -1.109375q-2.4375 0 -4.140625 1.125q-1.703125 1.125 -2.578125 3.046875q-0.875 1.921875 -0.875 4.390625l0 4.15625q0 3.03125 1.015625 5.09375q1.015625 2.0625 2.84375 3.09375q1.828125 1.03125 4.265625 1.03125q1.65625 0 3.0 -0.46875q1.34375 -0.46875 2.296875 -1.390625q0.953125 -0.921875 1.453125 -2.265625l8.5 1.59375q-0.84375 2.875 -2.9375 5.046875q-2.09375 2.171875 -5.234375 3.359375q-3.140625 1.1875 -7.234375 1.1875zm36.21875 0q-4.21875 0 -7.46875 -1.203125q-3.25 -1.203125 -5.3125 -3.5q-2.0625 -2.296875 -2.65625 -5.546875l8.71875 -1.5q0.6875 2.4375 2.40625 3.65625q1.71875 1.21875 4.59375 1.21875q2.6875 0 4.234375 -1.015625q1.546875 -1.015625 1.546875 -2.578125q0 -1.375 -1.109375 -2.25q-1.109375 -0.875 -3.390625 -1.34375l-6.03125 -1.25q-5.0625 -1.03125 -7.5625 -3.515625q-2.5 -2.484375 -2.5 -6.390625q0 -3.375 1.84375 -5.796875q1.84375 -2.421875 5.125 -3.734375q3.28125 -1.3125 7.71875 -1.3125q4.125 0 7.15625 1.140625q3.03125 1.140625 4.90625 3.234375q1.875 2.09375 2.5 4.9375l-8.3125 1.46875q-0.53125 -1.78125 -2.046875 -2.921875q-1.515625 -1.140625 -4.078125 -1.140625q-2.3125 0 -3.875 0.96875q-1.5625 0.96875 -1.5625 2.59375q0 1.3125 1.015625 2.21875q1.015625 0.90625 3.484375 1.40625l6.28125 1.25q5.0625 1.03125 7.53125 3.359375q2.46875 2.328125 2.46875 6.078125q0 3.4375 -2.0 6.015625q-2.0 2.578125 -5.515625 4.015625q-3.515625 1.4375 -8.109375 1.4375zm37.59375 0q-5.25 0 -9.09375 -2.265625q-3.84375 -2.265625 -5.921875 -6.3125q-2.078125 -4.046875 -2.078125 -9.421875q0 -5.4375 2.078125 -9.484375q2.078125 -4.046875 5.921875 -6.3125q3.84375 -2.265625 9.09375 -2.265625q5.28125 0 9.109375 2.265625q3.828125 2.265625 5.90625 6.3125q2.078125 4.046875 2.078125 9.484375q0 5.375 -2.078125 9.421875q-2.078125 4.046875 -5.90625 6.3125q-3.828125 2.265625 -9.109375 2.265625zm0 -7.375q2.5 0 4.1875 -1.390625q1.6875 -1.390625 2.53125 -3.8125q0.84375 -2.421875 0.84375 -5.453125q0 -3.09375 -0.84375 -5.5q-0.84375 -2.40625 -2.53125 -3.78125q-1.6875 -1.375 -4.1875 -1.375q-2.5 0 -4.171875 1.375q-1.671875 1.375 -2.515625 3.78125q-0.84375 2.40625 -0.84375 5.5q0 3.03125 0.84375 5.453125q0.84375 2.421875 2.515625 3.8125q1.671875 1.390625 4.171875 1.390625zm51.53125 7.28125q-4.0 0 -7.234375 -2.078125q-3.234375 -2.078125 -5.109375 -6.09375q-1.875 -4.015625 -1.875 -9.828125q0 -5.96875 1.9375 -9.96875q1.9375 -4.0 5.15625 -6.0q3.21875 -2.0 7.09375 -2.0q2.96875 0 4.9375 1.0q1.96875 1.0 3.1875 2.46875q1.21875 1.46875 1.8125 2.84375l0.3125 0l0 -17.5l9.375 0l0 46.5625l-9.21875 0l0 -5.59375l-0.46875 0q-0.625 1.40625 -1.859375 2.828125q-1.234375 1.421875 -3.203125 2.390625q-1.96875 0.96875 -4.84375 0.96875zm2.90625 -7.53125q2.375 0 4.0625 -1.3125q1.6875 -1.3125 2.5625 -3.671875q0.875 -2.359375 0.875 -5.515625q0 -3.1875 -0.859375 -5.515625q-0.859375 -2.328125 -2.546875 -3.625q-1.6875 -1.296875 -4.09375 -1.296875q-2.46875 0 -4.140625 1.34375q-1.671875 1.34375 -2.515625 3.6875q-0.84375 2.34375 -0.84375 5.40625q0 3.0625 0.859375 5.4375q0.859375 2.375 2.53125 3.71875q1.671875 1.34375 4.109375 1.34375zm40.46875 7.625q-5.34375 0 -9.21875 -2.1875q-3.875 -2.1875 -5.953125 -6.21875q-2.078125 -4.03125 -2.078125 -9.5625q0 -5.40625 2.0625 -9.46875q2.0625 -4.0625 5.84375 -6.34375q3.78125 -2.28125 8.875 -2.28125q3.4375 0 6.40625 1.09375q2.96875 1.09375 5.21875 3.296875q2.25 2.203125 3.515625 5.515625q1.265625 3.3125 1.265625 7.8125l0 2.625l-29.34375 0l0 -5.875l24.75 0l-4.375 1.5625q0 -2.71875 -0.828125 -4.734375q-0.828125 -2.015625 -2.46875 -3.125q-1.640625 -1.109375 -4.046875 -1.109375q-2.4375 0 -4.140625 1.125q-1.703125 1.125 -2.578125 3.046875q-0.875 1.921875 -0.875 4.390625l0 4.15625q0 3.03125 1.015625 5.09375q1.015625 2.0625 2.84375 3.09375q1.828125 1.03125 4.265625 1.03125q1.65625 0 3.0 -0.46875q1.34375 -0.46875 2.296875 -1.390625q0.953125 -0.921875 1.453125 -2.265625l8.5 1.59375q-0.84375 2.875 -2.9375 5.046875q-2.09375 2.171875 -5.234375 3.359375q-3.140625 1.1875 -7.234375 1.1875zm37.96875 0q-5.28125 0 -9.109375 -2.265625q-3.828125 -2.265625 -5.90625 -6.3125q-2.078125 -4.046875 -2.078125 -9.421875q0 -5.4375 2.078125 -9.484375q2.078125 -4.046875 5.90625 -6.3125q3.828125 -2.265625 9.109375 -2.265625q3.09375 0 5.71875 0.8125q2.625 0.8125 4.65625 2.3125q2.03125 1.5 3.34375 3.65625q1.3125 2.15625 1.8125 4.84375l-8.71875 1.625q-0.28125 -1.375 -0.875 -2.453125q-0.59375 -1.078125 -1.4375 -1.84375q-0.84375 -0.765625 -1.953125 -1.171875q-1.109375 -0.40625 -2.453125 -0.40625q-2.5 0 -4.203125 1.34375q-1.703125 1.34375 -2.5625 3.75q-0.859375 2.40625 -0.859375 5.5625q0 3.09375 0.859375 5.5q0.859375 2.40625 2.5625 3.78125q1.703125 1.375 4.203125 1.375q1.34375 0 2.46875 -0.421875q1.125 -0.421875 2.0 -1.21875q0.875 -0.796875 1.46875 -1.921875q0.59375 -1.125 0.84375 -2.53125l8.71875 1.59375q-0.5 2.78125 -1.8125 4.953125q-1.3125 2.171875 -3.34375 3.734375q-2.03125 1.5625 -4.671875 2.375q-2.640625 0.8125 -5.765625 0.8125zm30.53125 -10.90625l0 -11.28125l1.40625 0l11.4375 -13.4375l10.84375 0l-15.09375 17.53125l-2.21875 0l-6.375 7.1875zm-8.5 10.21875l0 -46.5625l9.375 0l0 46.5625l-9.375 0zm21.8125 0l-10.5 -15.3125l6.28125 -6.65625l15.25 21.96875l-11.03125 0zm47.8125 -34.9375l0 7.15625l-20.71875 0l0 -7.15625l20.71875 0zm-15.90625 -8.3125l9.375 0l0 33.03125q0 1.65625 0.734375 2.453125q0.734375 0.796875 2.453125 0.796875q0.53125 0 1.5 -0.140625q0.96875 -0.140625 1.46875 -0.265625l1.34375 7.03125q-1.5625 0.46875 -3.109375 0.65625q-1.546875 0.1875 -2.953125 0.1875q-5.25 0 -8.03125 -2.5625q-2.78125 -2.5625 -2.78125 -7.34375l0 -33.84375zm37.15625 43.9375q-5.34375 0 -9.21875 -2.1875q-3.875 -2.1875 -5.953125 -6.21875q-2.078125 -4.03125 -2.078125 -9.5625q0 -5.40625 2.0625 -9.46875q2.0625 -4.0625 5.84375 -6.34375q3.78125 -2.28125 8.875 -2.28125q3.4375 0 6.40625 1.09375q2.96875 1.09375 5.21875 3.296875q2.25 2.203125 3.515625 5.515625q1.265625 3.3125 1.265625 7.8125l0 2.625l-29.34375 0l0 -5.875l24.75 0l-4.375 1.5625q0 -2.71875 -0.828125 -4.734375q-0.828125 -2.015625 -2.46875 -3.125q-1.640625 -1.109375 -4.046875 -1.109375q-2.4375 0 -4.140625 1.125q-1.703125 1.125 -2.578125 3.046875q-0.875 1.921875 -0.875 4.390625l0 4.15625q0 3.03125 1.015625 5.09375q1.015625 2.0625 2.84375 3.09375q1.828125 1.03125 4.265625 1.03125q1.65625 0 3.0 -0.46875q1.34375 -0.46875 2.296875 -1.390625q0.953125 -0.921875 1.453125 -2.265625l8.5 1.59375q-0.84375 2.875 -2.9375 5.046875q-2.09375 2.171875 -5.234375 3.359375q-3.140625 1.1875 -7.234375 1.1875zm22.34375 -0.6875l0 -34.9375l8.6875 0l0.46875 8.6875l-0.6875 0q0.8125 -3.21875 2.390625 -5.25q1.578125 -2.03125 3.703125 -3.0q2.125 -0.96875 4.46875 -0.96875q3.78125 0 6.09375 2.390625q2.3125 2.390625 3.40625 7.390625l-1.09375 0q0.78125 -3.34375 2.546875 -5.515625q1.765625 -2.171875 4.1875 -3.21875q2.421875 -1.046875 5.078125 -1.046875q3.21875 0 5.734375 1.40625q2.515625 1.40625 3.96875 4.046875q1.453125 2.640625 1.453125 6.453125l0 23.5625l-9.375 0l0 -21.78125q0 -2.96875 -1.609375 -4.40625q-1.609375 -1.4375 -3.953125 -1.4375q-1.75 0 -3.046875 0.765625q-1.296875 0.765625 -2.0 2.140625q-0.703125 1.375 -0.703125 3.21875l0 21.5l-9.0625 0l0 -22.03125q0 -2.5625 -1.515625 -4.078125q-1.515625 -1.515625 -3.921875 -1.515625q-1.65625 0 -2.984375 0.75q-1.328125 0.75 -2.09375 2.203125q-0.765625 1.453125 -0.765625 3.546875l0 21.125l-9.375 0zm58.40625 13.0625l0 -48.0l9.21875 0l0 5.875l0.4375 0q0.65625 -1.375 1.859375 -2.84375q1.203125 -1.46875 3.171875 -2.46875q1.96875 -1.0 4.9375 -1.0q3.875 0 7.09375 2.0q3.21875 2.0 5.140625 6.0q1.921875 4.0 1.921875 9.96875q0 5.8125 -1.875 9.828125q-1.875 4.015625 -5.09375 6.09375q-3.21875 2.078125 -7.25 2.078125q-2.84375 0 -4.8125 -0.96875q-1.96875 -0.96875 -3.203125 -2.390625q-1.234375 -1.421875 -1.890625 -2.828125l-0.28125 0l0 18.65625l-9.375 0zm16.6875 -20.0q2.4375 0 4.109375 -1.34375q1.671875 -1.34375 2.53125 -3.71875q0.859375 -2.375 0.859375 -5.4375q0 -3.0625 -0.859375 -5.40625q-0.859375 -2.34375 -2.515625 -3.6875q-1.65625 -1.34375 -4.125 -1.34375q-2.40625 0 -4.09375 1.296875q-1.6875 1.296875 -2.5625 3.625q-0.875 2.328125 -0.875 5.515625q0 3.15625 0.890625 5.515625q0.890625 2.359375 2.578125 3.671875q1.6875 1.3125 4.0625 1.3125zm33.03125 -39.625l0 46.5625l-9.375 0l0 -46.5625l9.375 0zm17.71875 47.25q-3.3125 0 -5.953125 -1.171875q-2.640625 -1.171875 -4.15625 -3.5q-1.515625 -2.328125 -1.515625 -5.796875q0 -2.90625 1.078125 -4.875q1.078125 -1.96875 2.9375 -3.15625q1.859375 -1.1875 4.21875 -1.8125q2.359375 -0.625 4.953125 -0.875q3.03125 -0.3125 4.890625 -0.578125q1.859375 -0.265625 2.71875 -0.84375q0.859375 -0.578125 0.859375 -1.703125l0 -0.15625q0 -1.5 -0.625 -2.53125q-0.625 -1.03125 -1.859375 -1.578125q-1.234375 -0.546875 -2.984375 -0.546875q-1.8125 0 -3.15625 0.546875q-1.34375 0.546875 -2.1875 1.453125q-0.84375 0.90625 -1.25 2.03125l-8.59375 -1.40625q0.90625 -3.0625 3.0 -5.1875q2.09375 -2.125 5.203125 -3.25q3.109375 -1.125 7.015625 -1.125q2.8125 0 5.46875 0.671875q2.65625 0.671875 4.765625 2.078125q2.109375 1.40625 3.34375 3.671875q1.234375 2.265625 1.234375 5.421875l0 23.53125l-8.875 0l0 -4.84375l-0.3125 0q-0.84375 1.625 -2.25 2.859375q-1.40625 1.234375 -3.390625 1.953125q-1.984375 0.71875 -4.578125 0.71875zm2.65625 -6.59375q2.21875 0 3.890625 -0.875q1.671875 -0.875 2.609375 -2.375q0.9375 -1.5 0.9375 -3.34375l0 -3.78125q-0.40625 0.3125 -1.25 0.5625q-0.84375 0.25 -1.875 0.4375q-1.03125 0.1875 -2.03125 0.34375q-1.0 0.15625 -1.78125 0.25q-1.71875 0.25 -3.03125 0.8125q-1.3125 0.5625 -2.03125 1.484375q-0.71875 0.921875 -0.71875 2.359375q0 1.34375 0.6875 2.265625q0.6875 0.921875 1.875 1.390625q1.1875 0.46875 2.71875 0.46875zm42.09375 -29.03125l0 7.15625l-20.71875 0l0 -7.15625l20.71875 0zm-15.90625 -8.3125l9.375 0l0 33.03125q0 1.65625 0.734375 2.453125q0.734375 0.796875 2.453125 0.796875q0.53125 0 1.5 -0.140625q0.96875 -0.140625 1.46875 -0.265625l1.34375 7.03125q-1.5625 0.46875 -3.109375 0.65625q-1.546875 0.1875 -2.953125 0.1875q-5.25 0 -8.03125 -2.5625q-2.78125 -2.5625 -2.78125 -7.34375l0 -33.84375zm37.15625 43.9375q-5.34375 0 -9.21875 -2.1875q-3.875 -2.1875 -5.953125 -6.21875q-2.078125 -4.03125 -2.078125 -9.5625q0 -5.40625 2.0625 -9.46875q2.0625 -4.0625 5.84375 -6.34375q3.78125 -2.28125 8.875 -2.28125q3.4375 0 6.40625 1.09375q2.96875 1.09375 5.21875 3.296875q2.25 2.203125 3.515625 5.515625q1.265625 3.3125 1.265625 7.8125l0 2.625l-29.34375 0l0 -5.875l24.75 0l-4.375 1.5625q0 -2.71875 -0.828125 -4.734375q-0.828125 -2.015625 -2.46875 -3.125q-1.640625 -1.109375 -4.046875 -1.109375q-2.4375 0 -4.140625 1.125q-1.703125 1.125 -2.578125 3.046875q-0.875 1.921875 -0.875 4.390625l0 4.15625q0 3.03125 1.015625 5.09375q1.015625 2.0625 2.84375 3.09375q1.828125 1.03125 4.265625 1.03125q1.65625 0 3.0 -0.46875q1.34375 -0.46875 2.296875 -1.390625q0.953125 -0.921875 1.453125 -2.265625l8.5 1.59375q-0.84375 2.875 -2.9375 5.046875q-2.09375 2.171875 -5.234375 3.359375q-3.140625 1.1875 -7.234375 1.1875z" fill-rule="nonzero"/><path fill="#000000" fill-opacity="0.0" d="m306.0866 298.83334l347.84253 0l0 22.614166l-347.84253 0z" fill-rule="evenodd"/><path fill="#b7b7b7" d="m421.86972 303.4877l-2.09375 0l0 13.265625l1.640625 0l0 -5.296875l-0.140625 -5.34375l2.25 6.953125l0.96875 0l2.453125 -7.140625l-0.140625 5.53125l0 5.296875l1.640625 0l0 -13.265625l-2.09375 0l-2.328125 6.640625l-2.15625 -6.640625zm8.867462 8.25l0 0.203125q0 1.0625 0.3125 1.96875q0.3125 0.90625 0.890625 1.59375q0.578125 0.671875 1.40625 1.0625q0.84375 0.375 1.890625 0.375q1.03125 0 1.859375 -0.375q0.828125 -0.390625 1.40625 -1.0625q0.578125 -0.6875 0.890625 -1.59375q0.3125 -0.90625 0.3125 -1.96875l0 -0.203125q0 -1.0625 -0.3125 -1.984375q-0.3125 -0.921875 -0.890625 -1.59375q-0.578125 -0.671875 -1.421875 -1.046875q-0.828125 -0.390625 -1.875 -0.390625q-1.03125 0 -1.859375 0.390625q-0.828125 0.375 -1.40625 1.046875q-0.578125 0.671875 -0.890625 1.59375q-0.3125 0.921875 -0.3125 1.984375zm1.6875 0.203125l0 -0.203125q0 -0.71875 0.171875 -1.375q0.171875 -0.671875 0.53125 -1.171875q0.34375 -0.5 0.859375 -0.796875q0.515625 -0.296875 1.21875 -0.296875q0.703125 0 1.21875 0.296875q0.53125 0.296875 0.890625 0.796875q0.34375 0.5 0.515625 1.171875q0.1875 0.65625 0.1875 1.375l0 0.203125q0 0.71875 -0.171875 1.390625q-0.171875 0.65625 -0.515625 1.15625q-0.359375 0.5 -0.890625 0.796875q-0.515625 0.28125 -1.203125 0.28125q-0.703125 0 -1.234375 -0.28125q-0.53125 -0.296875 -0.875 -0.796875q-0.359375 -0.5 -0.53125 -1.15625q-0.171875 -0.671875 -0.171875 -1.390625zm9.976807 4.8125l1.6875 0l0 -7.0625q0.171875 -0.328125 0.40625 -0.59375q0.234375 -0.265625 0.515625 -0.453125q0.328125 -0.234375 0.71875 -0.359375q0.40625 -0.140625 0.875 -0.140625q0.546875 0 0.953125 0.125q0.421875 0.125 0.703125 0.40625q0.28125 0.296875 0.421875 0.75q0.15625 0.453125 0.15625 1.109375l0 6.21875l1.6875 0l0 -6.265625q0 -0.96875 -0.25 -1.6875q-0.234375 -0.71875 -0.6875 -1.1875q-0.4375 -0.453125 -1.078125 -0.671875q-0.625 -0.21875 -1.40625 -0.21875q-0.5625 0 -1.078125 0.171875q-0.515625 0.15625 -0.953125 0.4375q-0.296875 0.1875 -0.5625 0.453125q-0.25 0.265625 -0.46875 0.5625l-0.125 -1.453125l-1.515625 0l0 9.859375zm15.195587 -12.25l-1.703125 0l0 2.390625l-2.578125 0l0 1.3125l2.578125 0l0 5.34375q0 0.921875 0.234375 1.5625q0.25 0.640625 0.671875 1.046875q0.421875 0.40625 0.984375 0.59375q0.578125 0.1875 1.234375 0.1875q0.390625 0 0.78125 -0.046875q0.40625 -0.03125 0.75 -0.109375q0.359375 -0.0625 0.65625 -0.15625q0.296875 -0.09375 0.515625 -0.21875l-0.234375 -1.203125q-0.15625 0.046875 -0.40625 0.09375q-0.234375 0.046875 -0.515625 0.09375q-0.28125 0.046875 -0.578125 0.078125q-0.28125 0.03125 -0.546875 0.03125q-0.375 0 -0.71875 -0.09375q-0.328125 -0.09375 -0.578125 -0.3125q-0.265625 -0.21875 -0.40625 -0.59375q-0.140625 -0.375 -0.140625 -0.953125l0 -5.34375l3.75 0l0 -1.3125l-3.75 0l0 -2.390625zm8.883057 3.859375l0 -5.609375l-1.6875 0l0 14.0l1.6875 0l0 -7.15625q0.1875 -0.296875 0.421875 -0.53125q0.234375 -0.25 0.5 -0.421875q0.34375 -0.25 0.75 -0.375q0.421875 -0.125 0.875 -0.125q0.5625 -0.015625 0.984375 0.15625q0.421875 0.15625 0.703125 0.46875q0.265625 0.296875 0.40625 0.734375q0.140625 0.4375 0.140625 1.03125l0 6.21875l1.6875 0l0 -6.203125q0 -1.0 -0.25 -1.71875q-0.234375 -0.71875 -0.6875 -1.203125q-0.4375 -0.46875 -1.078125 -0.6875q-0.625 -0.21875 -1.40625 -0.21875q-0.59375 0 -1.125 0.171875q-0.515625 0.15625 -0.953125 0.484375q-0.265625 0.1875 -0.515625 0.4375q-0.25 0.25 -0.453125 0.546875zm13.789337 8.0l0 -1.609375l-1.828125 0l0 1.640625q0 0.765625 -0.1875 1.484375q-0.1875 0.71875 -0.625 1.359375l1.046875 0.578125q0.734375 -0.65625 1.15625 -1.609375q0.4375 -0.9375 0.4375 -1.84375zm26.250519 0.390625l0 -1.375l-6.65625 0l3.5625 -3.859375q0.5 -0.546875 0.953125 -1.09375q0.453125 -0.5625 0.796875 -1.125q0.328125 -0.5625 0.53125 -1.140625q0.203125 -0.578125 0.203125 -1.171875q0 -0.796875 -0.28125 -1.46875q-0.28125 -0.671875 -0.796875 -1.15625q-0.515625 -0.5 -1.265625 -0.78125q-0.75 -0.28125 -1.6875 -0.28125q-1.03125 0 -1.828125 0.328125q-0.796875 0.328125 -1.34375 0.890625q-0.546875 0.5625 -0.84375 1.3125q-0.28125 0.734375 -0.28125 1.5625l1.6875 0q0 -0.609375 0.15625 -1.109375q0.15625 -0.515625 0.484375 -0.859375q0.328125 -0.34375 0.8125 -0.53125q0.484375 -0.203125 1.15625 -0.203125q0.546875 0 0.96875 0.1875q0.4375 0.1875 0.75 0.5q0.296875 0.328125 0.453125 0.765625q0.171875 0.421875 0.171875 0.921875q0 0.390625 -0.109375 0.78125q-0.09375 0.375 -0.328125 0.796875q-0.25 0.421875 -0.640625 0.921875q-0.390625 0.5 -0.96875 1.140625l-4.34375 4.828125l0 1.21875l8.6875 0zm11.383087 -5.078125l0 -3.109375q0 -1.265625 -0.296875 -2.234375q-0.28125 -0.984375 -0.828125 -1.65625q-0.5625 -0.671875 -1.359375 -1.015625q-0.796875 -0.359375 -1.8125 -0.359375q-1.015625 0 -1.8125305 0.359375q-0.796875 0.34375 -1.34375 1.015625q-0.546875 0.671875 -0.84375 1.65625q-0.28125 0.96875 -0.28125 2.234375l0 3.109375q0 1.265625 0.28125 2.25q0.296875 0.984375 0.84375 1.640625q0.5625 0.6875 1.359375 1.03125q0.8125305 0.34375 1.8125305 0.34375q1.03125 0 1.8125 -0.34375q0.796875 -0.359375 1.34375 -1.03125q0.546875 -0.65625 0.828125 -1.640625q0.296875 -0.984375 0.296875 -2.25zm-6.8906555 -0.328125q0 -0.234375 0 -0.46875q0 -0.234375 0 -0.453125l0 -2.21875q0 -0.9375 0.1875 -1.640625q0.1875 -0.703125 0.5625 -1.15625q0.32815552 -0.359375 0.7812805 -0.53125q0.46875 -0.1875 1.0625 -0.1875q0.59375 0 1.046875 0.171875q0.453125 0.171875 0.765625 0.515625q0.3125 0.328125 0.5 0.84375q0.1875 0.5 0.265625 1.15625l-5.1719055 3.96875zm5.2031555 0.6875q0 0.96875 -0.203125 1.6875q-0.1875 0.71875 -0.609375 1.171875q-0.3125 0.328125 -0.765625 0.5q-0.4375 0.171875 -1.015625 0.171875q-0.546875 0 -0.984375 -0.15625q-0.4375 -0.15625 -0.7344055 -0.46875q-0.34375 -0.328125 -0.5625 -0.828125q-0.203125 -0.515625 -0.28125 -1.171875l5.1562805 -3.953125q0 0.265625 0 0.65625q0 0.375 0 0.515625l0 1.875zm12.695557 4.71875l0 -1.375l-6.65625 0l3.5625 -3.859375q0.5 -0.546875 0.953125 -1.09375q0.453125 -0.5625 0.796875 -1.125q0.328125 -0.5625 0.53125 -1.140625q0.203125 -0.578125 0.203125 -1.171875q0 -0.796875 -0.28125 -1.46875q-0.28125 -0.671875 -0.796875 -1.15625q-0.515625 -0.5 -1.265625 -0.78125q-0.75 -0.28125 -1.6875 -0.28125q-1.03125 0 -1.828125 0.328125q-0.796875 0.328125 -1.34375 0.890625q-0.546875 0.5625 -0.84375 1.3125q-0.28125 0.734375 -0.28125 1.5625l1.6875 0q0 -0.609375 0.15625 -1.109375q0.15625 -0.515625 0.484375 -0.859375q0.328125 -0.34375 0.8125 -0.53125q0.484375 -0.203125 1.15625 -0.203125q0.546875 0 0.96875 0.1875q0.4375 0.1875 0.75 0.5q0.296875 0.328125 0.453125 0.765625q0.171875 0.421875 0.171875 0.921875q0 0.390625 -0.109375 0.78125q-0.09375 0.375 -0.328125 0.796875q-0.25 0.421875 -0.640625 0.921875q-0.390625 0.5 -0.96875 1.140625l-4.34375 4.828125l0 1.21875l8.6875 0zm5.0236816 -7.4375l0 1.359375l1.203125 0q0.640625 0 1.15625 0.15625q0.53125 0.140625 0.90625 0.4375q0.359375 0.296875 0.5625 0.75q0.203125 0.453125 0.203125 1.078125q0 0.625 -0.1875 1.09375q-0.171875 0.453125 -0.5 0.765625q-0.328125 0.296875 -0.796875 0.453125q-0.453125 0.15625 -1.03125 0.15625q-0.578125 0 -1.046875 -0.15625q-0.46875 -0.171875 -0.796875 -0.484375q-0.328125 -0.296875 -0.5 -0.71875q-0.171875 -0.4375 -0.171875 -0.953125l-1.6875 0q0 0.875 0.328125 1.5625q0.328125 0.6875 0.90625 1.15625q0.5625 0.46875 1.328125 0.71875q0.765625 0.25 1.640625 0.25q0.890625 0 1.65625 -0.265625q0.78125 -0.265625 1.34375 -0.765625q0.5625 -0.484375 0.875 -1.203125q0.328125 -0.71875 0.328125 -1.65625q0 -0.453125 -0.109375 -0.90625q-0.09375 -0.46875 -0.359375 -0.890625q-0.265625 -0.421875 -0.703125 -0.75q-0.421875 -0.34375 -1.078125 -0.5625q0.546875 -0.21875 0.921875 -0.5625q0.390625 -0.34375 0.640625 -0.734375q0.25 -0.375 0.359375 -0.78125q0.125 -0.421875 0.125 -0.796875q0 -0.921875 -0.296875 -1.625q-0.28125 -0.703125 -0.8125 -1.171875q-0.53125 -0.484375 -1.265625 -0.71875q-0.734375 -0.25 -1.625 -0.25q-0.921875 0 -1.6875 0.296875q-0.75 0.28125 -1.28125 0.78125q-0.53125 0.5 -0.828125 1.171875q-0.296875 0.65625 -0.296875 1.421875l1.6875 0q0 -0.515625 0.171875 -0.9375q0.171875 -0.421875 0.5 -0.71875q0.3125 -0.296875 0.75 -0.453125q0.4375 -0.171875 0.984375 -0.171875q0.546875 0 0.984375 0.140625q0.4375 0.140625 0.71875 0.421875q0.296875 0.296875 0.453125 0.734375q0.15625 0.4375 0.15625 1.03125q0 0.5 -0.171875 0.921875q-0.171875 0.421875 -0.5 0.71875q-0.328125 0.3125 -0.828125 0.484375q-0.484375 0.171875 -1.125 0.171875l-1.203125 0z" fill-rule="nonzero"/></g></svg>