<svg version="1.1" viewBox="0.0 0.0 960.0 540.0" fill="none" stroke="none" stroke-linecap="square" stroke-miterlimit="10" xmlns:xlink="http://www.w3.org/1999/xlink" xmlns="http://www.w3.org/2000/svg"><clipPath id="g2430c13eed7_0_0.0"><path d="m0 0l960.0 0l0 540.0l-960.0 0l0 -540.0z" clip-rule="nonzero"/></clipPath><g clip-path="url(#g2430c13eed7_0_0.0)"><path fill="#000000" d="m0 0l960.0 0l0 540.0l-960.0 0z" fill-rule="evenodd"/><defs><linearGradient id="g2430c13eed7_0_0.1" gradientUnits="userSpaceOnUse" gradientTransform="matrix(11.694287350166208 0.0 0.0 11.694287350166208 0.0 0.0)" spreadMethod="pad" x1="23.294456971500868" y1="17.612257789677365" x2="23.294413135462104" y2="29.30654513976141"><stop offset="0.0" stop-color="#111111"/><stop offset="1.0" stop-color="#262626"/></linearGradient></defs><path fill="url(#g2430c13eed7_0_0.1)" d="m272.41208 217.12328l0 0c0 -6.163513 4.9964905 -11.160019 11.160004 -11.160019l104.32565 0c2.9598083 0 5.798401 1.1757812 7.891327 3.268692c2.0928955 2.0929108 3.2686768 4.9315033 3.2686768 7.891327l0 114.43587c0 6.163513 -4.996521 11.160004 -11.160004 11.160004l-104.32565 0c-6.163513 0 -11.160004 -4.9964905 -11.160004 -11.160004z" fill-rule="evenodd"/><path stroke="#333333" stroke-width="1.0" stroke-linejoin="round" stroke-linecap="butt" d="m272.41208 217.12328l0 0c0 -6.163513 4.9964905 -11.160019 11.160004 -11.160019l104.32565 0c2.9598083 0 5.798401 1.1757812 7.891327 3.268692c2.0928955 2.0929108 3.2686768 4.9315033 3.2686768 7.891327l0 114.43587c0 6.163513 -4.996521 11.160004 -11.160004 11.160004l-104.32565 0c-6.163513 0 -11.160004 -4.9964905 -11.160004 -11.160004z" fill-rule="evenodd"/><defs><linearGradient id="g2430c13eed7_0_0.2" gradientUnits="userSpaceOnUse" gradientTransform="matrix(13.593669958627006 0.0 0.0 13.593669958627006 0.0 0.0)" spreadMethod="pad" x1="41.7022879643952" y1="11.617809831401015" x2="41.70223969428263" y2="25.21147978994232"><stop offset="0.0" stop-color="#696969"/><stop offset="1.0" stop-color="#1d1d1d"/></linearGradient></defs><path fill="url(#g2430c13eed7_0_0.2)" d="m566.88715 169.08916l0 0c0 -6.163513 4.996521 -11.160019 11.160034 -11.160019l104.32562 0c2.9598389 0 5.798401 1.1757812 7.8912964 3.268692c2.0928955 2.0929108 3.2687378 4.9315033 3.2687378 7.891327l0 162.46736c0 6.163513 -4.996521 11.160004 -11.160034 11.160004l-104.32562 0c-6.163513 0 -11.160034 -4.9964905 -11.160034 -11.160004z" fill-rule="evenodd"/><path stroke="#595959" stroke-width="1.0" stroke-linejoin="round" stroke-linecap="butt" d="m566.88715 169.08916l0 0c0 -6.163513 4.996521 -11.160019 11.160034 -11.160019l104.32562 0c2.9598389 0 5.798401 1.1757812 7.8912964 3.268692c2.0928955 2.0929108 3.2687378 4.9315033 3.2687378 7.891327l0 162.46736c0 6.163513 -4.996521 11.160004 -11.160034 11.160004l-104.32562 0c-6.163513 0 -11.160034 -4.9964905 -11.160034 -11.160004z" fill-rule="evenodd"/><path fill="#000000" fill-opacity="0.0" d="m48.0 48.0l414.86615 0l0 19.401573l-414.86615 0z" fill-rule="evenodd"/><path fill="#a9a9a9" d="m48.125 63.36l4.671875 -9.359375l4.6875 9.359375l-9.359375 0z" fill-rule="nonzero"/><path fill="#a9a9a9" d="m76.421875 57.57875l-1.046875 -0.140625q0 0.296875 -0.109375 0.578125q-0.09375 0.265625 -0.265625 0.46875q-0.171875 0.203125 -0.421875 0.328125q-0.234375 0.125 -0.5 0.125q-0.234375 0.015625 -0.453125 -0.046875q-0.21875 -0.0625 -0.4375 -0.171875q-0.171875 -0.09375 -0.359375 -0.234375q-0.1875 -0.140625 -0.390625 -0.3125q-0.3125 -0.25 -0.609375 -0.453125q-0.28125 -0.203125 -0.59375 -0.34375q-0.296875 -0.140625 -0.625 -0.203125q-0.328125 -0.078125 -0.6875 -0.078125q-0.515625 0 -0.953125 0.203125q-0.421875 0.203125 -0.734375 0.5625q-0.3125 0.34375 -0.484375 0.8125q-0.171875 0.46875 -0.171875 0.984375l1.046875 0.140625q0 -0.296875 0.09375 -0.5625q0.109375 -0.265625 0.28125 -0.453125q0.171875 -0.1875 0.40625 -0.296875q0.25 -0.125 0.515625 -0.125q0.1875 0 0.34375 0.03125q0.171875 0.03125 0.34375 0.109375q0.234375 0.09375 0.46875 0.25q0.234375 0.15625 0.5 0.375q0.3125 0.265625 0.59375 0.46875q0.296875 0.203125 0.609375 0.34375q0.296875 0.140625 0.609375 0.21875q0.3125 0.0625 0.6875 0.0625q0.515625 0 0.9375 -0.21875q0.4375 -0.21875 0.75 -0.59375q0.3125 -0.359375 0.484375 -0.828125q0.171875 -0.484375 0.171875 -1.0zm3.6484375 6.765625l4.75 -12.359375l-1.296875 0l-4.75 12.359375l1.296875 0zm13.3203125 -3.234375q0 0.203125 -0.078125 0.390625q-0.078125 0.171875 -0.234375 0.328125q-0.234375 0.234375 -0.671875 0.375q-0.421875 0.140625 -1.0 0.140625q-0.375 0 -0.75 -0.078125q-0.375 -0.078125 -0.671875 -0.265625q-0.3125 -0.1875 -0.53125 -0.484375q-0.203125 -0.3125 -0.234375 -0.765625l-1.4375 0q0 0.546875 0.234375 1.046875q0.25 0.5 0.71875 0.875q0.46875 0.375 1.140625 0.609375q0.671875 0.234375 1.53125 0.234375q0.75 0 1.375 -0.171875q0.640625 -0.1875 1.09375 -0.515625q0.453125 -0.328125 0.703125 -0.78125q0.25 -0.46875 0.25 -1.03125q0 -0.53125 -0.21875 -0.921875q-0.21875 -0.40625 -0.640625 -0.703125q-0.421875 -0.296875 -1.046875 -0.515625q-0.609375 -0.21875 -1.390625 -0.375q-0.59375 -0.125 -0.984375 -0.25q-0.390625 -0.125 -0.609375 -0.28125q-0.234375 -0.15625 -0.328125 -0.34375q-0.09375 -0.203125 -0.09375 -0.453125q0 -0.234375 0.109375 -0.453125q0.125 -0.234375 0.359375 -0.40625q0.21875 -0.171875 0.5625 -0.265625q0.359375 -0.109375 0.8125 -0.109375q0.453125 0 0.796875 0.125q0.359375 0.125 0.609375 0.328125q0.25 0.203125 0.390625 0.46875q0.140625 0.25 0.140625 0.53125l1.453125 0q0 -0.5625 -0.25 -1.03125q-0.234375 -0.484375 -0.671875 -0.84375q-0.4375 -0.359375 -1.0625 -0.5625q-0.625 -0.203125 -1.40625 -0.203125q-0.71875 0 -1.328125 0.203125q-0.609375 0.1875 -1.046875 0.515625q-0.4375 0.34375 -0.6875 0.796875q-0.234375 0.4375 -0.234375 0.953125q0 0.53125 0.234375 0.921875q0.234375 0.390625 0.671875 0.6875q0.421875 0.296875 1.015625 0.515625q0.59375 0.203125 1.328125 0.34375q0.59375 0.125 0.984375 0.265625q0.40625 0.140625 0.640625 0.3125q0.25 0.171875 0.34375 0.390625q0.109375 0.203125 0.109375 0.453125zm7.7109375 2.40625q1.234375 0 2.078125 -0.5q0.84375 -0.5 1.265625 -1.140625l-0.890625 -0.6875q-0.390625 0.515625 -1.0 0.828125q-0.59375 0.3125 -1.375 0.3125q-0.578125 0 -1.0625 -0.21875q-0.484375 -0.21875 -0.828125 -0.59375q-0.34375 -0.359375 -0.53125 -0.828125q-0.1875 -0.46875 -0.25 -1.09375l0 -0.046875l6.046875 0l0 -0.65625q0 -0.875 -0.234375 -1.625q-0.21875 -0.765625 -0.671875 -1.328125q-0.453125 -0.5625 -1.140625 -0.875q-0.671875 -0.3125 -1.59375 -0.3125q-0.71875 0 -1.421875 0.296875q-0.6875 0.296875 -1.21875 0.84375q-0.546875 0.5625 -0.875 1.375q-0.328125 0.8125 -0.328125 1.828125l0 0.328125q0 0.890625 0.296875 1.640625q0.296875 0.75 0.828125 1.296875q0.53125 0.546875 1.265625 0.859375q0.75 0.296875 1.640625 0.296875zm-0.1875 -7.578125q0.5625 0 0.953125 0.203125q0.40625 0.203125 0.671875 0.53125q0.265625 0.328125 0.40625 0.78125q0.15625 0.4375 0.15625 0.828125l0 0.078125l-4.546875 0q0.09375 -0.59375 0.296875 -1.03125q0.21875 -0.453125 0.53125 -0.765625q0.3125 -0.3125 0.703125 -0.46875q0.390625 -0.15625 0.828125 -0.15625zm9.6640625 6.40625q-0.6875 0 -1.140625 -0.265625q-0.453125 -0.28125 -0.734375 -0.71875q-0.28125 -0.421875 -0.40625 -0.96875q-0.109375 -0.546875 -0.109375 -1.09375l0 -0.328125q0 -0.546875 0.109375 -1.078125q0.125 -0.546875 0.40625 -0.984375q0.28125 -0.4375 0.734375 -0.703125q0.46875 -0.265625 1.140625 -0.265625q0.4375 0 0.8125 0.15625q0.375 0.140625 0.65625 0.390625q0.265625 0.265625 0.421875 0.609375q0.171875 0.328125 0.171875 0.71875l1.375 0q0 -0.640625 -0.265625 -1.203125q-0.25 -0.5625 -0.703125 -0.984375q-0.46875 -0.40625 -1.09375 -0.640625q-0.625 -0.234375 -1.375 -0.234375q-0.96875 0 -1.6875 0.34375q-0.71875 0.34375 -1.1875 0.921875q-0.484375 0.578125 -0.734375 1.34375q-0.234375 0.765625 -0.234375 1.609375l0 0.328125q0 0.84375 0.234375 1.609375q0.25 0.75 0.734375 1.328125q0.46875 0.59375 1.1875 0.9375q0.71875 0.34375 1.6875 0.34375q0.671875 0 1.28125 -0.234375q0.625 -0.234375 1.09375 -0.625q0.484375 -0.375 0.765625 -0.890625q0.28125 -0.515625 0.296875 -1.078125l-1.375 0q0 0.359375 -0.1875 0.65625q-0.171875 0.296875 -0.453125 0.515625q-0.296875 0.234375 -0.671875 0.359375q-0.359375 0.125 -0.75 0.125zm9.4140625 -9.484375l-1.453125 0l0 2.046875l-2.21875 0l0 1.109375l2.21875 0l0 4.59375q0 0.78125 0.203125 1.34375q0.21875 0.546875 0.578125 0.890625q0.359375 0.34375 0.84375 0.515625q0.484375 0.15625 1.046875 0.15625q0.34375 0 0.671875 -0.03125q0.34375 -0.03125 0.65625 -0.09375q0.296875 -0.0625 0.546875 -0.140625q0.265625 -0.078125 0.453125 -0.1875l-0.203125 -1.03125q-0.140625 0.03125 -0.34375 0.078125q-0.203125 0.046875 -0.4375 0.078125q-0.25 0.046875 -0.5 0.078125q-0.25 0.015625 -0.484375 0.015625q-0.3125 0 -0.609375 -0.078125q-0.28125 -0.078125 -0.5 -0.265625q-0.21875 -0.1875 -0.34375 -0.5q-0.125 -0.328125 -0.125 -0.828125l0 -4.59375l3.21875 0l0 -1.109375l-3.21875 0l0 -2.046875zm6.4140625 2.046875l0 1.25l2.875 0l0 5.953125l-2.875 0l0 1.25l7.078125 0l0 -1.25l-2.765625 0l0 -7.203125l-4.3125 0zm2.6875 -2.21875q0 0.34375 0.203125 0.578125q0.21875 0.234375 0.65625 0.234375q0.4375 0 0.65625 -0.234375q0.21875 -0.234375 0.21875 -0.578125q0 -0.203125 -0.0625 -0.359375q-0.0625 -0.171875 -0.1875 -0.28125q-0.109375 -0.09375 -0.265625 -0.15625q-0.15625 -0.0625 -0.359375 -0.0625q-0.203125 0 -0.359375 0.0625q-0.15625 0.0625 -0.265625 0.15625q-0.125 0.125 -0.1875 0.296875q-0.046875 0.15625 -0.046875 0.34375zm6.2734375 6.359375l0 0.171875q0 0.921875 0.265625 1.703125q0.265625 0.78125 0.765625 1.359375q0.5 0.578125 1.203125 0.90625q0.71875 0.328125 1.625 0.328125q0.890625 0 1.59375 -0.328125q0.71875 -0.328125 1.21875 -0.90625q0.484375 -0.578125 0.75 -1.359375q0.265625 -0.78125 0.265625 -1.703125l0 -0.171875q0 -0.90625 -0.265625 -1.6875q-0.265625 -0.796875 -0.75 -1.375q-0.5 -0.578125 -1.21875 -0.90625q-0.71875 -0.328125 -1.609375 -0.328125q-0.890625 0 -1.609375 0.328125q-0.703125 0.328125 -1.203125 0.90625q-0.5 0.578125 -0.765625 1.375q-0.265625 0.78125 -0.265625 1.6875zm1.453125 0.171875l0 -0.171875q0 -0.609375 0.140625 -1.171875q0.15625 -0.578125 0.453125 -1.0q0.296875 -0.4375 0.734375 -0.6875q0.453125 -0.25 1.0625 -0.25q0.59375 0 1.046875 0.25q0.453125 0.25 0.75 0.6875q0.296875 0.421875 0.453125 1.0q0.15625 0.5625 0.15625 1.171875l0 0.171875q0 0.625 -0.15625 1.203125q-0.140625 0.5625 -0.4375 0.984375q-0.3125 0.4375 -0.765625 0.6875q-0.4375 0.25 -1.03125 0.25q-0.609375 0 -1.0625 -0.25q-0.453125 -0.25 -0.75 -0.6875q-0.296875 -0.421875 -0.453125 -0.984375q-0.140625 -0.578125 -0.140625 -1.203125zm8.5546875 4.140625l1.453125 0l0 -6.0625q0.140625 -0.28125 0.34375 -0.5q0.203125 -0.234375 0.4375 -0.40625q0.28125 -0.1875 0.625 -0.296875q0.34375 -0.125 0.75 -0.125q0.453125 0 0.8125 0.109375q0.359375 0.109375 0.609375 0.359375q0.234375 0.234375 0.359375 0.625q0.125 0.390625 0.125 0.953125l0 5.34375l1.453125 0l0 -5.375q0 -0.84375 -0.21875 -1.453125q-0.203125 -0.609375 -0.578125 -1.015625q-0.390625 -0.390625 -0.9375 -0.578125q-0.53125 -0.1875 -1.203125 -0.1875q-0.484375 0 -0.9375 0.140625q-0.4375 0.140625 -0.8125 0.390625q-0.25 0.15625 -0.46875 0.390625q-0.21875 0.21875 -0.40625 0.484375l-0.109375 -1.25l-1.296875 0l0 8.453125zm11.5078125 0.984375l4.75 -12.359375l-1.296875 0l-4.75 12.359375l1.296875 0zm11.3046875 -2.0q-0.6875 0 -1.140625 -0.265625q-0.453125 -0.28125 -0.734375 -0.71875q-0.28125 -0.421875 -0.40625 -0.96875q-0.109375 -0.546875 -0.109375 -1.09375l0 -0.328125q0 -0.546875 0.109375 -1.078125q0.125 -0.546875 0.40625 -0.984375q0.28125 -0.4375 0.734375 -0.703125q0.46875 -0.265625 1.140625 -0.265625q0.4375 0 0.8125 0.15625q0.375 0.140625 0.65625 0.390625q0.265625 0.265625 0.421875 0.609375q0.171875 0.328125 0.171875 0.71875l1.375 0q0 -0.640625 -0.265625 -1.203125q-0.25 -0.5625 -0.703125 -0.984375q-0.46875 -0.40625 -1.09375 -0.640625q-0.625 -0.234375 -1.375 -0.234375q-0.96875 0 -1.6875 0.34375q-0.71875 0.34375 -1.1875 0.921875q-0.484375 0.578125 -0.734375 1.34375q-0.234375 0.765625 -0.234375 1.609375l0 0.328125q0 0.84375 0.234375 1.609375q0.25 0.75 0.734375 1.328125q0.46875 0.59375 1.1875 0.9375q0.71875 0.34375 1.6875 0.34375q0.671875 0 1.28125 -0.234375q0.625 -0.234375 1.09375 -0.625q0.484375 -0.375 0.765625 -0.890625q0.28125 -0.515625 0.296875 -1.078125l-1.375 0q0 0.359375 -0.1875 0.65625q-0.171875 0.296875 -0.453125 0.515625q-0.296875 0.234375 -0.671875 0.359375q-0.359375 0.125 -0.75 0.125zm5.5859375 -3.296875l0 0.171875q0 0.921875 0.265625 1.703125q0.265625 0.78125 0.765625 1.359375q0.5 0.578125 1.203125 0.90625q0.71875 0.328125 1.625 0.328125q0.890625 0 1.59375 -0.328125q0.71875 -0.328125 1.21875 -0.90625q0.484375 -0.578125 0.75 -1.359375q0.265625 -0.78125 0.265625 -1.703125l0 -0.171875q0 -0.90625 -0.265625 -1.6875q-0.265625 -0.796875 -0.75 -1.375q-0.5 -0.578125 -1.21875 -0.90625q-0.71875 -0.328125 -1.609375 -0.328125q-0.890625 0 -1.609375 0.328125q-0.703125 0.328125 -1.203125 0.90625q-0.5 0.578125 -0.765625 1.375q-0.265625 0.78125 -0.265625 1.6875zm1.453125 0.171875l0 -0.171875q0 -0.609375 0.140625 -1.171875q0.15625 -0.578125 0.453125 -1.0q0.296875 -0.4375 0.734375 -0.6875q0.453125 -0.25 1.0625 -0.25q0.59375 0 1.046875 0.25q0.453125 0.25 0.75 0.6875q0.296875 0.421875 0.453125 1.0q0.15625 0.5625 0.15625 1.171875l0 0.171875q0 0.625 -0.15625 1.203125q-0.140625 0.5625 -0.4375 0.984375q-0.3125 0.4375 -0.765625 0.6875q-0.4375 0.25 -1.03125 0.25q-0.609375 0 -1.0625 -0.25q-0.453125 -0.25 -0.75 -0.6875q-0.296875 -0.421875 -0.453125 -0.984375q-0.140625 -0.578125 -0.140625 -1.203125zm8.5546875 4.140625l1.453125 0l0 -6.0625q0.140625 -0.28125 0.34375 -0.5q0.203125 -0.234375 0.4375 -0.40625q0.28125 -0.1875 0.625 -0.296875q0.34375 -0.125 0.75 -0.125q0.453125 0 0.8125 0.109375q0.359375 0.109375 0.609375 0.359375q0.234375 0.234375 0.359375 0.625q0.125 0.390625 0.125 0.953125l0 5.34375l1.453125 0l0 -5.375q0 -0.84375 -0.21875 -1.453125q-0.203125 -0.609375 -0.578125 -1.015625q-0.390625 -0.390625 -0.9375 -0.578125q-0.53125 -0.1875 -1.203125 -0.1875q-0.484375 0 -0.9375 0.140625q-0.4375 0.140625 -0.8125 0.390625q-0.25 0.15625 -0.46875 0.390625q-0.21875 0.21875 -0.40625 0.484375l-0.109375 -1.25l-1.296875 0l0 8.453125zm13.0234375 -10.5l-1.453125 0l0 2.046875l-2.21875 0l0 1.109375l2.21875 0l0 4.59375q0 0.78125 0.203125 1.34375q0.21875 0.546875 0.578125 0.890625q0.359375 0.34375 0.84375 0.515625q0.484375 0.15625 1.046875 0.15625q0.34375 0 0.671875 -0.03125q0.34375 -0.03125 0.65625 -0.09375q0.296875 -0.0625 0.546875 -0.140625q0.265625 -0.078125 0.453125 -0.1875l-0.203125 -1.03125q-0.140625 0.03125 -0.34375 0.078125q-0.203125 0.046875 -0.4375 0.078125q-0.25 0.046875 -0.5 0.078125q-0.25 0.015625 -0.484375 0.015625q-0.3125 0 -0.609375 -0.078125q-0.28125 -0.078125 -0.5 -0.265625q-0.21875 -0.1875 -0.34375 -0.5q-0.125 -0.328125 -0.125 -0.828125l0 -4.59375l3.21875 0l0 -1.109375l-3.21875 0l0 -2.046875zm9.9140625 10.65625q1.234375 0 2.078125 -0.5q0.84375 -0.5 1.265625 -1.140625l-0.890625 -0.6875q-0.390625 0.515625 -1.0 0.828125q-0.59375 0.3125 -1.375 0.3125q-0.578125 0 -1.0625 -0.21875q-0.484375 -0.21875 -0.828125 -0.59375q-0.34375 -0.359375 -0.53125 -0.828125q-0.1875 -0.46875 -0.25 -1.09375l0 -0.046875l6.046875 0l0 -0.65625q0 -0.875 -0.234375 -1.625q-0.21875 -0.765625 -0.671875 -1.328125q-0.453125 -0.5625 -1.140625 -0.875q-0.671875 -0.3125 -1.59375 -0.3125q-0.71875 0 -1.421875 0.296875q-0.6875 0.296875 -1.21875 0.84375q-0.546875 0.5625 -0.875 1.375q-0.328125 0.8125 -0.328125 1.828125l0 0.328125q0 0.890625 0.296875 1.640625q0.296875 0.75 0.828125 1.296875q0.53125 0.546875 1.265625 0.859375q0.75 0.296875 1.640625 0.296875zm-0.1875 -7.578125q0.5625 0 0.953125 0.203125q0.40625 0.203125 0.671875 0.53125q0.265625 0.328125 0.40625 0.78125q0.15625 0.4375 0.15625 0.828125l0 0.078125l-4.546875 0q0.09375 -0.59375 0.296875 -1.03125q0.21875 -0.453125 0.53125 -0.765625q0.3125 -0.3125 0.703125 -0.46875q0.390625 -0.15625 0.828125 -0.15625zm6.0546875 7.421875l1.453125 0l0 -6.0625q0.140625 -0.28125 0.34375 -0.5q0.203125 -0.234375 0.4375 -0.40625q0.28125 -0.1875 0.625 -0.296875q0.34375 -0.125 0.75 -0.125q0.453125 0 0.8125 0.109375q0.359375 0.109375 0.609375 0.359375q0.234375 0.234375 0.359375 0.625q0.125 0.390625 0.125 0.953125l0 5.34375l1.453125 0l0 -5.375q0 -0.84375 -0.21875 -1.453125q-0.203125 -0.609375 -0.578125 -1.015625q-0.390625 -0.390625 -0.9375 -0.578125q-0.53125 -0.1875 -1.203125 -0.1875q-0.484375 0 -0.9375 0.140625q-0.4375 0.140625 -0.8125 0.390625q-0.25 0.15625 -0.46875 0.390625q-0.21875 0.21875 -0.40625 0.484375l-0.109375 -1.25l-1.296875 0l0 8.453125zm13.0234375 -10.5l-1.453125 0l0 2.046875l-2.21875 0l0 1.109375l2.21875 0l0 4.59375q0 0.78125 0.203125 1.34375q0.21875 0.546875 0.578125 0.890625q0.359375 0.34375 0.84375 0.515625q0.484375 0.15625 1.046875 0.15625q0.34375 0 0.671875 -0.03125q0.34375 -0.03125 0.65625 -0.09375q0.296875 -0.0625 0.546875 -0.140625q0.265625 -0.078125 0.453125 -0.1875l-0.203125 -1.03125q-0.140625 0.03125 -0.34375 0.078125q-0.203125 0.046875 -0.4375 0.078125q-0.25 0.046875 -0.5 0.078125q-0.25 0.015625 -0.484375 0.015625q-0.3125 0 -0.609375 -0.078125q-0.28125 -0.078125 -0.5 -0.265625q-0.21875 -0.1875 -0.34375 -0.5q-0.125 -0.328125 -0.125 -0.828125l0 -4.59375l3.21875 0l0 -1.109375l-3.21875 0l0 -2.046875zm8.0859375 11.484375l4.75 -12.359375l-1.296875 0l-4.75 12.359375l1.296875 0zm13.3203125 -3.234375q0 0.203125 -0.078125 0.390625q-0.078125 0.171875 -0.234375 0.328125q-0.234375 0.234375 -0.671875 0.375q-0.421875 0.140625 -1.0 0.140625q-0.375 0 -0.75 -0.078125q-0.375 -0.078125 -0.671875 -0.265625q-0.3125 -0.1875 -0.53125 -0.484375q-0.203125 -0.3125 -0.234375 -0.765625l-1.4375 0q0 0.546875 0.234375 1.046875q0.25 0.5 0.71875 0.875q0.46875 0.375 1.140625 0.609375q0.671875 0.234375 1.53125 0.234375q0.75 0 1.375 -0.171875q0.640625 -0.1875 1.09375 -0.515625q0.453125 -0.328125 0.703125 -0.78125q0.25 -0.46875 0.25 -1.03125q0 -0.53125 -0.21875 -0.921875q-0.21875 -0.40625 -0.640625 -0.703125q-0.421875 -0.296875 -1.046875 -0.515625q-0.609375 -0.21875 -1.390625 -0.375q-0.59375 -0.125 -0.984375 -0.25q-0.390625 -0.125 -0.609375 -0.28125q-0.234375 -0.15625 -0.328125 -0.34375q-0.09375 -0.203125 -0.09375 -0.453125q0 -0.234375 0.109375 -0.453125q0.125 -0.234375 0.359375 -0.40625q0.21875 -0.171875 0.5625 -0.265625q0.359375 -0.109375 0.8125 -0.109375q0.453125 0 0.796875 0.125q0.359375 0.125 0.609375 0.328125q0.25 0.203125 0.390625 0.46875q0.140625 0.25 0.140625 0.53125l1.453125 0q0 -0.5625 -0.25 -1.03125q-0.234375 -0.484375 -0.671875 -0.84375q-0.4375 -0.359375 -1.0625 -0.5625q-0.625 -0.203125 -1.40625 -0.203125q-0.71875 0 -1.328125 0.203125q-0.609375 0.1875 -1.046875 0.515625q-0.4375 0.34375 -0.6875 0.796875q-0.234375 0.4375 -0.234375 0.953125q0 0.53125 0.234375 0.921875q0.234375 0.390625 0.671875 0.6875q0.421875 0.296875 1.015625 0.515625q0.59375 0.203125 1.328125 0.34375q0.59375 0.125 0.984375 0.265625q0.40625 0.140625 0.640625 0.3125q0.25 0.171875 0.34375 0.390625q0.109375 0.203125 0.109375 0.453125zm7.3984375 -8.25l-1.453125 0l0 2.046875l-2.21875 0l0 1.109375l2.21875 0l0 4.59375q0 0.78125 0.203125 1.34375q0.21875 0.546875 0.578125 0.890625q0.359375 0.34375 0.84375 0.515625q0.484375 0.15625 1.046875 0.15625q0.34375 0 0.671875 -0.03125q0.34375 -0.03125 0.65625 -0.09375q0.296875 -0.0625 0.546875 -0.140625q0.265625 -0.078125 0.453125 -0.1875l-0.203125 -1.03125q-0.140625 0.03125 -0.34375 0.078125q-0.203125 0.046875 -0.4375 0.078125q-0.25 0.046875 -0.5 0.078125q-0.25 0.015625 -0.484375 0.015625q-0.3125 0 -0.609375 -0.078125q-0.28125 -0.078125 -0.5 -0.265625q-0.21875 -0.1875 -0.34375 -0.5q-0.125 -0.328125 -0.125 -0.828125l0 -4.59375l3.21875 0l0 -1.109375l-3.21875 0l0 -2.046875zm11.7421875 10.5l1.5 0l0 -0.125q-0.140625 -0.359375 -0.21875 -0.828125q-0.078125 -0.46875 -0.078125 -0.890625l0 -3.9375q0 -0.703125 -0.265625 -1.234375q-0.25 -0.53125 -0.6875 -0.890625q-0.453125 -0.359375 -1.078125 -0.53125q-0.609375 -0.171875 -1.328125 -0.171875q-0.796875 0 -1.421875 0.21875q-0.609375 0.21875 -1.046875 0.5625q-0.4375 0.359375 -0.671875 0.8125q-0.21875 0.4375 -0.234375 0.90625l1.453125 0q0 -0.265625 0.125 -0.515625q0.140625 -0.25 0.375 -0.421875q0.234375 -0.1875 0.5625 -0.296875q0.34375 -0.109375 0.78125 -0.109375q0.453125 0 0.828125 0.125q0.375 0.109375 0.625 0.328125q0.265625 0.21875 0.40625 0.53125q0.140625 0.296875 0.140625 0.671875l0 0.671875l-1.578125 0q-0.890625 0 -1.609375 0.171875q-0.703125 0.171875 -1.21875 0.515625q-0.5 0.34375 -0.78125 0.875q-0.28125 0.515625 -0.28125 1.21875q0 0.53125 0.203125 0.984375q0.21875 0.453125 0.59375 0.78125q0.375 0.34375 0.921875 0.546875q0.546875 0.1875 1.21875 0.1875q0.40625 0 0.765625 -0.09375q0.375 -0.078125 0.703125 -0.234375q0.328125 -0.140625 0.59375 -0.328125q0.265625 -0.203125 0.484375 -0.421875q0.03125 0.265625 0.078125 0.515625q0.046875 0.234375 0.140625 0.40625zm-2.5625 -1.109375q-0.421875 0 -0.75 -0.109375q-0.3125 -0.109375 -0.515625 -0.296875q-0.21875 -0.1875 -0.328125 -0.453125q-0.09375 -0.265625 -0.09375 -0.578125q0 -0.328125 0.109375 -0.578125q0.125 -0.265625 0.359375 -0.453125q0.328125 -0.265625 0.890625 -0.390625q0.5625 -0.140625 1.3125 -0.140625l1.34375 0l0 1.71875q-0.125 0.25 -0.34375 0.484375q-0.21875 0.21875 -0.515625 0.40625q-0.3125 0.171875 -0.6875 0.28125q-0.359375 0.109375 -0.78125 0.109375zm10.0234375 -9.390625l-1.453125 0l0 2.046875l-2.21875 0l0 1.109375l2.21875 0l0 4.59375q0 0.78125 0.203125 1.34375q0.21875 0.546875 0.578125 0.890625q0.359375 0.34375 0.84375 0.515625q0.484375 0.15625 1.046875 0.15625q0.34375 0 0.671875 -0.03125q0.34375 -0.03125 0.65625 -0.09375q0.296875 -0.0625 0.546875 -0.140625q0.265625 -0.078125 0.453125 -0.1875l-0.203125 -1.03125q-0.140625 0.03125 -0.34375 0.078125q-0.203125 0.046875 -0.4375 0.078125q-0.25 0.046875 -0.5 0.078125q-0.25 0.015625 -0.484375 0.015625q-0.3125 0 -0.609375 -0.078125q-0.28125 -0.078125 -0.5 -0.265625q-0.21875 -0.1875 -0.34375 -0.5q-0.125 -0.328125 -0.125 -0.828125l0 -4.59375l3.21875 0l0 -1.109375l-3.21875 0l0 -2.046875zm11.8046875 8.25q0 0.203125 -0.078125 0.390625q-0.078125 0.171875 -0.234375 0.328125q-0.234375 0.234375 -0.671875 0.375q-0.421875 0.140625 -1.0 0.140625q-0.375 0 -0.75 -0.078125q-0.375 -0.078125 -0.671875 -0.265625q-0.3125 -0.1875 -0.53125 -0.484375q-0.203125 -0.3125 -0.234375 -0.765625l-1.4375 0q0 0.546875 0.234375 1.046875q0.25 0.5 0.71875 0.875q0.46875 0.375 1.140625 0.609375q0.671875 0.234375 1.53125 0.234375q0.75 0 1.375 -0.171875q0.640625 -0.1875 1.09375 -0.515625q0.453125 -0.328125 0.703125 -0.78125q0.25 -0.46875 0.25 -1.03125q0 -0.53125 -0.21875 -0.921875q-0.21875 -0.40625 -0.640625 -0.703125q-0.421875 -0.296875 -1.046875 -0.515625q-0.609375 -0.21875 -1.390625 -0.375q-0.59375 -0.125 -0.984375 -0.25q-0.390625 -0.125 -0.609375 -0.28125q-0.234375 -0.15625 -0.328125 -0.34375q-0.09375 -0.203125 -0.09375 -0.453125q0 -0.234375 0.109375 -0.453125q0.125 -0.234375 0.359375 -0.40625q0.21875 -0.171875 0.5625 -0.265625q0.359375 -0.109375 0.8125 -0.109375q0.453125 0 0.796875 0.125q0.359375 0.125 0.609375 0.328125q0.25 0.203125 0.390625 0.46875q0.140625 0.25 0.140625 0.53125l1.453125 0q0 -0.5625 -0.25 -1.03125q-0.234375 -0.484375 -0.671875 -0.84375q-0.4375 -0.359375 -1.0625 -0.5625q-0.625 -0.203125 -1.40625 -0.203125q-0.71875 0 -1.328125 0.203125q-0.609375 0.1875 -1.046875 0.515625q-0.4375 0.34375 -0.6875 0.796875q-0.234375 0.4375 -0.234375 0.953125q0 0.53125 0.234375 0.921875q0.234375 0.390625 0.671875 0.6875q0.421875 0.296875 1.015625 0.515625q0.59375 0.203125 1.328125 0.34375q0.59375 0.125 0.984375 0.265625q0.40625 0.140625 0.640625 0.3125q0.25 0.171875 0.34375 0.390625q0.109375 0.203125 0.109375 0.453125z" fill-rule="nonzero"/><path fill="#000000" fill-opacity="0.0" d="m48.0 67.2l384.6299 0l0 32.314964l-384.6299 0z" fill-rule="evenodd"/><path fill="#ffffff" d="m48.96875 76.706245l0 -3.296875l15.84375 0l0 3.296875l-5.921875 0l0 16.09375l-3.984375 0l0 -16.09375l-5.9375 0zm18.495651 16.09375l0 -14.546875l3.90625 0l0 14.546875l-3.90625 0zm1.953125 -16.453125q-0.890625 0 -1.515625 -0.578125q-0.625 -0.59375 -0.625 -1.421875q0 -0.84375 0.625 -1.421875q0.625 -0.578125 1.515625 -0.578125q0.890625 0 1.515625 0.578125q0.625 0.578125 0.625 1.421875q0 0.828125 -0.625 1.421875q-0.625 0.578125 -1.515625 0.578125zm12.489365 1.90625l0 2.96875l-8.625 0l0 -2.96875l8.625 0zm-6.625 -3.46875l3.90625 0l0 13.765625q0 0.6875 0.296875 1.015625q0.3125 0.328125 1.03125 0.328125q0.21875 0 0.625 -0.046875q0.40625 -0.0625 0.609375 -0.125l0.5625 2.9375q-0.65625 0.1875 -1.296875 0.265625q-0.640625 0.078125 -1.234375 0.078125q-2.1875 0 -3.34375 -1.0625q-1.15625 -1.0625 -1.15625 -3.0625l0 -14.09375zm13.13942 -1.375l0 19.390625l-3.90625 0l0 -19.390625l3.90625 0zm9.87999 19.671875q-2.21875 0 -3.84375 -0.90625q-1.609375 -0.90625 -2.484375 -2.578125q-0.859375 -1.6875 -0.859375 -4.0q0 -2.25 0.859375 -3.9375q0.859375 -1.6875 2.4375 -2.640625q1.578125 -0.953125 3.703125 -0.953125q1.421875 0 2.65625 0.453125q1.25 0.453125 2.1875 1.375q0.9375 0.921875 1.453125 2.296875q0.53125 1.375 0.53125 3.25l0 1.09375l-12.21875 0l0 -2.4375l10.3125 0l-1.828125 0.640625q0 -1.125 -0.34375 -1.96875q-0.34375 -0.84375 -1.03125 -1.296875q-0.6875 -0.46875 -1.6875 -0.46875q-1.015625 0 -1.71875 0.46875q-0.703125 0.46875 -1.078125 1.28125q-0.359375 0.796875 -0.359375 1.828125l0 1.71875q0 1.265625 0.421875 2.125q0.421875 0.859375 1.171875 1.296875q0.765625 0.421875 1.78125 0.421875q0.703125 0 1.25 -0.1875q0.5625 -0.203125 0.953125 -0.578125q0.40625 -0.390625 0.609375 -0.953125l3.546875 0.671875q-0.359375 1.1875 -1.234375 2.09375q-0.859375 0.90625 -2.171875 1.40625q-1.3125 0.484375 -3.015625 0.484375zm19.535599 -8.703125l0 8.421875l-3.90625 0l0 -19.390625l3.828125 0l0 8.46875l-0.3125 0q0.5625 -1.828125 1.71875 -2.8125q1.171875 -1.0 3.03125 -1.0q1.5 0 2.625 0.65625q1.125 0.65625 1.75 1.890625q0.625 1.234375 0.625 2.9375l0 9.25l-3.90625 0l0 -8.578125q0 -1.359375 -0.703125 -2.125q-0.703125 -0.765625 -1.9375 -0.765625q-0.8125 0 -1.46875 0.359375q-0.640625 0.359375 -1.0 1.046875q-0.34375 0.671875 -0.34375 1.640625zm19.251328 8.703125q-2.21875 0 -3.84375 -0.90625q-1.609375 -0.90625 -2.484375 -2.578125q-0.859375 -1.6875 -0.859375 -4.0q0 -2.25 0.859375 -3.9375q0.859375 -1.6875 2.4375 -2.640625q1.578125 -0.953125 3.703125 -0.953125q1.421875 0 2.65625 0.453125q1.25 0.453125 2.1875 1.375q0.9375 0.921875 1.453125 2.296875q0.53125 1.375 0.53125 3.25l0 1.09375l-12.21875 0l0 -2.4375l10.3125 0l-1.828125 0.640625q0 -1.125 -0.34375 -1.96875q-0.34375 -0.84375 -1.03125 -1.296875q-0.6875 -0.46875 -1.6875 -0.46875q-1.015625 0 -1.71875 0.46875q-0.703125 0.46875 -1.078125 1.28125q-0.359375 0.796875 -0.359375 1.828125l0 1.71875q0 1.265625 0.421875 2.125q0.421875 0.859375 1.171875 1.296875q0.765625 0.421875 1.78125 0.421875q0.703125 0 1.25 -0.1875q0.5625 -0.203125 0.953125 -0.578125q0.40625 -0.390625 0.609375 -0.953125l3.546875 0.671875q-0.359375 1.1875 -1.234375 2.09375q-0.859375 0.90625 -2.171875 1.40625q-1.3125 0.484375 -3.015625 0.484375zm13.639633 0q-1.390625 0 -2.5 -0.484375q-1.09375 -0.484375 -1.71875 -1.453125q-0.625 -0.96875 -0.625 -2.421875q0 -1.203125 0.4375 -2.015625q0.453125 -0.828125 1.21875 -1.3125q0.78125 -0.5 1.765625 -0.765625q0.984375 -0.265625 2.0625 -0.359375q1.265625 -0.140625 2.03125 -0.25q0.78125 -0.109375 1.140625 -0.34375q0.359375 -0.25 0.359375 -0.71875l0 -0.0625q0 -0.625 -0.265625 -1.046875q-0.25 -0.4375 -0.765625 -0.65625q-0.515625 -0.234375 -1.25 -0.234375q-0.75 0 -1.3125 0.234375q-0.5625 0.21875 -0.921875 0.59375q-0.34375 0.375 -0.515625 0.84375l-3.578125 -0.578125q0.375 -1.28125 1.25 -2.15625q0.875 -0.890625 2.171875 -1.359375q1.296875 -0.46875 2.921875 -0.46875q1.171875 0 2.28125 0.28125q1.109375 0.28125 1.984375 0.875q0.875 0.578125 1.390625 1.53125q0.515625 0.9375 0.515625 2.25l0 9.796875l-3.703125 0l0 -2.015625l-0.125 0q-0.359375 0.671875 -0.953125 1.1875q-0.578125 0.515625 -1.40625 0.8125q-0.8125 0.296875 -1.890625 0.296875zm1.09375 -2.734375q0.921875 0 1.625 -0.359375q0.703125 -0.375 1.09375 -1.0q0.390625 -0.625 0.390625 -1.390625l0 -1.578125q-0.171875 0.125 -0.53125 0.234375q-0.34375 0.109375 -0.78125 0.1875q-0.421875 0.078125 -0.84375 0.140625q-0.421875 0.0625 -0.734375 0.09375q-0.71875 0.109375 -1.265625 0.34375q-0.546875 0.234375 -0.84375 0.625q-0.296875 0.375 -0.296875 0.984375q0 0.546875 0.28125 0.9375q0.28125 0.390625 0.78125 0.59375q0.5 0.1875 1.125 0.1875zm15.616348 2.703125q-1.65625 0 -3.015625 -0.859375q-1.34375 -0.875 -2.125 -2.546875q-0.78125 -1.671875 -0.78125 -4.09375q0 -2.484375 0.8125 -4.140625q0.8125 -1.671875 2.140625 -2.5q1.34375 -0.84375 2.96875 -0.84375q1.234375 0 2.046875 0.421875q0.828125 0.40625 1.328125 1.03125q0.515625 0.609375 0.765625 1.171875l0.125 0l0 -7.28125l3.90625 0l0 19.390625l-3.84375 0l0 -2.328125l-0.1875 0q-0.265625 0.578125 -0.78125 1.171875q-0.515625 0.59375 -1.34375 1.0q-0.8125 0.40625 -2.015625 0.40625zm1.21875 -3.140625q0.984375 0 1.6875 -0.546875q0.703125 -0.546875 1.0625 -1.53125q0.375 -0.984375 0.375 -2.296875q0 -1.328125 -0.359375 -2.296875q-0.359375 -0.96875 -1.0625 -1.5q-0.703125 -0.546875 -1.703125 -0.546875q-1.03125 0 -1.734375 0.5625q-0.6875 0.5625 -1.046875 1.546875q-0.34375 0.96875 -0.34375 2.234375q0 1.28125 0.359375 2.265625q0.359375 0.984375 1.046875 1.546875q0.703125 0.5625 1.71875 0.5625zm10.287704 2.890625l0 -14.546875l3.90625 0l0 14.546875l-3.90625 0zm1.953125 -16.453125q-0.890625 0 -1.515625 -0.578125q-0.625 -0.59375 -0.625 -1.421875q0 -0.84375 0.625 -1.421875q0.625 -0.578125 1.515625 -0.578125q0.890625 0 1.515625 0.578125q0.625 0.578125 0.625 1.421875q0 0.828125 -0.625 1.421875q-0.625 0.578125 -1.515625 0.578125zm9.176865 8.03125l0 8.421875l-3.90625 0l0 -14.546875l3.671875 0l0.078125 3.625l-0.234375 0q0.5625 -1.828125 1.71875 -2.8125q1.171875 -1.0 3.03125 -1.0q1.5 0 2.625 0.65625q1.125 0.65625 1.734375 1.890625q0.625 1.234375 0.625 2.9375l0 9.25l-3.890625 0l0 -8.578125q0 -1.359375 -0.703125 -2.125q-0.703125 -0.765625 -1.9375 -0.765625q-0.8125 0 -1.46875 0.359375q-0.640625 0.359375 -1.0 1.046875q-0.34375 0.671875 -0.34375 1.640625zm19.157578 14.171875q-1.828125 0 -3.1875 -0.46875q-1.34375 -0.453125 -2.203125 -1.265625q-0.84375 -0.796875 -1.15625 -1.828125l3.359375 -0.9375q0.171875 0.40625 0.546875 0.78125q0.390625 0.390625 1.03125 0.640625q0.640625 0.25 1.578125 0.25q1.5 0 2.34375 -0.6875q0.859375 -0.6875 0.859375 -2.125l0 -2.6875l-0.296875 0q-0.265625 0.59375 -0.765625 1.140625q-0.484375 0.546875 -1.296875 0.890625q-0.796875 0.34375 -1.984375 0.34375q-1.625 0 -2.96875 -0.765625q-1.34375 -0.78125 -2.15625 -2.34375q-0.796875 -1.578125 -0.796875 -3.984375q0 -2.46875 0.8125 -4.109375q0.828125 -1.65625 2.171875 -2.484375q1.34375 -0.84375 2.953125 -0.84375q1.234375 0 2.0625 0.421875q0.828125 0.40625 1.34375 1.03125q0.515625 0.609375 0.78125 1.171875l0.171875 0l0 -2.4375l3.828125 0l0 14.4375q0 1.953125 -0.90625 3.25q-0.90625 1.3125 -2.5 1.953125q-1.578125 0.65625 -3.625 0.65625zm0.0625 -8.921875q1.0 0 1.6875 -0.5q0.703125 -0.5 1.0625 -1.421875q0.375 -0.9375 0.375 -2.234375q0 -1.28125 -0.375 -2.25q-0.359375 -0.96875 -1.0625 -1.5q-0.6875 -0.53125 -1.6875 -0.53125q-1.03125 0 -1.734375 0.5625q-0.6875 0.546875 -1.046875 1.515625q-0.359375 0.953125 -0.359375 2.203125q0 1.28125 0.359375 2.21875q0.359375 0.921875 1.0625 1.4375q0.703125 0.5 1.71875 0.5z" fill-rule="nonzero"/><path fill="#ffffff" d="m236.87938 406.54236l0 -36.953125l2.34375 0l0 36.953125l-2.34375 0zm1.1875 -3.484375q-3.484375 0 -6.078125 -1.078125q-2.59375 -1.078125 -4.046875 -3.1875q-1.4375 -2.109375 -1.515625 -5.203125l5.8125 0q0.109375 1.46875 0.875 2.453125q0.765625 0.984375 2.03125 1.484375q1.265625 0.484375 2.875 0.484375q1.59375 0 2.765625 -0.453125q1.1875 -0.46875 1.84375 -1.296875q0.671875 -0.84375 0.671875 -1.96875q0 -0.984375 -0.59375 -1.65625q-0.59375 -0.6875 -1.703125 -1.171875q-1.109375 -0.484375 -2.71875 -0.859375l-3.203125 -0.796875q-3.6875 -0.90625 -5.78125 -2.828125q-2.09375 -1.921875 -2.09375 -5.078125q0 -2.640625 1.421875 -4.609375q1.421875 -1.984375 3.890625 -3.078125q2.46875 -1.09375 5.625 -1.09375q3.234375 0 5.625 1.109375q2.40625 1.109375 3.75 3.078125q1.359375 1.953125 1.390625 4.515625l-5.765625 0q-0.15625 -1.765625 -1.5 -2.71875q-1.328125 -0.953125 -3.546875 -0.953125q-1.515625 0 -2.59375 0.4375q-1.0625 0.421875 -1.625 1.1875q-0.546875 0.75 -0.546875 1.734375q0 1.0625 0.640625 1.78125q0.640625 0.71875 1.71875 1.15625q1.078125 0.4375 2.28125 0.734375l2.640625 0.640625q1.828125 0.40625 3.40625 1.109375q1.59375 0.703125 2.78125 1.734375q1.1875 1.015625 1.84375 2.421875q0.65625 1.40625 0.65625 3.25q0 2.640625 -1.328125 4.609375q-1.328125 1.953125 -3.84375 3.03125q-2.515625 1.078125 -6.0625 1.078125zm13.40625 -0.4375l12.01564 -17.09375l0 4.53125l-11.07814 -16.546875l6.9062653 0l3.1875 4.890625q0.90625 1.390625 1.46875 2.5q0.578125 1.09375 1.0625 2.125q0.484375 1.015625 1.0625 2.109375l-1.578125 0q0.578125 -1.09375 1.0625 -2.109375q0.5 -1.015625 1.078125 -2.125q0.59375 -1.109375 1.484375 -2.5l3.25 -4.890625l6.75 0l-10.875 16.21875l0 -4.3125l11.734375 17.203125l-7.0625 0l-4.046875 -6.09375q-0.796875 -1.234375 -1.296875 -2.09375q-0.5 -0.859375 -0.90625 -1.625q-0.390625 -0.78125 -0.921875 -1.734375l0.9375 0q-0.5 0.9375 -0.921875 1.71875q-0.40625 0.765625 -0.921875 1.640625q-0.5 0.859375 -1.3125 2.09375l-4.1875 6.09375l-6.8906403 0zm29.531265 0l12.015625 -17.09375l0 4.53125l-11.078125 -16.546875l6.90625 0l3.1875 4.890625q0.90625 1.390625 1.46875 2.5q0.578125 1.09375 1.0625 2.125q0.484375 1.015625 1.0625 2.109375l-1.578125 0q0.578125 -1.09375 1.0625 -2.109375q0.5 -1.015625 1.078125 -2.125q0.59375 -1.109375 1.484375 -2.5l3.25 -4.890625l6.75 0l-10.875 16.21875l0 -4.3125l11.734375 17.203125l-7.0625 0l-4.046875 -6.09375q-0.796875 -1.234375 -1.296875 -2.09375q-0.5 -0.859375 -0.90625 -1.625q-0.390625 -0.78125 -0.921875 -1.734375l0.9375 0q-0.5 0.9375 -0.921875 1.71875q-0.40625 0.765625 -0.921875 1.640625q-0.5 0.859375 -1.3125 2.09375l-4.1875 6.09375l-6.890625 0zm29.53125 0l12.015625 -17.09375l0 4.53125l-11.078125 -16.546875l6.90625 0l3.1875 4.890625q0.90625 1.390625 1.46875 2.5q0.578125 1.09375 1.0625 2.125q0.484375 1.015625 1.0625 2.109375l-1.578125 0q0.578125 -1.09375 1.0625 -2.109375q0.5 -1.015625 1.078125 -2.125q0.59375 -1.109375 1.484375 -2.5l3.25 -4.890625l6.75 0l-10.875 16.21875l0 -4.3125l11.734375 17.203125l-7.0625 0l-4.046875 -6.09375q-0.796875 -1.234375 -1.296875 -2.09375q-0.5 -0.859375 -0.90625 -1.625q-0.390625 -0.78125 -0.921875 -1.734375l0.9375 0q-0.5 0.9375 -0.921875 1.71875q-0.40625 0.765625 -0.921875 1.640625q-0.5 0.859375 -1.3125 2.09375l-4.1875 6.09375l-6.890625 0zm30.84375 7.703125l1.71875 -12.109375l5.859375 0l-3.59375 12.109375l-3.984375 0zm12.046875 -7.703125l12.015625 -17.09375l0 4.53125l-11.078125 -16.546875l6.90625 0l3.1875 4.890625q0.90625 1.390625 1.46875 2.5q0.578125 1.09375 1.0625 2.125q0.484375 1.015625 1.0625 2.109375l-1.578125 0q0.578125 -1.09375 1.0625 -2.109375q0.5 -1.015625 1.078125 -2.125q0.59375 -1.109375 1.484375 -2.5l3.25 -4.890625l6.75 0l-10.875 16.21875l0 -4.3125l11.734375 17.203125l-7.0625 0l-4.046875 -6.09375q-0.796875 -1.234375 -1.296875 -2.09375q-0.5 -0.859375 -0.90625 -1.625q-0.390625 -0.78125 -0.921875 -1.734375l0.9375 0q-0.5 0.9375 -0.921875 1.71875q-0.40625 0.765625 -0.921875 1.640625q-0.5 0.859375 -1.3125 2.09375l-4.1875 6.09375l-6.890625 0zm29.53125 0l12.015625 -17.09375l0 4.53125l-11.078125 -16.546875l6.90625 0l3.1875 4.890625q0.90625 1.390625 1.46875 2.5q0.578125 1.09375 1.0625 2.125q0.484375 1.015625 1.0625 2.109375l-1.578125 0q0.578125 -1.09375 1.0625 -2.109375q0.5 -1.015625 1.078125 -2.125q0.59375 -1.109375 1.484375 -2.5l3.25 -4.890625l6.75 0l-10.875 16.21875l0 -4.3125l11.734375 17.203125l-7.0625 0l-4.046875 -6.09375q-0.796875 -1.234375 -1.296875 -2.09375q-0.5 -0.859375 -0.90625 -1.625q-0.390625 -0.78125 -0.921875 -1.734375l0.9375 0q-0.5 0.9375 -0.921875 1.71875q-0.40625 0.765625 -0.921875 1.640625q-0.5 0.859375 -1.3125 2.09375l-4.1875 6.09375l-6.890625 0zm29.53125 0l12.015625 -17.09375l0 4.53125l-11.078125 -16.546875l6.90625 0l3.1875 4.890625q0.90625 1.390625 1.46875 2.5q0.578125 1.09375 1.0625 2.125q0.484375 1.015625 1.0625 2.109375l-1.578125 0q0.578125 -1.09375 1.0625 -2.109375q0.5 -1.015625 1.078125 -2.125q0.59375 -1.109375 1.484375 -2.5l3.25 -4.890625l6.75 0l-10.875 16.21875l0 -4.3125l11.734375 17.203125l-7.0625 0l-4.046875 -6.09375q-0.796875 -1.234375 -1.296875 -2.09375q-0.5 -0.859375 -0.90625 -1.625q-0.390625 -0.78125 -0.921875 -1.734375l0.9375 0q-0.5 0.9375 -0.921875 1.71875q-0.40625 0.765625 -0.921875 1.640625q-0.5 0.859375 -1.3125 2.09375l-4.1875 6.09375l-6.890625 0z" fill-rule="nonzero"/><path fill="#ffffff" d="m531.08936 406.54236l0 -36.953125l2.34375 0l0 36.953125l-2.34375 0zm1.1875 -3.484375q-3.484375 0 -6.078125 -1.078125q-2.59375 -1.078125 -4.046875 -3.1875q-1.4375 -2.109375 -1.515625 -5.203125l5.8125 0q0.109375 1.46875 0.875 2.453125q0.765625 0.984375 2.03125 1.484375q1.265625 0.484375 2.875 0.484375q1.59375 0 2.765625 -0.453125q1.1875 -0.46875 1.84375 -1.296875q0.671875 -0.84375 0.671875 -1.96875q0 -0.984375 -0.59375 -1.65625q-0.59375 -0.6875 -1.703125 -1.171875q-1.109375 -0.484375 -2.71875 -0.859375l-3.203125 -0.796875q-3.6875 -0.90625 -5.78125 -2.828125q-2.09375 -1.921875 -2.09375 -5.078125q0 -2.640625 1.421875 -4.609375q1.421875 -1.984375 3.890625 -3.078125q2.46875 -1.09375 5.625 -1.09375q3.234375 0 5.625 1.109375q2.40625 1.109375 3.75 3.078125q1.359375 1.953125 1.390625 4.515625l-5.765625 0q-0.15625 -1.765625 -1.5 -2.71875q-1.328125 -0.953125 -3.546875 -0.953125q-1.515625 0 -2.59375 0.4375q-1.0625 0.421875 -1.625 1.1875q-0.546875 0.75 -0.546875 1.734375q0 1.0625 0.640625 1.78125q0.640625 0.71875 1.71875 1.15625q1.078125 0.4375 2.28125 0.734375l2.640625 0.640625q1.828125 0.40625 3.40625 1.109375q1.59375 0.703125 2.78125 1.734375q1.1875 1.015625 1.84375 2.421875q0.65625 1.40625 0.65625 3.25q0 2.640625 -1.328125 4.609375q-1.328125 1.953125 -3.84375 3.03125q-2.515625 1.078125 -6.0625 1.078125zm13.40625 -0.4375l12.015625 -17.09375l0 4.53125l-11.078125 -16.546875l6.90625 0l3.1875 4.890625q0.90625 1.390625 1.46875 2.5q0.578125 1.09375 1.0625 2.125q0.484375 1.015625 1.0625 2.109375l-1.578125 0q0.578125 -1.09375 1.0625 -2.109375q0.5 -1.015625 1.078125 -2.125q0.59375 -1.109375 1.484375 -2.5l3.25 -4.890625l6.75 0l-10.875 16.21875l0 -4.3125l11.734375 17.203125l-7.0625 0l-4.046875 -6.09375q-0.796875 -1.234375 -1.296875 -2.09375q-0.5 -0.859375 -0.90625 -1.625q-0.390625 -0.78125 -0.921875 -1.734375l0.9375 0q-0.5 0.9375 -0.921875 1.71875q-0.40625 0.765625 -0.921875 1.640625q-0.5 0.859375 -1.3125 2.09375l-4.1875 6.09375l-6.890625 0zm29.53125 0l12.015625 -17.09375l0 4.53125l-11.078125 -16.546875l6.90625 0l3.1875 4.890625q0.90625 1.390625 1.46875 2.5q0.578125 1.09375 1.0625 2.125q0.484375 1.015625 1.0625 2.109375l-1.578125 0q0.578125 -1.09375 1.0625 -2.109375q0.5 -1.015625 1.078125 -2.125q0.59375 -1.109375 1.484375 -2.5l3.25 -4.890625l6.75 0l-10.875 16.21875l0 -4.3125l11.734375 17.203125l-7.0625 0l-4.046875 -6.09375q-0.796875 -1.234375 -1.296875 -2.09375q-0.5 -0.859375 -0.90625 -1.625q-0.390625 -0.78125 -0.921875 -1.734375l0.9375 0q-0.5 0.9375 -0.921875 1.71875q-0.40625 0.765625 -0.921875 1.640625q-0.5 0.859375 -1.3125 2.09375l-4.1875 6.09375l-6.890625 0zm29.53125 0l12.015625 -17.09375l0 4.53125l-11.078125 -16.546875l6.90625 0l3.1875 4.890625q0.90625 1.390625 1.46875 2.5q0.578125 1.09375 1.0625 2.125q0.484375 1.015625 1.0625 2.109375l-1.578125 0q0.578125 -1.09375 1.0625 -2.109375q0.5 -1.015625 1.078125 -2.125q0.59375 -1.109375 1.484375 -2.5l3.25 -4.890625l6.75 0l-10.875 16.21875l0 -4.3125l11.734375 17.203125l-7.0625 0l-4.046875 -6.09375q-0.796875 -1.234375 -1.296875 -2.09375q-0.5 -0.859375 -0.90625 -1.625q-0.390625 -0.78125 -0.921875 -1.734375l0.9375 0q-0.5 0.9375 -0.921875 1.71875q-0.40625 0.765625 -0.921875 1.640625q-0.5 0.859375 -1.3125 2.09375l-4.1875 6.09375l-6.890625 0zm30.84375 7.703125l1.71875 -12.109375l5.859375 0l-3.59375 12.109375l-3.984375 0zm12.046875 -7.703125l12.015625 -17.09375l0 4.53125l-11.078125 -16.546875l6.90625 0l3.1875 4.890625q0.90625 1.390625 1.46875 2.5q0.578125 1.09375 1.0625 2.125q0.484375 1.015625 1.0625 2.109375l-1.578125 0q0.578125 -1.09375 1.0625 -2.109375q0.5 -1.015625 1.078125 -2.125q0.59375 -1.109375 1.484375 -2.5l3.25 -4.890625l6.75 0l-10.875 16.21875l0 -4.3125l11.734375 17.203125l-7.0625 0l-4.046875 -6.09375q-0.796875 -1.234375 -1.296875 -2.09375q-0.5 -0.859375 -0.90625 -1.625q-0.390625 -0.78125 -0.921875 -1.734375l0.9375 0q-0.5 0.9375 -0.921875 1.71875q-0.40625 0.765625 -0.921875 1.640625q-0.5 0.859375 -1.3125 2.09375l-4.1875 6.09375l-6.890625 0zm29.53125 0l12.015625 -17.09375l0 4.53125l-11.078125 -16.546875l6.90625 0l3.1875 4.890625q0.90625 1.390625 1.46875 2.5q0.578125 1.09375 1.0625 2.125q0.484375 1.015625 1.0625 2.109375l-1.578125 0q0.578125 -1.09375 1.0625 -2.109375q0.5 -1.015625 1.078125 -2.125q0.59375 -1.109375 1.484375 -2.5l3.25 -4.890625l6.75 0l-10.875 16.21875l0 -4.3125l11.734375 17.203125l-7.0625 0l-4.046875 -6.09375q-0.796875 -1.234375 -1.296875 -2.09375q-0.5 -0.859375 -0.90625 -1.625q-0.390625 -0.78125 -0.921875 -1.734375l0.9375 0q-0.5 0.9375 -0.921875 1.71875q-0.40625 0.765625 -0.921875 1.640625q-0.5 0.859375 -1.3125 2.09375l-4.1875 6.09375l-6.890625 0zm29.53125 0l12.015625 -17.09375l0 4.53125l-11.078125 -16.546875l6.90625 0l3.1875 4.890625q0.90625 1.390625 1.46875 2.5q0.578125 1.09375 1.0625 2.125q0.484375 1.015625 1.0625 2.109375l-1.578125 0q0.578125 -1.09375 1.0625 -2.109375q0.5 -1.015625 1.078125 -2.125q0.59375 -1.109375 1.484375 -2.5l3.25 -4.890625l6.75 0l-10.875 16.21875l0 -4.3125l11.734375 17.203125l-7.0625 0l-4.046875 -6.09375q-0.796875 -1.234375 -1.296875 -2.09375q-0.5 -0.859375 -0.90625 -1.625q-0.390625 -0.78125 -0.921875 -1.734375l0.9375 0q-0.5 0.9375 -0.921875 1.71875q-0.40625 0.765625 -0.921875 1.640625q-0.5 0.859375 -1.3125 2.09375l-4.1875 6.09375l-6.890625 0z" fill-rule="nonzero"/><path fill="#666666" d="m321.14432 449.5222q-1.6875 0 -2.953125 -0.625q-1.25 -0.625 -1.953125 -1.734375q-0.6875 -1.109375 -0.6875 -2.59375l0 -8.8125l2.78125 0l0 8.59375q0 0.78125 0.34375 1.40625q0.34375 0.609375 0.96875 0.96875q0.640625 0.34375 1.5 0.34375q0.84375 0 1.484375 -0.34375q0.640625 -0.359375 0.984375 -0.96875q0.34375 -0.625 0.34375 -1.40625l0 -8.59375l2.796875 0l0 8.8125q0 1.484375 -0.703125 2.59375q-0.703125 1.109375 -1.96875 1.734375q-1.25 0.625 -2.9375 0.625zm10.733246 -6.078125l0 5.890625l-2.734375 0l0 -10.1875l2.578125 0l0.046875 2.546875l-0.171875 0q0.40625 -1.28125 1.21875 -1.96875q0.8125 -0.703125 2.109375 -0.703125q1.046875 0 1.828125 0.46875q0.796875 0.453125 1.234375 1.3125q0.4375 0.859375 0.4375 2.046875l0 6.484375l-2.734375 0l0 -6.0q0 -0.953125 -0.5 -1.484375q-0.484375 -0.546875 -1.34375 -0.546875q-0.578125 0 -1.03125 0.25q-0.4375 0.25 -0.6875 0.734375q-0.25 0.46875 -0.25 1.15625zm8.880249 5.890625l0 -10.1875l2.734375 0l0 10.1875l-2.734375 0zm1.359375 -11.515625q-0.609375 0 -1.046875 -0.40625q-0.4375 -0.40625 -0.4375 -1.0q0 -0.578125 0.4375 -0.984375q0.4375 -0.40625 1.046875 -0.40625q0.625 0 1.0625 0.40625q0.453125 0.390625 0.453125 0.984375q0 0.59375 -0.453125 1.0q-0.4375 0.40625 -1.0625 0.40625zm8.743256 1.328125l0 2.09375l-6.03125 0l0 -2.09375l6.03125 0zm-4.640625 -2.421875l2.734375 0l0 9.625q0 0.484375 0.21875 0.71875q0.21875 0.234375 0.71875 0.234375q0.15625 0 0.4375 -0.03125q0.28125 -0.046875 0.421875 -0.09375l0.390625 2.0625q-0.453125 0.125 -0.90625 0.171875q-0.453125 0.0625 -0.859375 0.0625q-1.53125 0 -2.34375 -0.734375q-0.8125 -0.75 -0.8125 -2.140625l0 -9.875z" fill-rule="nonzero"/><path fill="#a9a9a9" d="m615.35425 449.5222q-1.6875 0 -2.953125 -0.625q-1.25 -0.625 -1.953125 -1.734375q-0.6875 -1.109375 -0.6875 -2.59375l0 -8.8125l2.78125 0l0 8.59375q0 0.78125 0.34375 1.40625q0.34375 0.609375 0.96875 0.96875q0.640625 0.34375 1.5 0.34375q0.84375 0 1.484375 -0.34375q0.640625 -0.359375 0.984375 -0.96875q0.34375 -0.625 0.34375 -1.40625l0 -8.59375l2.796875 0l0 8.8125q0 1.484375 -0.703125 2.59375q-0.703125 1.109375 -1.96875 1.734375q-1.25 0.625 -2.9375 0.625zm10.733276 -6.078125l0 5.890625l-2.734375 0l0 -10.1875l2.578125 0l0.046875 2.546875l-0.171875 0q0.40625 -1.28125 1.21875 -1.96875q0.8125 -0.703125 2.109375 -0.703125q1.046875 0 1.828125 0.46875q0.796875 0.453125 1.234375 1.3125q0.4375 0.859375 0.4375 2.046875l0 6.484375l-2.734375 0l0 -6.0q0 -0.953125 -0.5 -1.484375q-0.484375 -0.546875 -1.34375 -0.546875q-0.578125 0 -1.03125 0.25q-0.4375 0.25 -0.6875 0.734375q-0.25 0.46875 -0.25 1.15625zm8.880249 5.890625l0 -10.1875l2.734375 0l0 10.1875l-2.734375 0zm1.359375 -11.515625q-0.609375 0 -1.046875 -0.40625q-0.4375 -0.40625 -0.4375 -1.0q0 -0.578125 0.4375 -0.984375q0.4375 -0.40625 1.046875 -0.40625q0.625 0 1.0625 0.40625q0.453125 0.390625 0.453125 0.984375q0 0.59375 -0.453125 1.0q-0.4375 0.40625 -1.0625 0.40625zm8.743286 1.328125l0 2.09375l-6.03125 0l0 -2.09375l6.03125 0zm-4.640625 -2.421875l2.734375 0l0 9.625q0 0.484375 0.21875 0.71875q0.21875 0.234375 0.71875 0.234375q0.15625 0 0.4375 -0.03125q0.28125 -0.046875 0.421875 -0.09375l0.390625 2.0625q-0.453125 0.125 -0.90625 0.171875q-0.453125 0.0625 -0.859375 0.0625q-1.53125 0 -2.34375 -0.734375q-0.8125 -0.75 -0.8125 -2.140625l0 -9.875z" fill-rule="nonzero"/><path fill="#000000" fill-opacity="0.0" d="m566.88715 275.81628l126.64569 0l0 51.716522l-126.64569 0z" fill-rule="evenodd"/><path fill="#f8f8f8" d="m597.65 310.41626l8.015625 -11.390625l0 3.015625l-7.390625 -11.015625l4.609375 0l2.125 3.25q0.59375 0.921875 0.984375 1.65625q0.390625 0.734375 0.703125 1.421875q0.3125 0.6875 0.703125 1.40625l-1.046875 0q0.390625 -0.71875 0.71875 -1.390625q0.328125 -0.6875 0.71875 -1.421875q0.390625 -0.75 0.984375 -1.671875l2.15625 -3.25l4.5 0l-7.25 10.796875l0 -2.875l7.828125 11.46875l-4.71875 0l-2.6875 -4.0625q-0.53125 -0.8125 -0.875 -1.390625q-0.328125 -0.578125 -0.59375 -1.078125q-0.265625 -0.515625 -0.609375 -1.15625l0.625 0q-0.34375 0.625 -0.625 1.140625q-0.265625 0.5 -0.609375 1.09375q-0.328125 0.578125 -0.875 1.390625l-2.78125 4.0625l-4.609375 0zm19.67981 0l8.015625 -11.390625l0 3.015625l-7.390625 -11.015625l4.609375 0l2.125 3.25q0.59375 0.921875 0.984375 1.65625q0.390625 0.734375 0.703125 1.421875q0.3125 0.6875 0.703125 1.40625l-1.046875 0q0.390625 -0.71875 0.71875 -1.390625q0.328125 -0.6875 0.71875 -1.421875q0.390625 -0.75 0.984375 -1.671875l2.15625 -3.25l4.5 0l-7.25 10.796875l0 -2.875l7.828125 11.46875l-4.71875 0l-2.6875 -4.0625q-0.53125 -0.8125 -0.875 -1.390625q-0.328125 -0.578125 -0.59375 -1.078125q-0.265625 -0.515625 -0.609375 -1.15625l0.625 0q-0.34375 0.625 -0.625 1.140625q-0.265625 0.5 -0.609375 1.09375q-0.328125 0.578125 -0.875 1.390625l-2.78125 4.0625l-4.609375 0zm25.67981 -10.140625q-1.390625 0 -2.328125 -0.578125q-0.9375 -0.59375 -1.421875 -1.5625q-0.484375 -0.984375 -0.484375 -2.125l0 -1.015625q0 -1.171875 0.484375 -2.140625q0.5 -0.96875 1.4375 -1.546875q0.953125 -0.59375 2.3125 -0.59375q1.375 0 2.3125 0.59375q0.953125 0.578125 1.421875 1.546875q0.484375 0.96875 0.484375 2.140625l0 1.015625q0 1.171875 -0.484375 2.140625q-0.484375 0.96875 -1.4375 1.546875q-0.9375 0.578125 -2.296875 0.578125zm0 -2.375q0.859375 0 1.171875 -0.578125q0.328125 -0.59375 0.328125 -1.3125l0 -1.015625q0 -0.703125 -0.3125 -1.3125q-0.296875 -0.609375 -1.1875 -0.609375q-0.859375 0 -1.203125 0.625q-0.328125 0.625 -0.328125 1.296875l0 1.015625q0 0.71875 0.328125 1.3125q0.34375 0.578125 1.203125 0.578125zm13.765625 12.859375q-1.359375 0 -2.3125 -0.578125q-0.9375 -0.59375 -1.4375 -1.5625q-0.484375 -0.984375 -0.484375 -2.140625l0 -1.015625q0 -1.171875 0.5 -2.140625q0.5 -0.96875 1.4375 -1.546875q0.953125 -0.59375 2.296875 -0.59375q1.390625 0 2.328125 0.59375q0.9375 0.578125 1.421875 1.546875q0.484375 0.96875 0.484375 2.140625l0 1.015625q0 1.171875 -0.5 2.15625q-0.484375 0.96875 -1.4375 1.546875q-0.9375 0.578125 -2.296875 0.578125zm0 -2.390625q0.875 0 1.1875 -0.59375q0.328125 -0.59375 0.328125 -1.296875l0 -1.015625q0 -0.703125 -0.3125 -1.296875q-0.3125 -0.609375 -1.203125 -0.609375q-0.859375 0 -1.1875 0.609375q-0.328125 0.609375 -0.328125 1.296875l0 1.015625q0 0.703125 0.328125 1.296875q0.328125 0.59375 1.1875 0.59375zm-14.96875 2.046875l13.328125 -19.390625l2.6875 0l-13.328125 19.390625l-2.6875 0z" fill-rule="nonzero"/></g></svg>