<svg version="1.1" viewBox="0.0 0.0 960.0 540.0" fill="none" stroke="none" stroke-linecap="square" stroke-miterlimit="10" xmlns:xlink="http://www.w3.org/1999/xlink" xmlns="http://www.w3.org/2000/svg"><clipPath id="g12cfdd464d9_0_243.0"><path d="m0 0l960.0 0l0 540.0l-960.0 0l0 -540.0z" clip-rule="nonzero"/></clipPath><g clip-path="url(#g12cfdd464d9_0_243.0)"><path fill="#000000" d="m0 0l960.0 0l0 540.0l-960.0 0z" fill-rule="evenodd"/><path fill="#000000" fill-opacity="0.0" d="m189.1181 231.2126l581.7638 0l0 69.82677l-581.7638 0z" fill-rule="evenodd"/><path fill="#ffffff" d="m315.0 287.1961q-5.59375 0 -9.734375 -1.71875q-4.140625 -1.71875 -6.453125 -5.09375q-2.3125 -3.375 -2.4375 -8.3125l9.28125 0q0.1875 2.34375 1.40625 3.921875q1.21875 1.578125 3.25 2.359375q2.03125 0.78125 4.59375 0.78125q2.5625 0 4.453125 -0.734375q1.890625 -0.734375 2.953125 -2.078125q1.0625 -1.34375 1.0625 -3.125q0 -1.59375 -0.953125 -2.671875q-0.953125 -1.078125 -2.734375 -1.859375q-1.78125 -0.78125 -4.34375 -1.375l-5.125 -1.28125q-5.90625 -1.4375 -9.25 -4.515625q-3.34375 -3.078125 -3.34375 -8.14064q0 -4.21875 2.265625 -7.375q2.265625 -3.15625 6.21875 -4.90625q3.953125 -1.75 9.015625 -1.75q5.15625 0 9.0 1.765625q3.84375 1.765625 6.0 4.90625q2.15625 3.140625 2.21875 7.234375l-9.21875 0q-0.25 -2.8125 -2.390625 -4.34375q-2.140625 -1.53125 -5.703125 -1.53125q-2.40625 0 -4.125 0.6875q-1.71875 0.6875 -2.609375 1.90625q-0.890625 1.21875 -0.890625 2.78125q0 1.71875 1.03125 2.859375q1.03125 1.1406403 2.75 1.8437653q1.71875 0.703125 3.65625 1.171875l4.21875 1.03125q2.9375 0.65625 5.46875 1.78125q2.53125 1.125 4.4375 2.765625q1.90625 1.640625 2.953125 3.890625q1.046875 2.25 1.046875 5.1875q0 4.21875 -2.125 7.359375q-2.125 3.140625 -6.15625 4.859375q-4.03125 1.71875 -9.6875 1.71875zm40.40625 0q-5.34375 0 -9.21875 -2.1875q-3.875 -2.1875 -5.953125 -6.21875q-2.078125 -4.03125 -2.078125 -9.5625q0 -5.40625 2.0625 -9.46875q2.0625 -4.0625153 5.84375 -6.3437653q3.78125 -2.28125 8.875 -2.28125q3.4375 0 6.40625 1.09375q2.96875 1.09375 5.21875 3.296875q2.25 2.2031403 3.515625 5.5156403q1.265625 3.3125 1.265625 7.8125l0 2.625l-29.34375 0l0 -5.875l24.75 0l-4.375 1.5625q0 -2.71875 -0.828125 -4.734375q-0.828125 -2.015625 -2.46875 -3.125q-1.640625 -1.109375 -4.046875 -1.109375q-2.4375 0 -4.140625 1.125q-1.703125 1.125 -2.578125 3.046875q-0.875 1.921875 -0.875 4.390625l0 4.15625q0 3.03125 1.015625 5.09375q1.015625 2.0625 2.84375 3.09375q1.828125 1.03125 4.265625 1.03125q1.65625 0 3.0 -0.46875q1.34375 -0.46875 2.296875 -1.390625q0.953125 -0.921875 1.453125 -2.265625l8.5 1.59375q-0.84375 2.875 -2.9375 5.046875q-2.09375 2.171875 -5.234375 3.359375q-3.140625 1.1875 -7.234375 1.1875zm37.96875 0q-5.28125 0 -9.109375 -2.265625q-3.828125 -2.265625 -5.90625 -6.3125q-2.078125 -4.046875 -2.078125 -9.421875q0 -5.4375 2.078125 -9.484375q2.078125 -4.0468903 5.90625 -6.3125153q3.828125 -2.265625 9.109375 -2.265625q3.09375 0 5.71875 0.8125q2.625 0.8125 4.65625 2.3125q2.03125 1.5 3.34375 3.6562653q1.3125 2.15625 1.8125 4.84375l-8.71875 1.625q-0.28125 -1.375 -0.875 -2.453125q-0.59375 -1.078125 -1.4375 -1.84375q-0.84375 -0.765625 -1.953125 -1.171875q-1.109375 -0.40625 -2.453125 -0.40625q-2.5 0 -4.203125 1.34375q-1.703125 1.34375 -2.5625 3.75q-0.859375 2.40625 -0.859375 5.5625q0 3.09375 0.859375 5.5q0.859375 2.40625 2.5625 3.78125q1.703125 1.375 4.203125 1.375q1.34375 0 2.46875 -0.421875q1.125 -0.421875 2.0 -1.21875q0.875 -0.796875 1.46875 -1.921875q0.59375 -1.125 0.84375 -2.53125l8.71875 1.59375q-0.5 2.78125 -1.8125 4.953125q-1.3125 2.171875 -3.34375 3.734375q-2.03125 1.5625 -4.671875 2.375q-2.640625 0.8125 -5.765625 0.8125zm39.375 -35.625015l0 7.1562653l-20.71875 0l0 -7.1562653l20.71875 0zm-15.90625 -8.3125l9.375 0l0 33.031265q0 1.65625 0.734375 2.453125q0.734375 0.796875 2.453125 0.796875q0.53125 0 1.5 -0.140625q0.96875 -0.140625 1.46875 -0.265625l1.34375 7.03125q-1.5625 0.46875 -3.109375 0.65625q-1.546875 0.1875 -2.953125 0.1875q-5.25 0 -8.03125 -2.5625q-2.78125 -2.5625 -2.78125 -7.34375l0 -33.843765zm22.0 43.250015l0 -34.937515l9.375 0l0 34.937515l-9.375 0zm4.6875 -39.500015q-2.125 0 -3.625 -1.40625q-1.5 -1.40625 -1.5 -3.40625q0 -2.0 1.5 -3.40625q1.5 -1.40625 3.625 -1.40625q2.125 0 3.640625 1.390625q1.515625 1.390625 1.515625 3.421875q0 2.0 -1.515625 3.40625q-1.515625 1.40625 -3.640625 1.40625zm28.28125 40.187515q-5.25 0 -9.09375 -2.265625q-3.84375 -2.265625 -5.921875 -6.3125q-2.078125 -4.046875 -2.078125 -9.421875q0 -5.4375 2.078125 -9.484375q2.078125 -4.0468903 5.921875 -6.3125153q3.84375 -2.265625 9.09375 -2.265625q5.28125 0 9.109375 2.265625q3.828125 2.265625 5.90625 6.3125153q2.078125 4.046875 2.078125 9.484375q0 5.375 -2.078125 9.421875q-2.078125 4.046875 -5.90625 6.3125q-3.828125 2.265625 -9.109375 2.265625zm0 -7.375q2.5 0 4.1875 -1.390625q1.6875 -1.390625 2.53125 -3.8125q0.84375 -2.421875 0.84375 -5.453125q0 -3.09375 -0.84375 -5.5q-0.84375 -2.40625 -2.53125 -3.78125q-1.6875 -1.375 -4.1875 -1.375q-2.5 0 -4.171875 1.375q-1.671875 1.375 -2.515625 3.78125q-0.84375 2.40625 -0.84375 5.5q0 3.03125 0.84375 5.453125q0.84375 2.421875 2.515625 3.8125q1.671875 1.390625 4.171875 1.390625zm33.0 -13.53125l0 20.21875l-9.375 0l0 -34.937515l8.84375 0l0.15625 8.718765l-0.5625 0q1.375 -4.3750153 4.171875 -6.7656403q2.796875 -2.390625 7.234375 -2.390625q3.625 0 6.328125 1.578125q2.703125 1.578125 4.1875 4.5312653q1.484375 2.953125 1.484375 7.046875l0 22.21875l-9.375 0l0 -20.59375q0 -3.25 -1.671875 -5.09375q-1.671875 -1.84375 -4.640625 -1.84375q-1.96875 0 -3.515625 0.859375q-1.546875 0.859375 -2.40625 2.484375q-0.859375 1.625 -0.859375 3.96875zm62.96875 -14.718765l0 7.1562653l-20.71875 0l0 -7.1562653l20.71875 0zm-15.90625 -8.3125l9.375 0l0 33.031265q0 1.65625 0.734375 2.453125q0.734375 0.796875 2.453125 0.796875q0.53125 0 1.5 -0.140625q0.96875 -0.140625 1.46875 -0.265625l1.34375 7.03125q-1.5625 0.46875 -3.109375 0.65625q-1.546875 0.1875 -2.953125 0.1875q-5.25 0 -8.03125 -2.5625q-2.78125 -2.5625 -2.78125 -7.34375l0 -33.843765zm22.0 43.250015l0 -34.937515l9.375 0l0 34.937515l-9.375 0zm4.6875 -39.500015q-2.125 0 -3.625 -1.40625q-1.5 -1.40625 -1.5 -3.40625q0 -2.0 1.5 -3.40625q1.5 -1.40625 3.625 -1.40625q2.125 0 3.640625 1.390625q1.515625 1.390625 1.515625 3.421875q0 2.0 -1.515625 3.40625q-1.515625 1.40625 -3.640625 1.40625zm30.0 4.5625l0 7.1562653l-20.71875 0l0 -7.1562653l20.71875 0zm-15.90625 -8.3125l9.375 0l0 33.031265q0 1.65625 0.734375 2.453125q0.734375 0.796875 2.453125 0.796875q0.53125 0 1.5 -0.140625q0.96875 -0.140625 1.46875 -0.265625l1.34375 7.03125q-1.5625 0.46875 -3.109375 0.65625q-1.546875 0.1875 -2.953125 0.1875q-5.25 0 -8.03125 -2.5625q-2.78125 -2.5625 -2.78125 -7.34375l0 -33.843765zm31.53125 -3.3125l0 46.562515l-9.375 0l0 -46.562515l9.375 0zm23.75 47.250015q-5.34375 0 -9.21875 -2.1875q-3.875 -2.1875 -5.953125 -6.21875q-2.078125 -4.03125 -2.078125 -9.5625q0 -5.40625 2.0625 -9.46875q2.0625 -4.0625153 5.84375 -6.3437653q3.78125 -2.28125 8.875 -2.28125q3.4375 0 6.40625 1.09375q2.96875 1.09375 5.21875 3.296875q2.25 2.2031403 3.515625 5.5156403q1.265625 3.3125 1.265625 7.8125l0 2.625l-29.34375 0l0 -5.875l24.75 0l-4.375 1.5625q0 -2.71875 -0.828125 -4.734375q-0.828125 -2.015625 -2.46875 -3.125q-1.640625 -1.109375 -4.046875 -1.109375q-2.4375 0 -4.140625 1.125q-1.703125 1.125 -2.578125 3.046875q-0.875 1.921875 -0.875 4.390625l0 4.15625q0 3.03125 1.015625 5.09375q1.015625 2.0625 2.84375 3.09375q1.828125 1.03125 4.265625 1.03125q1.65625 0 3.0 -0.46875q1.34375 -0.46875 2.296875 -1.390625q0.953125 -0.921875 1.453125 -2.265625l8.5 1.59375q-0.84375 2.875 -2.9375 5.046875q-2.09375 2.171875 -5.234375 3.359375q-3.140625 1.1875 -7.234375 1.1875z" fill-rule="nonzero"/></g></svg>