<svg version="1.1" viewBox="0.0 0.0 960.0 540.0" fill="none" stroke="none" stroke-linecap="square" stroke-miterlimit="10" xmlns:xlink="http://www.w3.org/1999/xlink" xmlns="http://www.w3.org/2000/svg"><clipPath id="g1c539637564_0_23.0"><path d="m0 0l960.0 0l0 540.0l-960.0 0l0 -540.0z" clip-rule="nonzero"/></clipPath><g clip-path="url(#g1c539637564_0_23.0)"><path fill="#000000" d="m0 0l960.0 0l0 540.0l-960.0 0z" fill-rule="evenodd"/><path fill="#000000" fill-opacity="0.0" d="m30.349081 281.28l899.3071 0l0 48.629913l-899.3071 0z" fill-rule="evenodd"/><path fill="#fafafc" d="m358.1198 292.0775l2.25 0q0.765625 -0.015625 1.4375 -0.234375q0.6875 -0.234375 1.203125 -0.65625q0.515625 -0.4375 0.8125 -1.0625q0.3125 -0.625 0.3125 -1.453125q0 -0.8125 -0.3125 -1.4375q-0.296875 -0.640625 -0.8125 -1.078125q-0.515625 -0.421875 -1.203125 -0.640625q-0.671875 -0.234375 -1.4375 -0.25l-3.6875 0l0 11.375l1.4375 0l0 -4.5625zm0 -1.1875l0 -4.4375l2.25 0q0.5 0 0.921875 0.15625q0.421875 0.15625 0.734375 0.453125q0.3125 0.28125 0.484375 0.703125q0.171875 0.40625 0.171875 0.921875q0 0.515625 -0.171875 0.921875q-0.171875 0.40625 -0.484375 0.6875q-0.3125 0.28125 -0.734375 0.4375q-0.421875 0.140625 -0.921875 0.15625l-2.25 0zm11.7578125 5.90625q1.234375 0 2.078125 -0.5q0.84375 -0.5 1.265625 -1.140625l-0.890625 -0.6875q-0.390625 0.515625 -1.0 0.828125q-0.59375 0.3125 -1.375 0.3125q-0.578125 0 -1.0625 -0.21875q-0.484375 -0.21875 -0.828125 -0.59375q-0.34375 -0.359375 -0.53125 -0.828125q-0.1875 -0.46875 -0.25 -1.09375l0 -0.046875l6.046875 0l0 -0.65625q0 -0.875 -0.234375 -1.625q-0.21875 -0.765625 -0.671875 -1.328125q-0.453125 -0.5625 -1.140625 -0.875q-0.671875 -0.3125 -1.59375 -0.3125q-0.71875 0 -1.421875 0.296875q-0.6875 0.296875 -1.21875 0.84375q-0.546875 0.5625 -0.875 1.375q-0.328125 0.8125 -0.328125 1.828125l0 0.328125q0 0.890625 0.296875 1.640625q0.296875 0.75 0.828125 1.296875q0.53125 0.546875 1.265625 0.859375q0.75 0.296875 1.640625 0.296875zm-0.1875 -7.578125q0.5625 0 0.953125 0.203125q0.40625 0.203125 0.671875 0.53125q0.265625 0.328125 0.40625 0.78125q0.15625 0.4375 0.15625 0.828125l0 0.078125l-4.546875 0q0.09375 -0.59375 0.296875 -1.03125q0.21875 -0.453125 0.53125 -0.765625q0.3125 -0.3125 0.703125 -0.46875q0.390625 -0.15625 0.828125 -0.15625zm11.6015625 -1.1875q-0.921875 0 -1.65625 0.40625q-0.71875 0.390625 -1.234375 1.09375l0 -0.21875l-0.0625 -1.125l-1.375 0l0 8.453125l1.453125 0l0 -5.421875q0.140625 -0.390625 0.34375 -0.703125q0.21875 -0.328125 0.515625 -0.546875q0.3125 -0.25 0.734375 -0.375q0.4375 -0.125 0.96875 -0.125q0.421875 0 0.796875 0.046875q0.375 0.03125 0.796875 0.125l0.203125 -1.40625q-0.21875 -0.09375 -0.65625 -0.140625q-0.4375 -0.0625 -0.828125 -0.0625zm9.6796875 6.359375q0 0.203125 -0.078125 0.390625q-0.078125 0.171875 -0.234375 0.328125q-0.234375 0.234375 -0.671875 0.375q-0.421875 0.140625 -1.0 0.140625q-0.375 0 -0.75 -0.078125q-0.375 -0.078125 -0.671875 -0.265625q-0.3125 -0.1875 -0.53125 -0.484375q-0.203125 -0.3125 -0.234375 -0.765625l-1.4375 0q0 0.546875 0.234375 1.046875q0.25 0.5 0.71875 0.875q0.46875 0.375 1.140625 0.609375q0.671875 0.234375 1.53125 0.234375q0.75 0 1.375 -0.171875q0.640625 -0.1875 1.09375 -0.515625q0.453125 -0.328125 0.703125 -0.78125q0.25 -0.46875 0.25 -1.03125q0 -0.53125 -0.21875 -0.921875q-0.21875 -0.40625 -0.640625 -0.703125q-0.421875 -0.296875 -1.046875 -0.515625q-0.609375 -0.21875 -1.390625 -0.375q-0.59375 -0.125 -0.984375 -0.25q-0.390625 -0.125 -0.609375 -0.28125q-0.234375 -0.15625 -0.328125 -0.34375q-0.09375 -0.203125 -0.09375 -0.453125q0 -0.234375 0.109375 -0.453125q0.125 -0.234375 0.359375 -0.40625q0.21875 -0.171875 0.5625 -0.265625q0.359375 -0.109375 0.8125 -0.109375q0.453125 0 0.796875 0.125q0.359375 0.125 0.609375 0.328125q0.25 0.203125 0.390625 0.46875q0.140625 0.25 0.140625 0.53125l1.453125 0q0 -0.5625 -0.25 -1.03125q-0.234375 -0.484375 -0.671875 -0.84375q-0.4375 -0.359375 -1.0625 -0.5625q-0.625 -0.203125 -1.40625 -0.203125q-0.71875 0 -1.328125 0.203125q-0.609375 0.1875 -1.046875 0.515625q-0.4375 0.34375 -0.6875 0.796875q-0.234375 0.4375 -0.234375 0.953125q0 0.53125 0.234375 0.921875q0.234375 0.390625 0.671875 0.6875q0.421875 0.296875 1.015625 0.515625q0.59375 0.203125 1.328125 0.34375q0.59375 0.125 0.984375 0.265625q0.40625 0.140625 0.640625 0.3125q0.25 0.171875 0.34375 0.390625q0.109375 0.203125 0.109375 0.453125zm3.5703125 -2.0625l0 0.171875q0 0.921875 0.265625 1.703125q0.265625 0.78125 0.765625 1.359375q0.5 0.578125 1.203125 0.90625q0.71875 0.328125 1.625 0.328125q0.890625 0 1.59375 -0.328125q0.71875 -0.328125 1.21875 -0.90625q0.484375 -0.578125 0.75 -1.359375q0.265625 -0.78125 0.265625 -1.703125l0 -0.171875q0 -0.90625 -0.265625 -1.6875q-0.265625 -0.796875 -0.75 -1.375q-0.5 -0.578125 -1.21875 -0.90625q-0.71875 -0.328125 -1.609375 -0.328125q-0.890625 0 -1.609375 0.328125q-0.703125 0.328125 -1.203125 0.90625q-0.5 0.578125 -0.765625 1.375q-0.265625 0.78125 -0.265625 1.6875zm1.453125 0.171875l0 -0.171875q0 -0.609375 0.140625 -1.171875q0.15625 -0.578125 0.453125 -1.0q0.296875 -0.4375 0.734375 -0.6875q0.453125 -0.25 1.0625 -0.25q0.59375 0 1.046875 0.25q0.453125 0.25 0.75 0.6875q0.296875 0.421875 0.453125 1.0q0.15625 0.5625 0.15625 1.171875l0 0.171875q0 0.625 -0.15625 1.203125q-0.140625 0.5625 -0.4375 0.984375q-0.3125 0.4375 -0.765625 0.6875q-0.4375 0.25 -1.03125 0.25q-0.609375 0 -1.0625 -0.25q-0.453125 -0.25 -0.75 -0.6875q-0.296875 -0.421875 -0.453125 -0.984375q-0.140625 -0.578125 -0.140625 -1.203125zm8.5546875 4.140625l1.453125 0l0 -6.0625q0.140625 -0.28125 0.34375 -0.5q0.203125 -0.234375 0.4375 -0.40625q0.28125 -0.1875 0.625 -0.296875q0.34375 -0.125 0.75 -0.125q0.453125 0 0.8125 0.109375q0.359375 0.109375 0.609375 0.359375q0.234375 0.234375 0.359375 0.625q0.125 0.390625 0.125 0.953125l0 5.34375l1.453125 0l0 -5.375q0 -0.84375 -0.21875 -1.453125q-0.203125 -0.609375 -0.578125 -1.015625q-0.390625 -0.390625 -0.9375 -0.578125q-0.53125 -0.1875 -1.203125 -0.1875q-0.484375 0 -0.9375 0.140625q-0.4375 0.140625 -0.8125 0.390625q-0.25 0.15625 -0.46875 0.390625q-0.21875 0.21875 -0.40625 0.484375l-0.109375 -1.25l-1.296875 0l0 8.453125zm19.203125 0l1.453125 0l0 -6.0625q0.140625 -0.28125 0.34375 -0.5q0.203125 -0.234375 0.4375 -0.40625q0.28125 -0.1875 0.625 -0.296875q0.34375 -0.125 0.75 -0.125q0.453125 0 0.8125 0.109375q0.359375 0.109375 0.609375 0.359375q0.234375 0.234375 0.359375 0.625q0.125 0.390625 0.125 0.953125l0 5.34375l1.453125 0l0 -5.375q0 -0.84375 -0.21875 -1.453125q-0.203125 -0.609375 -0.578125 -1.015625q-0.390625 -0.390625 -0.9375 -0.578125q-0.53125 -0.1875 -1.203125 -0.1875q-0.484375 0 -0.9375 0.140625q-0.4375 0.140625 -0.8125 0.390625q-0.25 0.15625 -0.46875 0.390625q-0.21875 0.21875 -0.40625 0.484375l-0.109375 -1.25l-1.296875 0l0 8.453125zm15.1640625 0l1.5 0l0 -0.125q-0.140625 -0.359375 -0.21875 -0.828125q-0.078125 -0.46875 -0.078125 -0.890625l0 -3.9375q0 -0.703125 -0.265625 -1.234375q-0.25 -0.53125 -0.6875 -0.890625q-0.453125 -0.359375 -1.078125 -0.53125q-0.609375 -0.171875 -1.328125 -0.171875q-0.796875 0 -1.421875 0.21875q-0.609375 0.21875 -1.046875 0.5625q-0.4375 0.359375 -0.671875 0.8125q-0.21875 0.4375 -0.234375 0.90625l1.453125 0q0 -0.265625 0.125 -0.515625q0.140625 -0.25 0.375 -0.421875q0.234375 -0.1875 0.5625 -0.296875q0.34375 -0.109375 0.78125 -0.109375q0.453125 0 0.828125 0.125q0.375 0.109375 0.625 0.328125q0.265625 0.21875 0.40625 0.53125q0.140625 0.296875 0.140625 0.671875l0 0.671875l-1.578125 0q-0.890625 0 -1.609375 0.171875q-0.703125 0.171875 -1.21875 0.515625q-0.5 0.34375 -0.78125 0.875q-0.28125 0.515625 -0.28125 1.21875q0 0.53125 0.203125 0.984375q0.21875 0.453125 0.59375 0.78125q0.375 0.34375 0.921875 0.546875q0.546875 0.1875 1.21875 0.1875q0.40625 0 0.765625 -0.09375q0.375 -0.078125 0.703125 -0.234375q0.328125 -0.140625 0.59375 -0.328125q0.265625 -0.203125 0.484375 -0.421875q0.03125 0.265625 0.078125 0.515625q0.046875 0.234375 0.140625 0.40625zm-2.5625 -1.109375q-0.421875 0 -0.75 -0.109375q-0.3125 -0.109375 -0.515625 -0.296875q-0.21875 -0.1875 -0.328125 -0.453125q-0.09375 -0.265625 -0.09375 -0.578125q0 -0.328125 0.109375 -0.578125q0.125 -0.265625 0.359375 -0.453125q0.328125 -0.265625 0.890625 -0.390625q0.5625 -0.140625 1.3125 -0.140625l1.34375 0l0 1.71875q-0.125 0.25 -0.34375 0.484375q-0.21875 0.21875 -0.515625 0.40625q-0.3125 0.171875 -0.6875 0.28125q-0.359375 0.109375 -0.78125 0.109375zm7.2734375 -7.34375l-1.296875 0l0 8.453125l1.375 0l0 -6.734375q0.046875 -0.125 0.109375 -0.234375q0.078125 -0.109375 0.1875 -0.1875q0.125 -0.109375 0.3125 -0.171875q0.203125 -0.0625 0.453125 -0.0625q0.234375 0 0.40625 0.0625q0.1875 0.0625 0.296875 0.1875q0.125 0.125 0.1875 0.328125q0.0625 0.203125 0.0625 0.46875l0 6.34375l1.375 0l0 -6.328125q0 -0.046875 0 -0.078125q0 -0.046875 0 -0.078125q0.015625 -0.203125 0.078125 -0.359375q0.078125 -0.15625 0.203125 -0.28125q0.125 -0.125 0.3125 -0.1875q0.1875 -0.078125 0.453125 -0.078125q0.234375 0 0.421875 0.0625q0.1875 0.0625 0.3125 0.1875q0.109375 0.140625 0.171875 0.34375q0.0625 0.203125 0.0625 0.46875l0 6.328125l1.375 0l0 -6.3125q0 -0.609375 -0.140625 -1.0625q-0.140625 -0.453125 -0.40625 -0.734375q-0.234375 -0.25 -0.59375 -0.375q-0.34375 -0.125 -0.78125 -0.125q-0.328125 0 -0.59375 0.078125q-0.265625 0.078125 -0.484375 0.21875q-0.171875 0.109375 -0.328125 0.265625q-0.140625 0.15625 -0.25 0.34375q-0.09375 -0.203125 -0.21875 -0.359375q-0.109375 -0.15625 -0.265625 -0.265625q-0.203125 -0.140625 -0.46875 -0.203125q-0.265625 -0.078125 -0.609375 -0.078125q-0.59375 0 -1.015625 0.25q-0.40625 0.25 -0.671875 0.703125l-0.03125 -0.796875zm12.6640625 8.609375q1.234375 0 2.078125 -0.5q0.84375 -0.5 1.265625 -1.140625l-0.890625 -0.6875q-0.390625 0.515625 -1.0 0.828125q-0.59375 0.3125 -1.375 0.3125q-0.578125 0 -1.0625 -0.21875q-0.484375 -0.21875 -0.828125 -0.59375q-0.34375 -0.359375 -0.53125 -0.828125q-0.1875 -0.46875 -0.25 -1.09375l0 -0.046875l6.046875 0l0 -0.65625q0 -0.875 -0.234375 -1.625q-0.21875 -0.765625 -0.671875 -1.328125q-0.453125 -0.5625 -1.140625 -0.875q-0.671875 -0.3125 -1.59375 -0.3125q-0.71875 0 -1.421875 0.296875q-0.6875 0.296875 -1.21875 0.84375q-0.546875 0.5625 -0.875 1.375q-0.328125 0.8125 -0.328125 1.828125l0 0.328125q0 0.890625 0.296875 1.640625q0.296875 0.75 0.828125 1.296875q0.53125 0.546875 1.265625 0.859375q0.75 0.296875 1.640625 0.296875zm-0.1875 -7.578125q0.5625 0 0.953125 0.203125q0.40625 0.203125 0.671875 0.53125q0.265625 0.328125 0.40625 0.78125q0.15625 0.4375 0.15625 0.828125l0 0.078125l-4.546875 0q0.09375 -0.59375 0.296875 -1.03125q0.21875 -0.453125 0.53125 -0.765625q0.3125 -0.3125 0.703125 -0.46875q0.390625 -0.15625 0.828125 -0.15625z" fill-rule="nonzero"/><path fill="#999999" d="m475.7917 299.7494l0 -14.484375l-1.171875 0l0 14.484375l1.171875 0zm16.75 -7.671875l2.25 0q0.765625 -0.015625 1.4375 -0.234375q0.6875 -0.234375 1.203125 -0.65625q0.515625 -0.4375 0.8125 -1.0625q0.3125 -0.625 0.3125 -1.453125q0 -0.8125 -0.3125 -1.4375q-0.296875 -0.640625 -0.8125 -1.078125q-0.515625 -0.421875 -1.203125 -0.640625q-0.671875 -0.234375 -1.4375 -0.25l-3.6875 0l0 11.375l1.4375 0l0 -4.5625zm0 -1.1875l0 -4.4375l2.25 0q0.5 0 0.921875 0.15625q0.421875 0.15625 0.734375 0.453125q0.3125 0.28125 0.484375 0.703125q0.171875 0.40625 0.171875 0.921875q0 0.515625 -0.171875 0.921875q-0.171875 0.40625 -0.484375 0.6875q-0.3125 0.28125 -0.734375 0.4375q-0.421875 0.140625 -0.921875 0.15625l-2.25 0zm11.7578125 5.90625q1.234375 0 2.078125 -0.5q0.84375 -0.5 1.265625 -1.140625l-0.890625 -0.6875q-0.390625 0.515625 -1.0 0.828125q-0.59375 0.3125 -1.375 0.3125q-0.578125 0 -1.0625 -0.21875q-0.484375 -0.21875 -0.828125 -0.59375q-0.34375 -0.359375 -0.53125 -0.828125q-0.1875 -0.46875 -0.25 -1.09375l0 -0.046875l6.046875 0l0 -0.65625q0 -0.875 -0.234375 -1.625q-0.21875 -0.765625 -0.671875 -1.328125q-0.453125 -0.5625 -1.140625 -0.875q-0.671875 -0.3125 -1.59375 -0.3125q-0.71875 0 -1.421875 0.296875q-0.6875 0.296875 -1.21875 0.84375q-0.546875 0.5625 -0.875 1.375q-0.328125 0.8125 -0.328125 1.828125l0 0.328125q0 0.890625 0.296875 1.640625q0.296875 0.75 0.828125 1.296875q0.53125 0.546875 1.265625 0.859375q0.75 0.296875 1.640625 0.296875zm-0.1875 -7.578125q0.5625 0 0.953125 0.203125q0.40625 0.203125 0.671875 0.53125q0.265625 0.328125 0.40625 0.78125q0.15625 0.4375 0.15625 0.828125l0 0.078125l-4.546875 0q0.09375 -0.59375 0.296875 -1.03125q0.21875 -0.453125 0.53125 -0.765625q0.3125 -0.3125 0.703125 -0.46875q0.390625 -0.15625 0.828125 -0.15625zm11.6015625 -1.1875q-0.921875 0 -1.65625 0.40625q-0.71875 0.390625 -1.234375 1.09375l0 -0.21875l-0.0625 -1.125l-1.375 0l0 8.453125l1.453125 0l0 -5.421875q0.140625 -0.390625 0.34375 -0.703125q0.21875 -0.328125 0.515625 -0.546875q0.3125 -0.25 0.734375 -0.375q0.4375 -0.125 0.96875 -0.125q0.421875 0 0.796875 0.046875q0.375 0.03125 0.796875 0.125l0.203125 -1.40625q-0.21875 -0.09375 -0.65625 -0.140625q-0.4375 -0.0625 -0.828125 -0.0625zm9.6796875 6.359375q0 0.203125 -0.078125 0.390625q-0.078125 0.171875 -0.234375 0.328125q-0.234375 0.234375 -0.671875 0.375q-0.421875 0.140625 -1.0 0.140625q-0.375 0 -0.75 -0.078125q-0.375 -0.078125 -0.671875 -0.265625q-0.3125 -0.1875 -0.53125 -0.484375q-0.203125 -0.3125 -0.234375 -0.765625l-1.4375 0q0 0.546875 0.234375 1.046875q0.25 0.5 0.71875 0.875q0.46875 0.375 1.140625 0.609375q0.671875 0.234375 1.53125 0.234375q0.75 0 1.375 -0.171875q0.640625 -0.1875 1.09375 -0.515625q0.453125 -0.328125 0.703125 -0.78125q0.25 -0.46875 0.25 -1.03125q0 -0.53125 -0.21875 -0.921875q-0.21875 -0.40625 -0.640625 -0.703125q-0.421875 -0.296875 -1.046875 -0.515625q-0.609375 -0.21875 -1.390625 -0.375q-0.59375 -0.125 -0.984375 -0.25q-0.390625 -0.125 -0.609375 -0.28125q-0.234375 -0.15625 -0.328125 -0.34375q-0.09375 -0.203125 -0.09375 -0.453125q0 -0.234375 0.109375 -0.453125q0.125 -0.234375 0.359375 -0.40625q0.21875 -0.171875 0.5625 -0.265625q0.359375 -0.109375 0.8125 -0.109375q0.453125 0 0.796875 0.125q0.359375 0.125 0.609375 0.328125q0.25 0.203125 0.390625 0.46875q0.140625 0.25 0.140625 0.53125l1.453125 0q0 -0.5625 -0.25 -1.03125q-0.234375 -0.484375 -0.671875 -0.84375q-0.4375 -0.359375 -1.0625 -0.5625q-0.625 -0.203125 -1.40625 -0.203125q-0.71875 0 -1.328125 0.203125q-0.609375 0.1875 -1.046875 0.515625q-0.4375 0.34375 -0.6875 0.796875q-0.234375 0.4375 -0.234375 0.953125q0 0.53125 0.234375 0.921875q0.234375 0.390625 0.671875 0.6875q0.421875 0.296875 1.015625 0.515625q0.59375 0.203125 1.328125 0.34375q0.59375 0.125 0.984375 0.265625q0.40625 0.140625 0.640625 0.3125q0.25 0.171875 0.34375 0.390625q0.109375 0.203125 0.109375 0.453125zm3.5703125 -2.0625l0 0.171875q0 0.921875 0.265625 1.703125q0.265625 0.78125 0.765625 1.359375q0.5 0.578125 1.203125 0.90625q0.71875 0.328125 1.625 0.328125q0.890625 0 1.59375 -0.328125q0.71875 -0.328125 1.21875 -0.90625q0.484375 -0.578125 0.75 -1.359375q0.265625 -0.78125 0.265625 -1.703125l0 -0.171875q0 -0.90625 -0.265625 -1.6875q-0.265625 -0.796875 -0.75 -1.375q-0.5 -0.578125 -1.21875 -0.90625q-0.71875 -0.328125 -1.609375 -0.328125q-0.890625 0 -1.609375 0.328125q-0.703125 0.328125 -1.203125 0.90625q-0.5 0.578125 -0.765625 1.375q-0.265625 0.78125 -0.265625 1.6875zm1.453125 0.171875l0 -0.171875q0 -0.609375 0.140625 -1.171875q0.15625 -0.578125 0.453125 -1.0q0.296875 -0.4375 0.734375 -0.6875q0.453125 -0.25 1.0625 -0.25q0.59375 0 1.046875 0.25q0.453125 0.25 0.75 0.6875q0.296875 0.421875 0.453125 1.0q0.15625 0.5625 0.15625 1.171875l0 0.171875q0 0.625 -0.15625 1.203125q-0.140625 0.5625 -0.4375 0.984375q-0.3125 0.4375 -0.765625 0.6875q-0.4375 0.25 -1.03125 0.25q-0.609375 0 -1.0625 -0.25q-0.453125 -0.25 -0.75 -0.6875q-0.296875 -0.421875 -0.453125 -0.984375q-0.140625 -0.578125 -0.140625 -1.203125zm8.5546875 4.140625l1.453125 0l0 -6.0625q0.140625 -0.28125 0.34375 -0.5q0.203125 -0.234375 0.4375 -0.40625q0.28125 -0.1875 0.625 -0.296875q0.34375 -0.125 0.75 -0.125q0.453125 0 0.8125 0.109375q0.359375 0.109375 0.609375 0.359375q0.234375 0.234375 0.359375 0.625q0.125 0.390625 0.125 0.953125l0 5.34375l1.453125 0l0 -5.375q0 -0.84375 -0.21875 -1.453125q-0.203125 -0.609375 -0.578125 -1.015625q-0.390625 -0.390625 -0.9375 -0.578125q-0.53125 -0.1875 -1.203125 -0.1875q-0.484375 0 -0.9375 0.140625q-0.4375 0.140625 -0.8125 0.390625q-0.25 0.15625 -0.46875 0.390625q-0.21875 0.21875 -0.40625 0.484375l-0.109375 -1.25l-1.296875 0l0 8.453125zm26.875 -10.140625l0 -1.234375l-8.4375 0l0 1.234375l3.515625 0l0 10.140625l1.40625 0l0 -10.140625l3.515625 0zm2.1640625 1.6875l0 1.25l2.875 0l0 5.953125l-2.875 0l0 1.25l7.078125 0l0 -1.25l-2.765625 0l0 -7.203125l-4.3125 0zm2.6875 -2.21875q0 0.34375 0.203125 0.578125q0.21875 0.234375 0.65625 0.234375q0.4375 0 0.65625 -0.234375q0.21875 -0.234375 0.21875 -0.578125q0 -0.203125 -0.0625 -0.359375q-0.0625 -0.171875 -0.1875 -0.28125q-0.109375 -0.09375 -0.265625 -0.15625q-0.15625 -0.0625 -0.359375 -0.0625q-0.203125 0 -0.359375 0.0625q-0.15625 0.0625 -0.265625 0.15625q-0.125 0.125 -0.1875 0.296875q-0.046875 0.15625 -0.046875 0.34375zm10.1015625 0.171875l-1.453125 0l0 2.046875l-2.21875 0l0 1.109375l2.21875 0l0 4.59375q0 0.78125 0.203125 1.34375q0.21875 0.546875 0.578125 0.890625q0.359375 0.34375 0.84375 0.515625q0.484375 0.15625 1.046875 0.15625q0.34375 0 0.671875 -0.03125q0.34375 -0.03125 0.65625 -0.09375q0.296875 -0.0625 0.546875 -0.140625q0.265625 -0.078125 0.453125 -0.1875l-0.203125 -1.03125q-0.140625 0.03125 -0.34375 0.078125q-0.203125 0.046875 -0.4375 0.078125q-0.25 0.046875 -0.5 0.078125q-0.25 0.015625 -0.484375 0.015625q-0.3125 0 -0.609375 -0.078125q-0.28125 -0.078125 -0.5 -0.265625q-0.21875 -0.1875 -0.34375 -0.5q-0.125 -0.328125 -0.125 -0.828125l0 -4.59375l3.21875 0l0 -1.109375l-3.21875 0l0 -2.046875zm6.4140625 -1.5l0 1.25l2.875 0l0 9.5l-2.875 0l0 1.25l7.078125 0l0 -1.25l-2.765625 0l0 -10.75l-4.3125 0zm13.1015625 12.15625q1.234375 0 2.078125 -0.5q0.84375 -0.5 1.265625 -1.140625l-0.890625 -0.6875q-0.390625 0.515625 -1.0 0.828125q-0.59375 0.3125 -1.375 0.3125q-0.578125 0 -1.0625 -0.21875q-0.484375 -0.21875 -0.828125 -0.59375q-0.34375 -0.359375 -0.53125 -0.828125q-0.1875 -0.46875 -0.25 -1.09375l0 -0.046875l6.046875 0l0 -0.65625q0 -0.875 -0.234375 -1.625q-0.21875 -0.765625 -0.671875 -1.328125q-0.453125 -0.5625 -1.140625 -0.875q-0.671875 -0.3125 -1.59375 -0.3125q-0.71875 0 -1.421875 0.296875q-0.6875 0.296875 -1.21875 0.84375q-0.546875 0.5625 -0.875 1.375q-0.328125 0.8125 -0.328125 1.828125l0 0.328125q0 0.890625 0.296875 1.640625q0.296875 0.75 0.828125 1.296875q0.53125 0.546875 1.265625 0.859375q0.75 0.296875 1.640625 0.296875zm-0.1875 -7.578125q0.5625 0 0.953125 0.203125q0.40625 0.203125 0.671875 0.53125q0.265625 0.328125 0.40625 0.78125q0.15625 0.4375 0.15625 0.828125l0 0.078125l-4.546875 0q0.09375 -0.59375 0.296875 -1.03125q0.21875 -0.453125 0.53125 -0.765625q0.3125 -0.3125 0.703125 -0.46875q0.390625 -0.15625 0.828125 -0.15625z" fill-rule="nonzero"/><path fill="#666666" d="m311.1081 315.29813l-1.453125 0q-0.0625 0.515625 -0.234375 0.953125q-0.171875 0.4375 -0.46875 0.765625q-0.28125 0.328125 -0.703125 0.515625q-0.421875 0.171875 -0.984375 0.171875q-0.53125 0 -0.921875 -0.171875q-0.390625 -0.171875 -0.671875 -0.46875q-0.296875 -0.28125 -0.484375 -0.65625q-0.1875 -0.390625 -0.296875 -0.828125q-0.125 -0.4375 -0.171875 -0.875q-0.046875 -0.453125 -0.046875 -0.875l0 -1.609375q0 -0.421875 0.046875 -0.859375q0.046875 -0.453125 0.171875 -0.890625q0.109375 -0.421875 0.296875 -0.796875q0.203125 -0.390625 0.484375 -0.6875q0.28125 -0.28125 0.671875 -0.453125q0.40625 -0.171875 0.921875 -0.171875q0.5625 0 0.984375 0.203125q0.421875 0.1875 0.703125 0.515625q0.296875 0.34375 0.46875 0.796875q0.171875 0.4375 0.234375 0.953125l1.453125 0q-0.09375 -0.8125 -0.390625 -1.484375q-0.296875 -0.671875 -0.78125 -1.15625q-0.484375 -0.484375 -1.15625 -0.734375q-0.671875 -0.265625 -1.515625 -0.265625q-0.71875 0 -1.296875 0.203125q-0.5625 0.1875 -1.0 0.546875q-0.453125 0.34375 -0.78125 0.828125q-0.328125 0.484375 -0.53125 1.046875q-0.21875 0.5625 -0.328125 1.1875q-0.109375 0.609375 -0.109375 1.234375l0 1.59375q0 0.625 0.109375 1.25q0.109375 0.609375 0.328125 1.171875q0.203125 0.5625 0.53125 1.046875q0.328125 0.46875 0.78125 0.828125q0.4375 0.34375 1.015625 0.546875q0.578125 0.203125 1.28125 0.203125q0.8125 0 1.484375 -0.265625q0.671875 -0.265625 1.15625 -0.734375q0.484375 -0.46875 0.78125 -1.125q0.3125 -0.671875 0.421875 -1.453125zm2.4609375 -5.03125l0 1.25l2.875 0l0 5.953125l-2.875 0l0 1.25l7.078125 0l0 -1.25l-2.765625 0l0 -7.203125l-4.3125 0zm2.6875 -2.21875q0 0.34375 0.203125 0.578125q0.21875 0.234375 0.65625 0.234375q0.4375 0 0.65625 -0.234375q0.21875 -0.234375 0.21875 -0.578125q0 -0.203125 -0.0625 -0.359375q-0.0625 -0.171875 -0.1875 -0.28125q-0.109375 -0.09375 -0.265625 -0.15625q-0.15625 -0.0625 -0.359375 -0.0625q-0.203125 0 -0.359375 0.0625q-0.15625 0.0625 -0.265625 0.15625q-0.125 0.125 -0.1875 0.296875q-0.046875 0.15625 -0.046875 0.34375zm10.1015625 0.171875l-1.453125 0l0 2.046875l-2.21875 0l0 1.109375l2.21875 0l0 4.59375q0 0.78125 0.203125 1.34375q0.21875 0.546875 0.578125 0.890625q0.359375 0.34375 0.84375 0.515625q0.484375 0.15625 1.046875 0.15625q0.34375 0 0.671875 -0.03125q0.34375 -0.03125 0.65625 -0.09375q0.296875 -0.0625 0.546875 -0.140625q0.265625 -0.078125 0.453125 -0.1875l-0.203125 -1.03125q-0.140625 0.03125 -0.34375 0.078125q-0.203125 0.046875 -0.4375 0.078125q-0.25 0.046875 -0.5 0.078125q-0.25 0.015625 -0.484375 0.015625q-0.3125 0 -0.609375 -0.078125q-0.28125 -0.078125 -0.5 -0.265625q-0.21875 -0.1875 -0.34375 -0.5q-0.125 -0.328125 -0.125 -0.828125l0 -4.59375l3.21875 0l0 -1.109375l-3.21875 0l0 -2.046875zm6.8671875 13.921875q0.5625 0 1.0 -0.21875q0.4375 -0.203125 0.765625 -0.515625q0.328125 -0.3125 0.5625 -0.6875q0.234375 -0.359375 0.375 -0.6875l4.296875 -9.765625l-1.625 0l-2.171875 5.484375l-0.40625 0.984375l-0.375 -1.015625l-2.3125 -5.453125l-1.625 0l3.640625 8.046875l-0.578125 1.140625q-0.078125 0.15625 -0.21875 0.390625q-0.125 0.25 -0.3125 0.46875q-0.203125 0.234375 -0.453125 0.390625q-0.234375 0.171875 -0.53125 0.171875q-0.109375 0 -0.3125 -0.015625q-0.1875 -0.015625 -0.375 -0.03125l-0.234375 1.1875q0.140625 0.03125 0.40625 0.078125q0.28125 0.046875 0.484375 0.046875zm12.5859375 -3.765625l0 -1.375l-1.578125 0l0 1.40625q0 0.671875 -0.15625 1.28125q-0.15625 0.625 -0.53125 1.171875l0.90625 0.484375q0.625 -0.546875 0.984375 -1.359375q0.375 -0.8125 0.375 -1.609375zm21.484375 -2.53125q0 0.46875 -0.203125 0.8125q-0.203125 0.328125 -0.515625 0.546875q-0.328125 0.234375 -0.734375 0.34375q-0.40625 0.09375 -0.828125 0.09375q-0.53125 0 -0.984375 -0.140625q-0.453125 -0.140625 -0.796875 -0.4375q-0.34375 -0.28125 -0.5625 -0.6875q-0.21875 -0.40625 -0.28125 -0.9375l-1.484375 0q0.03125 0.734375 0.328125 1.328125q0.296875 0.59375 0.8125 1.046875q0.578125 0.515625 1.359375 0.796875q0.796875 0.265625 1.609375 0.265625q0.671875 0 1.34375 -0.1875q0.6875 -0.203125 1.234375 -0.578125q0.53125 -0.375 0.875 -0.9375q0.34375 -0.578125 0.34375 -1.34375q0 -0.765625 -0.328125 -1.34375q-0.3125 -0.578125 -0.828125 -0.96875q-0.515625 -0.4375 -1.15625 -0.703125q-0.625 -0.28125 -1.265625 -0.484375q-0.375 -0.109375 -0.8125 -0.265625q-0.4375 -0.15625 -0.796875 -0.390625q-0.375 -0.234375 -0.625 -0.578125q-0.234375 -0.34375 -0.25 -0.828125q0 -0.453125 0.1875 -0.796875q0.1875 -0.34375 0.5 -0.578125q0.296875 -0.234375 0.6875 -0.34375q0.40625 -0.125 0.8125 -0.125q0.515625 0 0.921875 0.15625q0.421875 0.15625 0.71875 0.453125q0.296875 0.28125 0.46875 0.6875q0.1875 0.40625 0.25 0.890625l1.484375 0q-0.015625 -0.78125 -0.34375 -1.40625q-0.3125 -0.640625 -0.84375 -1.078125q-0.53125 -0.453125 -1.21875 -0.6875q-0.6875 -0.25 -1.4375 -0.25q-0.671875 0 -1.34375 0.203125q-0.65625 0.203125 -1.171875 0.609375q-0.53125 0.390625 -0.859375 0.96875q-0.3125 0.578125 -0.3125 1.3125q0 0.734375 0.3125 1.28125q0.328125 0.546875 0.84375 0.9375q0.515625 0.390625 1.125 0.671875q0.625 0.28125 1.234375 0.46875q0.40625 0.140625 0.859375 0.3125q0.453125 0.15625 0.828125 0.390625q0.375 0.25 0.609375 0.609375q0.234375 0.359375 0.234375 0.890625zm7.0703125 -7.625l-1.453125 0l0 2.046875l-2.21875 0l0 1.109375l2.21875 0l0 4.59375q0 0.78125 0.203125 1.34375q0.21875 0.546875 0.578125 0.890625q0.359375 0.34375 0.84375 0.515625q0.484375 0.15625 1.046875 0.15625q0.34375 0 0.671875 -0.03125q0.34375 -0.03125 0.65625 -0.09375q0.296875 -0.0625 0.546875 -0.140625q0.265625 -0.078125 0.453125 -0.1875l-0.203125 -1.03125q-0.140625 0.03125 -0.34375 0.078125q-0.203125 0.046875 -0.4375 0.078125q-0.25 0.046875 -0.5 0.078125q-0.25 0.015625 -0.484375 0.015625q-0.3125 0 -0.609375 -0.078125q-0.28125 -0.078125 -0.5 -0.265625q-0.21875 -0.1875 -0.34375 -0.5q-0.125 -0.328125 -0.125 -0.828125l0 -4.59375l3.21875 0l0 -1.109375l-3.21875 0l0 -2.046875zm11.7421875 10.5l1.5 0l0 -0.125q-0.140625 -0.359375 -0.21875 -0.828125q-0.078125 -0.46875 -0.078125 -0.890625l0 -3.9375q0 -0.703125 -0.265625 -1.234375q-0.25 -0.53125 -0.6875 -0.890625q-0.453125 -0.359375 -1.078125 -0.53125q-0.609375 -0.171875 -1.328125 -0.171875q-0.796875 0 -1.421875 0.21875q-0.609375 0.21875 -1.046875 0.5625q-0.4375 0.359375 -0.671875 0.8125q-0.21875 0.4375 -0.234375 0.90625l1.453125 0q0 -0.265625 0.125 -0.515625q0.140625 -0.25 0.375 -0.421875q0.234375 -0.1875 0.5625 -0.296875q0.34375 -0.109375 0.78125 -0.109375q0.453125 0 0.828125 0.125q0.375 0.109375 0.625 0.328125q0.265625 0.21875 0.40625 0.53125q0.140625 0.296875 0.140625 0.671875l0 0.671875l-1.578125 0q-0.890625 0 -1.609375 0.171875q-0.703125 0.171875 -1.21875 0.515625q-0.5 0.34375 -0.78125 0.875q-0.28125 0.515625 -0.28125 1.21875q0 0.53125 0.203125 0.984375q0.21875 0.453125 0.59375 0.78125q0.375 0.34375 0.921875 0.546875q0.546875 0.1875 1.21875 0.1875q0.40625 0 0.765625 -0.09375q0.375 -0.078125 0.703125 -0.234375q0.328125 -0.140625 0.59375 -0.328125q0.265625 -0.203125 0.484375 -0.421875q0.03125 0.265625 0.078125 0.515625q0.046875 0.234375 0.140625 0.40625zm-2.5625 -1.109375q-0.421875 0 -0.75 -0.109375q-0.3125 -0.109375 -0.515625 -0.296875q-0.21875 -0.1875 -0.328125 -0.453125q-0.09375 -0.265625 -0.09375 -0.578125q0 -0.328125 0.109375 -0.578125q0.125 -0.265625 0.359375 -0.453125q0.328125 -0.265625 0.890625 -0.390625q0.5625 -0.140625 1.3125 -0.140625l1.34375 0l0 1.71875q-0.125 0.25 -0.34375 0.484375q-0.21875 0.21875 -0.515625 0.40625q-0.3125 0.171875 -0.6875 0.28125q-0.359375 0.109375 -0.78125 0.109375zm10.0234375 -9.390625l-1.453125 0l0 2.046875l-2.21875 0l0 1.109375l2.21875 0l0 4.59375q0 0.78125 0.203125 1.34375q0.21875 0.546875 0.578125 0.890625q0.359375 0.34375 0.84375 0.515625q0.484375 0.15625 1.046875 0.15625q0.34375 0 0.671875 -0.03125q0.34375 -0.03125 0.65625 -0.09375q0.296875 -0.0625 0.546875 -0.140625q0.265625 -0.078125 0.453125 -0.1875l-0.203125 -1.03125q-0.140625 0.03125 -0.34375 0.078125q-0.203125 0.046875 -0.4375 0.078125q-0.25 0.046875 -0.5 0.078125q-0.25 0.015625 -0.484375 0.015625q-0.3125 0 -0.609375 -0.078125q-0.28125 -0.078125 -0.5 -0.265625q-0.21875 -0.1875 -0.34375 -0.5q-0.125 -0.328125 -0.125 -0.828125l0 -4.59375l3.21875 0l0 -1.109375l-3.21875 0l0 -2.046875zm9.9140625 10.65625q1.234375 0 2.078125 -0.5q0.84375 -0.5 1.265625 -1.140625l-0.890625 -0.6875q-0.390625 0.515625 -1.0 0.828125q-0.59375 0.3125 -1.375 0.3125q-0.578125 0 -1.0625 -0.21875q-0.484375 -0.21875 -0.828125 -0.59375q-0.34375 -0.359375 -0.53125 -0.828125q-0.1875 -0.46875 -0.25 -1.09375l0 -0.046875l6.046875 0l0 -0.65625q0 -0.875 -0.234375 -1.625q-0.21875 -0.765625 -0.671875 -1.328125q-0.453125 -0.5625 -1.140625 -0.875q-0.671875 -0.3125 -1.59375 -0.3125q-0.71875 0 -1.421875 0.296875q-0.6875 0.296875 -1.21875 0.84375q-0.546875 0.5625 -0.875 1.375q-0.328125 0.8125 -0.328125 1.828125l0 0.328125q0 0.890625 0.296875 1.640625q0.296875 0.75 0.828125 1.296875q0.53125 0.546875 1.265625 0.859375q0.75 0.296875 1.640625 0.296875zm-0.1875 -7.578125q0.5625 0 0.953125 0.203125q0.40625 0.203125 0.671875 0.53125q0.265625 0.328125 0.40625 0.78125q0.15625 0.4375 0.15625 0.828125l0 0.078125l-4.546875 0q0.09375 -0.59375 0.296875 -1.03125q0.21875 -0.453125 0.53125 -0.765625q0.3125 -0.3125 0.703125 -0.46875q0.390625 -0.15625 0.828125 -0.15625zm17.09375 2.796875l0 0.078125q0 1.125 0.171875 2.109375q0.171875 0.984375 0.46875 1.8125q0.296875 0.859375 0.671875 1.546875q0.390625 0.6875 0.828125 1.234375q0.421875 0.546875 0.84375 0.921875q0.4375 0.375 0.828125 0.59375l0.3125 -0.875q-0.328125 -0.265625 -0.640625 -0.625q-0.3125 -0.359375 -0.609375 -0.828125q-0.296875 -0.5 -0.5625 -1.125q-0.265625 -0.625 -0.46875 -1.34375q-0.1875 -0.71875 -0.296875 -1.5625q-0.109375 -0.859375 -0.109375 -1.84375l0 -0.109375q0 -1.015625 0.109375 -1.890625q0.125 -0.890625 0.34375 -1.625q0.21875 -0.8125 0.546875 -1.484375q0.328125 -0.6875 0.6875 -1.203125q0.234375 -0.328125 0.484375 -0.59375q0.265625 -0.265625 0.515625 -0.453125l-0.3125 -0.953125q-0.390625 0.21875 -0.828125 0.609375q-0.421875 0.375 -0.84375 0.921875q-0.421875 0.53125 -0.8125 1.234375q-0.390625 0.6875 -0.6875 1.53125q-0.296875 0.84375 -0.46875 1.828125q-0.171875 0.984375 -0.171875 2.09375zm7.7578125 0.3125l0 0.171875q0 0.921875 0.265625 1.703125q0.265625 0.78125 0.765625 1.359375q0.5 0.578125 1.203125 0.90625q0.71875 0.328125 1.625 0.328125q0.890625 0 1.59375 -0.328125q0.71875 -0.328125 1.21875 -0.90625q0.484375 -0.578125 0.75 -1.359375q0.265625 -0.78125 0.265625 -1.703125l0 -0.171875q0 -0.90625 -0.265625 -1.6875q-0.265625 -0.796875 -0.75 -1.375q-0.5 -0.578125 -1.21875 -0.90625q-0.71875 -0.328125 -1.609375 -0.328125q-0.890625 0 -1.609375 0.328125q-0.703125 0.328125 -1.203125 0.90625q-0.5 0.578125 -0.765625 1.375q-0.265625 0.78125 -0.265625 1.6875zm1.453125 0.171875l0 -0.171875q0 -0.609375 0.140625 -1.171875q0.15625 -0.578125 0.453125 -1.0q0.296875 -0.4375 0.734375 -0.6875q0.453125 -0.25 1.0625 -0.25q0.59375 0 1.046875 0.25q0.453125 0.25 0.75 0.6875q0.296875 0.421875 0.453125 1.0q0.15625 0.5625 0.15625 1.171875l0 0.171875q0 0.625 -0.15625 1.203125q-0.140625 0.5625 -0.4375 0.984375q-0.3125 0.4375 -0.765625 0.6875q-0.4375 0.25 -1.03125 0.25q-0.609375 0 -1.0625 -0.25q-0.453125 -0.25 -0.75 -0.6875q-0.296875 -0.421875 -0.453125 -0.984375q-0.140625 -0.578125 -0.140625 -1.203125zm14.1015625 -4.46875q-0.921875 0 -1.65625 0.40625q-0.71875 0.390625 -1.234375 1.09375l0 -0.21875l-0.0625 -1.125l-1.375 0l0 8.453125l1.453125 0l0 -5.421875q0.140625 -0.390625 0.34375 -0.703125q0.21875 -0.328125 0.515625 -0.546875q0.3125 -0.25 0.734375 -0.375q0.4375 -0.125 0.96875 -0.125q0.421875 0 0.796875 0.046875q0.375 0.03125 0.796875 0.125l0.203125 -1.40625q-0.21875 -0.09375 -0.65625 -0.140625q-0.4375 -0.0625 -0.828125 -0.0625zm21.03125 5.1875l-1.453125 0q-0.0625 0.515625 -0.234375 0.953125q-0.171875 0.4375 -0.46875 0.765625q-0.28125 0.328125 -0.703125 0.515625q-0.421875 0.171875 -0.984375 0.171875q-0.53125 0 -0.921875 -0.171875q-0.390625 -0.171875 -0.671875 -0.46875q-0.296875 -0.28125 -0.484375 -0.65625q-0.1875 -0.390625 -0.296875 -0.828125q-0.125 -0.4375 -0.171875 -0.875q-0.046875 -0.453125 -0.046875 -0.875l0 -1.609375q0 -0.421875 0.046875 -0.859375q0.046875 -0.453125 0.171875 -0.890625q0.109375 -0.421875 0.296875 -0.796875q0.203125 -0.390625 0.484375 -0.6875q0.28125 -0.28125 0.671875 -0.453125q0.40625 -0.171875 0.921875 -0.171875q0.5625 0 0.984375 0.203125q0.421875 0.1875 0.703125 0.515625q0.296875 0.34375 0.46875 0.796875q0.171875 0.4375 0.234375 0.953125l1.453125 0q-0.09375 -0.8125 -0.390625 -1.484375q-0.296875 -0.671875 -0.78125 -1.15625q-0.484375 -0.484375 -1.15625 -0.734375q-0.671875 -0.265625 -1.515625 -0.265625q-0.71875 0 -1.296875 0.203125q-0.5625 0.1875 -1.0 0.546875q-0.453125 0.34375 -0.78125 0.828125q-0.328125 0.484375 -0.53125 1.046875q-0.21875 0.5625 -0.328125 1.1875q-0.109375 0.609375 -0.109375 1.234375l0 1.59375q0 0.625 0.109375 1.25q0.109375 0.609375 0.328125 1.171875q0.203125 0.5625 0.53125 1.046875q0.328125 0.46875 0.78125 0.828125q0.4375 0.34375 1.015625 0.546875q0.578125 0.203125 1.28125 0.203125q0.8125 0 1.484375 -0.265625q0.671875 -0.265625 1.15625 -0.734375q0.484375 -0.46875 0.78125 -1.125q0.3125 -0.671875 0.421875 -1.453125zm1.8203125 -0.890625l0 0.171875q0 0.921875 0.265625 1.703125q0.265625 0.78125 0.765625 1.359375q0.5 0.578125 1.203125 0.90625q0.71875 0.328125 1.625 0.328125q0.890625 0 1.59375 -0.328125q0.71875 -0.328125 1.21875 -0.90625q0.484375 -0.578125 0.75 -1.359375q0.265625 -0.78125 0.265625 -1.703125l0 -0.171875q0 -0.90625 -0.265625 -1.6875q-0.265625 -0.796875 -0.75 -1.375q-0.5 -0.578125 -1.21875 -0.90625q-0.71875 -0.328125 -1.609375 -0.328125q-0.890625 0 -1.609375 0.328125q-0.703125 0.328125 -1.203125 0.90625q-0.5 0.578125 -0.765625 1.375q-0.265625 0.78125 -0.265625 1.6875zm1.453125 0.171875l0 -0.171875q0 -0.609375 0.140625 -1.171875q0.15625 -0.578125 0.453125 -1.0q0.296875 -0.4375 0.734375 -0.6875q0.453125 -0.25 1.0625 -0.25q0.59375 0 1.046875 0.25q0.453125 0.25 0.75 0.6875q0.296875 0.421875 0.453125 1.0q0.15625 0.5625 0.15625 1.171875l0 0.171875q0 0.625 -0.15625 1.203125q-0.140625 0.5625 -0.4375 0.984375q-0.3125 0.4375 -0.765625 0.6875q-0.4375 0.25 -1.03125 0.25q-0.609375 0 -1.0625 -0.25q-0.453125 -0.25 -0.75 -0.6875q-0.296875 -0.421875 -0.453125 -0.984375q-0.140625 -0.578125 -0.140625 -1.203125zm14.1328125 4.140625l1.3125 0l0 -8.453125l-1.453125 0l0 6.0625q-0.125 0.265625 -0.296875 0.5q-0.171875 0.234375 -0.40625 0.390625q-0.28125 0.203125 -0.671875 0.328125q-0.375 0.109375 -0.859375 0.109375q-0.421875 0 -0.734375 -0.109375q-0.3125 -0.109375 -0.53125 -0.390625q-0.21875 -0.265625 -0.328125 -0.71875q-0.109375 -0.453125 -0.109375 -1.140625l0 -5.03125l-1.453125 0l0 5.015625q0 0.953125 0.203125 1.625q0.21875 0.671875 0.59375 1.109375q0.390625 0.4375 0.921875 0.65625q0.546875 0.203125 1.203125 0.203125q0.828125 0 1.453125 -0.34375q0.640625 -0.359375 1.0625 -0.984375l0.09375 1.171875zm4.0234375 0l1.453125 0l0 -6.0625q0.140625 -0.28125 0.34375 -0.5q0.203125 -0.234375 0.4375 -0.40625q0.28125 -0.1875 0.625 -0.296875q0.34375 -0.125 0.75 -0.125q0.453125 0 0.8125 0.109375q0.359375 0.109375 0.609375 0.359375q0.234375 0.234375 0.359375 0.625q0.125 0.390625 0.125 0.953125l0 5.34375l1.453125 0l0 -5.375q0 -0.84375 -0.21875 -1.453125q-0.203125 -0.609375 -0.578125 -1.015625q-0.390625 -0.390625 -0.9375 -0.578125q-0.53125 -0.1875 -1.203125 -0.1875q-0.484375 0 -0.9375 0.140625q-0.4375 0.140625 -0.8125 0.390625q-0.25 0.15625 -0.46875 0.390625q-0.21875 0.21875 -0.40625 0.484375l-0.109375 -1.25l-1.296875 0l0 8.453125zm13.0234375 -10.5l-1.453125 0l0 2.046875l-2.21875 0l0 1.109375l2.21875 0l0 4.59375q0 0.78125 0.203125 1.34375q0.21875 0.546875 0.578125 0.890625q0.359375 0.34375 0.84375 0.515625q0.484375 0.15625 1.046875 0.15625q0.34375 0 0.671875 -0.03125q0.34375 -0.03125 0.65625 -0.09375q0.296875 -0.0625 0.546875 -0.140625q0.265625 -0.078125 0.453125 -0.1875l-0.203125 -1.03125q-0.140625 0.03125 -0.34375 0.078125q-0.203125 0.046875 -0.4375 0.078125q-0.25 0.046875 -0.5 0.078125q-0.25 0.015625 -0.484375 0.015625q-0.3125 0 -0.609375 -0.078125q-0.28125 -0.078125 -0.5 -0.265625q-0.21875 -0.1875 -0.34375 -0.5q-0.125 -0.328125 -0.125 -0.828125l0 -4.59375l3.21875 0l0 -1.109375l-3.21875 0l0 -2.046875zm11.7265625 1.890625q-0.921875 0 -1.65625 0.40625q-0.71875 0.390625 -1.234375 1.09375l0 -0.21875l-0.0625 -1.125l-1.375 0l0 8.453125l1.453125 0l0 -5.421875q0.140625 -0.390625 0.34375 -0.703125q0.21875 -0.328125 0.515625 -0.546875q0.3125 -0.25 0.734375 -0.375q0.4375 -0.125 0.96875 -0.125q0.421875 0 0.796875 0.046875q0.375 0.03125 0.796875 0.125l0.203125 -1.40625q-0.21875 -0.09375 -0.65625 -0.140625q-0.4375 -0.0625 -0.828125 -0.0625zm4.7421875 12.03125q0.5625 0 1.0 -0.21875q0.4375 -0.203125 0.765625 -0.515625q0.328125 -0.3125 0.5625 -0.6875q0.234375 -0.359375 0.375 -0.6875l4.296875 -9.765625l-1.625 0l-2.171875 5.484375l-0.40625 0.984375l-0.375 -1.015625l-2.3125 -5.453125l-1.625 0l3.640625 8.046875l-0.578125 1.140625q-0.078125 0.15625 -0.21875 0.390625q-0.125 0.25 -0.3125 0.46875q-0.203125 0.234375 -0.453125 0.390625q-0.234375 0.171875 -0.53125 0.171875q-0.109375 0 -0.3125 -0.015625q-0.1875 -0.015625 -0.375 -0.03125l-0.234375 1.1875q0.140625 0.03125 0.40625 0.078125q0.28125 0.046875 0.484375 0.046875zm18.75 -11.875l0 1.25l2.875 0l0 5.953125l-2.875 0l0 1.25l7.078125 0l0 -1.25l-2.765625 0l0 -7.203125l-4.3125 0zm2.6875 -2.21875q0 0.34375 0.203125 0.578125q0.21875 0.234375 0.65625 0.234375q0.4375 0 0.65625 -0.234375q0.21875 -0.234375 0.21875 -0.578125q0 -0.203125 -0.0625 -0.359375q-0.0625 -0.171875 -0.1875 -0.28125q-0.109375 -0.09375 -0.265625 -0.15625q-0.15625 -0.0625 -0.359375 -0.0625q-0.203125 0 -0.359375 0.0625q-0.15625 0.0625 -0.265625 0.15625q-0.125 0.125 -0.1875 0.296875q-0.046875 0.15625 -0.046875 0.34375zm8.8359375 10.671875l1.453125 0l0 -7.34375l3.265625 0l0 -1.109375l-3.265625 0l0 -0.59375q0 -0.53125 0.140625 -0.921875q0.140625 -0.40625 0.40625 -0.65625q0.25 -0.25 0.625 -0.359375q0.375 -0.125 0.875 -0.125q0.484375 0 0.90625 0.078125q0.421875 0.078125 0.75 0.1875l0.171875 -1.1875q-0.203125 -0.0625 -0.40625 -0.09375q-0.1875 -0.046875 -0.390625 -0.09375q-0.296875 -0.046875 -0.609375 -0.078125q-0.296875 -0.046875 -0.609375 -0.046875q-0.75 0 -1.359375 0.21875q-0.609375 0.203125 -1.03125 0.625q-0.4375 0.40625 -0.6875 1.03125q-0.234375 0.609375 -0.234375 1.421875l0 0.59375l-2.328125 0l0 1.109375l2.328125 0l0 7.34375zm16.640625 -4.3125l0 0.171875q0 0.921875 0.265625 1.703125q0.265625 0.78125 0.765625 1.359375q0.5 0.578125 1.203125 0.90625q0.71875 0.328125 1.625 0.328125q0.890625 0 1.59375 -0.328125q0.71875 -0.328125 1.21875 -0.90625q0.484375 -0.578125 0.75 -1.359375q0.265625 -0.78125 0.265625 -1.703125l0 -0.171875q0 -0.90625 -0.265625 -1.6875q-0.265625 -0.796875 -0.75 -1.375q-0.5 -0.578125 -1.21875 -0.90625q-0.71875 -0.328125 -1.609375 -0.328125q-0.890625 0 -1.609375 0.328125q-0.703125 0.328125 -1.203125 0.90625q-0.5 0.578125 -0.765625 1.375q-0.265625 0.78125 -0.265625 1.6875zm1.453125 0.171875l0 -0.171875q0 -0.609375 0.140625 -1.171875q0.15625 -0.578125 0.453125 -1.0q0.296875 -0.4375 0.734375 -0.6875q0.453125 -0.25 1.0625 -0.25q0.59375 0 1.046875 0.25q0.453125 0.25 0.75 0.6875q0.296875 0.421875 0.453125 1.0q0.15625 0.5625 0.15625 1.171875l0 0.171875q0 0.625 -0.15625 1.203125q-0.140625 0.5625 -0.4375 0.984375q-0.3125 0.4375 -0.765625 0.6875q-0.4375 0.25 -1.03125 0.25q-0.609375 0 -1.0625 -0.25q-0.453125 -0.25 -0.75 -0.6875q-0.296875 -0.421875 -0.453125 -0.984375q-0.140625 -0.578125 -0.140625 -1.203125zm14.1328125 4.140625l1.3125 0l0 -8.453125l-1.453125 0l0 6.0625q-0.125 0.265625 -0.296875 0.5q-0.171875 0.234375 -0.40625 0.390625q-0.28125 0.203125 -0.671875 0.328125q-0.375 0.109375 -0.859375 0.109375q-0.421875 0 -0.734375 -0.109375q-0.3125 -0.109375 -0.53125 -0.390625q-0.21875 -0.265625 -0.328125 -0.71875q-0.109375 -0.453125 -0.109375 -1.140625l0 -5.03125l-1.453125 0l0 5.015625q0 0.953125 0.203125 1.625q0.21875 0.671875 0.59375 1.109375q0.390625 0.4375 0.921875 0.65625q0.546875 0.203125 1.203125 0.203125q0.828125 0 1.453125 -0.34375q0.640625 -0.359375 1.0625 -0.984375l0.09375 1.171875zm7.4453125 -10.5l-1.453125 0l0 2.046875l-2.21875 0l0 1.109375l2.21875 0l0 4.59375q0 0.78125 0.203125 1.34375q0.21875 0.546875 0.578125 0.890625q0.359375 0.34375 0.84375 0.515625q0.484375 0.15625 1.046875 0.15625q0.34375 0 0.671875 -0.03125q0.34375 -0.03125 0.65625 -0.09375q0.296875 -0.0625 0.546875 -0.140625q0.265625 -0.078125 0.453125 -0.1875l-0.203125 -1.03125q-0.140625 0.03125 -0.34375 0.078125q-0.203125 0.046875 -0.4375 0.078125q-0.25 0.046875 -0.5 0.078125q-0.25 0.015625 -0.484375 0.015625q-0.3125 0 -0.609375 -0.078125q-0.28125 -0.078125 -0.5 -0.265625q-0.21875 -0.1875 -0.34375 -0.5q-0.125 -0.328125 -0.125 -0.828125l0 -4.59375l3.21875 0l0 -1.109375l-3.21875 0l0 -2.046875zm15.375 6.1875l0 0.171875q0 0.921875 0.265625 1.703125q0.265625 0.78125 0.765625 1.359375q0.5 0.578125 1.203125 0.90625q0.71875 0.328125 1.625 0.328125q0.890625 0 1.59375 -0.328125q0.71875 -0.328125 1.21875 -0.90625q0.484375 -0.578125 0.75 -1.359375q0.265625 -0.78125 0.265625 -1.703125l0 -0.171875q0 -0.90625 -0.265625 -1.6875q-0.265625 -0.796875 -0.75 -1.375q-0.5 -0.578125 -1.21875 -0.90625q-0.71875 -0.328125 -1.609375 -0.328125q-0.890625 0 -1.609375 0.328125q-0.703125 0.328125 -1.203125 0.90625q-0.5 0.578125 -0.765625 1.375q-0.265625 0.78125 -0.265625 1.6875zm1.453125 0.171875l0 -0.171875q0 -0.609375 0.140625 -1.171875q0.15625 -0.578125 0.453125 -1.0q0.296875 -0.4375 0.734375 -0.6875q0.453125 -0.25 1.0625 -0.25q0.59375 0 1.046875 0.25q0.453125 0.25 0.75 0.6875q0.296875 0.421875 0.453125 1.0q0.15625 0.5625 0.15625 1.171875l0 0.171875q0 0.625 -0.15625 1.203125q-0.140625 0.5625 -0.4375 0.984375q-0.3125 0.4375 -0.765625 0.6875q-0.4375 0.25 -1.03125 0.25q-0.609375 0 -1.0625 -0.25q-0.453125 -0.25 -0.75 -0.6875q-0.296875 -0.421875 -0.453125 -0.984375q-0.140625 -0.578125 -0.140625 -1.203125zm10.7109375 4.140625l1.453125 0l0 -7.34375l3.265625 0l0 -1.109375l-3.265625 0l0 -0.59375q0 -0.53125 0.140625 -0.921875q0.140625 -0.40625 0.40625 -0.65625q0.25 -0.25 0.625 -0.359375q0.375 -0.125 0.875 -0.125q0.484375 0 0.90625 0.078125q0.421875 0.078125 0.75 0.1875l0.171875 -1.1875q-0.203125 -0.0625 -0.40625 -0.09375q-0.1875 -0.046875 -0.390625 -0.09375q-0.296875 -0.046875 -0.609375 -0.078125q-0.296875 -0.046875 -0.609375 -0.046875q-0.75 0 -1.359375 0.21875q-0.609375 0.203125 -1.03125 0.625q-0.4375 0.40625 -0.6875 1.03125q-0.234375 0.609375 -0.234375 1.421875l0 0.59375l-2.328125 0l0 1.109375l2.328125 0l0 7.34375zm24.1875 -11.375l-1.390625 0l-0.03125 7.703125q-0.015625 0.5 -0.171875 0.96875q-0.140625 0.46875 -0.421875 0.828125q-0.28125 0.375 -0.703125 0.59375q-0.421875 0.203125 -0.984375 0.203125q-0.546875 0 -0.984375 -0.21875q-0.421875 -0.21875 -0.703125 -0.578125q-0.28125 -0.359375 -0.4375 -0.828125q-0.15625 -0.46875 -0.15625 -0.96875l-0.03125 -7.703125l-1.375 0l-0.015625 7.703125q0 0.796875 0.265625 1.5q0.28125 0.6875 0.765625 1.203125q0.484375 0.53125 1.15625 0.828125q0.6875 0.296875 1.515625 0.296875q0.8125 0 1.484375 -0.296875q0.6875 -0.3125 1.1875 -0.828125q0.484375 -0.515625 0.765625 -1.203125q0.28125 -0.703125 0.28125 -1.5l-0.015625 -7.703125zm8.4140625 8.5q0 0.46875 -0.203125 0.8125q-0.203125 0.328125 -0.515625 0.546875q-0.328125 0.234375 -0.734375 0.34375q-0.40625 0.09375 -0.828125 0.09375q-0.53125 0 -0.984375 -0.140625q-0.453125 -0.140625 -0.796875 -0.4375q-0.34375 -0.28125 -0.5625 -0.6875q-0.21875 -0.40625 -0.28125 -0.9375l-1.484375 0q0.03125 0.734375 0.328125 1.328125q0.296875 0.59375 0.8125 1.046875q0.578125 0.515625 1.359375 0.796875q0.796875 0.265625 1.609375 0.265625q0.671875 0 1.34375 -0.1875q0.6875 -0.203125 1.234375 -0.578125q0.53125 -0.375 0.875 -0.9375q0.34375 -0.578125 0.34375 -1.34375q0 -0.765625 -0.328125 -1.34375q-0.3125 -0.578125 -0.828125 -0.96875q-0.515625 -0.4375 -1.15625 -0.703125q-0.625 -0.28125 -1.265625 -0.484375q-0.375 -0.109375 -0.8125 -0.265625q-0.4375 -0.15625 -0.796875 -0.390625q-0.375 -0.234375 -0.625 -0.578125q-0.234375 -0.34375 -0.25 -0.828125q0 -0.453125 0.1875 -0.796875q0.1875 -0.34375 0.5 -0.578125q0.296875 -0.234375 0.6875 -0.34375q0.40625 -0.125 0.8125 -0.125q0.515625 0 0.921875 0.15625q0.421875 0.15625 0.71875 0.453125q0.296875 0.28125 0.46875 0.6875q0.1875 0.40625 0.25 0.890625l1.484375 0q-0.015625 -0.78125 -0.34375 -1.40625q-0.3125 -0.640625 -0.84375 -1.078125q-0.53125 -0.453125 -1.21875 -0.6875q-0.6875 -0.25 -1.4375 -0.25q-0.671875 0 -1.34375 0.203125q-0.65625 0.203125 -1.171875 0.609375q-0.53125 0.390625 -0.859375 0.96875q-0.3125 0.578125 -0.3125 1.3125q0 0.734375 0.3125 1.28125q0.328125 0.546875 0.84375 0.9375q0.515625 0.390625 1.125 0.671875q0.625 0.28125 1.234375 0.46875q0.40625 0.140625 0.859375 0.3125q0.453125 0.15625 0.828125 0.390625q0.375 0.25 0.609375 0.609375q0.234375 0.359375 0.234375 0.890625zm8.9296875 -1.671875l0 -0.078125q0 -1.1875 -0.1875 -2.140625q-0.1875 -0.96875 -0.46875 -1.78125q-0.28125 -0.859375 -0.671875 -1.53125q-0.375 -0.6875 -0.8125 -1.234375q-0.421875 -0.546875 -0.859375 -0.921875q-0.4375 -0.390625 -0.828125 -0.609375l-0.3125 0.890625q0.265625 0.203125 0.53125 0.515625q0.28125 0.296875 0.53125 0.6875q0.34375 0.515625 0.65625 1.203125q0.328125 0.671875 0.546875 1.53125q0.15625 0.609375 0.28125 1.46875q0.140625 0.859375 0.140625 1.90625l0 0.109375q0 0.9375 -0.109375 1.75q-0.09375 0.8125 -0.265625 1.515625q-0.171875 0.765625 -0.453125 1.40625q-0.265625 0.640625 -0.546875 1.140625q-0.3125 0.5 -0.65625 0.875q-0.328125 0.390625 -0.65625 0.640625l0.3125 0.875q0.390625 -0.21875 0.8125 -0.59375q0.4375 -0.375 0.875 -0.921875q0.421875 -0.546875 0.796875 -1.234375q0.390625 -0.6875 0.6875 -1.546875q0.296875 -0.828125 0.46875 -1.8125q0.1875 -0.984375 0.1875 -2.109375z" fill-rule="nonzero"/><path fill="#000000" fill-opacity="0.0" d="m189.12073 198.95538l581.7638 0l0 77.5748l-581.7638 0z" fill-rule="evenodd"/><path fill="#ffffff" d="m315.00262 254.93887q-5.59375 0 -9.734375 -1.71875q-4.140625 -1.71875 -6.453125 -5.09375q-2.3125 -3.375 -2.4375 -8.3125l9.28125 0q0.1875 2.34375 1.40625 3.921875q1.21875 1.578125 3.25 2.359375q2.03125 0.78125 4.59375 0.78125q2.5625 0 4.453125 -0.734375q1.890625 -0.734375 2.953125 -2.078125q1.0625 -1.34375 1.0625 -3.125q0 -1.59375 -0.953125 -2.671875q-0.953125 -1.078125 -2.734375 -1.859375q-1.78125 -0.78125 -4.34375 -1.375l-5.125 -1.28125q-5.90625 -1.4375 -9.25 -4.515625q-3.34375 -3.078125 -3.34375 -8.140625q0 -4.21875 2.265625 -7.375q2.265625 -3.15625 6.21875 -4.90625q3.953125 -1.75 9.015625 -1.75q5.15625 0 9.0 1.765625q3.84375 1.765625 6.0 4.90625q2.15625 3.140625 2.21875 7.234375l-9.21875 0q-0.25 -2.8125 -2.390625 -4.34375q-2.140625 -1.53125 -5.703125 -1.53125q-2.40625 0 -4.125 0.6875q-1.71875 0.6875 -2.609375 1.90625q-0.890625 1.21875 -0.890625 2.78125q0 1.71875 1.03125 2.859375q1.03125 1.140625 2.75 1.84375q1.71875 0.703125 3.65625 1.171875l4.21875 1.03125q2.9375 0.65625 5.46875 1.78125q2.53125 1.125 4.4375 2.765625q1.90625 1.640625 2.953125 3.890625q1.046875 2.25 1.046875 5.1875q0 4.21875 -2.125 7.359375q-2.125 3.140625 -6.15625 4.859375q-4.03125 1.71875 -9.6875 1.71875zm40.40625 0q-5.34375 0 -9.21875 -2.1875q-3.875 -2.1875 -5.953125 -6.21875q-2.078125 -4.03125 -2.078125 -9.5625q0 -5.40625 2.0625 -9.46875q2.0625 -4.0625 5.84375 -6.34375q3.78125 -2.28125 8.875 -2.28125q3.4375 0 6.40625 1.09375q2.96875 1.09375 5.21875 3.296875q2.25 2.203125 3.515625 5.515625q1.265625 3.3125 1.265625 7.8125l0 2.625l-29.34375 0l0 -5.875l24.75 0l-4.375 1.5625q0 -2.71875 -0.828125 -4.734375q-0.828125 -2.015625 -2.46875 -3.125q-1.640625 -1.109375 -4.046875 -1.109375q-2.4375 0 -4.140625 1.125q-1.703125 1.125 -2.578125 3.046875q-0.875 1.921875 -0.875 4.390625l0 4.15625q0 3.03125 1.015625 5.09375q1.015625 2.0625 2.84375 3.09375q1.828125 1.03125 4.265625 1.03125q1.65625 0 3.0 -0.46875q1.34375 -0.46875 2.296875 -1.390625q0.953125 -0.921875 1.453125 -2.265625l8.5 1.59375q-0.84375 2.875 -2.9375 5.046875q-2.09375 2.171875 -5.234375 3.359375q-3.140625 1.1875 -7.234375 1.1875zm37.96875 0q-5.28125 0 -9.109375 -2.265625q-3.828125 -2.265625 -5.90625 -6.3125q-2.078125 -4.046875 -2.078125 -9.421875q0 -5.4375 2.078125 -9.484375q2.078125 -4.046875 5.90625 -6.3125q3.828125 -2.265625 9.109375 -2.265625q3.09375 0 5.71875 0.8125q2.625 0.8125 4.65625 2.3125q2.03125 1.5 3.34375 3.65625q1.3125 2.15625 1.8125 4.84375l-8.71875 1.625q-0.28125 -1.375 -0.875 -2.453125q-0.59375 -1.078125 -1.4375 -1.84375q-0.84375 -0.765625 -1.953125 -1.171875q-1.109375 -0.40625 -2.453125 -0.40625q-2.5 0 -4.203125 1.34375q-1.703125 1.34375 -2.5625 3.75q-0.859375 2.40625 -0.859375 5.5625q0 3.09375 0.859375 5.5q0.859375 2.40625 2.5625 3.78125q1.703125 1.375 4.203125 1.375q1.34375 0 2.46875 -0.421875q1.125 -0.421875 2.0 -1.21875q0.875 -0.796875 1.46875 -1.921875q0.59375 -1.125 0.84375 -2.53125l8.71875 1.59375q-0.5 2.78125 -1.8125 4.953125q-1.3125 2.171875 -3.34375 3.734375q-2.03125 1.5625 -4.671875 2.375q-2.640625 0.8125 -5.765625 0.8125zm39.375 -35.625l0 7.15625l-20.71875 0l0 -7.15625l20.71875 0zm-15.90625 -8.3125l9.375 0l0 33.03125q0 1.65625 0.734375 2.453125q0.734375 0.796875 2.453125 0.796875q0.53125 0 1.5 -0.140625q0.96875 -0.140625 1.46875 -0.265625l1.34375 7.03125q-1.5625 0.46875 -3.109375 0.65625q-1.546875 0.1875 -2.953125 0.1875q-5.25 0 -8.03125 -2.5625q-2.78125 -2.5625 -2.78125 -7.34375l0 -33.84375zm22.0 43.25l0 -34.9375l9.375 0l0 34.9375l-9.375 0zm4.6875 -39.5q-2.125 0 -3.625 -1.40625q-1.5 -1.40625 -1.5 -3.40625q0 -2.0 1.5 -3.40625q1.5 -1.40625 3.625 -1.40625q2.125 0 3.640625 1.390625q1.515625 1.390625 1.515625 3.421875q0 2.0 -1.515625 3.40625q-1.515625 1.40625 -3.640625 1.40625zm28.28125 40.1875q-5.25 0 -9.09375 -2.265625q-3.84375 -2.265625 -5.921875 -6.3125q-2.078125 -4.046875 -2.078125 -9.421875q0 -5.4375 2.078125 -9.484375q2.078125 -4.046875 5.921875 -6.3125q3.84375 -2.265625 9.09375 -2.265625q5.28125 0 9.109375 2.265625q3.828125 2.265625 5.90625 6.3125q2.078125 4.046875 2.078125 9.484375q0 5.375 -2.078125 9.421875q-2.078125 4.046875 -5.90625 6.3125q-3.828125 2.265625 -9.109375 2.265625zm0 -7.375q2.5 0 4.1875 -1.390625q1.6875 -1.390625 2.53125 -3.8125q0.84375 -2.421875 0.84375 -5.453125q0 -3.09375 -0.84375 -5.5q-0.84375 -2.40625 -2.53125 -3.78125q-1.6875 -1.375 -4.1875 -1.375q-2.5 0 -4.171875 1.375q-1.671875 1.375 -2.515625 3.78125q-0.84375 2.40625 -0.84375 5.5q0 3.03125 0.84375 5.453125q0.84375 2.421875 2.515625 3.8125q1.671875 1.390625 4.171875 1.390625zm33.0 -13.53125l0 20.21875l-9.375 0l0 -34.9375l8.84375 0l0.15625 8.71875l-0.5625 0q1.375 -4.375 4.171875 -6.765625q2.796875 -2.390625 7.234375 -2.390625q3.625 0 6.328125 1.578125q2.703125 1.578125 4.1875 4.53125q1.484375 2.953125 1.484375 7.046875l0 22.21875l-9.375 0l0 -20.59375q0 -3.25 -1.671875 -5.09375q-1.671875 -1.84375 -4.640625 -1.84375q-1.96875 0 -3.515625 0.859375q-1.546875 0.859375 -2.40625 2.484375q-0.859375 1.625 -0.859375 3.96875zm62.96875 -14.71875l0 7.15625l-20.71875 0l0 -7.15625l20.71875 0zm-15.90625 -8.3125l9.375 0l0 33.03125q0 1.65625 0.734375 2.453125q0.734375 0.796875 2.453125 0.796875q0.53125 0 1.5 -0.140625q0.96875 -0.140625 1.46875 -0.265625l1.34375 7.03125q-1.5625 0.46875 -3.109375 0.65625q-1.546875 0.1875 -2.953125 0.1875q-5.25 0 -8.03125 -2.5625q-2.78125 -2.5625 -2.78125 -7.34375l0 -33.84375zm22.0 43.25l0 -34.9375l9.375 0l0 34.9375l-9.375 0zm4.6875 -39.5q-2.125 0 -3.625 -1.40625q-1.5 -1.40625 -1.5 -3.40625q0 -2.0 1.5 -3.40625q1.5 -1.40625 3.625 -1.40625q2.125 0 3.640625 1.390625q1.515625 1.390625 1.515625 3.421875q0 2.0 -1.515625 3.40625q-1.515625 1.40625 -3.640625 1.40625zm30.0 4.5625l0 7.15625l-20.71875 0l0 -7.15625l20.71875 0zm-15.90625 -8.3125l9.375 0l0 33.03125q0 1.65625 0.734375 2.453125q0.734375 0.796875 2.453125 0.796875q0.53125 0 1.5 -0.140625q0.96875 -0.140625 1.46875 -0.265625l1.34375 7.03125q-1.5625 0.46875 -3.109375 0.65625q-1.546875 0.1875 -2.953125 0.1875q-5.25 0 -8.03125 -2.5625q-2.78125 -2.5625 -2.78125 -7.34375l0 -33.84375zm31.53125 -3.3125l0 46.5625l-9.375 0l0 -46.5625l9.375 0zm23.75 47.25q-5.34375 0 -9.21875 -2.1875q-3.875 -2.1875 -5.953125 -6.21875q-2.078125 -4.03125 -2.078125 -9.5625q0 -5.40625 2.0625 -9.46875q2.0625 -4.0625 5.84375 -6.34375q3.78125 -2.28125 8.875 -2.28125q3.4375 0 6.40625 1.09375q2.96875 1.09375 5.21875 3.296875q2.25 2.203125 3.515625 5.515625q1.265625 3.3125 1.265625 7.8125l0 2.625l-29.34375 0l0 -5.875l24.75 0l-4.375 1.5625q0 -2.71875 -0.828125 -4.734375q-0.828125 -2.015625 -2.46875 -3.125q-1.640625 -1.109375 -4.046875 -1.109375q-2.4375 0 -4.140625 1.125q-1.703125 1.125 -2.578125 3.046875q-0.875 1.921875 -0.875 4.390625l0 4.15625q0 3.03125 1.015625 5.09375q1.015625 2.0625 2.84375 3.09375q1.828125 1.03125 4.265625 1.03125q1.65625 0 3.0 -0.46875q1.34375 -0.46875 2.296875 -1.390625q0.953125 -0.921875 1.453125 -2.265625l8.5 1.59375q-0.84375 2.875 -2.9375 5.046875q-2.09375 2.171875 -5.234375 3.359375q-3.140625 1.1875 -7.234375 1.1875z" fill-rule="nonzero"/></g></svg>