<svg version="1.1" viewBox="0.0 0.0 960.0 540.0" fill="none" stroke="none" stroke-linecap="square" stroke-miterlimit="10" xmlns:xlink="http://www.w3.org/1999/xlink" xmlns="http://www.w3.org/2000/svg"><clipPath id="g12cfdd464d9_0_2.0"><path d="m0 0l960.0 0l0 540.0l-960.0 0l0 -540.0z" clip-rule="nonzero"/></clipPath><g clip-path="url(#g12cfdd464d9_0_2.0)"><path fill="#000000" d="m0 0l960.0 0l0 540.0l-960.0 0z" fill-rule="evenodd"/><path fill="#000000" fill-opacity="0.0" d="m279.04773 224.0l487.43304 0l0 69.82678l-487.43304 0z" fill-rule="evenodd"/><path fill="#ffffff" d="m281.1571 251.648l0 -23.28125l15.3125 0l0 3.953125l-10.546875 0l0 6.5l9.515625 0l0 3.890625l-9.515625 0l0 8.9375l-4.765625 0zm25.640625 0.34375q-2.671875 0 -4.609375 -1.09375q-1.9375 -1.09375 -2.984375 -3.109375q-1.03125 -2.015625 -1.03125 -4.78125q0 -2.703125 1.03125 -4.734375q1.03125 -2.03125 2.921875 -3.171875q1.890625 -1.140625 4.4375 -1.140625q1.71875 0 3.203125 0.546875q1.484375 0.546875 2.609375 1.65625q1.125 1.09375 1.75 2.75q0.640625 1.65625 0.640625 3.90625l0 1.3125l-14.671875 0l0 -2.9375l12.375 0l-2.1875 0.78125q0 -1.359375 -0.421875 -2.359375q-0.40625 -1.015625 -1.234375 -1.5625q-0.8125 -0.5625 -2.015625 -0.5625q-1.21875 0 -2.078125 0.5625q-0.84375 0.5625 -1.28125 1.53125q-0.4375 0.953125 -0.4375 2.1875l0 2.078125q0 1.515625 0.5 2.546875q0.515625 1.03125 1.421875 1.546875q0.921875 0.515625 2.140625 0.515625q0.828125 0 1.5 -0.234375q0.671875 -0.234375 1.140625 -0.6875q0.484375 -0.46875 0.734375 -1.140625l4.25 0.796875q-0.421875 1.4375 -1.46875 2.53125q-1.046875 1.078125 -2.625 1.671875q-1.5625 0.59375 -3.609375 0.59375zm16.359375 0q-1.65625 0 -2.984375 -0.578125q-1.3125 -0.59375 -2.078125 -1.75q-0.75 -1.171875 -0.75 -2.90625q0 -1.453125 0.53125 -2.4375q0.546875 -0.984375 1.46875 -1.578125q0.9375 -0.59375 2.109375 -0.90625q1.1875 -0.3125 2.484375 -0.4375q1.515625 -0.15625 2.4375 -0.28125q0.9375 -0.140625 1.359375 -0.421875q0.4375 -0.296875 0.4375 -0.859375l0 -0.078125q0 -0.75 -0.3125 -1.265625q-0.3125 -0.515625 -0.9375 -0.78125q-0.609375 -0.28125 -1.484375 -0.28125q-0.90625 0 -1.578125 0.28125q-0.671875 0.265625 -1.09375 0.71875q-0.421875 0.453125 -0.625 1.015625l-4.296875 -0.703125q0.453125 -1.53125 1.5 -2.59375q1.046875 -1.0625 2.59375 -1.625q1.5625 -0.5625 3.515625 -0.5625q1.40625 0 2.734375 0.34375q1.328125 0.328125 2.375 1.03125q1.0625 0.703125 1.671875 1.84375q0.625 1.125 0.625 2.703125l0 11.765625l-4.4375 0l0 -2.421875l-0.15625 0q-0.421875 0.8125 -1.125 1.4375q-0.703125 0.609375 -1.703125 0.96875q-0.984375 0.359375 -2.28125 0.359375zm1.328125 -3.296875q1.109375 0 1.9375 -0.4375q0.84375 -0.4375 1.3125 -1.1875q0.46875 -0.75 0.46875 -1.671875l0 -1.890625q-0.203125 0.15625 -0.625 0.28125q-0.421875 0.125 -0.9375 0.21875q-0.515625 0.09375 -1.015625 0.171875q-0.5 0.078125 -0.890625 0.125q-0.859375 0.125 -1.515625 0.40625q-0.65625 0.28125 -1.015625 0.75q-0.359375 0.453125 -0.359375 1.171875q0 0.671875 0.34375 1.140625q0.34375 0.453125 0.9375 0.6875q0.59375 0.234375 1.359375 0.234375zm21.046875 -14.515625l0 3.578125l-10.359375 0l0 -3.578125l10.359375 0zm-7.953125 -4.15625l4.6875 0l0 16.515625q0 0.828125 0.359375 1.234375q0.375 0.390625 1.234375 0.390625q0.265625 0 0.75 -0.0625q0.484375 -0.078125 0.734375 -0.140625l0.671875 3.515625q-0.78125 0.234375 -1.5625 0.328125q-0.765625 0.09375 -1.46875 0.09375q-2.625 0 -4.015625 -1.28125q-1.390625 -1.28125 -1.390625 -3.671875l0 -16.921875zm17.015625 21.84375q-1.8125 0 -3.171875 -0.78125q-1.359375 -0.796875 -2.109375 -2.265625q-0.734375 -1.484375 -0.734375 -3.53125l0 -11.109375l4.6875 0l0 10.296875q0 1.625 0.84375 2.546875q0.84375 0.921875 2.3125 0.921875q1.0 0 1.765625 -0.421875q0.765625 -0.4375 1.1875 -1.25q0.4375 -0.828125 0.4375 -1.984375l0 -10.109375l4.703125 0l0 17.46875l-4.4375 0l-0.0625 -4.359375l0.265625 0q-0.6875 2.203125 -2.109375 3.390625q-1.40625 1.1875 -3.578125 1.1875zm13.90625 -0.21875l0 -17.46875l4.53125 0l0 3.046875l0.1875 0q0.484375 -1.625 1.609375 -2.453125q1.140625 -0.828125 2.609375 -0.828125q0.359375 0 0.78125 0.046875q0.421875 0.03125 0.734375 0.109375l0 4.1875q-0.3125 -0.109375 -0.90625 -0.171875q-0.59375 -0.0625 -1.125 -0.0625q-1.0625 0 -1.921875 0.46875q-0.859375 0.453125 -1.34375 1.28125q-0.46875 0.8125 -0.46875 1.90625l0 9.9375l-4.6875 0zm20.140625 0.34375q-2.671875 0 -4.609375 -1.09375q-1.9375 -1.09375 -2.984375 -3.109375q-1.03125 -2.015625 -1.03125 -4.78125q0 -2.703125 1.03125 -4.734375q1.03125 -2.03125 2.921875 -3.171875q1.890625 -1.140625 4.4375 -1.140625q1.71875 0 3.203125 0.546875q1.484375 0.546875 2.609375 1.65625q1.125 1.09375 1.75 2.75q0.640625 1.65625 0.640625 3.90625l0 1.3125l-14.671875 0l0 -2.9375l12.375 0l-2.1875 0.78125q0 -1.359375 -0.421875 -2.359375q-0.40625 -1.015625 -1.234375 -1.5625q-0.8125 -0.5625 -2.015625 -0.5625q-1.21875 0 -2.078125 0.5625q-0.84375 0.5625 -1.28125 1.53125q-0.4375 0.953125 -0.4375 2.1875l0 2.078125q0 1.515625 0.5 2.546875q0.515625 1.03125 1.421875 1.546875q0.921875 0.515625 2.140625 0.515625q0.828125 0 1.5 -0.234375q0.671875 -0.234375 1.140625 -0.6875q0.484375 -0.46875 0.734375 -1.140625l4.25 0.796875q-0.421875 1.4375 -1.46875 2.53125q-1.046875 1.078125 -2.625 1.671875q-1.5625 0.59375 -3.609375 0.59375zm23.4375 -10.453125l0 10.109375l-4.6875 0l0 -17.46875l4.421875 0l0.078125 4.359375l-0.28125 0q0.6875 -2.1875 2.078125 -3.375q1.40625 -1.203125 3.625 -1.203125q1.8125 0 3.15625 0.796875q1.359375 0.78125 2.09375 2.265625q0.75 1.46875 0.75 3.515625l0 11.109375l-4.6875 0l0 -10.296875q0 -1.625 -0.84375 -2.546875q-0.828125 -0.921875 -2.3125 -0.921875q-0.984375 0 -1.765625 0.4375q-0.765625 0.421875 -1.203125 1.234375q-0.421875 0.8125 -0.421875 1.984375zm21.25 10.328125q-1.8125 0 -3.171875 -0.78125q-1.359375 -0.796875 -2.109375 -2.265625q-0.734375 -1.484375 -0.734375 -3.53125l0 -11.109375l4.6875 0l0 10.296875q0 1.625 0.84375 2.546875q0.84375 0.921875 2.3125 0.921875q1.0 0 1.765625 -0.421875q0.765625 -0.4375 1.1875 -1.25q0.4375 -0.828125 0.4375 -1.984375l0 -10.109375l4.703125 0l0 17.46875l-4.4375 0l-0.0625 -4.359375l0.265625 0q-0.6875 2.203125 -2.109375 3.390625q-1.40625 1.1875 -3.578125 1.1875zm13.90625 -0.21875l0 -17.46875l4.34375 0l0.234375 4.34375l-0.34375 0q0.40625 -1.609375 1.1875 -2.625q0.796875 -1.015625 1.859375 -1.5q1.0625 -0.484375 2.234375 -0.484375q1.890625 0 3.046875 1.203125q1.15625 1.1875 1.703125 3.6875l-0.546875 0q0.390625 -1.671875 1.265625 -2.75q0.890625 -1.09375 2.09375 -1.609375q1.21875 -0.53125 2.546875 -0.53125q1.609375 0 2.859375 0.703125q1.265625 0.703125 1.984375 2.03125q0.734375 1.3125 0.734375 3.21875l0 11.78125l-4.6875 0l0 -10.890625q0 -1.484375 -0.8125 -2.203125q-0.796875 -0.71875 -1.96875 -0.71875q-0.875 0 -1.53125 0.390625q-0.640625 0.375 -1.0 1.0625q-0.34375 0.6875 -0.34375 1.609375l0 10.75l-4.53125 0l0 -11.015625q0 -1.28125 -0.765625 -2.03125q-0.75 -0.765625 -1.953125 -0.765625q-0.828125 0 -1.5 0.375q-0.65625 0.375 -1.046875 1.109375q-0.375 0.71875 -0.375 1.765625l0 10.5625l-4.6875 0zm38.984375 0.296875q-1.421875 0 -2.40625 -0.484375q-0.984375 -0.484375 -1.609375 -1.1875q-0.609375 -0.71875 -0.9375 -1.421875l-0.21875 0l0 2.796875l-4.609375 0l0 -23.28125l4.6875 0l0 8.75l0.140625 0q0.328125 -0.6875 0.921875 -1.421875q0.609375 -0.734375 1.59375 -1.234375q0.984375 -0.5 2.46875 -0.5q1.9375 0 3.546875 1.0q1.609375 1.0 2.5625 3.0q0.96875 2.0 0.96875 4.984375q0 2.90625 -0.9375 4.921875q-0.9375 2.0 -2.546875 3.046875q-1.609375 1.03125 -3.625 1.03125zm-1.4375 -3.765625q1.21875 0 2.046875 -0.671875q0.84375 -0.671875 1.265625 -1.859375q0.4375 -1.1875 0.4375 -2.71875q0 -1.53125 -0.4375 -2.703125q-0.421875 -1.171875 -1.25 -1.84375q-0.828125 -0.671875 -2.0625 -0.671875q-1.203125 0 -2.046875 0.65625q-0.84375 0.640625 -1.28125 1.8125q-0.4375 1.15625 -0.4375 2.75q0 1.578125 0.4375 2.765625q0.453125 1.171875 1.296875 1.828125q0.84375 0.65625 2.03125 0.65625zm19.71875 3.8125q-2.671875 0 -4.609375 -1.09375q-1.9375 -1.09375 -2.984375 -3.109375q-1.03125 -2.015625 -1.03125 -4.78125q0 -2.703125 1.03125 -4.734375q1.03125 -2.03125 2.921875 -3.171875q1.890625 -1.140625 4.4375 -1.140625q1.71875 0 3.203125 0.546875q1.484375 0.546875 2.609375 1.65625q1.125 1.09375 1.75 2.75q0.640625 1.65625 0.640625 3.90625l0 1.3125l-14.671875 0l0 -2.9375l12.375 0l-2.1875 0.78125q0 -1.359375 -0.421875 -2.359375q-0.40625 -1.015625 -1.234375 -1.5625q-0.8125 -0.5625 -2.015625 -0.5625q-1.21875 0 -2.078125 0.5625q-0.84375 0.5625 -1.28125 1.53125q-0.4375 0.953125 -0.4375 2.1875l0 2.078125q0 1.515625 0.5 2.546875q0.515625 1.03125 1.421875 1.546875q0.921875 0.515625 2.140625 0.515625q0.828125 0 1.5 -0.234375q0.671875 -0.234375 1.140625 -0.6875q0.484375 -0.46875 0.734375 -1.140625l4.25 0.796875q-0.421875 1.4375 -1.46875 2.53125q-1.046875 1.078125 -2.625 1.671875q-1.5625 0.59375 -3.609375 0.59375zm11.171875 -0.34375l0 -17.46875l4.53125 0l0 3.046875l0.1875 0q0.484375 -1.625 1.609375 -2.453125q1.140625 -0.828125 2.609375 -0.828125q0.359375 0 0.78125 0.046875q0.421875 0.03125 0.734375 0.109375l0 4.1875q-0.3125 -0.109375 -0.90625 -0.171875q-0.59375 -0.0625 -1.125 -0.0625q-1.0625 0 -1.921875 0.46875q-0.859375 0.453125 -1.34375 1.28125q-0.46875 0.8125 -0.46875 1.90625l0 9.9375l-4.6875 0zm20.140625 0.34375q-2.671875 0 -4.609375 -1.09375q-1.9375 -1.09375 -2.984375 -3.109375q-1.03125 -2.015625 -1.03125 -4.78125q0 -2.703125 1.03125 -4.734375q1.03125 -2.03125 2.921875 -3.171875q1.890625 -1.140625 4.4375 -1.140625q1.71875 0 3.203125 0.546875q1.484375 0.546875 2.609375 1.65625q1.125 1.09375 1.75 2.75q0.640625 1.65625 0.640625 3.90625l0 1.3125l-14.671875 0l0 -2.9375l12.375 0l-2.1875 0.78125q0 -1.359375 -0.421875 -2.359375q-0.40625 -1.015625 -1.234375 -1.5625q-0.8125 -0.5625 -2.015625 -0.5625q-1.21875 0 -2.078125 0.5625q-0.84375 0.5625 -1.28125 1.53125q-0.4375 0.953125 -0.4375 2.1875l0 2.078125q0 1.515625 0.5 2.546875q0.515625 1.03125 1.421875 1.546875q0.921875 0.515625 2.140625 0.515625q0.828125 0 1.5 -0.234375q0.671875 -0.234375 1.140625 -0.6875q0.484375 -0.46875 0.734375 -1.140625l4.25 0.796875q-0.421875 1.4375 -1.46875 2.53125q-1.046875 1.078125 -2.625 1.671875q-1.5625 0.59375 -3.609375 0.59375zm17.546875 -0.046875q-2.0 0 -3.625 -1.03125q-1.609375 -1.046875 -2.546875 -3.046875q-0.9375 -2.015625 -0.9375 -4.921875q0 -2.984375 0.96875 -4.984375q0.96875 -2.0 2.578125 -3.0q1.609375 -1.0 3.546875 -1.0q1.484375 0 2.46875 0.5q0.984375 0.5 1.59375 1.234375q0.609375 0.734375 0.90625 1.421875l0.15625 0l0 -8.75l4.6875 0l0 23.28125l-4.609375 0l0 -2.796875l-0.234375 0q-0.3125 0.703125 -0.9375 1.421875q-0.609375 0.703125 -1.59375 1.1875q-0.984375 0.484375 -2.421875 0.484375zm1.453125 -3.765625q1.1875 0 2.03125 -0.65625q0.84375 -0.65625 1.28125 -1.828125q0.4375 -1.1875 0.4375 -2.765625q0 -1.59375 -0.4375 -2.75q-0.421875 -1.171875 -1.265625 -1.8125q-0.84375 -0.65625 -2.046875 -0.65625q-1.234375 0 -2.078125 0.671875q-0.828125 0.671875 -1.25 1.84375q-0.421875 1.171875 -0.421875 2.703125q0 1.53125 0.421875 2.71875q0.4375 1.1875 1.265625 1.859375q0.84375 0.671875 2.0625 0.671875zm26.859375 3.8125q-2.109375 0 -3.734375 -0.59375q-1.625 -0.609375 -2.65625 -1.75q-1.03125 -1.15625 -1.328125 -2.78125l4.359375 -0.75q0.34375 1.21875 1.203125 1.828125q0.859375 0.609375 2.296875 0.609375q1.34375 0 2.109375 -0.5q0.78125 -0.515625 0.78125 -1.296875q0 -0.6875 -0.5625 -1.125q-0.546875 -0.4375 -1.6875 -0.671875l-3.015625 -0.625q-2.53125 -0.515625 -3.78125 -1.75q-1.25 -1.25 -1.25 -3.203125q0 -1.6875 0.921875 -2.890625q0.921875 -1.21875 2.5625 -1.875q1.640625 -0.65625 3.859375 -0.65625q2.0625 0 3.578125 0.578125q1.515625 0.5625 2.453125 1.609375q0.9375 1.046875 1.25 2.46875l-4.15625 0.734375q-0.265625 -0.890625 -1.03125 -1.453125q-0.75 -0.578125 -2.03125 -0.578125q-1.15625 0 -1.9375 0.484375q-0.78125 0.484375 -0.78125 1.296875q0 0.65625 0.5 1.109375q0.515625 0.453125 1.75 0.703125l3.140625 0.625q2.53125 0.515625 3.765625 1.6875q1.234375 1.15625 1.234375 3.03125q0 1.71875 -1.0 3.015625q-1.0 1.28125 -2.765625 2.0q-1.75 0.71875 -4.046875 0.71875zm19.65625 -17.8125l0 3.578125l-10.359375 0l0 -3.578125l10.359375 0zm-7.953125 -4.15625l4.6875 0l0 16.515625q0 0.828125 0.359375 1.234375q0.375 0.390625 1.234375 0.390625q0.265625 0 0.75 -0.0625q0.484375 -0.078125 0.734375 -0.140625l0.671875 3.515625q-0.78125 0.234375 -1.5625 0.328125q-0.765625 0.09375 -1.46875 0.09375q-2.625 0 -4.015625 -1.28125q-1.390625 -1.28125 -1.390625 -3.671875l0 -16.921875zm16.03125 21.96875q-1.65625 0 -2.984375 -0.578125q-1.3125 -0.59375 -2.078125 -1.75q-0.75 -1.171875 -0.75 -2.90625q0 -1.453125 0.53125 -2.4375q0.546875 -0.984375 1.46875 -1.578125q0.9375 -0.59375 2.109375 -0.90625q1.1875 -0.3125 2.484375 -0.4375q1.515625 -0.15625 2.4375 -0.28125q0.9375 -0.140625 1.359375 -0.421875q0.4375 -0.296875 0.4375 -0.859375l0 -0.078125q0 -0.75 -0.3125 -1.265625q-0.3125 -0.515625 -0.9375 -0.78125q-0.609375 -0.28125 -1.484375 -0.28125q-0.90625 0 -1.578125 0.28125q-0.671875 0.265625 -1.09375 0.71875q-0.421875 0.453125 -0.625 1.015625l-4.296875 -0.703125q0.453125 -1.53125 1.5 -2.59375q1.046875 -1.0625 2.59375 -1.625q1.5625 -0.5625 3.515625 -0.5625q1.40625 0 2.734375 0.34375q1.328125 0.328125 2.375 1.03125q1.0625 0.703125 1.671875 1.84375q0.625 1.125 0.625 2.703125l0 11.765625l-4.4375 0l0 -2.421875l-0.15625 0q-0.421875 0.8125 -1.125 1.4375q-0.703125 0.609375 -1.703125 0.96875q-0.984375 0.359375 -2.28125 0.359375zm1.328125 -3.296875q1.109375 0 1.9375 -0.4375q0.84375 -0.4375 1.3125 -1.1875q0.46875 -0.75 0.46875 -1.671875l0 -1.890625q-0.203125 0.15625 -0.625 0.28125q-0.421875 0.125 -0.9375 0.21875q-0.515625 0.09375 -1.015625 0.171875q-0.5 0.078125 -0.890625 0.125q-0.859375 0.125 -1.515625 0.40625q-0.65625 0.28125 -1.015625 0.75q-0.359375 0.453125 -0.359375 1.171875q0 0.671875 0.34375 1.140625q0.34375 0.453125 0.9375 0.6875q0.59375 0.234375 1.359375 0.234375zm21.046875 -14.515625l0 3.578125l-10.359375 0l0 -3.578125l10.359375 0zm-7.953125 -4.15625l4.6875 0l0 16.515625q0 0.828125 0.359375 1.234375q0.375 0.390625 1.234375 0.390625q0.265625 0 0.75 -0.0625q0.484375 -0.078125 0.734375 -0.140625l0.671875 3.515625q-0.78125 0.234375 -1.5625 0.328125q-0.765625 0.09375 -1.46875 0.09375q-2.625 0 -4.015625 -1.28125q-1.390625 -1.28125 -1.390625 -3.671875l0 -16.921875zm18.578125 21.96875q-2.671875 0 -4.609375 -1.09375q-1.9375 -1.09375 -2.984375 -3.109375q-1.03125 -2.015625 -1.03125 -4.78125q0 -2.703125 1.03125 -4.734375q1.03125 -2.03125 2.921875 -3.171875q1.890625 -1.140625 4.4375 -1.140625q1.71875 0 3.203125 0.546875q1.484375 0.546875 2.609375 1.65625q1.125 1.09375 1.75 2.75q0.640625 1.65625 0.640625 3.90625l0 1.3125l-14.671875 0l0 -2.9375l12.375 0l-2.1875 0.78125q0 -1.359375 -0.421875 -2.359375q-0.40625 -1.015625 -1.234375 -1.5625q-0.8125 -0.5625 -2.015625 -0.5625q-1.21875 0 -2.078125 0.5625q-0.84375 0.5625 -1.28125 1.53125q-0.4375 0.953125 -0.4375 2.1875l0 2.078125q0 1.515625 0.5 2.546875q0.515625 1.03125 1.421875 1.546875q0.921875 0.515625 2.140625 0.515625q0.828125 0 1.5 -0.234375q0.671875 -0.234375 1.140625 -0.6875q0.484375 -0.46875 0.734375 -1.140625l4.25 0.796875q-0.421875 1.4375 -1.46875 2.53125q-1.046875 1.078125 -2.625 1.671875q-1.5625 0.59375 -3.609375 0.59375zm11.171875 -0.34375l0 -17.46875l4.34375 0l0.234375 4.34375l-0.34375 0q0.40625 -1.609375 1.1875 -2.625q0.796875 -1.015625 1.859375 -1.5q1.0625 -0.484375 2.234375 -0.484375q1.890625 0 3.046875 1.203125q1.15625 1.1875 1.703125 3.6875l-0.546875 0q0.390625 -1.671875 1.265625 -2.75q0.890625 -1.09375 2.09375 -1.609375q1.21875 -0.53125 2.546875 -0.53125q1.609375 0 2.859375 0.703125q1.265625 0.703125 1.984375 2.03125q0.734375 1.3125 0.734375 3.21875l0 11.78125l-4.6875 0l0 -10.890625q0 -1.484375 -0.8125 -2.203125q-0.796875 -0.71875 -1.96875 -0.71875q-0.875 0 -1.53125 0.390625q-0.640625 0.375 -1.0 1.0625q-0.34375 0.6875 -0.34375 1.609375l0 10.75l-4.53125 0l0 -11.015625q0 -1.28125 -0.765625 -2.03125q-0.75 -0.765625 -1.953125 -0.765625q-0.828125 0 -1.5 0.375q-0.65625 0.375 -1.046875 1.109375q-0.375 0.71875 -0.375 1.765625l0 10.5625l-4.6875 0zm37.09375 0.34375q-2.671875 0 -4.609375 -1.09375q-1.9375 -1.09375 -2.984375 -3.109375q-1.03125 -2.015625 -1.03125 -4.78125q0 -2.703125 1.03125 -4.734375q1.03125 -2.03125 2.921875 -3.171875q1.890625 -1.140625 4.4375 -1.140625q1.71875 0 3.203125 0.546875q1.484375 0.546875 2.609375 1.65625q1.125 1.09375 1.75 2.75q0.640625 1.65625 0.640625 3.90625l0 1.3125l-14.671875 0l0 -2.9375l12.375 0l-2.1875 0.78125q0 -1.359375 -0.421875 -2.359375q-0.40625 -1.015625 -1.234375 -1.5625q-0.8125 -0.5625 -2.015625 -0.5625q-1.21875 0 -2.078125 0.5625q-0.84375 0.5625 -1.28125 1.53125q-0.4375 0.953125 -0.4375 2.1875l0 2.078125q0 1.515625 0.5 2.546875q0.515625 1.03125 1.421875 1.546875q0.921875 0.515625 2.140625 0.515625q0.828125 0 1.5 -0.234375q0.671875 -0.234375 1.140625 -0.6875q0.484375 -0.46875 0.734375 -1.140625l4.25 0.796875q-0.421875 1.4375 -1.46875 2.53125q-1.046875 1.078125 -2.625 1.671875q-1.5625 0.59375 -3.609375 0.59375zm15.859375 -10.453125l0 10.109375l-4.6875 0l0 -17.46875l4.421875 0l0.078125 4.359375l-0.28125 0q0.6875 -2.1875 2.078125 -3.375q1.40625 -1.203125 3.625 -1.203125q1.8125 0 3.15625 0.796875q1.359375 0.78125 2.09375 2.265625q0.75 1.46875 0.75 3.515625l0 11.109375l-4.6875 0l0 -10.296875q0 -1.625 -0.84375 -2.546875q-0.828125 -0.921875 -2.3125 -0.921875q-0.984375 0 -1.765625 0.4375q-0.765625 0.421875 -1.203125 1.234375q-0.421875 0.8125 -0.421875 1.984375zm23.90625 -7.359375l0 3.578125l-10.359375 0l0 -3.578125l10.359375 0zm-7.953125 -4.15625l4.6875 0l0 16.515625q0 0.828125 0.359375 1.234375q0.375 0.390625 1.234375 0.390625q0.265625 0 0.75 -0.0625q0.484375 -0.078125 0.734375 -0.140625l0.671875 3.515625q-0.78125 0.234375 -1.5625 0.328125q-0.765625 0.09375 -1.46875 0.09375q-2.625 0 -4.015625 -1.28125q-1.390625 -1.28125 -1.390625 -3.671875l0 -16.921875z" fill-rule="nonzero"/><path fill="#ffffff" d="m284.68835 286.208l-5.15625 -17.46875l4.921875 0l1.515625 6.453125q0.390625 1.734375 0.84375 3.78125q0.453125 2.03125 0.828125 4.5l-0.53125 0q0.40625 -2.40625 0.890625 -4.453125q0.484375 -2.0625 0.90625 -3.828125l1.59375 -6.453125l4.3125 0l1.5625 6.453125q0.390625 1.765625 0.875 3.8125q0.484375 2.03125 0.90625 4.46875l-0.53125 0q0.375 -2.421875 0.796875 -4.453125q0.4375 -2.046875 0.84375 -3.828125l1.515625 -6.453125l4.984375 0l-5.1875 17.46875l-4.765625 0l-1.9375 -6.734375q-0.28125 -1.015625 -0.5625 -2.234375q-0.28125 -1.234375 -0.546875 -2.5q-0.265625 -1.28125 -0.546875 -2.390625l0.828125 0q-0.265625 1.109375 -0.546875 2.390625q-0.265625 1.265625 -0.546875 2.5q-0.28125 1.234375 -0.5625 2.234375l-1.9375 6.734375l-4.765625 0zm30.9375 0.34375q-2.625 0 -4.546875 -1.125q-1.921875 -1.140625 -2.96875 -3.15625q-1.03125 -2.03125 -1.03125 -4.71875q0 -2.71875 1.03125 -4.734375q1.046875 -2.03125 2.96875 -3.15625q1.921875 -1.140625 4.546875 -1.140625q2.640625 0 4.546875 1.140625q1.921875 1.125 2.953125 3.15625q1.046875 2.015625 1.046875 4.734375q0 2.6875 -1.046875 4.71875q-1.03125 2.015625 -2.953125 3.15625q-1.90625 1.125 -4.546875 1.125zm0 -3.6875q1.25 0 2.09375 -0.6875q0.84375 -0.703125 1.265625 -1.90625q0.421875 -1.21875 0.421875 -2.734375q0 -1.546875 -0.421875 -2.75q-0.421875 -1.203125 -1.265625 -1.890625q-0.84375 -0.6875 -2.09375 -0.6875q-1.25 0 -2.09375 0.6875q-0.828125 0.6875 -1.25 1.890625q-0.421875 1.203125 -0.421875 2.75q0 1.515625 0.421875 2.734375q0.421875 1.203125 1.25 1.90625q0.84375 0.6875 2.09375 0.6875zm17.828125 3.5625q-1.8125 0 -3.171875 -0.78125q-1.359375 -0.796875 -2.109375 -2.265625q-0.734375 -1.484375 -0.734375 -3.53125l0 -11.109375l4.6875 0l0 10.296875q0 1.625 0.84375 2.546875q0.84375 0.921875 2.3125 0.921875q1.0 0 1.765625 -0.421875q0.765625 -0.4375 1.1875 -1.25q0.4375 -0.828125 0.4375 -1.984375l0 -10.109375l4.703125 0l0 17.46875l-4.4375 0l-0.0625 -4.359375l0.265625 0q-0.6875 2.203125 -2.109375 3.390625q-1.40625 1.1875 -3.578125 1.1875zm18.59375 -23.5l0 23.28125l-4.6875 0l0 -23.28125l4.6875 0zm10.359375 23.578125q-2.0 0 -3.625 -1.03125q-1.609375 -1.046875 -2.546875 -3.046875q-0.9375 -2.015625 -0.9375 -4.921875q0 -2.984375 0.96875 -4.984375q0.96875 -2.0 2.578125 -3.0q1.609375 -1.0 3.546875 -1.0q1.484375 0 2.46875 0.5q0.984375 0.5 1.59375 1.234375q0.609375 0.734375 0.90625 1.421875l0.15625 0l0 -8.75l4.6875 0l0 23.28125l-4.609375 0l0 -2.796875l-0.234375 0q-0.3125 0.703125 -0.9375 1.421875q-0.609375 0.703125 -1.59375 1.1875q-0.984375 0.484375 -2.421875 0.484375zm1.453125 -3.765625q1.1875 0 2.03125 -0.65625q0.84375 -0.65625 1.28125 -1.828125q0.4375 -1.1875 0.4375 -2.765625q0 -1.59375 -0.4375 -2.75q-0.421875 -1.171875 -1.265625 -1.8125q-0.84375 -0.65625 -2.046875 -0.65625q-1.234375 0 -2.078125 0.671875q-0.828125 0.671875 -1.25 1.84375q-0.421875 1.171875 -0.421875 2.703125q0 1.53125 0.421875 2.71875q0.4375 1.1875 1.265625 1.859375q0.84375 0.671875 2.0625 0.671875zm27.6875 10.375q-2.1875 0 -3.8125 -0.5625q-1.625 -0.546875 -2.640625 -1.515625q-1.015625 -0.96875 -1.40625 -2.203125l4.03125 -1.125q0.21875 0.484375 0.671875 0.9375q0.46875 0.46875 1.234375 0.765625q0.765625 0.296875 1.890625 0.296875q1.796875 0 2.8125 -0.828125q1.03125 -0.8125 1.03125 -2.546875l0 -3.21875l-0.359375 0q-0.3125 0.703125 -0.90625 1.359375q-0.59375 0.65625 -1.5625 1.078125q-0.953125 0.40625 -2.375 0.40625q-1.96875 0 -3.578125 -0.921875q-1.609375 -0.921875 -2.578125 -2.8125q-0.953125 -1.890625 -0.953125 -4.78125q0 -2.953125 0.96875 -4.9375q0.984375 -1.984375 2.59375 -2.984375q1.625 -1.0 3.5625 -1.0q1.46875 0 2.46875 0.5q1.0 0.484375 1.609375 1.234375q0.625 0.734375 0.9375 1.421875l0.203125 0l0 -2.9375l4.609375 0l0 17.328125q0 2.359375 -1.09375 3.921875q-1.078125 1.5625 -2.984375 2.34375q-1.90625 0.78125 -4.375 0.78125zm0.078125 -10.71875q1.203125 0 2.03125 -0.59375q0.84375 -0.59375 1.28125 -1.703125q0.4375 -1.125 0.4375 -2.6875q0 -1.546875 -0.4375 -2.703125q-0.4375 -1.15625 -1.28125 -1.796875q-0.828125 -0.640625 -2.03125 -0.640625q-1.234375 0 -2.078125 0.671875q-0.828125 0.65625 -1.265625 1.8125q-0.421875 1.15625 -0.421875 2.65625q0 1.53125 0.421875 2.65625q0.4375 1.109375 1.28125 1.71875q0.84375 0.609375 2.0625 0.609375zm20.1875 4.15625q-2.625 0 -4.546875 -1.125q-1.921875 -1.140625 -2.96875 -3.15625q-1.03125 -2.03125 -1.03125 -4.71875q0 -2.71875 1.03125 -4.734375q1.046875 -2.03125 2.96875 -3.15625q1.921875 -1.140625 4.546875 -1.140625q2.640625 0 4.546875 1.140625q1.921875 1.125 2.953125 3.15625q1.046875 2.015625 1.046875 4.734375q0 2.6875 -1.046875 4.71875q-1.03125 2.015625 -2.953125 3.15625q-1.90625 1.125 -4.546875 1.125zm0 -3.6875q1.25 0 2.09375 -0.6875q0.84375 -0.703125 1.265625 -1.90625q0.421875 -1.21875 0.421875 -2.734375q0 -1.546875 -0.421875 -2.75q-0.421875 -1.203125 -1.265625 -1.890625q-0.84375 -0.6875 -2.09375 -0.6875q-1.25 0 -2.09375 0.6875q-0.828125 0.6875 -1.25 1.890625q-0.421875 1.203125 -0.421875 2.75q0 1.515625 0.421875 2.734375q0.421875 1.203125 1.25 1.90625q0.84375 0.6875 2.09375 0.6875zm24.078125 -6.765625l0 10.109375l-4.6875 0l0 -23.28125l4.59375 0l0 10.171875l-0.375 0q0.6875 -2.1875 2.078125 -3.375q1.40625 -1.203125 3.625 -1.203125q1.8125 0 3.15625 0.796875q1.359375 0.78125 2.109375 2.265625q0.75 1.46875 0.75 3.515625l0 11.109375l-4.703125 0l0 -10.296875q0 -1.625 -0.84375 -2.546875q-0.828125 -0.921875 -2.3125 -0.921875q-0.984375 0 -1.765625 0.4375q-0.765625 0.421875 -1.203125 1.234375q-0.421875 0.8125 -0.421875 1.984375zm23.125 10.453125q-2.671875 0 -4.609375 -1.09375q-1.9375 -1.09375 -2.984375 -3.109375q-1.03125 -2.015625 -1.03125 -4.78125q0 -2.703125 1.03125 -4.734375q1.03125 -2.03125 2.921875 -3.171875q1.890625 -1.140625 4.4375 -1.140625q1.71875 0 3.203125 0.546875q1.484375 0.546875 2.609375 1.65625q1.125 1.09375 1.75 2.75q0.640625 1.65625 0.640625 3.90625l0 1.3125l-14.671875 0l0 -2.9375l12.375 0l-2.1875 0.78125q0 -1.359375 -0.421875 -2.359375q-0.40625 -1.015625 -1.234375 -1.5625q-0.8125 -0.5625 -2.015625 -0.5625q-1.21875 0 -2.078125 0.5625q-0.84375 0.5625 -1.28125 1.53125q-0.4375 0.953125 -0.4375 2.1875l0 2.078125q0 1.515625 0.5 2.546875q0.515625 1.03125 1.421875 1.546875q0.921875 0.515625 2.140625 0.515625q0.828125 0 1.5 -0.234375q0.671875 -0.234375 1.140625 -0.6875q0.484375 -0.46875 0.734375 -1.140625l4.25 0.796875q-0.421875 1.4375 -1.46875 2.53125q-1.046875 1.078125 -2.625 1.671875q-1.5625 0.59375 -3.609375 0.59375zm11.171875 -0.34375l0 -17.46875l4.53125 0l0 3.046875l0.1875 0q0.484375 -1.625 1.609375 -2.453125q1.140625 -0.828125 2.609375 -0.828125q0.359375 0 0.78125 0.046875q0.421875 0.03125 0.734375 0.109375l0 4.1875q-0.3125 -0.109375 -0.90625 -0.171875q-0.59375 -0.0625 -1.125 -0.0625q-1.0625 0 -1.921875 0.46875q-0.859375 0.453125 -1.34375 1.28125q-0.46875 0.8125 -0.46875 1.90625l0 9.9375l-4.6875 0zm20.140625 0.34375q-2.671875 0 -4.609375 -1.09375q-1.9375 -1.09375 -2.984375 -3.109375q-1.03125 -2.015625 -1.03125 -4.78125q0 -2.703125 1.03125 -4.734375q1.03125 -2.03125 2.921875 -3.171875q1.890625 -1.140625 4.4375 -1.140625q1.71875 0 3.203125 0.546875q1.484375 0.546875 2.609375 1.65625q1.125 1.09375 1.75 2.75q0.640625 1.65625 0.640625 3.90625l0 1.3125l-14.671875 0l0 -2.9375l12.375 0l-2.1875 0.78125q0 -1.359375 -0.421875 -2.359375q-0.40625 -1.015625 -1.234375 -1.5625q-0.8125 -0.5625 -2.015625 -0.5625q-1.21875 0 -2.078125 0.5625q-0.84375 0.5625 -1.28125 1.53125q-0.4375 0.953125 -0.4375 2.1875l0 2.078125q0 1.515625 0.5 2.546875q0.515625 1.03125 1.421875 1.546875q0.921875 0.515625 2.140625 0.515625q0.828125 0 1.5 -0.234375q0.671875 -0.234375 1.140625 -0.6875q0.484375 -0.46875 0.734375 -1.140625l4.25 0.796875q-0.421875 1.4375 -1.46875 2.53125q-1.046875 1.078125 -2.625 1.671875q-1.5625 0.59375 -3.609375 0.59375z" fill-rule="nonzero"/><path fill="#262626" d="m172.8 258.9139l0 0c0 -22.256638 18.042572 -40.29921 40.29921 -40.29921l0 0c10.688019 0 20.938278 4.2457886 28.49585 11.80336c7.5575714 7.5575714 11.80336 17.80783 11.80336 28.49585l0 0c0 22.256653 -18.042572 40.299225 -40.29921 40.299225l0 0c-22.256638 0 -40.29921 -18.042572 -40.29921 -40.299225z" fill-rule="evenodd"/><path stroke="#595959" stroke-width="2.0" stroke-linejoin="round" stroke-linecap="butt" d="m172.8 258.9139l0 0c0 -22.256638 18.042572 -40.29921 40.29921 -40.29921l0 0c10.688019 0 20.938278 4.2457886 28.49585 11.80336c7.5575714 7.5575714 11.80336 17.80783 11.80336 28.49585l0 0c0 22.256653 -18.042572 40.299225 -40.29921 40.299225l0 0c-22.256638 0 -40.29921 -18.042572 -40.29921 -40.299225z" fill-rule="evenodd"/><path fill="#ffffff" d="m219.49728 243.34267l0 31.031235l-6.34375 0l0 -25.437485l-0.203125 0l-7.109375 5.046875l0 -5.828125l6.859375 -4.8125l6.796875 0z" fill-rule="nonzero"/></g></svg>