<svg version="1.1" viewBox="0.0 0.0 960.0 540.0" fill="none" stroke="none" stroke-linecap="square" stroke-miterlimit="10" xmlns:xlink="http://www.w3.org/1999/xlink" xmlns="http://www.w3.org/2000/svg"><clipPath id="g1193cb87cd7_2_0.0"><path d="m0 0l960.0 0l0 540.0l-960.0 0l0 -540.0z" clip-rule="nonzero"/></clipPath><g clip-path="url(#g1193cb87cd7_2_0.0)"><path fill="#000000" d="m0 0l960.0 0l0 540.0l-960.0 0z" fill-rule="evenodd"/><path fill="#000000" fill-opacity="0.0" d="m32.72441 208.94489l894.55115 0l0 122.11023l-894.55115 0z" fill-rule="evenodd"/><path fill="#ffffff" d="m431.46875 277.04l8.15625 0l4.3125 5.53125l3.84375 4.5l7.78125 9.84375l-8.90625 0l-5.3125 -6.625l-2.59375 -3.6875l-7.28125 -9.5625zm2.9375 16.625q-6.15625 0 -11.078125 -2.8125q-4.921875 -2.8125 -7.78125 -8.15625q-2.859375 -5.34375 -2.859375 -12.90625q0 -7.59375 2.859375 -12.953125q2.859375 -5.359375 7.78125 -8.171875q4.921875 -2.8125 11.078125 -2.8125q6.1875 0 11.09375 2.8125q4.90625 2.8125 7.765625 8.171875q2.859375 5.359375 2.859375 12.953125q0 7.5625 -2.859375 12.90625q-2.859375 5.34375 -7.765625 8.15625q-4.90625 2.8125 -11.09375 2.8125zm0 -8.46875q3.625 0 6.328125 -1.765625q2.703125 -1.765625 4.203125 -5.21875q1.5 -3.453125 1.5 -8.421875q0 -5.03125 -1.5 -8.484375q-1.5 -3.453125 -4.203125 -5.21875q-2.703125 -1.765625 -6.328125 -1.765625q-3.59375 0 -6.3125 1.78125q-2.71875 1.78125 -4.21875 5.234375q-1.5 3.453125 -1.5 8.453125q0 4.96875 1.5 8.40625q1.5 3.4375 4.21875 5.21875q2.71875 1.78125 6.3125 1.78125zm43.15625 8.53125q-4.8125 0 -8.3125 -1.75q-3.5 -1.75 -5.375 -4.6875q-1.875 -2.9375 -1.875 -6.53125q0 -2.8125 1.109375 -4.9375q1.109375 -2.125 3.09375 -3.921875q1.984375 -1.796875 4.578125 -3.578125l8.875 -5.875q0.96875 -0.625 1.75 -1.421875q0.78125 -0.796875 1.234375 -1.71875q0.453125 -0.921875 0.453125 -1.984375q0 -1.59375 -1.125 -2.71875q-1.125 -1.125 -3.21875 -1.125q-1.375 0 -2.40625 0.53125q-1.03125 0.53125 -1.59375 1.5q-0.5625 0.96875 -0.5625 2.28125q0 1.53125 0.765625 3.046875q0.765625 1.515625 2.109375 3.171875q1.34375 1.65625 3.09375 3.6875l22.03125 25.34375l-9.875 0l-18.34375 -20.53125q-1.90625 -2.21875 -3.71875 -4.46875q-1.8125 -2.25 -3.0 -4.796875q-1.1875 -2.546875 -1.1875 -5.546875q0 -3.34375 1.578125 -6.015625q1.578125 -2.671875 4.421875 -4.21875q2.84375 -1.546875 6.625 -1.546875q3.71875 0 6.40625 1.484375q2.6875 1.484375 4.15625 3.96875q1.46875 2.484375 1.46875 5.515625q0 2.15625 -0.765625 4.0625q-0.765625 1.90625 -2.140625 3.53125q-1.375 1.625 -3.28125 3.03125l-9.5 6.84375q-1.90625 1.40625 -2.890625 2.796875q-0.984375 1.390625 -0.984375 3.234375q0 1.75 0.84375 3.0625q0.84375 1.3125 2.34375 2.015625q1.5 0.703125 3.5 0.703125q2.5625 0 4.984375 -1.125q2.421875 -1.125 4.40625 -3.203125q1.984375 -2.078125 3.15625 -4.96875q1.171875 -2.890625 1.171875 -6.390625l7.84375 0q0 4.3125 -0.9375 7.703125q-0.9375 3.390625 -2.5625 5.859375q-1.625 2.46875 -3.6875 4.03125l-2.40625 1.5625q-2.5625 2.09375 -5.84375 3.09375q-3.28125 1.0 -6.40625 1.0zm26.4375 -0.6875l15.90625 -46.5625l12.5 0l16.312561 46.5625l-10.593811 0l-7.46875 -22.46875q-1.34375 -4.34375 -2.734375 -9.515625q-1.390625 -5.171875 -2.921875 -11.296875l2.09375 0q-1.5 6.15625 -2.796875 11.359375q-1.296875 5.203125 -2.578125 9.453125l-7.1875 22.46875l-10.53125 0zm9.9375 -10.8125l0 -7.46875l24.84375 0l0 7.46875l-24.84375 0z" fill-rule="nonzero"/></g></svg>