<svg version="1.1" viewBox="0.0 0.0 960.0 540.0" fill="none" stroke="none" stroke-linecap="square" stroke-miterlimit="10" xmlns:xlink="http://www.w3.org/1999/xlink" xmlns="http://www.w3.org/2000/svg"><clipPath id="g12939da9b7f_3_46.0"><path d="m0 0l960.0 0l0 540.0l-960.0 0l0 -540.0z" clip-rule="nonzero"/></clipPath><g clip-path="url(#g12939da9b7f_3_46.0)"><path fill="#000000" d="m0 0l960.0 0l0 540.0l-960.0 0z" fill-rule="evenodd"/><path fill="#000000" fill-opacity="0.0" d="m235.65092 204.34908l488.69287 0l0 131.30708l-488.69287 0z" fill-rule="evenodd"/><path fill="#ffffff" d="m309.35675 256.17862l-12.5 -46.5625l10.40625 0l5.40625 22.90625q0.65625 2.875 1.203125 6.140625q0.546875 3.265625 1.078125 6.5625q0.53125 3.296875 1.03125 6.328125l-1.6875 0q0.5625 -3.03125 1.125 -6.328125q0.5625 -3.296875 1.15625 -6.5625q0.59375 -3.265625 1.3125 -6.140625l5.6875 -22.90625l9.90625 0l5.65625 22.90625q0.71875 2.875 1.3125 6.140625q0.59375 3.265625 1.171875 6.5625q0.578125 3.296875 1.140625 6.328125l-1.75 0q0.53125 -3.03125 1.046875 -6.328125q0.515625 -3.296875 1.09375 -6.5625q0.578125 -3.265625 1.203125 -6.140625l5.40625 -22.90625l10.4375 0l-12.53125 46.5625l-10.875 0l-6.1875 -23.8125q-1.0 -3.96875 -1.703125 -8.59375q-0.703125 -4.625 -1.578125 -9.53125l2.375 0q-0.96875 4.78125 -1.578125 9.34375q-0.609375 4.5625 -1.703125 8.78125l-6.15625 23.8125l-10.90625 0zm68.96875 0.6875q-5.34375 0 -9.21875 -2.1875q-3.875 -2.1875 -5.953125 -6.21875q-2.078125 -4.03125 -2.078125 -9.5625q0 -5.40625 2.0625 -9.46875q2.0625 -4.0625 5.84375 -6.34375q3.78125 -2.28125 8.875 -2.28125q3.4375 0 6.40625 1.09375q2.96875 1.09375 5.21875 3.296875q2.25 2.203125 3.515625 5.515625q1.265625 3.3125 1.265625 7.8125l0 2.625l-29.34375 0l0 -5.875l24.75 0l-4.375 1.5625q0 -2.71875 -0.828125 -4.734375q-0.828125 -2.015625 -2.46875 -3.125q-1.640625 -1.109375 -4.046875 -1.109375q-2.4375 0 -4.140625 1.125q-1.703125 1.125 -2.578125 3.046875q-0.875 1.921875 -0.875 4.390625l0 4.15625q0 3.03125 1.015625 5.09375q1.015625 2.0625 2.84375 3.09375q1.828125 1.03125 4.265625 1.03125q1.65625 0 3.0 -0.46875q1.34375 -0.46875 2.296875 -1.390625q0.953125 -0.921875 1.453125 -2.265625l8.5 1.59375q-0.84375 2.875 -2.9375 5.046875q-2.09375 2.171875 -5.234375 3.359375q-3.140625 1.1875 -7.234375 1.1875zm31.71875 -47.25l0 46.5625l-9.375 0l0 -46.5625l9.375 0zm23.59375 47.25q-5.28125 0 -9.109375 -2.265625q-3.828125 -2.265625 -5.90625 -6.3125q-2.078125 -4.046875 -2.078125 -9.421875q0 -5.4375 2.078125 -9.484375q2.078125 -4.046875 5.90625 -6.3125q3.828125 -2.265625 9.109375 -2.265625q3.09375 0 5.71875 0.8125q2.625 0.8125 4.65625 2.3125q2.03125 1.5 3.34375 3.65625q1.3125 2.15625 1.8125 4.84375l-8.71875 1.625q-0.28125 -1.375 -0.875 -2.453125q-0.59375 -1.078125 -1.4375 -1.84375q-0.84375 -0.765625 -1.953125 -1.171875q-1.109375 -0.40625 -2.453125 -0.40625q-2.5 0 -4.203125 1.34375q-1.703125 1.34375 -2.5625 3.75q-0.859375 2.40625 -0.859375 5.5625q0 3.09375 0.859375 5.5q0.859375 2.40625 2.5625 3.78125q1.703125 1.375 4.203125 1.375q1.34375 0 2.46875 -0.421875q1.125 -0.421875 2.0 -1.21875q0.875 -0.796875 1.46875 -1.921875q0.59375 -1.125 0.84375 -2.53125l8.71875 1.59375q-0.5 2.78125 -1.8125 4.953125q-1.3125 2.171875 -3.34375 3.734375q-2.03125 1.5625 -4.671875 2.375q-2.640625 0.8125 -5.765625 0.8125zm37.65625 0q-5.25 0 -9.09375 -2.265625q-3.84375 -2.265625 -5.921875 -6.3125q-2.078125 -4.046875 -2.078125 -9.421875q0 -5.4375 2.078125 -9.484375q2.078125 -4.046875 5.921875 -6.3125q3.84375 -2.265625 9.09375 -2.265625q5.28125 0 9.109375 2.265625q3.828125 2.265625 5.90625 6.3125q2.078125 4.046875 2.078125 9.484375q0 5.375 -2.078125 9.421875q-2.078125 4.046875 -5.90625 6.3125q-3.828125 2.265625 -9.109375 2.265625zm0 -7.375q2.5 0 4.1875 -1.390625q1.6875 -1.390625 2.53125 -3.8125q0.84375 -2.421875 0.84375 -5.453125q0 -3.09375 -0.84375 -5.5q-0.84375 -2.40625 -2.53125 -3.78125q-1.6875 -1.375 -4.1875 -1.375q-2.5 0 -4.171875 1.375q-1.671875 1.375 -2.515625 3.78125q-0.84375 2.40625 -0.84375 5.5q0 3.03125 0.84375 5.453125q0.84375 2.421875 2.515625 3.8125q1.671875 1.390625 4.171875 1.390625zm23.62497 6.6875l0 -34.9375l8.6875 0l0.46875 8.6875l-0.6875 0q0.8125 -3.21875 2.390625 -5.25q1.578125 -2.03125 3.703125 -3.0q2.125 -0.96875 4.4687805 -0.96875q3.78125 0 6.09375 2.390625q2.3125 2.390625 3.40625 7.390625l-1.09375 0q0.78125 -3.34375 2.546875 -5.515625q1.765625 -2.171875 4.1875 -3.21875q2.421875 -1.046875 5.078125 -1.046875q3.21875 0 5.734375 1.40625q2.515625 1.40625 3.96875 4.046875q1.453125 2.640625 1.453125 6.453125l0 23.5625l-9.375 0l0 -21.78125q0 -2.96875 -1.609375 -4.40625q-1.609375 -1.4375 -3.953125 -1.4375q-1.75 0 -3.046875 0.765625q-1.296875 0.765625 -2.0 2.140625q-0.703125 1.375 -0.703125 3.21875l0 21.5l-9.0625 0l0 -22.03125q0 -2.5625 -1.515625 -4.078125q-1.515625 -1.515625 -3.9219055 -1.515625q-1.65625 0 -2.984375 0.75q-1.328125 0.75 -2.09375 2.203125q-0.765625 1.453125 -0.765625 3.546875l0 21.125l-9.375 0zm74.18753 0.6875q-5.34375 0 -9.21875 -2.1875q-3.875 -2.1875 -5.953125 -6.21875q-2.078125 -4.03125 -2.078125 -9.5625q0 -5.40625 2.0625 -9.46875q2.0625 -4.0625 5.84375 -6.34375q3.78125 -2.28125 8.875 -2.28125q3.4375 0 6.40625 1.09375q2.96875 1.09375 5.21875 3.296875q2.25 2.203125 3.515625 5.515625q1.265625 3.3125 1.265625 7.8125l0 2.625l-29.34375 0l0 -5.875l24.75 0l-4.375 1.5625q0 -2.71875 -0.828125 -4.734375q-0.828125 -2.015625 -2.46875 -3.125q-1.640625 -1.109375 -4.046875 -1.109375q-2.4375 0 -4.140625 1.125q-1.703125 1.125 -2.578125 3.046875q-0.875 1.921875 -0.875 4.390625l0 4.15625q0 3.03125 1.015625 5.09375q1.015625 2.0625 2.84375 3.09375q1.828125 1.03125 4.265625 1.03125q1.65625 0 3.0 -0.46875q1.34375 -0.46875 2.296875 -1.390625q0.953125 -0.921875 1.453125 -2.265625l8.5 1.59375q-0.84375 2.875 -2.9375 5.046875q-2.09375 2.171875 -5.234375 3.359375q-3.140625 1.1875 -7.234375 1.1875zm54.84375 -35.625l0 7.15625l-20.71875 0l0 -7.15625l20.71875 0zm-15.90625 -8.3125l9.375 0l0 33.03125q0 1.65625 0.734375 2.453125q0.734375 0.796875 2.453125 0.796875q0.53125 0 1.5 -0.140625q0.96875 -0.140625 1.46875 -0.265625l1.34375 7.03125q-1.5625 0.46875 -3.109375 0.65625q-1.546875 0.1875 -2.953125 0.1875q-5.25 0 -8.03125 -2.5625q-2.78125 -2.5625 -2.78125 -7.34375l0 -33.84375zm37.0 43.9375q-5.25 0 -9.09375 -2.265625q-3.84375 -2.265625 -5.921875 -6.3125q-2.078125 -4.046875 -2.078125 -9.421875q0 -5.4375 2.078125 -9.484375q2.078125 -4.046875 5.921875 -6.3125q3.84375 -2.265625 9.09375 -2.265625q5.28125 0 9.109375 2.265625q3.828125 2.265625 5.90625 6.3125q2.078125 4.046875 2.078125 9.484375q0 5.375 -2.078125 9.421875q-2.078125 4.046875 -5.90625 6.3125q-3.828125 2.265625 -9.109375 2.265625zm0 -7.375q2.5 0 4.1875 -1.390625q1.6875 -1.390625 2.53125 -3.8125q0.84375 -2.421875 0.84375 -5.453125q0 -3.09375 -0.84375 -5.5q-0.84375 -2.40625 -2.53125 -3.78125q-1.6875 -1.375 -4.1875 -1.375q-2.5 0 -4.171875 1.375q-1.671875 1.375 -2.515625 3.78125q-0.84375 2.40625 -0.84375 5.5q0 3.03125 0.84375 5.453125q0.84375 2.421875 2.515625 3.8125q1.671875 1.390625 4.171875 1.390625z" fill-rule="nonzero"/><path fill="#ffffff" d="m364.73175 331.07986l0 -58.125l15.25 0l0 7.125l-6.21875 0l0 43.875l6.21875 0l0 7.125l-15.25 0zm20.78125 -44.4375l0 -7.90625l38.03125 0l0 7.90625l-14.21875 0l0 38.65625l-9.5625 0l0 -38.65625l-14.25 0zm55.15625 39.34375q-5.34375 0 -9.21875 -2.1875q-3.875 -2.1875 -5.953125 -6.21875q-2.078125 -4.03125 -2.078125 -9.5625q0 -5.40625 2.0625 -9.46875q2.0625 -4.0625 5.84375 -6.34375q3.78125 -2.28125 8.875 -2.28125q3.4375 0 6.40625 1.09375q2.96875 1.09375 5.21875 3.296875q2.25 2.203125 3.515625 5.515625q1.265625 3.3125 1.265625 7.8125l0 2.625l-29.34375 0l0 -5.875l24.75 0l-4.375 1.5625q0 -2.71875 -0.828125 -4.734375q-0.828125 -2.015625 -2.46875 -3.125q-1.640625 -1.109375 -4.046875 -1.109375q-2.4375 0 -4.140625 1.125q-1.703125 1.125 -2.578125 3.046875q-0.875 1.921875 -0.875 4.390625l0 4.15625q0 3.03125 1.015625 5.09375q1.015625 2.0625 2.84375 3.09375q1.828125 1.03125 4.265625 1.03125q1.65625 0 3.0 -0.46875q1.34375 -0.46875 2.296875 -1.390625q0.953125 -0.921875 1.453125 -2.265625l8.5 1.59375q-0.84375 2.875 -2.9375 5.046875q-2.09375 2.171875 -5.234375 3.359375q-3.140625 1.1875 -7.234375 1.1875zm32.71875 0q-3.3125 0 -5.953125 -1.171875q-2.640625 -1.171875 -4.15625 -3.5q-1.515625 -2.328125 -1.515625 -5.796875q0 -2.90625 1.078125 -4.875q1.078125 -1.96875 2.9375 -3.15625q1.859375 -1.1875 4.21875 -1.8125q2.359375 -0.625 4.953125 -0.875q3.03125 -0.3125 4.890625 -0.578125q1.859375 -0.265625 2.71875 -0.84375q0.859375 -0.578125 0.859375 -1.703125l0 -0.15625q0 -1.5 -0.625 -2.53125q-0.625 -1.03125 -1.859375 -1.578125q-1.234375 -0.546875 -2.984375 -0.546875q-1.8125 0 -3.15625 0.546875q-1.34375 0.546875 -2.1875 1.453125q-0.84375 0.90625 -1.25 2.03125l-8.59375 -1.40625q0.90625 -3.0625 3.0 -5.1875q2.09375 -2.125 5.203125 -3.25q3.109375 -1.125 7.015625 -1.125q2.8125 0 5.46875 0.671875q2.65625 0.671875 4.765625 2.078125q2.109375 1.40625 3.34375 3.671875q1.2343445 2.265625 1.2343445 5.421875l0 23.53125l-8.8749695 0l0 -4.84375l-0.3125 0q-0.84375 1.625 -2.25 2.859375q-1.40625 1.234375 -3.390625 1.953125q-1.984375 0.71875 -4.578125 0.71875zm2.65625 -6.59375q2.21875 0 3.890625 -0.875q1.671875 -0.875 2.609375 -2.375q0.9375 -1.5 0.9375 -3.34375l0 -3.78125q-0.40625 0.3125 -1.25 0.5625q-0.84375 0.25 -1.875 0.4375q-1.03125 0.1875 -2.03125 0.34375q-1.0 0.15625 -1.78125 0.25q-1.71875 0.25 -3.03125 0.8125q-1.3125 0.5625 -2.03125 1.484375q-0.71875 0.921875 -0.71875 2.359375q0 1.34375 0.6875 2.265625q0.6875 0.921875 1.875 1.390625q1.1875 0.46875 2.71875 0.46875zm24.74997 5.90625l0 -34.9375l8.6875 0l0.46875 8.6875l-0.6875 0q0.8125 -3.21875 2.390625 -5.25q1.5781555 -2.03125 3.7031555 -3.0q2.125 -0.96875 4.46875 -0.96875q3.78125 0 6.09375 2.390625q2.3125 2.390625 3.40625 7.390625l-1.09375 0q0.78125 -3.34375 2.546875 -5.515625q1.765625 -2.171875 4.1875 -3.21875q2.421875 -1.046875 5.078125 -1.046875q3.21875 0 5.734375 1.40625q2.515625 1.40625 3.96875 4.046875q1.453125 2.640625 1.453125 6.453125l0 23.5625l-9.375 0l0 -21.78125q0 -2.96875 -1.609375 -4.40625q-1.609375 -1.4375 -3.953125 -1.4375q-1.75 0 -3.046875 0.765625q-1.296875 0.765625 -2.0 2.140625q-0.703125 1.375 -0.703125 3.21875l0 21.5l-9.0625 0l0 -22.03125q0 -2.5625 -1.515625 -4.078125q-1.515625 -1.515625 -3.921875 -1.515625q-1.65625 0 -2.984375 0.75q-1.3281555 0.75 -2.0937805 2.203125q-0.765625 1.453125 -0.765625 3.546875l0 21.125l-9.375 0zm57.59378 8.71875l0 -7.125l6.21875 0l0 -43.875l-6.21875 0l0 -7.125l15.28125 0l0 58.125l-15.28125 0zm27.375 -23.46875l-0.6875 -31.8125l10.09375 0l-0.6875 31.8125l-8.71875 0zm4.375 15.34375q-2.4375 0 -3.984375 -1.46875q-1.546875 -1.46875 -1.546875 -3.8125q0 -2.375 1.546875 -3.84375q1.546875 -1.46875 3.984375 -1.46875q2.46875 0 4.015625 1.46875q1.546875 1.46875 1.546875 3.84375q0 2.34375 -1.546875 3.8125q-1.546875 1.46875 -4.015625 1.46875z" fill-rule="nonzero"/></g></svg>