<svg version="1.1" viewBox="0.0 0.0 960.0 540.0" fill="none" stroke="none" stroke-linecap="square" stroke-miterlimit="10" xmlns:xlink="http://www.w3.org/1999/xlink" xmlns="http://www.w3.org/2000/svg"><clipPath id="g1d419526cb4_2_868.0"><path d="m0 0l960.0 0l0 540.0l-960.0 0l0 -540.0z" clip-rule="nonzero"/></clipPath><g clip-path="url(#g1d419526cb4_2_868.0)"><path fill="#000000" d="m0 0l960.0 0l0 540.0l-960.0 0z" fill-rule="evenodd"/><path fill="#000000" fill-opacity="0.0" d="m48.0 48.0l414.86615 0l0 19.401573l-414.86615 0z" fill-rule="evenodd"/><path fill="#a9a9a9" d="m48.125 63.36l4.671875 -9.359375l4.6875 9.359375l-9.359375 0z" fill-rule="nonzero"/><path fill="#a9a9a9" d="m76.421875 57.57875l-1.046875 -0.140625q0 0.296875 -0.109375 0.578125q-0.09375 0.265625 -0.265625 0.46875q-0.171875 0.203125 -0.421875 0.328125q-0.234375 0.125 -0.5 0.125q-0.234375 0.015625 -0.453125 -0.046875q-0.21875 -0.0625 -0.4375 -0.171875q-0.171875 -0.09375 -0.359375 -0.234375q-0.1875 -0.140625 -0.390625 -0.3125q-0.3125 -0.25 -0.609375 -0.453125q-0.28125 -0.203125 -0.59375 -0.34375q-0.296875 -0.140625 -0.625 -0.203125q-0.328125 -0.078125 -0.6875 -0.078125q-0.515625 0 -0.953125 0.203125q-0.421875 0.203125 -0.734375 0.5625q-0.3125 0.34375 -0.484375 0.8125q-0.171875 0.46875 -0.171875 0.984375l1.046875 0.140625q0 -0.296875 0.09375 -0.5625q0.109375 -0.265625 0.28125 -0.453125q0.171875 -0.1875 0.40625 -0.296875q0.25 -0.125 0.515625 -0.125q0.1875 0 0.34375 0.03125q0.171875 0.03125 0.34375 0.109375q0.234375 0.09375 0.46875 0.25q0.234375 0.15625 0.5 0.375q0.3125 0.265625 0.59375 0.46875q0.296875 0.203125 0.609375 0.34375q0.296875 0.140625 0.609375 0.21875q0.3125 0.0625 0.6875 0.0625q0.515625 0 0.9375 -0.21875q0.4375 -0.21875 0.75 -0.59375q0.3125 -0.359375 0.484375 -0.828125q0.171875 -0.484375 0.171875 -1.0zm3.6484375 6.765625l4.75 -12.359375l-1.296875 0l-4.75 12.359375l1.296875 0zm13.3203125 -3.234375q0 0.203125 -0.078125 0.390625q-0.078125 0.171875 -0.234375 0.328125q-0.234375 0.234375 -0.671875 0.375q-0.421875 0.140625 -1.0 0.140625q-0.375 0 -0.75 -0.078125q-0.375 -0.078125 -0.671875 -0.265625q-0.3125 -0.1875 -0.53125 -0.484375q-0.203125 -0.3125 -0.234375 -0.765625l-1.4375 0q0 0.546875 0.234375 1.046875q0.25 0.5 0.71875 0.875q0.46875 0.375 1.140625 0.609375q0.671875 0.234375 1.53125 0.234375q0.75 0 1.375 -0.171875q0.640625 -0.1875 1.09375 -0.515625q0.453125 -0.328125 0.703125 -0.78125q0.25 -0.46875 0.25 -1.03125q0 -0.53125 -0.21875 -0.921875q-0.21875 -0.40625 -0.640625 -0.703125q-0.421875 -0.296875 -1.046875 -0.515625q-0.609375 -0.21875 -1.390625 -0.375q-0.59375 -0.125 -0.984375 -0.25q-0.390625 -0.125 -0.609375 -0.28125q-0.234375 -0.15625 -0.328125 -0.34375q-0.09375 -0.203125 -0.09375 -0.453125q0 -0.234375 0.109375 -0.453125q0.125 -0.234375 0.359375 -0.40625q0.21875 -0.171875 0.5625 -0.265625q0.359375 -0.109375 0.8125 -0.109375q0.453125 0 0.796875 0.125q0.359375 0.125 0.609375 0.328125q0.25 0.203125 0.390625 0.46875q0.140625 0.25 0.140625 0.53125l1.453125 0q0 -0.5625 -0.25 -1.03125q-0.234375 -0.484375 -0.671875 -0.84375q-0.4375 -0.359375 -1.0625 -0.5625q-0.625 -0.203125 -1.40625 -0.203125q-0.71875 0 -1.328125 0.203125q-0.609375 0.1875 -1.046875 0.515625q-0.4375 0.34375 -0.6875 0.796875q-0.234375 0.4375 -0.234375 0.953125q0 0.53125 0.234375 0.921875q0.234375 0.390625 0.671875 0.6875q0.421875 0.296875 1.015625 0.515625q0.59375 0.203125 1.328125 0.34375q0.59375 0.125 0.984375 0.265625q0.40625 0.140625 0.640625 0.3125q0.25 0.171875 0.34375 0.390625q0.109375 0.203125 0.109375 0.453125zm7.7109375 2.40625q1.234375 0 2.078125 -0.5q0.84375 -0.5 1.265625 -1.140625l-0.890625 -0.6875q-0.390625 0.515625 -1.0 0.828125q-0.59375 0.3125 -1.375 0.3125q-0.578125 0 -1.0625 -0.21875q-0.484375 -0.21875 -0.828125 -0.59375q-0.34375 -0.359375 -0.53125 -0.828125q-0.1875 -0.46875 -0.25 -1.09375l0 -0.046875l6.046875 0l0 -0.65625q0 -0.875 -0.234375 -1.625q-0.21875 -0.765625 -0.671875 -1.328125q-0.453125 -0.5625 -1.140625 -0.875q-0.671875 -0.3125 -1.59375 -0.3125q-0.71875 0 -1.421875 0.296875q-0.6875 0.296875 -1.21875 0.84375q-0.546875 0.5625 -0.875 1.375q-0.328125 0.8125 -0.328125 1.828125l0 0.328125q0 0.890625 0.296875 1.640625q0.296875 0.75 0.828125 1.296875q0.53125 0.546875 1.265625 0.859375q0.75 0.296875 1.640625 0.296875zm-0.1875 -7.578125q0.5625 0 0.953125 0.203125q0.40625 0.203125 0.671875 0.53125q0.265625 0.328125 0.40625 0.78125q0.15625 0.4375 0.15625 0.828125l0 0.078125l-4.546875 0q0.09375 -0.59375 0.296875 -1.03125q0.21875 -0.453125 0.53125 -0.765625q0.3125 -0.3125 0.703125 -0.46875q0.390625 -0.15625 0.828125 -0.15625zm9.6640625 6.40625q-0.6875 0 -1.140625 -0.265625q-0.453125 -0.28125 -0.734375 -0.71875q-0.28125 -0.421875 -0.40625 -0.96875q-0.109375 -0.546875 -0.109375 -1.09375l0 -0.328125q0 -0.546875 0.109375 -1.078125q0.125 -0.546875 0.40625 -0.984375q0.28125 -0.4375 0.734375 -0.703125q0.46875 -0.265625 1.140625 -0.265625q0.4375 0 0.8125 0.15625q0.375 0.140625 0.65625 0.390625q0.265625 0.265625 0.421875 0.609375q0.171875 0.328125 0.171875 0.71875l1.375 0q0 -0.640625 -0.265625 -1.203125q-0.25 -0.5625 -0.703125 -0.984375q-0.46875 -0.40625 -1.09375 -0.640625q-0.625 -0.234375 -1.375 -0.234375q-0.96875 0 -1.6875 0.34375q-0.71875 0.34375 -1.1875 0.921875q-0.484375 0.578125 -0.734375 1.34375q-0.234375 0.765625 -0.234375 1.609375l0 0.328125q0 0.84375 0.234375 1.609375q0.25 0.75 0.734375 1.328125q0.46875 0.59375 1.1875 0.9375q0.71875 0.34375 1.6875 0.34375q0.671875 0 1.28125 -0.234375q0.625 -0.234375 1.09375 -0.625q0.484375 -0.375 0.765625 -0.890625q0.28125 -0.515625 0.296875 -1.078125l-1.375 0q0 0.359375 -0.1875 0.65625q-0.171875 0.296875 -0.453125 0.515625q-0.296875 0.234375 -0.671875 0.359375q-0.359375 0.125 -0.75 0.125zm9.4140625 -9.484375l-1.453125 0l0 2.046875l-2.21875 0l0 1.109375l2.21875 0l0 4.59375q0 0.78125 0.203125 1.34375q0.21875 0.546875 0.578125 0.890625q0.359375 0.34375 0.84375 0.515625q0.484375 0.15625 1.046875 0.15625q0.34375 0 0.671875 -0.03125q0.34375 -0.03125 0.65625 -0.09375q0.296875 -0.0625 0.546875 -0.140625q0.265625 -0.078125 0.453125 -0.1875l-0.203125 -1.03125q-0.140625 0.03125 -0.34375 0.078125q-0.203125 0.046875 -0.4375 0.078125q-0.25 0.046875 -0.5 0.078125q-0.25 0.015625 -0.484375 0.015625q-0.3125 0 -0.609375 -0.078125q-0.28125 -0.078125 -0.5 -0.265625q-0.21875 -0.1875 -0.34375 -0.5q-0.125 -0.328125 -0.125 -0.828125l0 -4.59375l3.21875 0l0 -1.109375l-3.21875 0l0 -2.046875zm6.4140625 2.046875l0 1.25l2.875 0l0 5.953125l-2.875 0l0 1.25l7.078125 0l0 -1.25l-2.765625 0l0 -7.203125l-4.3125 0zm2.6875 -2.21875q0 0.34375 0.203125 0.578125q0.21875 0.234375 0.65625 0.234375q0.4375 0 0.65625 -0.234375q0.21875 -0.234375 0.21875 -0.578125q0 -0.203125 -0.0625 -0.359375q-0.0625 -0.171875 -0.1875 -0.28125q-0.109375 -0.09375 -0.265625 -0.15625q-0.15625 -0.0625 -0.359375 -0.0625q-0.203125 0 -0.359375 0.0625q-0.15625 0.0625 -0.265625 0.15625q-0.125 0.125 -0.1875 0.296875q-0.046875 0.15625 -0.046875 0.34375zm6.2734375 6.359375l0 0.171875q0 0.921875 0.265625 1.703125q0.265625 0.78125 0.765625 1.359375q0.5 0.578125 1.203125 0.90625q0.71875 0.328125 1.625 0.328125q0.890625 0 1.59375 -0.328125q0.71875 -0.328125 1.21875 -0.90625q0.484375 -0.578125 0.75 -1.359375q0.265625 -0.78125 0.265625 -1.703125l0 -0.171875q0 -0.90625 -0.265625 -1.6875q-0.265625 -0.796875 -0.75 -1.375q-0.5 -0.578125 -1.21875 -0.90625q-0.71875 -0.328125 -1.609375 -0.328125q-0.890625 0 -1.609375 0.328125q-0.703125 0.328125 -1.203125 0.90625q-0.5 0.578125 -0.765625 1.375q-0.265625 0.78125 -0.265625 1.6875zm1.453125 0.171875l0 -0.171875q0 -0.609375 0.140625 -1.171875q0.15625 -0.578125 0.453125 -1.0q0.296875 -0.4375 0.734375 -0.6875q0.453125 -0.25 1.0625 -0.25q0.59375 0 1.046875 0.25q0.453125 0.25 0.75 0.6875q0.296875 0.421875 0.453125 1.0q0.15625 0.5625 0.15625 1.171875l0 0.171875q0 0.625 -0.15625 1.203125q-0.140625 0.5625 -0.4375 0.984375q-0.3125 0.4375 -0.765625 0.6875q-0.4375 0.25 -1.03125 0.25q-0.609375 0 -1.0625 -0.25q-0.453125 -0.25 -0.75 -0.6875q-0.296875 -0.421875 -0.453125 -0.984375q-0.140625 -0.578125 -0.140625 -1.203125zm8.5546875 4.140625l1.453125 0l0 -6.0625q0.140625 -0.28125 0.34375 -0.5q0.203125 -0.234375 0.4375 -0.40625q0.28125 -0.1875 0.625 -0.296875q0.34375 -0.125 0.75 -0.125q0.453125 0 0.8125 0.109375q0.359375 0.109375 0.609375 0.359375q0.234375 0.234375 0.359375 0.625q0.125 0.390625 0.125 0.953125l0 5.34375l1.453125 0l0 -5.375q0 -0.84375 -0.21875 -1.453125q-0.203125 -0.609375 -0.578125 -1.015625q-0.390625 -0.390625 -0.9375 -0.578125q-0.53125 -0.1875 -1.203125 -0.1875q-0.484375 0 -0.9375 0.140625q-0.4375 0.140625 -0.8125 0.390625q-0.25 0.15625 -0.46875 0.390625q-0.21875 0.21875 -0.40625 0.484375l-0.109375 -1.25l-1.296875 0l0 8.453125zm11.5078125 0.984375l4.75 -12.359375l-1.296875 0l-4.75 12.359375l1.296875 0zm11.3046875 -2.0q-0.6875 0 -1.140625 -0.265625q-0.453125 -0.28125 -0.734375 -0.71875q-0.28125 -0.421875 -0.40625 -0.96875q-0.109375 -0.546875 -0.109375 -1.09375l0 -0.328125q0 -0.546875 0.109375 -1.078125q0.125 -0.546875 0.40625 -0.984375q0.28125 -0.4375 0.734375 -0.703125q0.46875 -0.265625 1.140625 -0.265625q0.4375 0 0.8125 0.15625q0.375 0.140625 0.65625 0.390625q0.265625 0.265625 0.421875 0.609375q0.171875 0.328125 0.171875 0.71875l1.375 0q0 -0.640625 -0.265625 -1.203125q-0.25 -0.5625 -0.703125 -0.984375q-0.46875 -0.40625 -1.09375 -0.640625q-0.625 -0.234375 -1.375 -0.234375q-0.96875 0 -1.6875 0.34375q-0.71875 0.34375 -1.1875 0.921875q-0.484375 0.578125 -0.734375 1.34375q-0.234375 0.765625 -0.234375 1.609375l0 0.328125q0 0.84375 0.234375 1.609375q0.25 0.75 0.734375 1.328125q0.46875 0.59375 1.1875 0.9375q0.71875 0.34375 1.6875 0.34375q0.671875 0 1.28125 -0.234375q0.625 -0.234375 1.09375 -0.625q0.484375 -0.375 0.765625 -0.890625q0.28125 -0.515625 0.296875 -1.078125l-1.375 0q0 0.359375 -0.1875 0.65625q-0.171875 0.296875 -0.453125 0.515625q-0.296875 0.234375 -0.671875 0.359375q-0.359375 0.125 -0.75 0.125zm5.5859375 -3.296875l0 0.171875q0 0.921875 0.265625 1.703125q0.265625 0.78125 0.765625 1.359375q0.5 0.578125 1.203125 0.90625q0.71875 0.328125 1.625 0.328125q0.890625 0 1.59375 -0.328125q0.71875 -0.328125 1.21875 -0.90625q0.484375 -0.578125 0.75 -1.359375q0.265625 -0.78125 0.265625 -1.703125l0 -0.171875q0 -0.90625 -0.265625 -1.6875q-0.265625 -0.796875 -0.75 -1.375q-0.5 -0.578125 -1.21875 -0.90625q-0.71875 -0.328125 -1.609375 -0.328125q-0.890625 0 -1.609375 0.328125q-0.703125 0.328125 -1.203125 0.90625q-0.5 0.578125 -0.765625 1.375q-0.265625 0.78125 -0.265625 1.6875zm1.453125 0.171875l0 -0.171875q0 -0.609375 0.140625 -1.171875q0.15625 -0.578125 0.453125 -1.0q0.296875 -0.4375 0.734375 -0.6875q0.453125 -0.25 1.0625 -0.25q0.59375 0 1.046875 0.25q0.453125 0.25 0.75 0.6875q0.296875 0.421875 0.453125 1.0q0.15625 0.5625 0.15625 1.171875l0 0.171875q0 0.625 -0.15625 1.203125q-0.140625 0.5625 -0.4375 0.984375q-0.3125 0.4375 -0.765625 0.6875q-0.4375 0.25 -1.03125 0.25q-0.609375 0 -1.0625 -0.25q-0.453125 -0.25 -0.75 -0.6875q-0.296875 -0.421875 -0.453125 -0.984375q-0.140625 -0.578125 -0.140625 -1.203125zm8.5546875 4.140625l1.453125 0l0 -6.0625q0.140625 -0.28125 0.34375 -0.5q0.203125 -0.234375 0.4375 -0.40625q0.28125 -0.1875 0.625 -0.296875q0.34375 -0.125 0.75 -0.125q0.453125 0 0.8125 0.109375q0.359375 0.109375 0.609375 0.359375q0.234375 0.234375 0.359375 0.625q0.125 0.390625 0.125 0.953125l0 5.34375l1.453125 0l0 -5.375q0 -0.84375 -0.21875 -1.453125q-0.203125 -0.609375 -0.578125 -1.015625q-0.390625 -0.390625 -0.9375 -0.578125q-0.53125 -0.1875 -1.203125 -0.1875q-0.484375 0 -0.9375 0.140625q-0.4375 0.140625 -0.8125 0.390625q-0.25 0.15625 -0.46875 0.390625q-0.21875 0.21875 -0.40625 0.484375l-0.109375 -1.25l-1.296875 0l0 8.453125zm13.0234375 -10.5l-1.453125 0l0 2.046875l-2.21875 0l0 1.109375l2.21875 0l0 4.59375q0 0.78125 0.203125 1.34375q0.21875 0.546875 0.578125 0.890625q0.359375 0.34375 0.84375 0.515625q0.484375 0.15625 1.046875 0.15625q0.34375 0 0.671875 -0.03125q0.34375 -0.03125 0.65625 -0.09375q0.296875 -0.0625 0.546875 -0.140625q0.265625 -0.078125 0.453125 -0.1875l-0.203125 -1.03125q-0.140625 0.03125 -0.34375 0.078125q-0.203125 0.046875 -0.4375 0.078125q-0.25 0.046875 -0.5 0.078125q-0.25 0.015625 -0.484375 0.015625q-0.3125 0 -0.609375 -0.078125q-0.28125 -0.078125 -0.5 -0.265625q-0.21875 -0.1875 -0.34375 -0.5q-0.125 -0.328125 -0.125 -0.828125l0 -4.59375l3.21875 0l0 -1.109375l-3.21875 0l0 -2.046875zm9.9140625 10.65625q1.234375 0 2.078125 -0.5q0.84375 -0.5 1.265625 -1.140625l-0.890625 -0.6875q-0.390625 0.515625 -1.0 0.828125q-0.59375 0.3125 -1.375 0.3125q-0.578125 0 -1.0625 -0.21875q-0.484375 -0.21875 -0.828125 -0.59375q-0.34375 -0.359375 -0.53125 -0.828125q-0.1875 -0.46875 -0.25 -1.09375l0 -0.046875l6.046875 0l0 -0.65625q0 -0.875 -0.234375 -1.625q-0.21875 -0.765625 -0.671875 -1.328125q-0.453125 -0.5625 -1.140625 -0.875q-0.671875 -0.3125 -1.59375 -0.3125q-0.71875 0 -1.421875 0.296875q-0.6875 0.296875 -1.21875 0.84375q-0.546875 0.5625 -0.875 1.375q-0.328125 0.8125 -0.328125 1.828125l0 0.328125q0 0.890625 0.296875 1.640625q0.296875 0.75 0.828125 1.296875q0.53125 0.546875 1.265625 0.859375q0.75 0.296875 1.640625 0.296875zm-0.1875 -7.578125q0.5625 0 0.953125 0.203125q0.40625 0.203125 0.671875 0.53125q0.265625 0.328125 0.40625 0.78125q0.15625 0.4375 0.15625 0.828125l0 0.078125l-4.546875 0q0.09375 -0.59375 0.296875 -1.03125q0.21875 -0.453125 0.53125 -0.765625q0.3125 -0.3125 0.703125 -0.46875q0.390625 -0.15625 0.828125 -0.15625zm6.0546875 7.421875l1.453125 0l0 -6.0625q0.140625 -0.28125 0.34375 -0.5q0.203125 -0.234375 0.4375 -0.40625q0.28125 -0.1875 0.625 -0.296875q0.34375 -0.125 0.75 -0.125q0.453125 0 0.8125 0.109375q0.359375 0.109375 0.609375 0.359375q0.234375 0.234375 0.359375 0.625q0.125 0.390625 0.125 0.953125l0 5.34375l1.453125 0l0 -5.375q0 -0.84375 -0.21875 -1.453125q-0.203125 -0.609375 -0.578125 -1.015625q-0.390625 -0.390625 -0.9375 -0.578125q-0.53125 -0.1875 -1.203125 -0.1875q-0.484375 0 -0.9375 0.140625q-0.4375 0.140625 -0.8125 0.390625q-0.25 0.15625 -0.46875 0.390625q-0.21875 0.21875 -0.40625 0.484375l-0.109375 -1.25l-1.296875 0l0 8.453125zm13.0234375 -10.5l-1.453125 0l0 2.046875l-2.21875 0l0 1.109375l2.21875 0l0 4.59375q0 0.78125 0.203125 1.34375q0.21875 0.546875 0.578125 0.890625q0.359375 0.34375 0.84375 0.515625q0.484375 0.15625 1.046875 0.15625q0.34375 0 0.671875 -0.03125q0.34375 -0.03125 0.65625 -0.09375q0.296875 -0.0625 0.546875 -0.140625q0.265625 -0.078125 0.453125 -0.1875l-0.203125 -1.03125q-0.140625 0.03125 -0.34375 0.078125q-0.203125 0.046875 -0.4375 0.078125q-0.25 0.046875 -0.5 0.078125q-0.25 0.015625 -0.484375 0.015625q-0.3125 0 -0.609375 -0.078125q-0.28125 -0.078125 -0.5 -0.265625q-0.21875 -0.1875 -0.34375 -0.5q-0.125 -0.328125 -0.125 -0.828125l0 -4.59375l3.21875 0l0 -1.109375l-3.21875 0l0 -2.046875zm8.0859375 11.484375l4.75 -12.359375l-1.296875 0l-4.75 12.359375l1.296875 0zm13.3203125 -3.234375q0 0.203125 -0.078125 0.390625q-0.078125 0.171875 -0.234375 0.328125q-0.234375 0.234375 -0.671875 0.375q-0.421875 0.140625 -1.0 0.140625q-0.375 0 -0.75 -0.078125q-0.375 -0.078125 -0.671875 -0.265625q-0.3125 -0.1875 -0.53125 -0.484375q-0.203125 -0.3125 -0.234375 -0.765625l-1.4375 0q0 0.546875 0.234375 1.046875q0.25 0.5 0.71875 0.875q0.46875 0.375 1.140625 0.609375q0.671875 0.234375 1.53125 0.234375q0.75 0 1.375 -0.171875q0.640625 -0.1875 1.09375 -0.515625q0.453125 -0.328125 0.703125 -0.78125q0.25 -0.46875 0.25 -1.03125q0 -0.53125 -0.21875 -0.921875q-0.21875 -0.40625 -0.640625 -0.703125q-0.421875 -0.296875 -1.046875 -0.515625q-0.609375 -0.21875 -1.390625 -0.375q-0.59375 -0.125 -0.984375 -0.25q-0.390625 -0.125 -0.609375 -0.28125q-0.234375 -0.15625 -0.328125 -0.34375q-0.09375 -0.203125 -0.09375 -0.453125q0 -0.234375 0.109375 -0.453125q0.125 -0.234375 0.359375 -0.40625q0.21875 -0.171875 0.5625 -0.265625q0.359375 -0.109375 0.8125 -0.109375q0.453125 0 0.796875 0.125q0.359375 0.125 0.609375 0.328125q0.25 0.203125 0.390625 0.46875q0.140625 0.25 0.140625 0.53125l1.453125 0q0 -0.5625 -0.25 -1.03125q-0.234375 -0.484375 -0.671875 -0.84375q-0.4375 -0.359375 -1.0625 -0.5625q-0.625 -0.203125 -1.40625 -0.203125q-0.71875 0 -1.328125 0.203125q-0.609375 0.1875 -1.046875 0.515625q-0.4375 0.34375 -0.6875 0.796875q-0.234375 0.4375 -0.234375 0.953125q0 0.53125 0.234375 0.921875q0.234375 0.390625 0.671875 0.6875q0.421875 0.296875 1.015625 0.515625q0.59375 0.203125 1.328125 0.34375q0.59375 0.125 0.984375 0.265625q0.40625 0.140625 0.640625 0.3125q0.25 0.171875 0.34375 0.390625q0.109375 0.203125 0.109375 0.453125zm7.3984375 -8.25l-1.453125 0l0 2.046875l-2.21875 0l0 1.109375l2.21875 0l0 4.59375q0 0.78125 0.203125 1.34375q0.21875 0.546875 0.578125 0.890625q0.359375 0.34375 0.84375 0.515625q0.484375 0.15625 1.046875 0.15625q0.34375 0 0.671875 -0.03125q0.34375 -0.03125 0.65625 -0.09375q0.296875 -0.0625 0.546875 -0.140625q0.265625 -0.078125 0.453125 -0.1875l-0.203125 -1.03125q-0.140625 0.03125 -0.34375 0.078125q-0.203125 0.046875 -0.4375 0.078125q-0.25 0.046875 -0.5 0.078125q-0.25 0.015625 -0.484375 0.015625q-0.3125 0 -0.609375 -0.078125q-0.28125 -0.078125 -0.5 -0.265625q-0.21875 -0.1875 -0.34375 -0.5q-0.125 -0.328125 -0.125 -0.828125l0 -4.59375l3.21875 0l0 -1.109375l-3.21875 0l0 -2.046875zm11.7421875 10.5l1.5 0l0 -0.125q-0.140625 -0.359375 -0.21875 -0.828125q-0.078125 -0.46875 -0.078125 -0.890625l0 -3.9375q0 -0.703125 -0.265625 -1.234375q-0.25 -0.53125 -0.6875 -0.890625q-0.453125 -0.359375 -1.078125 -0.53125q-0.609375 -0.171875 -1.328125 -0.171875q-0.796875 0 -1.421875 0.21875q-0.609375 0.21875 -1.046875 0.5625q-0.4375 0.359375 -0.671875 0.8125q-0.21875 0.4375 -0.234375 0.90625l1.453125 0q0 -0.265625 0.125 -0.515625q0.140625 -0.25 0.375 -0.421875q0.234375 -0.1875 0.5625 -0.296875q0.34375 -0.109375 0.78125 -0.109375q0.453125 0 0.828125 0.125q0.375 0.109375 0.625 0.328125q0.265625 0.21875 0.40625 0.53125q0.140625 0.296875 0.140625 0.671875l0 0.671875l-1.578125 0q-0.890625 0 -1.609375 0.171875q-0.703125 0.171875 -1.21875 0.515625q-0.5 0.34375 -0.78125 0.875q-0.28125 0.515625 -0.28125 1.21875q0 0.53125 0.203125 0.984375q0.21875 0.453125 0.59375 0.78125q0.375 0.34375 0.921875 0.546875q0.546875 0.1875 1.21875 0.1875q0.40625 0 0.765625 -0.09375q0.375 -0.078125 0.703125 -0.234375q0.328125 -0.140625 0.59375 -0.328125q0.265625 -0.203125 0.484375 -0.421875q0.03125 0.265625 0.078125 0.515625q0.046875 0.234375 0.140625 0.40625zm-2.5625 -1.109375q-0.421875 0 -0.75 -0.109375q-0.3125 -0.109375 -0.515625 -0.296875q-0.21875 -0.1875 -0.328125 -0.453125q-0.09375 -0.265625 -0.09375 -0.578125q0 -0.328125 0.109375 -0.578125q0.125 -0.265625 0.359375 -0.453125q0.328125 -0.265625 0.890625 -0.390625q0.5625 -0.140625 1.3125 -0.140625l1.34375 0l0 1.71875q-0.125 0.25 -0.34375 0.484375q-0.21875 0.21875 -0.515625 0.40625q-0.3125 0.171875 -0.6875 0.28125q-0.359375 0.109375 -0.78125 0.109375zm10.0234375 -9.390625l-1.453125 0l0 2.046875l-2.21875 0l0 1.109375l2.21875 0l0 4.59375q0 0.78125 0.203125 1.34375q0.21875 0.546875 0.578125 0.890625q0.359375 0.34375 0.84375 0.515625q0.484375 0.15625 1.046875 0.15625q0.34375 0 0.671875 -0.03125q0.34375 -0.03125 0.65625 -0.09375q0.296875 -0.0625 0.546875 -0.140625q0.265625 -0.078125 0.453125 -0.1875l-0.203125 -1.03125q-0.140625 0.03125 -0.34375 0.078125q-0.203125 0.046875 -0.4375 0.078125q-0.25 0.046875 -0.5 0.078125q-0.25 0.015625 -0.484375 0.015625q-0.3125 0 -0.609375 -0.078125q-0.28125 -0.078125 -0.5 -0.265625q-0.21875 -0.1875 -0.34375 -0.5q-0.125 -0.328125 -0.125 -0.828125l0 -4.59375l3.21875 0l0 -1.109375l-3.21875 0l0 -2.046875zm11.8046875 8.25q0 0.203125 -0.078125 0.390625q-0.078125 0.171875 -0.234375 0.328125q-0.234375 0.234375 -0.671875 0.375q-0.421875 0.140625 -1.0 0.140625q-0.375 0 -0.75 -0.078125q-0.375 -0.078125 -0.671875 -0.265625q-0.3125 -0.1875 -0.53125 -0.484375q-0.203125 -0.3125 -0.234375 -0.765625l-1.4375 0q0 0.546875 0.234375 1.046875q0.25 0.5 0.71875 0.875q0.46875 0.375 1.140625 0.609375q0.671875 0.234375 1.53125 0.234375q0.75 0 1.375 -0.171875q0.640625 -0.1875 1.09375 -0.515625q0.453125 -0.328125 0.703125 -0.78125q0.25 -0.46875 0.25 -1.03125q0 -0.53125 -0.21875 -0.921875q-0.21875 -0.40625 -0.640625 -0.703125q-0.421875 -0.296875 -1.046875 -0.515625q-0.609375 -0.21875 -1.390625 -0.375q-0.59375 -0.125 -0.984375 -0.25q-0.390625 -0.125 -0.609375 -0.28125q-0.234375 -0.15625 -0.328125 -0.34375q-0.09375 -0.203125 -0.09375 -0.453125q0 -0.234375 0.109375 -0.453125q0.125 -0.234375 0.359375 -0.40625q0.21875 -0.171875 0.5625 -0.265625q0.359375 -0.109375 0.8125 -0.109375q0.453125 0 0.796875 0.125q0.359375 0.125 0.609375 0.328125q0.25 0.203125 0.390625 0.46875q0.140625 0.25 0.140625 0.53125l1.453125 0q0 -0.5625 -0.25 -1.03125q-0.234375 -0.484375 -0.671875 -0.84375q-0.4375 -0.359375 -1.0625 -0.5625q-0.625 -0.203125 -1.40625 -0.203125q-0.71875 0 -1.328125 0.203125q-0.609375 0.1875 -1.046875 0.515625q-0.4375 0.34375 -0.6875 0.796875q-0.234375 0.4375 -0.234375 0.953125q0 0.53125 0.234375 0.921875q0.234375 0.390625 0.671875 0.6875q0.421875 0.296875 1.015625 0.515625q0.59375 0.203125 1.328125 0.34375q0.59375 0.125 0.984375 0.265625q0.40625 0.140625 0.640625 0.3125q0.25 0.171875 0.34375 0.390625q0.109375 0.203125 0.109375 0.453125z" fill-rule="nonzero"/><path fill="#000000" fill-opacity="0.0" d="m566.0841 309.51364l164.75586 0l0 19.40158l-164.75586 0z" fill-rule="evenodd"/><path fill="#adadad" d="m610.27454 324.87363l-2.8125 0l0 -1.3125l2.71875 0q1.421875 0 2.34375 -0.546875q0.9375 -0.546875 1.390625 -1.5625q0.46875 -1.015625 0.46875 -2.421875q0 -1.40625 -0.453125 -2.40625q-0.453125 -1.0 -1.359375 -1.53125q-0.90625 -0.546875 -2.25 -0.546875l-2.921875 0l0 -1.3125l3.015625 0q1.703125 0 2.90625 0.703125q1.21875 0.6875 1.859375 1.984375q0.640625 1.296875 0.640625 3.109375q0 1.8125 -0.65625 3.125q-0.640625 1.3125 -1.890625 2.015625q-1.234375 0.703125 -3.0 0.703125zm-2.15625 -11.640625l0 11.640625l-1.484375 0l0 -11.640625l1.484375 0zm13.5625 11.828125q-1.265625 0 -2.1875 -0.5625q-0.90625 -0.5625 -1.40625 -1.5625q-0.5 -1.015625 -0.5 -2.359375q0 -1.34375 0.484375 -2.359375q0.484375 -1.03125 1.375 -1.609375q0.890625 -0.578125 2.078125 -0.578125q0.6875 0 1.359375 0.234375q0.6875 0.21875 1.234375 0.734375q0.546875 0.515625 0.875 1.359375q0.328125 0.828125 0.328125 2.03125l0 0.59375l-6.78125 0l0 -1.1875l6.03125 0l-0.65625 0.4375q0 -0.859375 -0.28125 -1.53125q-0.265625 -0.671875 -0.796875 -1.046875q-0.53125 -0.375 -1.3125 -0.375q-0.796875 0 -1.359375 0.390625q-0.5625 0.375 -0.859375 1.0q-0.296875 0.625 -0.296875 1.328125l0 0.796875q0 0.96875 0.328125 1.640625q0.34375 0.671875 0.953125 1.03125q0.609375 0.34375 1.40625 0.34375q0.515625 0 0.9375 -0.140625q0.421875 -0.15625 0.71875 -0.453125q0.3125 -0.3125 0.46875 -0.75l1.359375 0.375q-0.203125 0.65625 -0.6875 1.15625q-0.484375 0.5 -1.203125 0.78125q-0.703125 0.28125 -1.609375 0.28125zm8.625 0q-0.890625 0 -1.59375 -0.265625q-0.703125 -0.265625 -1.15625 -0.78125q-0.453125 -0.515625 -0.609375 -1.265625l1.34375 -0.3125q0.1875 0.71875 0.703125 1.0625q0.515625 0.328125 1.296875 0.328125q0.921875 0 1.453125 -0.390625q0.546875 -0.390625 0.546875 -0.9375q0 -0.453125 -0.3125 -0.75q-0.3125 -0.296875 -0.96875 -0.453125l-1.453125 -0.34375q-1.1875 -0.28125 -1.765625 -0.859375q-0.578125 -0.59375 -0.578125 -1.515625q0 -0.75 0.421875 -1.328125q0.421875 -0.578125 1.15625 -0.890625q0.734375 -0.328125 1.65625 -0.328125q0.90625 0 1.53125 0.265625q0.625 0.265625 1.015625 0.75q0.40625 0.46875 0.59375 1.078125l-1.265625 0.328125q-0.1875 -0.46875 -0.609375 -0.84375q-0.40625 -0.390625 -1.25 -0.390625q-0.78125 0 -1.3125 0.359375q-0.515625 0.359375 -0.515625 0.90625q0 0.484375 0.34375 0.78125q0.359375 0.296875 1.125 0.46875l1.328125 0.3125q1.1875 0.28125 1.75 0.875q0.578125 0.59375 0.578125 1.484375q0 0.765625 -0.4375 1.375q-0.4375 0.59375 -1.21875 0.9375q-0.765625 0.34375 -1.796875 0.34375zm9.0390625 0q-1.1875 0 -2.09375 -0.5625q-0.890625 -0.5625 -1.390625 -1.578125q-0.5 -1.015625 -0.5 -2.359375q0 -1.375 0.5 -2.390625q0.5 -1.015625 1.390625 -1.578125q0.90625 -0.5625 2.09375 -0.5625q0.625 0 1.1875 0.171875q0.5625 0.15625 1.03125 0.46875q0.46875 0.296875 0.796875 0.75q0.34375 0.453125 0.515625 1.015625l-1.34375 0.390625q-0.09375 -0.34375 -0.296875 -0.625q-0.1875 -0.28125 -0.46875 -0.484375q-0.28125 -0.203125 -0.640625 -0.3125q-0.359375 -0.125 -0.78125 -0.125q-0.875 0 -1.4375 0.46875q-0.5625 0.453125 -0.84375 1.203125q-0.265625 0.734375 -0.265625 1.609375q0 0.859375 0.265625 1.59375q0.28125 0.734375 0.84375 1.1875q0.5625 0.453125 1.4375 0.453125q0.4375 0 0.796875 -0.109375q0.375 -0.125 0.65625 -0.328125q0.28125 -0.21875 0.46875 -0.515625q0.203125 -0.296875 0.296875 -0.65625l1.34375 0.390625q-0.171875 0.578125 -0.515625 1.046875q-0.328125 0.453125 -0.796875 0.78125q-0.46875 0.3125 -1.046875 0.484375q-0.5625 0.171875 -1.203125 0.171875zm5.578125 -0.1875l0 -8.734375l1.359375 0l0 1.34375l0.09375 0q0.25 -0.671875 0.859375 -1.0625q0.625 -0.40625 1.40625 -0.40625q0.15625 0 0.375 0.015625q0.21875 0 0.34375 0l0 1.421875q-0.0625 -0.015625 -0.3125 -0.046875q-0.25 -0.03125 -0.53125 -0.03125q-0.625 0 -1.125 0.265625q-0.5 0.25 -0.78125 0.71875q-0.28125 0.453125 -0.28125 1.046875l0 5.46875l-1.40625 0zm6.1796875 0l0 -8.734375l1.40625 0l0 8.734375l-1.40625 0zm0.71875 -10.171875q-0.40625 0 -0.703125 -0.265625q-0.28125 -0.28125 -0.28125 -0.65625q0 -0.390625 0.28125 -0.65625q0.296875 -0.28125 0.703125 -0.28125q0.40625 0 0.6875 0.28125q0.296875 0.265625 0.296875 0.65625q0 0.375 -0.296875 0.65625q-0.28125 0.265625 -0.6875 0.265625zm3.15625 13.4375l0 -12.0l1.359375 0l0 1.390625l0.15625 0q0.15625 -0.234375 0.421875 -0.578125q0.265625 -0.359375 0.765625 -0.640625q0.5 -0.28125 1.34375 -0.28125q1.09375 0 1.921875 0.546875q0.84375 0.546875 1.3125 1.5625q0.46875 1.0 0.46875 2.390625q0 1.390625 -0.46875 2.40625q-0.46875 1.015625 -1.296875 1.578125q-0.828125 0.546875 -1.921875 0.546875q-0.828125 0 -1.34375 -0.28125q-0.5 -0.296875 -0.78125 -0.65625q-0.265625 -0.359375 -0.421875 -0.609375l-0.109375 0l0 4.625l-1.40625 0zm3.84375 -4.34375q0.828125 0 1.375 -0.4375q0.546875 -0.4375 0.828125 -1.1875q0.28125 -0.75 0.28125 -1.65625q0 -0.90625 -0.28125 -1.640625q-0.265625 -0.734375 -0.828125 -1.15625q-0.546875 -0.4375 -1.375 -0.4375q-0.796875 0 -1.34375 0.40625q-0.546875 0.40625 -0.828125 1.140625q-0.28125 0.71875 -0.28125 1.6875q0 0.96875 0.28125 1.71875q0.28125 0.734375 0.828125 1.15625q0.5625 0.40625 1.34375 0.40625zm9.390625 -7.65625l0 1.203125l-4.515625 0l0 -1.203125l4.515625 0zm-3.203125 -2.078125l1.40625 0l0 8.546875q0 0.578125 0.234375 0.859375q0.25 0.265625 0.796875 0.265625q0.140625 0 0.34375 -0.03125q0.203125 -0.03125 0.375 -0.0625l0.296875 1.1875q-0.21875 0.078125 -0.5 0.109375q-0.28125 0.046875 -0.546875 0.046875q-1.140625 0 -1.78125 -0.59375q-0.625 -0.609375 -0.625 -1.671875l0 -8.65625zm5.0 10.8125l0 -8.734375l1.40625 0l0 8.734375l-1.40625 0zm0.71875 -10.171875q-0.40625 0 -0.703125 -0.265625q-0.28125 -0.28125 -0.28125 -0.65625q0 -0.390625 0.28125 -0.65625q0.296875 -0.28125 0.703125 -0.28125q0.40625 0 0.6875 0.28125q0.296875 0.265625 0.296875 0.65625q0 0.375 -0.296875 0.65625q-0.28125 0.265625 -0.6875 0.265625zm6.71875 10.359375q-1.1875 0 -2.09375 -0.5625q-0.890625 -0.5625 -1.390625 -1.578125q-0.5 -1.015625 -0.5 -2.359375q0 -1.375 0.5 -2.390625q0.5 -1.015625 1.390625 -1.578125q0.90625 -0.5625 2.09375 -0.5625q1.1875 0 2.078125 0.5625q0.90625 0.5625 1.40625 1.578125q0.5 1.015625 0.5 2.390625q0 1.34375 -0.5 2.359375q-0.5 1.015625 -1.40625 1.578125q-0.890625 0.5625 -2.078125 0.5625zm0 -1.265625q0.875 0 1.4375 -0.453125q0.578125 -0.453125 0.84375 -1.1875q0.28125 -0.734375 0.28125 -1.59375q0 -0.875 -0.28125 -1.609375q-0.265625 -0.75 -0.84375 -1.203125q-0.5625 -0.46875 -1.4375 -0.46875q-0.875 0 -1.4375 0.46875q-0.5625 0.453125 -0.84375 1.203125q-0.265625 0.734375 -0.265625 1.609375q0 0.859375 0.265625 1.59375q0.28125 0.734375 0.84375 1.1875q0.5625 0.453125 1.4375 0.453125zm7.4375 -4.15625l0 5.234375l-1.40625 0l0 -8.734375l1.359375 0l0 2.109375l-0.1875 0q0.390625 -1.203125 1.125 -1.703125q0.75 -0.515625 1.734375 -0.515625q0.890625 0 1.546875 0.359375q0.671875 0.359375 1.03125 1.09375q0.375 0.734375 0.375 1.84375l0 5.546875l-1.40625 0l0 -5.4375q0 -1.0 -0.53125 -1.5625q-0.515625 -0.578125 -1.4375 -0.578125q-0.625 0 -1.125 0.28125q-0.5 0.265625 -0.796875 0.796875q-0.28125 0.515625 -0.28125 1.265625z" fill-rule="nonzero"/><path fill="#000000" fill-opacity="0.0" d="m208.1268 309.51447l202.58267 0l0 19.40155l-202.58267 0z" fill-rule="evenodd"/><path fill="#adadad" d="m271.23065 324.87445l-2.8125 0l0 -1.3125l2.71875 0q1.421875 0 2.34375 -0.546875q0.9375 -0.546875 1.390625 -1.5625q0.46875 -1.015625 0.46875 -2.421875q0 -1.40625 -0.453125 -2.40625q-0.453125 -1.0 -1.359375 -1.53125q-0.90625 -0.546875 -2.25 -0.546875l-2.921875 0l0 -1.3125l3.015625 0q1.703125 0 2.90625 0.703125q1.21875 0.6875 1.859375 1.984375q0.640625 1.296875 0.640625 3.109375q0 1.8125 -0.65625 3.125q-0.640625 1.3125 -1.890625 2.015625q-1.234375 0.703125 -3.0 0.703125zm-2.15625 -11.640625l0 11.640625l-1.484375 0l0 -11.640625l1.484375 0zm13.5625 11.828125q-1.265625 0 -2.1875 -0.5625q-0.90625 -0.5625 -1.40625 -1.5625q-0.5 -1.015625 -0.5 -2.359375q0 -1.34375 0.484375 -2.359375q0.484375 -1.03125 1.375 -1.609375q0.890625 -0.578125 2.078125 -0.578125q0.6875 0 1.359375 0.234375q0.6875 0.21875 1.234375 0.734375q0.546875 0.515625 0.875 1.359375q0.328125 0.828125 0.328125 2.03125l0 0.59375l-6.78125 0l0 -1.1875l6.03125 0l-0.65625 0.4375q0 -0.859375 -0.28125 -1.53125q-0.265625 -0.671875 -0.796875 -1.046875q-0.53125 -0.375 -1.3125 -0.375q-0.796875 0 -1.359375 0.390625q-0.5625 0.375 -0.859375 1.0q-0.296875 0.625 -0.296875 1.328125l0 0.796875q0 0.96875 0.328125 1.640625q0.34375 0.671875 0.953125 1.03125q0.609375 0.34375 1.40625 0.34375q0.515625 0 0.9375 -0.140625q0.421875 -0.15625 0.71875 -0.453125q0.3125 -0.3125 0.46875 -0.75l1.359375 0.375q-0.203125 0.65625 -0.6875 1.15625q-0.484375 0.5 -1.203125 0.78125q-0.703125 0.28125 -1.609375 0.28125zm8.625 0q-0.890625 0 -1.59375 -0.265625q-0.703125 -0.265625 -1.15625 -0.78125q-0.453125 -0.515625 -0.609375 -1.265625l1.34375 -0.3125q0.1875 0.71875 0.703125 1.0625q0.515625 0.328125 1.296875 0.328125q0.921875 0 1.453125 -0.390625q0.546875 -0.390625 0.546875 -0.9375q0 -0.453125 -0.3125 -0.75q-0.3125 -0.296875 -0.96875 -0.453125l-1.453125 -0.34375q-1.1875 -0.28125 -1.765625 -0.859375q-0.578125 -0.59375 -0.578125 -1.515625q0 -0.75 0.421875 -1.328125q0.421875 -0.578125 1.15625 -0.890625q0.734375 -0.328125 1.65625 -0.328125q0.90625 0 1.53125 0.265625q0.625 0.265625 1.015625 0.75q0.40625 0.46875 0.59375 1.078125l-1.265625 0.328125q-0.1875 -0.46875 -0.609375 -0.84375q-0.40625 -0.390625 -1.25 -0.390625q-0.78125 0 -1.3125 0.359375q-0.515625 0.359375 -0.515625 0.90625q0 0.484375 0.34375 0.78125q0.359375 0.296875 1.125 0.46875l1.328125 0.3125q1.1875 0.28125 1.75 0.875q0.578125 0.59375 0.578125 1.484375q0 0.765625 -0.4375 1.375q-0.4375 0.59375 -1.21875 0.9375q-0.765625 0.34375 -1.796875 0.34375zm9.0390625 0q-1.1875 0 -2.09375 -0.5625q-0.890625 -0.5625 -1.390625 -1.578125q-0.5 -1.015625 -0.5 -2.359375q0 -1.375 0.5 -2.390625q0.5 -1.015625 1.390625 -1.578125q0.90625 -0.5625 2.09375 -0.5625q0.625 0 1.1875 0.171875q0.5625 0.15625 1.03125 0.46875q0.46875 0.296875 0.796875 0.75q0.34375 0.453125 0.515625 1.015625l-1.34375 0.390625q-0.09375 -0.34375 -0.296875 -0.625q-0.1875 -0.28125 -0.46875 -0.484375q-0.28125 -0.203125 -0.640625 -0.3125q-0.359375 -0.125 -0.78125 -0.125q-0.875 0 -1.4375 0.46875q-0.5625 0.453125 -0.84375 1.203125q-0.265625 0.734375 -0.265625 1.609375q0 0.859375 0.265625 1.59375q0.28125 0.734375 0.84375 1.1875q0.5625 0.453125 1.4375 0.453125q0.4375 0 0.796875 -0.109375q0.375 -0.125 0.65625 -0.328125q0.28125 -0.21875 0.46875 -0.515625q0.203125 -0.296875 0.296875 -0.65625l1.34375 0.390625q-0.171875 0.578125 -0.515625 1.046875q-0.328125 0.453125 -0.796875 0.78125q-0.46875 0.3125 -1.046875 0.484375q-0.5625 0.171875 -1.203125 0.171875zm5.578125 -0.1875l0 -8.734375l1.359375 0l0 1.34375l0.09375 0q0.25 -0.671875 0.859375 -1.0625q0.625 -0.40625 1.40625 -0.40625q0.15625 0 0.375 0.015625q0.21875 0 0.34375 0l0 1.421875q-0.0625 -0.015625 -0.3125 -0.046875q-0.25 -0.03125 -0.53125 -0.03125q-0.625 0 -1.125 0.265625q-0.5 0.25 -0.78125 0.71875q-0.28125 0.453125 -0.28125 1.046875l0 5.46875l-1.40625 0zm6.1796875 0l0 -8.734375l1.40625 0l0 8.734375l-1.40625 0zm0.71875 -10.171875q-0.40625 0 -0.703125 -0.265625q-0.28125 -0.28125 -0.28125 -0.65625q0 -0.390625 0.28125 -0.65625q0.296875 -0.28125 0.703125 -0.28125q0.40625 0 0.6875 0.28125q0.296875 0.265625 0.296875 0.65625q0 0.375 -0.296875 0.65625q-0.28125 0.265625 -0.6875 0.265625zm3.15625 13.4375l0 -12.0l1.359375 0l0 1.390625l0.15625 0q0.15625 -0.234375 0.421875 -0.578125q0.265625 -0.359375 0.765625 -0.640625q0.5 -0.28125 1.34375 -0.28125q1.09375 0 1.921875 0.546875q0.84375 0.546875 1.3125 1.5625q0.46875 1.0 0.46875 2.390625q0 1.390625 -0.46875 2.40625q-0.46875 1.015625 -1.296875 1.578125q-0.828125 0.546875 -1.921875 0.546875q-0.828125 0 -1.34375 -0.28125q-0.5 -0.296875 -0.78125 -0.65625q-0.265625 -0.359375 -0.421875 -0.609375l-0.109375 0l0 4.625l-1.40625 0zm3.84375 -4.34375q0.828125 0 1.375 -0.4375q0.546875 -0.4375 0.828125 -1.1875q0.28125 -0.75 0.28125 -1.65625q0 -0.90625 -0.28125 -1.640625q-0.265625 -0.734375 -0.828125 -1.15625q-0.546875 -0.4375 -1.375 -0.4375q-0.796875 0 -1.34375 0.40625q-0.546875 0.40625 -0.828125 1.140625q-0.28125 0.71875 -0.28125 1.6875q0 0.96875 0.28125 1.71875q0.28125 0.734375 0.828125 1.15625q0.5625 0.40625 1.34375 0.40625zm9.390625 -7.65625l0 1.203125l-4.515625 0l0 -1.203125l4.515625 0zm-3.203125 -2.078125l1.40625 0l0 8.546875q0 0.578125 0.234375 0.859375q0.25 0.265625 0.796875 0.265625q0.140625 0 0.34375 -0.03125q0.203125 -0.03125 0.375 -0.0625l0.296875 1.1875q-0.21875 0.078125 -0.5 0.109375q-0.28125 0.046875 -0.546875 0.046875q-1.140625 0 -1.78125 -0.59375q-0.625 -0.609375 -0.625 -1.671875l0 -8.65625zm5.0 10.8125l0 -8.734375l1.40625 0l0 8.734375l-1.40625 0zm0.71875 -10.171875q-0.40625 0 -0.703125 -0.265625q-0.28125 -0.28125 -0.28125 -0.65625q0 -0.390625 0.28125 -0.65625q0.296875 -0.28125 0.703125 -0.28125q0.40625 0 0.6875 0.28125q0.296875 0.265625 0.296875 0.65625q0 0.375 -0.296875 0.65625q-0.28125 0.265625 -0.6875 0.265625zm6.71875 10.359375q-1.1875 0 -2.09375 -0.5625q-0.890625 -0.5625 -1.390625 -1.578125q-0.5 -1.015625 -0.5 -2.359375q0 -1.375 0.5 -2.390625q0.5 -1.015625 1.390625 -1.578125q0.90625 -0.5625 2.09375 -0.5625q1.1875 0 2.078125 0.5625q0.90625 0.5625 1.40625 1.578125q0.5 1.015625 0.5 2.390625q0 1.34375 -0.5 2.359375q-0.5 1.015625 -1.40625 1.578125q-0.890625 0.5625 -2.078125 0.5625zm0 -1.265625q0.875 0 1.4375 -0.453125q0.578125 -0.453125 0.84375 -1.1875q0.28125 -0.734375 0.28125 -1.59375q0 -0.875 -0.28125 -1.609375q-0.265625 -0.75 -0.84375 -1.203125q-0.5625 -0.46875 -1.4375 -0.46875q-0.875 0 -1.4375 0.46875q-0.5625 0.453125 -0.84375 1.203125q-0.265625 0.734375 -0.265625 1.609375q0 0.859375 0.265625 1.59375q0.28125 0.734375 0.84375 1.1875q0.5625 0.453125 1.4375 0.453125zm7.4375 -4.15625l0 5.234375l-1.40625 0l0 -8.734375l1.359375 0l0 2.109375l-0.1875 0q0.390625 -1.203125 1.125 -1.703125q0.75 -0.515625 1.734375 -0.515625q0.890625 0 1.546875 0.359375q0.671875 0.359375 1.03125 1.09375q0.375 0.734375 0.375 1.84375l0 5.546875l-1.40625 0l0 -5.4375q0 -1.0 -0.53125 -1.5625q-0.515625 -0.578125 -1.4375 -0.578125q-0.625 0 -1.125 0.28125q-0.5 0.265625 -0.796875 0.796875q-0.28125 0.515625 -0.28125 1.265625z" fill-rule="nonzero"/><path fill="#000000" fill-opacity="0.0" d="m478.25986 201.74016l2.6141663 141.73228" fill-rule="evenodd"/><path stroke="#434343" stroke-width="2.0" stroke-linejoin="round" stroke-linecap="butt" d="m478.25986 201.74016l2.6141663 141.73228" fill-rule="evenodd"/><path fill="#000000" fill-opacity="0.0" d="m48.0 67.2l384.6299 0l0 32.314964l-384.6299 0z" fill-rule="evenodd"/><path fill="#ffffff" d="m48.96875 76.706245l0 -3.296875l15.84375 0l0 3.296875l-5.921875 0l0 16.09375l-3.984375 0l0 -16.09375l-5.9375 0zm18.495651 16.09375l0 -14.546875l3.90625 0l0 14.546875l-3.90625 0zm1.953125 -16.453125q-0.890625 0 -1.515625 -0.578125q-0.625 -0.59375 -0.625 -1.421875q0 -0.84375 0.625 -1.421875q0.625 -0.578125 1.515625 -0.578125q0.890625 0 1.515625 0.578125q0.625 0.578125 0.625 1.421875q0 0.828125 -0.625 1.421875q-0.625 0.578125 -1.515625 0.578125zm12.489365 1.90625l0 2.96875l-8.625 0l0 -2.96875l8.625 0zm-6.625 -3.46875l3.90625 0l0 13.765625q0 0.6875 0.296875 1.015625q0.3125 0.328125 1.03125 0.328125q0.21875 0 0.625 -0.046875q0.40625 -0.0625 0.609375 -0.125l0.5625 2.9375q-0.65625 0.1875 -1.296875 0.265625q-0.640625 0.078125 -1.234375 0.078125q-2.1875 0 -3.34375 -1.0625q-1.15625 -1.0625 -1.15625 -3.0625l0 -14.09375zm13.13942 -1.375l0 19.390625l-3.90625 0l0 -19.390625l3.90625 0zm9.87999 19.671875q-2.21875 0 -3.84375 -0.90625q-1.609375 -0.90625 -2.484375 -2.578125q-0.859375 -1.6875 -0.859375 -4.0q0 -2.25 0.859375 -3.9375q0.859375 -1.6875 2.4375 -2.640625q1.578125 -0.953125 3.703125 -0.953125q1.421875 0 2.65625 0.453125q1.25 0.453125 2.1875 1.375q0.9375 0.921875 1.453125 2.296875q0.53125 1.375 0.53125 3.25l0 1.09375l-12.21875 0l0 -2.4375l10.3125 0l-1.828125 0.640625q0 -1.125 -0.34375 -1.96875q-0.34375 -0.84375 -1.03125 -1.296875q-0.6875 -0.46875 -1.6875 -0.46875q-1.015625 0 -1.71875 0.46875q-0.703125 0.46875 -1.078125 1.28125q-0.359375 0.796875 -0.359375 1.828125l0 1.71875q0 1.265625 0.421875 2.125q0.421875 0.859375 1.171875 1.296875q0.765625 0.421875 1.78125 0.421875q0.703125 0 1.25 -0.1875q0.5625 -0.203125 0.953125 -0.578125q0.40625 -0.390625 0.609375 -0.953125l3.546875 0.671875q-0.359375 1.1875 -1.234375 2.09375q-0.859375 0.90625 -2.171875 1.40625q-1.3125 0.484375 -3.015625 0.484375zm19.535599 -8.703125l0 8.421875l-3.90625 0l0 -19.390625l3.828125 0l0 8.46875l-0.3125 0q0.5625 -1.828125 1.71875 -2.8125q1.171875 -1.0 3.03125 -1.0q1.5 0 2.625 0.65625q1.125 0.65625 1.75 1.890625q0.625 1.234375 0.625 2.9375l0 9.25l-3.90625 0l0 -8.578125q0 -1.359375 -0.703125 -2.125q-0.703125 -0.765625 -1.9375 -0.765625q-0.8125 0 -1.46875 0.359375q-0.640625 0.359375 -1.0 1.046875q-0.34375 0.671875 -0.34375 1.640625zm19.251328 8.703125q-2.21875 0 -3.84375 -0.90625q-1.609375 -0.90625 -2.484375 -2.578125q-0.859375 -1.6875 -0.859375 -4.0q0 -2.25 0.859375 -3.9375q0.859375 -1.6875 2.4375 -2.640625q1.578125 -0.953125 3.703125 -0.953125q1.421875 0 2.65625 0.453125q1.25 0.453125 2.1875 1.375q0.9375 0.921875 1.453125 2.296875q0.53125 1.375 0.53125 3.25l0 1.09375l-12.21875 0l0 -2.4375l10.3125 0l-1.828125 0.640625q0 -1.125 -0.34375 -1.96875q-0.34375 -0.84375 -1.03125 -1.296875q-0.6875 -0.46875 -1.6875 -0.46875q-1.015625 0 -1.71875 0.46875q-0.703125 0.46875 -1.078125 1.28125q-0.359375 0.796875 -0.359375 1.828125l0 1.71875q0 1.265625 0.421875 2.125q0.421875 0.859375 1.171875 1.296875q0.765625 0.421875 1.78125 0.421875q0.703125 0 1.25 -0.1875q0.5625 -0.203125 0.953125 -0.578125q0.40625 -0.390625 0.609375 -0.953125l3.546875 0.671875q-0.359375 1.1875 -1.234375 2.09375q-0.859375 0.90625 -2.171875 1.40625q-1.3125 0.484375 -3.015625 0.484375zm13.639633 0q-1.390625 0 -2.5 -0.484375q-1.09375 -0.484375 -1.71875 -1.453125q-0.625 -0.96875 -0.625 -2.421875q0 -1.203125 0.4375 -2.015625q0.453125 -0.828125 1.21875 -1.3125q0.78125 -0.5 1.765625 -0.765625q0.984375 -0.265625 2.0625 -0.359375q1.265625 -0.140625 2.03125 -0.25q0.78125 -0.109375 1.140625 -0.34375q0.359375 -0.25 0.359375 -0.71875l0 -0.0625q0 -0.625 -0.265625 -1.046875q-0.25 -0.4375 -0.765625 -0.65625q-0.515625 -0.234375 -1.25 -0.234375q-0.75 0 -1.3125 0.234375q-0.5625 0.21875 -0.921875 0.59375q-0.34375 0.375 -0.515625 0.84375l-3.578125 -0.578125q0.375 -1.28125 1.25 -2.15625q0.875 -0.890625 2.171875 -1.359375q1.296875 -0.46875 2.921875 -0.46875q1.171875 0 2.28125 0.28125q1.109375 0.28125 1.984375 0.875q0.875 0.578125 1.390625 1.53125q0.515625 0.9375 0.515625 2.25l0 9.796875l-3.703125 0l0 -2.015625l-0.125 0q-0.359375 0.671875 -0.953125 1.1875q-0.578125 0.515625 -1.40625 0.8125q-0.8125 0.296875 -1.890625 0.296875zm1.09375 -2.734375q0.921875 0 1.625 -0.359375q0.703125 -0.375 1.09375 -1.0q0.390625 -0.625 0.390625 -1.390625l0 -1.578125q-0.171875 0.125 -0.53125 0.234375q-0.34375 0.109375 -0.78125 0.1875q-0.421875 0.078125 -0.84375 0.140625q-0.421875 0.0625 -0.734375 0.09375q-0.71875 0.109375 -1.265625 0.34375q-0.546875 0.234375 -0.84375 0.625q-0.296875 0.375 -0.296875 0.984375q0 0.546875 0.28125 0.9375q0.28125 0.390625 0.78125 0.59375q0.5 0.1875 1.125 0.1875zm15.616348 2.703125q-1.65625 0 -3.015625 -0.859375q-1.34375 -0.875 -2.125 -2.546875q-0.78125 -1.671875 -0.78125 -4.09375q0 -2.484375 0.8125 -4.140625q0.8125 -1.671875 2.140625 -2.5q1.34375 -0.84375 2.96875 -0.84375q1.234375 0 2.046875 0.421875q0.828125 0.40625 1.328125 1.03125q0.515625 0.609375 0.765625 1.171875l0.125 0l0 -7.28125l3.90625 0l0 19.390625l-3.84375 0l0 -2.328125l-0.1875 0q-0.265625 0.578125 -0.78125 1.171875q-0.515625 0.59375 -1.34375 1.0q-0.8125 0.40625 -2.015625 0.40625zm1.21875 -3.140625q0.984375 0 1.6875 -0.546875q0.703125 -0.546875 1.0625 -1.53125q0.375 -0.984375 0.375 -2.296875q0 -1.328125 -0.359375 -2.296875q-0.359375 -0.96875 -1.0625 -1.5q-0.703125 -0.546875 -1.703125 -0.546875q-1.03125 0 -1.734375 0.5625q-0.6875 0.5625 -1.046875 1.546875q-0.34375 0.96875 -0.34375 2.234375q0 1.28125 0.359375 2.265625q0.359375 0.984375 1.046875 1.546875q0.703125 0.5625 1.71875 0.5625zm10.287704 2.890625l0 -14.546875l3.90625 0l0 14.546875l-3.90625 0zm1.953125 -16.453125q-0.890625 0 -1.515625 -0.578125q-0.625 -0.59375 -0.625 -1.421875q0 -0.84375 0.625 -1.421875q0.625 -0.578125 1.515625 -0.578125q0.890625 0 1.515625 0.578125q0.625 0.578125 0.625 1.421875q0 0.828125 -0.625 1.421875q-0.625 0.578125 -1.515625 0.578125zm9.176865 8.03125l0 8.421875l-3.90625 0l0 -14.546875l3.671875 0l0.078125 3.625l-0.234375 0q0.5625 -1.828125 1.71875 -2.8125q1.171875 -1.0 3.03125 -1.0q1.5 0 2.625 0.65625q1.125 0.65625 1.734375 1.890625q0.625 1.234375 0.625 2.9375l0 9.25l-3.890625 0l0 -8.578125q0 -1.359375 -0.703125 -2.125q-0.703125 -0.765625 -1.9375 -0.765625q-0.8125 0 -1.46875 0.359375q-0.640625 0.359375 -1.0 1.046875q-0.34375 0.671875 -0.34375 1.640625zm19.157578 14.171875q-1.828125 0 -3.1875 -0.46875q-1.34375 -0.453125 -2.203125 -1.265625q-0.84375 -0.796875 -1.15625 -1.828125l3.359375 -0.9375q0.171875 0.40625 0.546875 0.78125q0.390625 0.390625 1.03125 0.640625q0.640625 0.25 1.578125 0.25q1.5 0 2.34375 -0.6875q0.859375 -0.6875 0.859375 -2.125l0 -2.6875l-0.296875 0q-0.265625 0.59375 -0.765625 1.140625q-0.484375 0.546875 -1.296875 0.890625q-0.796875 0.34375 -1.984375 0.34375q-1.625 0 -2.96875 -0.765625q-1.34375 -0.78125 -2.15625 -2.34375q-0.796875 -1.578125 -0.796875 -3.984375q0 -2.46875 0.8125 -4.109375q0.828125 -1.65625 2.171875 -2.484375q1.34375 -0.84375 2.953125 -0.84375q1.234375 0 2.0625 0.421875q0.828125 0.40625 1.34375 1.03125q0.515625 0.609375 0.78125 1.171875l0.171875 0l0 -2.4375l3.828125 0l0 14.4375q0 1.953125 -0.90625 3.25q-0.90625 1.3125 -2.5 1.953125q-1.578125 0.65625 -3.625 0.65625zm0.0625 -8.921875q1.0 0 1.6875 -0.5q0.703125 -0.5 1.0625 -1.421875q0.375 -0.9375 0.375 -2.234375q0 -1.28125 -0.375 -2.25q-0.359375 -0.96875 -1.0625 -1.5q-0.6875 -0.53125 -1.6875 -0.53125q-1.03125 0 -1.734375 0.5625q-0.6875 0.546875 -1.046875 1.515625q-0.359375 0.953125 -0.359375 2.203125q0 1.28125 0.359375 2.21875q0.359375 0.921875 1.0625 1.4375q0.703125 0.5 1.71875 0.5z" fill-rule="nonzero"/><defs><linearGradient id="g1d419526cb4_2_868.1" gradientUnits="userSpaceOnUse" gradientTransform="matrix(6.9307924645477454 0.0 0.0 6.9307924645477454 0.0 0.0)" spreadMethod="pad" x1="38.13998571959961" y1="33.383264473412346" x2="38.139962051022664" y2="40.31405693791967"><stop offset="0.0" stop-color="#ffffff"/><stop offset="1.0" stop-color="#bebebe"/></linearGradient></defs><path fill="url(#g1d419526cb4_2_868.1)" d="m265.88153 231.37282l15.651215 23.475311l-17.192413 24.560226l11.334137 0l6.8710938 -10.058441c0.89904785 -1.3540344 1.626831 -2.5074768 2.1833496 -3.4602966c0.5565491 -0.95999146 1.0595703 -1.8626709 1.5090942 -2.7080383c0.23278809 -0.44152832 0.47994995 -0.907074 0.7414551 -1.396637l0 0c0.26849365 0.50405884 0.5172119 0.9803467 0.7462158 1.4288635c0.4423828 0.84536743 0.9346924 1.7409058 1.4769592 2.686554c0.54940796 0.9456787 1.2629089 2.09552 2.1405334 3.4495544l6.6463623 10.058441l11.623108 0l-16.896423 -24.869064l15.483673 -23.166473l-11.109375 0l-5.3299255 8.059647c-0.98464966 1.5259705 -1.7980652 2.901474 -2.440216 4.126541c-0.6421509 1.2250824 -1.2308044 2.396408 -1.7659607 3.5140228c-0.14959717 0.31248474 -0.30340576 0.6283264 -0.46142578 0.9475403l0 0c-0.15750122 -0.32255554 -0.31051636 -0.64198303 -0.45898438 -0.9582977c-0.520874 -1.1319275 -1.0988159 -2.3032684 -1.7338257 -3.5140076c-0.62789917 -1.2178955 -1.4341736 -2.5898285 -2.4188232 -4.115799l-5.233612 -8.059647z" fill-rule="evenodd"/><defs><linearGradient id="g1d419526cb4_2_868.2" gradientUnits="userSpaceOnUse" gradientTransform="matrix(6.9307924645477454 0.0 0.0 6.9307924645477454 0.0 0.0)" spreadMethod="pad" x1="38.13998571959961" y1="33.383264473412346" x2="38.139962051022664" y2="40.31405693791967"><stop offset="0.0" stop-color="#ffffff"/><stop offset="1.0" stop-color="#bebebe"/></linearGradient></defs><path fill="url(#g1d419526cb4_2_868.2)" d="m314.42883 231.37282l15.651215 23.475311l-17.192383 24.560226l11.334106 0l6.8711243 -10.058441c0.89901733 -1.3540344 1.6268005 -2.5074768 2.1833496 -3.4602966c0.5565491 -0.95999146 1.0595703 -1.8626709 1.5090637 -2.7080383c0.2328186 -0.44152832 0.47998047 -0.907074 0.7414856 -1.396637l0 0c0.26846313 0.50405884 0.5172119 0.9803467 0.7461853 1.4288635c0.4423828 0.84536743 0.9347229 1.7409058 1.4769897 2.686554c0.54940796 0.9456787 1.2629089 2.09552 2.1405334 3.4495544l6.6463623 10.058441l11.623108 0l-16.896454 -24.869064l15.483673 -23.166473l-11.109375 0l-5.3299255 8.059647c-0.98464966 1.5259705 -1.7980347 2.901474 -2.4401855 4.126541c-0.6421814 1.2250824 -1.230835 2.396408 -1.7659607 3.5140228c-0.14962769 0.31248474 -0.30343628 0.6283264 -0.46142578 0.9475403l0 0c-0.15750122 -0.32255554 -0.31051636 -0.64198303 -0.45898438 -0.9582977c-0.520874 -1.1319275 -1.0988159 -2.3032684 -1.7338562 -3.5140076c-0.62786865 -1.2178955 -1.4341431 -2.5898285 -2.4187927 -4.115799l-5.233612 -8.059647z" fill-rule="evenodd"/><defs><linearGradient id="g1d419526cb4_2_868.3" gradientUnits="userSpaceOnUse" gradientTransform="matrix(6.930792464559111 0.0 0.0 6.930792464559111 0.0 0.0)" spreadMethod="pad" x1="87.23959948575623" y1="33.3832644733576" x2="87.23956990003504" y2="40.314056937853564"><stop offset="0.0" stop-color="#ffffff"/><stop offset="1.0" stop-color="#bebebe"/></linearGradient></defs><path fill="url(#g1d419526cb4_2_868.3)" d="m606.1807 231.37282l15.651245 23.475311l-17.192444 24.560226l11.3341675 0l6.8710938 -10.058441c0.89904785 -1.3540344 1.626831 -2.5074768 2.1833496 -3.4602966c0.55651855 -0.95999146 1.0595703 -1.8626709 1.5090942 -2.7080383c0.23278809 -0.44152832 0.47991943 -0.907074 0.7414551 -1.396637l0 0c0.26849365 0.50405884 0.5172119 0.9803467 0.7462158 1.4288635c0.4423828 0.84536743 0.9346924 1.7409058 1.4769287 2.686554c0.5494385 0.9456787 1.2629395 2.09552 2.140564 3.4495544l6.6463623 10.058441l11.623108 0l-16.896423 -24.869064l15.483643 -23.166473l-11.109375 0l-5.329895 8.059647c-0.9846802 1.5259705 -1.7980957 2.901474 -2.4402466 4.126541c-0.6421509 1.2250824 -1.2307739 2.396408 -1.7659302 3.5140228c-0.14959717 0.31248474 -0.30340576 0.6283264 -0.46142578 0.9475403l0 0c-0.15753174 -0.32255554 -0.31054688 -0.64198303 -0.45898438 -0.9582977c-0.520874 -1.1319275 -1.0988159 -2.3032684 -1.7338257 -3.5140076c-0.6279297 -1.2178955 -1.4342041 -2.5898285 -2.4188232 -4.115799l-5.2335815 -8.059647z" fill-rule="evenodd"/><defs><linearGradient id="g1d419526cb4_2_868.4" gradientUnits="userSpaceOnUse" gradientTransform="matrix(6.930792464559111 0.0 0.0 6.930792464559111 0.0 0.0)" spreadMethod="pad" x1="87.23959948575623" y1="33.3832644733576" x2="87.23956990003504" y2="40.314056937853564"><stop offset="0.0" stop-color="#ffffff"/><stop offset="1.0" stop-color="#bebebe"/></linearGradient></defs><path fill="url(#g1d419526cb4_2_868.4)" d="m654.728 231.37282l15.651245 23.475311l-17.192383 24.560226l11.334106 0l6.8710938 -10.058441c0.89904785 -1.3540344 1.626831 -2.5074768 2.1833496 -3.4602966c0.5565796 -0.95999146 1.0595703 -1.8626709 1.5090942 -2.7080383c0.23278809 -0.44152832 0.47998047 -0.907074 0.7414551 -1.396637l0 0c0.26849365 0.50405884 0.5172119 0.9803467 0.7462158 1.4288635c0.4423828 0.84536743 0.9346924 1.7409058 1.4769897 2.686554c0.54937744 0.9456787 1.2628784 2.09552 2.140503 3.4495544l6.6463623 10.058441l11.623108 0l-16.896423 -24.869064l15.483704 -23.166473l-11.109375 0l-5.329956 8.059647c-0.98461914 1.5259705 -1.7980347 2.901474 -2.4401855 4.126541c-0.6422119 1.2250824 -1.230835 2.396408 -1.7659912 3.5140228c-0.14959717 0.31248474 -0.30340576 0.6283264 -0.46142578 0.9475403l0 0c-0.1574707 -0.32255554 -0.31048584 -0.64198303 -0.45898438 -0.9582977c-0.520874 -1.1319275 -1.0988159 -2.3032684 -1.7338257 -3.5140076c-0.62786865 -1.2178955 -1.4341431 -2.5898285 -2.4188232 -4.115799l-5.2335815 -8.059647z" fill-rule="evenodd"/></g></svg>