<svg version="1.1" viewBox="0.0 0.0 960.0 540.0" fill="none" stroke="none" stroke-linecap="square" stroke-miterlimit="10" xmlns:xlink="http://www.w3.org/1999/xlink" xmlns="http://www.w3.org/2000/svg"><clipPath id="g13b8f82b5b6_0_77.0"><path d="m0 0l960.0 0l0 540.0l-960.0 0l0 -540.0z" clip-rule="nonzero"/></clipPath><g clip-path="url(#g13b8f82b5b6_0_77.0)"><path fill="#000000" d="m0 0l960.0 0l0 540.0l-960.0 0z" fill-rule="evenodd"/><path fill="#000000" fill-opacity="0.0" d="m164.99213 170.61417l630.01575 0l0 198.77167l-630.01575 0z" fill-rule="evenodd"/><path fill="#ffffff" d="m208.88281 198.26218l-8.15625 -23.28125l5.296875 0l3.71875 11.234375q0.671875 2.125 1.359375 4.6875q0.6875 2.546875 1.453125 5.578125l-1.03125 0q0.75 -3.0625 1.40625 -5.59375q0.65625 -2.546875 1.296875 -4.671875l3.59375 -11.234375l5.265625 0l-7.96875 23.28125l-6.234375 0zm22.90625 0.34375q-2.671875 0 -4.609375 -1.09375q-1.9375 -1.09375 -2.984375 -3.109375q-1.03125 -2.015625 -1.03125 -4.78125q0 -2.703125 1.03125 -4.734375q1.03125 -2.03125 2.921875 -3.171875q1.890625 -1.140625 4.4375 -1.140625q1.71875 0 3.203125 0.546875q1.484375 0.546875 2.609375 1.65625q1.125 1.09375 1.75 2.75q0.640625 1.65625 0.640625 3.90625l0 1.3125l-14.671875 0l0 -2.9375l12.375 0l-2.1875 0.78125q0 -1.359375 -0.421875 -2.359375q-0.40625 -1.015625 -1.234375 -1.5625q-0.8125 -0.5625 -2.015625 -0.5625q-1.21875 0 -2.078125 0.5625q-0.84375 0.5625 -1.28125 1.53125q-0.4375 0.953125 -0.4375 2.1875l0 2.078125q0 1.515625 0.5 2.546875q0.515625 1.03125 1.421875 1.546875q0.921875 0.515625 2.140625 0.515625q0.828125 0 1.5 -0.234375q0.671875 -0.234375 1.140625 -0.6875q0.484375 -0.46875 0.734375 -1.140625l4.25 0.796875q-0.421875 1.4375 -1.46875 2.53125q-1.046875 1.078125 -2.625 1.671875q-1.5625 0.59375 -3.609375 0.59375zm11.171875 -0.34375l0 -17.46875l4.53125 0l0 3.046875l0.1875 0q0.484375 -1.625 1.609375 -2.453125q1.140625 -0.828125 2.609375 -0.828125q0.359375 0 0.78125 0.046875q0.421875 0.03125 0.734375 0.109375l0 4.1875q-0.3125 -0.109375 -0.90625 -0.171875q-0.59375 -0.0625 -1.125 -0.0625q-1.0625 0 -1.921875 0.46875q-0.859375 0.453125 -1.34375 1.28125q-0.46875 0.8125 -0.46875 1.90625l0 9.9375l-4.6875 0zm20.0625 0.34375q-2.640625 0 -4.5625 -1.125q-1.90625 -1.140625 -2.953125 -3.15625q-1.03125 -2.03125 -1.03125 -4.71875q0 -2.71875 1.03125 -4.734375q1.046875 -2.03125 2.953125 -3.15625q1.921875 -1.140625 4.5625 -1.140625q1.546875 0 2.859375 0.40625q1.3125 0.40625 2.328125 1.15625q1.015625 0.75 1.671875 1.828125q0.65625 1.078125 0.90625 2.421875l-4.359375 0.8125q-0.140625 -0.6875 -0.4375 -1.21875q-0.296875 -0.546875 -0.71875 -0.921875q-0.421875 -0.390625 -0.984375 -0.59375q-0.546875 -0.203125 -1.21875 -0.203125q-1.25 0 -2.109375 0.671875q-0.84375 0.671875 -1.28125 1.875q-0.421875 1.203125 -0.421875 2.78125q0 1.546875 0.421875 2.75q0.4375 1.203125 1.28125 1.890625q0.859375 0.6875 2.109375 0.6875q0.671875 0 1.234375 -0.203125q0.5625 -0.21875 1.0 -0.609375q0.4375 -0.40625 0.734375 -0.96875q0.296875 -0.5625 0.421875 -1.265625l4.359375 0.796875q-0.25 1.390625 -0.90625 2.484375q-0.65625 1.078125 -1.671875 1.859375q-1.015625 0.78125 -2.34375 1.1875q-1.3125 0.40625 -2.875 0.40625zm18.90625 0q-2.671875 0 -4.609375 -1.09375q-1.9375 -1.09375 -2.984375 -3.109375q-1.03125 -2.015625 -1.03125 -4.78125q0 -2.703125 1.03125 -4.734375q1.03125 -2.03125 2.921875 -3.171875q1.890625 -1.140625 4.4375 -1.140625q1.71875 0 3.203125 0.546875q1.484375 0.546875 2.609375 1.65625q1.125 1.09375 1.75 2.75q0.640625 1.65625 0.640625 3.90625l0 1.3125l-14.671875 0l0 -2.9375l12.375 0l-2.1875 0.78125q0 -1.359375 -0.421875 -2.359375q-0.40625 -1.015625 -1.234375 -1.5625q-0.8125 -0.5625 -2.015625 -0.5625q-1.21875 0 -2.078125 0.5625q-0.84375 0.5625 -1.28125 1.53125q-0.4375 0.953125 -0.4375 2.1875l0 2.078125q0 1.515625 0.5 2.546875q0.515625 1.03125 1.421875 1.546875q0.921875 0.515625 2.140625 0.515625q0.828125 0 1.5 -0.234375q0.671875 -0.234375 1.140625 -0.6875q0.484375 -0.46875 0.734375 -1.140625l4.25 0.796875q-0.421875 1.4375 -1.46875 2.53125q-1.046875 1.078125 -2.625 1.671875q-1.5625 0.59375 -3.609375 0.59375zm15.859375 -23.625l0 23.28125l-4.6875 0l0 -23.28125l4.6875 0zm19.375 23.625q-2.640625 0 -4.5625 -1.125q-1.90625 -1.140625 -2.953125 -3.15625q-1.03125 -2.03125 -1.03125 -4.71875q0 -2.71875 1.03125 -4.734375q1.046875 -2.03125 2.953125 -3.15625q1.921875 -1.140625 4.5625 -1.140625q1.546875 0 2.859375 0.40625q1.3125 0.40625 2.328125 1.15625q1.015625 0.75 1.671875 1.828125q0.65625 1.078125 0.90625 2.421875l-4.359375 0.8125q-0.140625 -0.6875 -0.4375 -1.21875q-0.296875 -0.546875 -0.71875 -0.921875q-0.421875 -0.390625 -0.984375 -0.59375q-0.546875 -0.203125 -1.21875 -0.203125q-1.25 0 -2.109375 0.671875q-0.84375 0.671875 -1.28125 1.875q-0.421875 1.203125 -0.421875 2.78125q0 1.546875 0.421875 2.75q0.4375 1.203125 1.28125 1.890625q0.859375 0.6875 2.109375 0.6875q0.671875 0 1.234375 -0.203125q0.5625 -0.21875 1.0 -0.609375q0.4375 -0.40625 0.734375 -0.96875q0.296875 -0.5625 0.421875 -1.265625l4.359375 0.796875q-0.25 1.390625 -0.90625 2.484375q-0.65625 1.078125 -1.671875 1.859375q-1.015625 0.78125 -2.34375 1.1875q-1.3125 0.40625 -2.875 0.40625zm18.828125 0q-2.625 0 -4.546875 -1.125q-1.921875 -1.140625 -2.96875 -3.15625q-1.03125 -2.03125 -1.03125 -4.71875q0 -2.71875 1.03125 -4.734375q1.046875 -2.03125 2.96875 -3.15625q1.921875 -1.140625 4.546875 -1.140625q2.640625 0 4.546875 1.140625q1.921875 1.125 2.953125 3.15625q1.046875 2.015625 1.046875 4.734375q0 2.6875 -1.046875 4.71875q-1.03125 2.015625 -2.953125 3.15625q-1.90625 1.125 -4.546875 1.125zm0 -3.6875q1.25 0 2.09375 -0.6875q0.84375 -0.703125 1.265625 -1.90625q0.421875 -1.21875 0.421875 -2.734375q0 -1.546875 -0.421875 -2.75q-0.421875 -1.203125 -1.265625 -1.890625q-0.84375 -0.6875 -2.09375 -0.6875q-1.25 0 -2.09375 0.6875q-0.828125 0.6875 -1.25 1.890625q-0.421875 1.203125 -0.421875 2.75q0 1.515625 0.421875 2.734375q0.421875 1.203125 1.25 1.90625q0.84375 0.6875 2.09375 0.6875zm11.8125 3.34375l0 -17.46875l4.34375 0l0.234375 4.34375l-0.34375 0q0.40625 -1.609375 1.1875 -2.625q0.796875 -1.015625 1.859375 -1.5q1.0625 -0.484375 2.234375 -0.484375q1.890625 0 3.046875 1.203125q1.15625 1.1875 1.703125 3.6875l-0.546875 0q0.390625 -1.671875 1.265625 -2.75q0.890625 -1.09375 2.09375 -1.609375q1.21875 -0.53125 2.546875 -0.53125q1.609375 0 2.859375 0.703125q1.265625 0.703125 1.984375 2.03125q0.734375 1.3125 0.734375 3.21875l0 11.78125l-4.6875 0l0 -10.890625q0 -1.484375 -0.8125 -2.203125q-0.796875 -0.71875 -1.96875 -0.71875q-0.875 0 -1.53125 0.390625q-0.640625 0.375 -1.0 1.0625q-0.34375 0.6875 -0.34375 1.609375l0 10.75l-4.53125 0l0 -11.015625q0 -1.28125 -0.765625 -2.03125q-0.75 -0.765625 -1.953125 -0.765625q-0.828125 0 -1.5 0.375q-0.65625 0.375 -1.046875 1.109375q-0.375 0.71875 -0.375 1.765625l0 10.5625l-4.6875 0zm38.984375 0.296875q-1.421875 0 -2.40625 -0.484375q-0.984375 -0.484375 -1.609375 -1.1875q-0.609375 -0.71875 -0.9375 -1.421875l-0.21875 0l0 2.796875l-4.609375 0l0 -23.28125l4.6875 0l0 8.75l0.140625 0q0.328125 -0.6875 0.921875 -1.421875q0.609375 -0.734375 1.59375 -1.234375q0.984375 -0.5 2.46875 -0.5q1.9375 0 3.546875 1.0q1.609375 1.0 2.5625 3.0q0.96875 2.0 0.96875 4.984375q0 2.90625 -0.9375 4.921875q-0.9375 2.0 -2.546875 3.046875q-1.609375 1.03125 -3.625 1.03125zm-1.4375 -3.765625q1.21875 0 2.046875 -0.671875q0.84375 -0.671875 1.265625 -1.859375q0.4375 -1.1875 0.4375 -2.71875q0 -1.53125 -0.4375 -2.703125q-0.421875 -1.171875 -1.25 -1.84375q-0.828125 -0.671875 -2.0625 -0.671875q-1.203125 0 -2.046875 0.65625q-0.84375 0.640625 -1.28125 1.8125q-0.4375 1.15625 -0.4375 2.75q0 1.578125 0.4375 2.765625q0.453125 1.171875 1.296875 1.828125q0.84375 0.65625 2.03125 0.65625zm11.828125 3.46875l0 -17.46875l4.6875 0l0 17.46875l-4.6875 0zm2.34375 -19.75q-1.0625 0 -1.8125 -0.703125q-0.75 -0.703125 -0.75 -1.703125q0 -1.0 0.75 -1.703125q0.75 -0.703125 1.8125 -0.703125q1.0625 0 1.8125 0.703125q0.765625 0.6875 0.765625 1.703125q0 1.0 -0.765625 1.703125q-0.75 0.703125 -1.8125 0.703125zm11.015625 9.640625l0 10.109375l-4.6875 0l0 -17.46875l4.421875 0l0.078125 4.359375l-0.28125 0q0.6875 -2.1875 2.078125 -3.375q1.40625 -1.203125 3.625 -1.203125q1.8125 0 3.15625 0.796875q1.359375 0.78125 2.09375 2.265625q0.75 1.46875 0.75 3.515625l0 11.109375l-4.6875 0l0 -10.296875q0 -1.625 -0.84375 -2.546875q-0.828125 -0.921875 -2.3125 -0.921875q-0.984375 0 -1.765625 0.4375q-0.765625 0.421875 -1.203125 1.234375q-0.421875 0.8125 -0.421875 1.984375zm23.125 10.453125q-2.671875 0 -4.609375 -1.09375q-1.9375 -1.09375 -2.984375 -3.109375q-1.03125 -2.015625 -1.03125 -4.78125q0 -2.703125 1.03125 -4.734375q1.03125 -2.03125 2.921875 -3.171875q1.890625 -1.140625 4.4375 -1.140625q1.71875 0 3.203125 0.546875q1.484375 0.546875 2.609375 1.65625q1.125 1.09375 1.75 2.75q0.640625 1.65625 0.640625 3.90625l0 1.3125l-14.671875 0l0 -2.9375l12.375 0l-2.1875 0.78125q0 -1.359375 -0.421875 -2.359375q-0.40625 -1.015625 -1.234375 -1.5625q-0.8125 -0.5625 -2.015625 -0.5625q-1.21875 0 -2.078125 0.5625q-0.84375 0.5625 -1.28125 1.53125q-0.4375 0.953125 -0.4375 2.1875l0 2.078125q0 1.515625 0.5 2.546875q0.515625 1.03125 1.421875 1.546875q0.921875 0.515625 2.140625 0.515625q0.828125 0 1.5 -0.234375q0.671875 -0.234375 1.140625 -0.6875q0.484375 -0.46875 0.734375 -1.140625l4.25 0.796875q-0.421875 1.4375 -1.46875 2.53125q-1.046875 1.078125 -2.625 1.671875q-1.5625 0.59375 -3.609375 0.59375zm18.109375 0q-2.109375 0 -3.734375 -0.59375q-1.625 -0.609375 -2.65625 -1.75q-1.03125 -1.15625 -1.328125 -2.78125l4.359375 -0.75q0.34375 1.21875 1.203125 1.828125q0.859375 0.609375 2.296875 0.609375q1.34375 0 2.109375 -0.5q0.78125 -0.515625 0.78125 -1.296875q0 -0.6875 -0.5625 -1.125q-0.546875 -0.4375 -1.6875 -0.671875l-3.015625 -0.625q-2.53125 -0.515625 -3.78125 -1.75q-1.25 -1.25 -1.25 -3.203125q0 -1.6875 0.921875 -2.890625q0.921875 -1.21875 2.5625 -1.875q1.640625 -0.65625 3.859375 -0.65625q2.0625 0 3.578125 0.578125q1.515625 0.5625 2.453125 1.609375q0.9375 1.046875 1.25 2.46875l-4.15625 0.734375q-0.265625 -0.890625 -1.03125 -1.453125q-0.75 -0.578125 -2.03125 -0.578125q-1.15625 0 -1.9375 0.484375q-0.78125 0.484375 -0.78125 1.296875q0 0.65625 0.5 1.109375q0.515625 0.453125 1.75 0.703125l3.140625 0.625q2.53125 0.515625 3.765625 1.6875q1.234375 1.15625 1.234375 3.03125q0 1.71875 -1.0 3.015625q-1.0 1.28125 -2.765625 2.0q-1.75 0.71875 -4.046875 0.71875zm27.234375 -17.8125l0 3.578125l-10.359375 0l0 -3.578125l10.359375 0zm-7.953125 -4.15625l4.6875 0l0 16.515625q0 0.828125 0.359375 1.234375q0.375 0.390625 1.234375 0.390625q0.265625 0 0.75 -0.0625q0.484375 -0.078125 0.734375 -0.140625l0.671875 3.515625q-0.78125 0.234375 -1.5625 0.328125q-0.765625 0.09375 -1.46875 0.09375q-2.625 0 -4.015625 -1.28125q-1.390625 -1.28125 -1.390625 -3.671875l0 -16.921875zm15.765625 11.515625l0 10.109375l-4.6875 0l0 -23.28125l4.59375 0l0 10.171875l-0.375 0q0.6875 -2.1875 2.078125 -3.375q1.40625 -1.203125 3.625 -1.203125q1.8125 0 3.15625 0.796875q1.359375 0.78125 2.109375 2.265625q0.75 1.46875 0.75 3.515625l0 11.109375l-4.703125 0l0 -10.296875q0 -1.625 -0.84375 -2.546875q-0.828125 -0.921875 -2.3125 -0.921875q-0.984375 0 -1.765625 0.4375q-0.765625 0.421875 -1.203125 1.234375q-0.421875 0.8125 -0.421875 1.984375zm23.125 10.453125q-2.671875 0 -4.609375 -1.09375q-1.9375 -1.09375 -2.984375 -3.109375q-1.03125 -2.015625 -1.03125 -4.78125q0 -2.703125 1.03125 -4.734375q1.03125 -2.03125 2.921875 -3.171875q1.890625 -1.140625 4.4375 -1.140625q1.71875 0 3.203125 0.546875q1.484375 0.546875 2.609375 1.65625q1.125 1.09375 1.75 2.75q0.640625 1.65625 0.640625 3.90625l0 1.3125l-14.671875 0l0 -2.9375l12.375 0l-2.1875 0.78125q0 -1.359375 -0.421875 -2.359375q-0.40625 -1.015625 -1.234375 -1.5625q-0.8125 -0.5625 -2.015625 -0.5625q-1.21875 0 -2.078125 0.5625q-0.84375 0.5625 -1.28125 1.53125q-0.4375 0.953125 -0.4375 2.1875l0 2.078125q0 1.515625 0.5 2.546875q0.515625 1.03125 1.421875 1.546875q0.921875 0.515625 2.140625 0.515625q0.828125 0 1.5 -0.234375q0.671875 -0.234375 1.140625 -0.6875q0.484375 -0.46875 0.734375 -1.140625l4.25 0.796875q-0.421875 1.4375 -1.46875 2.53125q-1.046875 1.078125 -2.625 1.671875q-1.5625 0.59375 -3.609375 0.59375zm28.53125 -0.046875q-1.421875 0 -2.40625 -0.484375q-0.984375 -0.484375 -1.609375 -1.1875q-0.609375 -0.71875 -0.9375 -1.421875l-0.21875 0l0 2.796875l-4.609375 0l0 -23.28125l4.6875 0l0 8.75l0.140625 0q0.328125 -0.6875 0.921875 -1.421875q0.609375 -0.734375 1.59375 -1.234375q0.984375 -0.5 2.46875 -0.5q1.9375 0 3.546875 1.0q1.609375 1.0 2.5625 3.0q0.96875 2.0 0.96875 4.984375q0 2.90625 -0.9375 4.921875q-0.9375 2.0 -2.546875 3.046875q-1.609375 1.03125 -3.625 1.03125zm-1.4375 -3.765625q1.21875 0 2.046875 -0.671875q0.84375 -0.671875 1.265625 -1.859375q0.4375 -1.1875 0.4375 -2.71875q0 -1.53125 -0.4375 -2.703125q-0.421875 -1.171875 -1.25 -1.84375q-0.828125 -0.671875 -2.0625 -0.671875q-1.203125 0 -2.046875 0.65625q-0.84375 0.640625 -1.28125 1.8125q-0.4375 1.15625 -0.4375 2.75q0 1.578125 0.4375 2.765625q0.453125 1.171875 1.296875 1.828125q0.84375 0.65625 2.03125 0.65625zm19.71875 3.8125q-2.671875 0 -4.609375 -1.09375q-1.9375 -1.09375 -2.984375 -3.109375q-1.03125 -2.015625 -1.03125 -4.78125q0 -2.703125 1.03125 -4.734375q1.03125 -2.03125 2.921875 -3.171875q1.890625 -1.140625 4.4375 -1.140625q1.71875 0 3.203125 0.546875q1.484375 0.546875 2.609375 1.65625q1.125 1.09375 1.75 2.75q0.640625 1.65625 0.640625 3.90625l0 1.3125l-14.671875 0l0 -2.9375l12.375 0l-2.1875 0.78125q0 -1.359375 -0.421875 -2.359375q-0.40625 -1.015625 -1.234375 -1.5625q-0.8125 -0.5625 -2.015625 -0.5625q-1.21875 0 -2.078125 0.5625q-0.84375 0.5625 -1.28125 1.53125q-0.4375 0.953125 -0.4375 2.1875l0 2.078125q0 1.515625 0.5 2.546875q0.515625 1.03125 1.421875 1.546875q0.921875 0.515625 2.140625 0.515625q0.828125 0 1.5 -0.234375q0.671875 -0.234375 1.140625 -0.6875q0.484375 -0.46875 0.734375 -1.140625l4.25 0.796875q-0.421875 1.4375 -1.46875 2.53125q-1.046875 1.078125 -2.625 1.671875q-1.5625 0.59375 -3.609375 0.59375zm18.109375 0q-2.109375 0 -3.734375 -0.59375q-1.625 -0.609375 -2.65625 -1.75q-1.03125 -1.15625 -1.328125 -2.78125l4.359375 -0.75q0.34375 1.21875 1.203125 1.828125q0.859375 0.609375 2.296875 0.609375q1.34375 0 2.109375 -0.5q0.78125 -0.515625 0.78125 -1.296875q0 -0.6875 -0.5625 -1.125q-0.546875 -0.4375 -1.6875 -0.671875l-3.015625 -0.625q-2.53125 -0.515625 -3.78125 -1.75q-1.25 -1.25 -1.25 -3.203125q0 -1.6875 0.921875 -2.890625q0.921875 -1.21875 2.5625 -1.875q1.640625 -0.65625 3.859375 -0.65625q2.0625 0 3.578125 0.578125q1.515625 0.5625 2.453125 1.609375q0.9375 1.046875 1.25 2.46875l-4.15625 0.734375q-0.265625 -0.890625 -1.03125 -1.453125q-0.75 -0.578125 -2.03125 -0.578125q-1.15625 0 -1.9375 0.484375q-0.78125 0.484375 -0.78125 1.296875q0 0.65625 0.5 1.109375q0.515625 0.453125 1.75 0.703125l3.140625 0.625q2.53125 0.515625 3.765625 1.6875q1.234375 1.15625 1.234375 3.03125q0 1.71875 -1.0 3.015625q-1.0 1.28125 -2.765625 2.0q-1.75 0.71875 -4.046875 0.71875zm19.65625 -17.8125l0 3.578125l-10.359375 0l0 -3.578125l10.359375 0zm-7.953125 -4.15625l4.6875 0l0 16.515625q0 0.828125 0.359375 1.234375q0.375 0.390625 1.234375 0.390625q0.265625 0 0.75 -0.0625q0.484375 -0.078125 0.734375 -0.140625l0.671875 3.515625q-0.78125 0.234375 -1.5625 0.328125q-0.765625 0.09375 -1.46875 0.09375q-2.625 0 -4.015625 -1.28125q-1.390625 -1.28125 -1.390625 -3.671875l0 -16.921875zm24.953125 21.921875q-2.0 0 -3.625 -1.03125q-1.609375 -1.046875 -2.546875 -3.046875q-0.9375 -2.015625 -0.9375 -4.921875q0 -2.984375 0.96875 -4.984375q0.96875 -2.0 2.578125 -3.0q1.609375 -1.0 3.546875 -1.0q1.484375 0 2.46875 0.5q0.984375 0.5 1.59375 1.234375q0.609375 0.734375 0.90625 1.421875l0.15625 0l0 -8.75l4.6875 0l0 23.28125l-4.609375 0l0 -2.796875l-0.234375 0q-0.3125 0.703125 -0.9375 1.421875q-0.609375 0.703125 -1.59375 1.1875q-0.984375 0.484375 -2.421875 0.484375zm1.453125 -3.765625q1.1875 0 2.03125 -0.65625q0.84375 -0.65625 1.28125 -1.828125q0.4375 -1.1875 0.4375 -2.765625q0 -1.59375 -0.4375 -2.75q-0.421875 -1.171875 -1.265625 -1.8125q-0.84375 -0.65625 -2.046875 -0.65625q-1.234375 0 -2.078125 0.671875q-0.828125 0.671875 -1.25 1.84375q-0.421875 1.171875 -0.421875 2.703125q0 1.53125 0.421875 2.71875q0.4375 1.1875 1.265625 1.859375q0.84375 0.671875 2.0625 0.671875zm20.234375 3.8125q-2.671875 0 -4.609375 -1.09375q-1.9375 -1.09375 -2.984375 -3.109375q-1.03125 -2.015625 -1.03125 -4.78125q0 -2.703125 1.03125 -4.734375q1.03125 -2.03125 2.921875 -3.171875q1.890625 -1.140625 4.4375 -1.140625q1.71875 0 3.203125 0.546875q1.484375 0.546875 2.609375 1.65625q1.125 1.09375 1.75 2.75q0.640625 1.65625 0.640625 3.90625l0 1.3125l-14.671875 0l0 -2.9375l12.375 0l-2.1875 0.78125q0 -1.359375 -0.421875 -2.359375q-0.40625 -1.015625 -1.234375 -1.5625q-0.8125 -0.5625 -2.015625 -0.5625q-1.21875 0 -2.078125 0.5625q-0.84375 0.5625 -1.28125 1.53125q-0.4375 0.953125 -0.4375 2.1875l0 2.078125q0 1.515625 0.5 2.546875q0.515625 1.03125 1.421875 1.546875q0.921875 0.515625 2.140625 0.515625q0.828125 0 1.5 -0.234375q0.671875 -0.234375 1.140625 -0.6875q0.484375 -0.46875 0.734375 -1.140625l4.25 0.796875q-0.421875 1.4375 -1.46875 2.53125q-1.046875 1.078125 -2.625 1.671875q-1.5625 0.59375 -3.609375 0.59375zm15.515625 -0.34375l-6.4375 -17.46875l4.984375 0l2.9375 9.0625q0.53125 1.703125 0.921875 3.4375q0.40625 1.734375 0.828125 3.59375l-1.0 0q0.40625 -1.859375 0.796875 -3.59375q0.390625 -1.734375 0.921875 -3.4375l2.90625 -9.0625l4.921875 0l-6.453125 17.46875l-5.328125 0zm21.578125 0.34375q-2.671875 0 -4.609375 -1.09375q-1.9375 -1.09375 -2.984375 -3.109375q-1.03125 -2.015625 -1.03125 -4.78125q0 -2.703125 1.03125 -4.734375q1.03125 -2.03125 2.921875 -3.171875q1.890625 -1.140625 4.4375 -1.140625q1.71875 0 3.203125 0.546875q1.484375 0.546875 2.609375 1.65625q1.125 1.09375 1.75 2.75q0.640625 1.65625 0.640625 3.90625l0 1.3125l-14.671875 0l0 -2.9375l12.375 0l-2.1875 0.78125q0 -1.359375 -0.421875 -2.359375q-0.40625 -1.015625 -1.234375 -1.5625q-0.8125 -0.5625 -2.015625 -0.5625q-1.21875 0 -2.078125 0.5625q-0.84375 0.5625 -1.28125 1.53125q-0.4375 0.953125 -0.4375 2.1875l0 2.078125q0 1.515625 0.5 2.546875q0.515625 1.03125 1.421875 1.546875q0.921875 0.515625 2.140625 0.515625q0.828125 0 1.5 -0.234375q0.671875 -0.234375 1.140625 -0.6875q0.484375 -0.46875 0.734375 -1.140625l4.25 0.796875q-0.421875 1.4375 -1.46875 2.53125q-1.046875 1.078125 -2.625 1.671875q-1.5625 0.59375 -3.609375 0.59375zm15.859375 -23.625l0 23.28125l-4.6875 0l0 -23.28125l4.6875 0zm11.796875 23.625q-2.625 0 -4.546875 -1.125q-1.921875 -1.140625 -2.96875 -3.15625q-1.03125 -2.03125 -1.03125 -4.71875q0 -2.71875 1.03125 -4.734375q1.046875 -2.03125 2.96875 -3.15625q1.921875 -1.140625 4.546875 -1.140625q2.640625 0 4.546875 1.140625q1.921875 1.125 2.953125 3.15625q1.046875 2.015625 1.046875 4.734375q0 2.6875 -1.046875 4.71875q-1.03125 2.015625 -2.953125 3.15625q-1.90625 1.125 -4.546875 1.125zm0 -3.6875q1.25 0 2.09375 -0.6875q0.84375 -0.703125 1.265625 -1.90625q0.421875 -1.21875 0.421875 -2.734375q0 -1.546875 -0.421875 -2.75q-0.421875 -1.203125 -1.265625 -1.890625q-0.84375 -0.6875 -2.09375 -0.6875q-1.25 0 -2.09375 0.6875q-0.828125 0.6875 -1.25 1.890625q-0.421875 1.203125 -0.421875 2.75q0 1.515625 0.421875 2.734375q0.421875 1.203125 1.25 1.90625q0.84375 0.6875 2.09375 0.6875zm11.8125 9.875l0 -24.0l4.609375 0l0 2.9375l0.21875 0q0.328125 -0.6875 0.921875 -1.421875q0.609375 -0.734375 1.59375 -1.234375q0.984375 -0.5 2.46875 -0.5q1.9375 0 3.546875 1.0q1.609375 1.0 2.5625 3.0q0.96875 2.0 0.96875 4.984375q0 2.90625 -0.9375 4.921875q-0.9375 2.0 -2.546875 3.046875q-1.609375 1.03125 -3.625 1.03125q-1.421875 0 -2.40625 -0.484375q-0.984375 -0.484375 -1.609375 -1.1875q-0.609375 -0.71875 -0.9375 -1.421875l-0.140625 0l0 9.328125l-4.6875 0zm8.34375 -10.0q1.21875 0 2.046875 -0.671875q0.84375 -0.671875 1.265625 -1.859375q0.4375 -1.1875 0.4375 -2.71875q0 -1.53125 -0.4375 -2.703125q-0.421875 -1.171875 -1.25 -1.84375q-0.828125 -0.671875 -2.0625 -0.671875q-1.203125 0 -2.046875 0.65625q-0.84375 0.640625 -1.28125 1.8125q-0.4375 1.15625 -0.4375 2.75q0 1.578125 0.4375 2.765625q0.453125 1.171875 1.296875 1.828125q0.84375 0.65625 2.03125 0.65625zm19.71875 3.8125q-2.671875 0 -4.609375 -1.09375q-1.9375 -1.09375 -2.984375 -3.109375q-1.03125 -2.015625 -1.03125 -4.78125q0 -2.703125 1.03125 -4.734375q1.03125 -2.03125 2.921875 -3.171875q1.890625 -1.140625 4.4375 -1.140625q1.71875 0 3.203125 0.546875q1.484375 0.546875 2.609375 1.65625q1.125 1.09375 1.75 2.75q0.640625 1.65625 0.640625 3.90625l0 1.3125l-14.671875 0l0 -2.9375l12.375 0l-2.1875 0.78125q0 -1.359375 -0.421875 -2.359375q-0.40625 -1.015625 -1.234375 -1.5625q-0.8125 -0.5625 -2.015625 -0.5625q-1.21875 0 -2.078125 0.5625q-0.84375 0.5625 -1.28125 1.53125q-0.4375 0.953125 -0.4375 2.1875l0 2.078125q0 1.515625 0.5 2.546875q0.515625 1.03125 1.421875 1.546875q0.921875 0.515625 2.140625 0.515625q0.828125 0 1.5 -0.234375q0.671875 -0.234375 1.140625 -0.6875q0.484375 -0.46875 0.734375 -1.140625l4.25 0.796875q-0.421875 1.4375 -1.46875 2.53125q-1.046875 1.078125 -2.625 1.671875q-1.5625 0.59375 -3.609375 0.59375zm11.171875 -0.34375l0 -17.46875l4.53125 0l0 3.046875l0.1875 0q0.484375 -1.625 1.609375 -2.453125q1.140625 -0.828125 2.609375 -0.828125q0.359375 0 0.78125 0.046875q0.421875 0.03125 0.734375 0.109375l0 4.1875q-0.3125 -0.109375 -0.90625 -0.171875q-0.59375 -0.0625 -1.125 -0.0625q-1.0625 0 -1.921875 0.46875q-0.859375 0.453125 -1.34375 1.28125q-0.46875 0.8125 -0.46875 1.90625l0 9.9375l-4.6875 0z" fill-rule="nonzero"/><path fill="#ffffff" d="m187.0 233.16592q-2.671875 0 -4.609375 -1.09375q-1.9375 -1.09375 -2.984375 -3.109375q-1.03125 -2.015625 -1.03125 -4.78125q0 -2.703125 1.03125 -4.734375q1.03125 -2.03125 2.921875 -3.171875q1.890625 -1.140625 4.4375 -1.140625q1.71875 0 3.203125 0.546875q1.484375 0.546875 2.609375 1.65625q1.125 1.09375 1.75 2.75q0.640625 1.65625 0.640625 3.90625l0 1.3125l-14.671875 0l0 -2.9375l12.375 0l-2.1875 0.78125q0 -1.359375 -0.421875 -2.359375q-0.40625 -1.015625 -1.234375 -1.5625q-0.8125 -0.5625 -2.015625 -0.5625q-1.21875 0 -2.078125 0.5625q-0.84375 0.5625 -1.28125 1.53125q-0.4375 0.953125 -0.4375 2.1875l0 2.078125q0 1.515625 0.5 2.546875q0.515625 1.03125 1.421875 1.546875q0.921875 0.515625 2.140625 0.515625q0.828125 0 1.5 -0.234375q0.671875 -0.234375 1.140625 -0.6875q0.484375 -0.46875 0.734375 -1.140625l4.25 0.796875q-0.421875 1.4375 -1.46875 2.53125q-1.046875 1.078125 -2.625 1.671875q-1.5625 0.59375 -3.609375 0.59375zm9.1875 -0.34375l6.765625 -10.796875l-0.015625 3.65625l-6.40625 -10.328125l5.0625 0l1.578125 2.75q0.75 1.359375 1.34375 2.6875q0.609375 1.3125 1.234375 2.5625l-1.78125 0q0.640625 -1.234375 1.234375 -2.5625q0.59375 -1.328125 1.375 -2.6875l1.640625 -2.75l4.96875 0l-6.53125 10.375l0 -3.609375l6.78125 10.703125l-5.03125 0l-1.9375 -3.28125q-0.765625 -1.34375 -1.390625 -2.671875q-0.609375 -1.328125 -1.25 -2.546875l1.796875 0q-0.609375 1.21875 -1.203125 2.546875q-0.578125 1.328125 -1.328125 2.671875l-1.9375 3.28125l-4.96875 0zm19.90625 6.5312347l0 -23.999985l4.609375 0l0 2.9375l0.21875 0q0.328125 -0.6875 0.921875 -1.421875q0.609375 -0.734375 1.59375 -1.234375q0.984375 -0.5 2.46875 -0.5q1.9375 0 3.546875 1.0q1.609375 1.0 2.5625 3.0q0.96875 2.0 0.96875 4.984375q0 2.90625 -0.9375 4.921875q-0.9375 2.0 -2.546875 3.046875q-1.609375 1.03125 -3.625 1.03125q-1.421875 0 -2.40625 -0.484375q-0.984375 -0.484375 -1.609375 -1.1875q-0.609375 -0.71875 -0.9375 -1.421875l-0.140625 0l0 9.32811l-4.6875 0zm8.34375 -9.999985q1.21875 0 2.046875 -0.671875q0.84375 -0.671875 1.265625 -1.859375q0.4375 -1.1875 0.4375 -2.71875q0 -1.53125 -0.4375 -2.703125q-0.421875 -1.171875 -1.25 -1.84375q-0.828125 -0.671875 -2.0625 -0.671875q-1.203125 0 -2.046875 0.65625q-0.84375 0.640625 -1.28125 1.8125q-0.4375 1.15625 -0.4375 2.75q0 1.578125 0.4375 2.765625q0.453125 1.171875 1.296875 1.828125q0.84375 0.65625 2.03125 0.65625zm19.71875 3.8125q-2.671875 0 -4.609375 -1.09375q-1.9375 -1.09375 -2.984375 -3.109375q-1.03125 -2.015625 -1.03125 -4.78125q0 -2.703125 1.03125 -4.734375q1.03125 -2.03125 2.921875 -3.171875q1.890625 -1.140625 4.4375 -1.140625q1.71875 0 3.203125 0.546875q1.484375 0.546875 2.609375 1.65625q1.125 1.09375 1.75 2.75q0.640625 1.65625 0.640625 3.90625l0 1.3125l-14.671875 0l0 -2.9375l12.375 0l-2.1875 0.78125q0 -1.359375 -0.421875 -2.359375q-0.40625 -1.015625 -1.234375 -1.5625q-0.8125 -0.5625 -2.015625 -0.5625q-1.21875 0 -2.078125 0.5625q-0.84375 0.5625 -1.28125 1.53125q-0.4375 0.953125 -0.4375 2.1875l0 2.078125q0 1.515625 0.5 2.546875q0.515625 1.03125 1.421875 1.546875q0.921875 0.515625 2.140625 0.515625q0.828125 0 1.5 -0.234375q0.671875 -0.234375 1.140625 -0.6875q0.484375 -0.46875 0.734375 -1.140625l4.25 0.796875q-0.421875 1.4375 -1.46875 2.53125q-1.046875 1.078125 -2.625 1.671875q-1.5625 0.59375 -3.609375 0.59375zm11.171875 -0.34375l0 -17.46875l4.53125 0l0 3.046875l0.1875 0q0.484375 -1.625 1.609375 -2.453125q1.140625 -0.828125 2.609375 -0.828125q0.359375 0 0.78125 0.046875q0.421875 0.03125 0.734375 0.109375l0 4.1875q-0.3125 -0.109375 -0.90625 -0.171875q-0.59375 -0.0625 -1.125 -0.0625q-1.0625 0 -1.921875 0.46875q-0.859375 0.453125 -1.34375 1.28125q-0.46875 0.8125 -0.46875 1.90625l0 9.9375l-4.6875 0zm13.171875 0l0 -17.46875l4.6875 0l0 17.46875l-4.6875 0zm2.34375 -19.75q-1.0625 0 -1.8125 -0.703125q-0.75 -0.703125 -0.75 -1.703125q0 -1.0 0.75 -1.703125q0.75 -0.703125 1.8125 -0.703125q1.0625 0 1.8125 0.703125q0.765625 0.6875 0.765625 1.703125q0 1.0 -0.765625 1.703125q-0.75 0.703125 -1.8125 0.703125zm14.21875 20.09375q-2.671875 0 -4.609375 -1.09375q-1.9375 -1.09375 -2.984375 -3.109375q-1.03125 -2.015625 -1.03125 -4.78125q0 -2.703125 1.03125 -4.734375q1.03125 -2.03125 2.921875 -3.171875q1.890625 -1.140625 4.4375 -1.140625q1.71875 0 3.203125 0.546875q1.484375 0.546875 2.609375 1.65625q1.125 1.09375 1.75 2.75q0.640625 1.65625 0.640625 3.90625l0 1.3125l-14.671875 0l0 -2.9375l12.375 0l-2.1875 0.78125q0 -1.359375 -0.421875 -2.359375q-0.40625 -1.015625 -1.234375 -1.5625q-0.8125 -0.5625 -2.015625 -0.5625q-1.21875 0 -2.078125 0.5625q-0.84375 0.5625 -1.28125 1.53125q-0.4375 0.953125 -0.4375 2.1875l0 2.078125q0 1.515625 0.5 2.546875q0.515625 1.03125 1.421875 1.546875q0.921875 0.515625 2.140625 0.515625q0.828125 0 1.5 -0.234375q0.671875 -0.234375 1.140625 -0.6875q0.484375 -0.46875 0.734375 -1.140625l4.25 0.796875q-0.421875 1.4375 -1.46875 2.53125q-1.046875 1.078125 -2.625 1.671875q-1.5625 0.59375 -3.609375 0.59375zm15.859375 -10.453125l0 10.109375l-4.6875 0l0 -17.46875l4.421875 0l0.078125 4.359375l-0.28125 0q0.6875 -2.1875 2.078125 -3.375q1.40625 -1.203125 3.625 -1.203125q1.8125 0 3.15625 0.796875q1.359375 0.78125 2.09375 2.265625q0.75 1.46875 0.75 3.515625l0 11.109375l-4.6875 0l0 -10.296875q0 -1.625 -0.84375 -2.546875q-0.828125 -0.921875 -2.3125 -0.921875q-0.984375 0 -1.765625 0.4375q-0.765625 0.421875 -1.203125 1.234375q-0.421875 0.8125 -0.421875 1.984375zm23.046875 10.453125q-2.640625 0 -4.5625 -1.125q-1.90625 -1.140625 -2.953125 -3.15625q-1.03125 -2.03125 -1.03125 -4.71875q0 -2.71875 1.03125 -4.734375q1.046875 -2.03125 2.953125 -3.15625q1.921875 -1.140625 4.5625 -1.140625q1.546875 0 2.859375 0.40625q1.3125 0.40625 2.328125 1.15625q1.015625 0.75 1.671875 1.828125q0.65625 1.078125 0.90625 2.421875l-4.359375 0.8125q-0.140625 -0.6875 -0.4375 -1.21875q-0.296875 -0.546875 -0.71875 -0.921875q-0.421875 -0.390625 -0.984375 -0.59375q-0.546875 -0.203125 -1.21875 -0.203125q-1.25 0 -2.109375 0.671875q-0.84375 0.671875 -1.28125 1.875q-0.421875 1.203125 -0.421875 2.78125q0 1.546875 0.421875 2.75q0.4375 1.203125 1.28125 1.890625q0.859375 0.6875 2.109375 0.6875q0.671875 0 1.234375 -0.203125q0.5625 -0.21875 1.0 -0.609375q0.4375 -0.40625 0.734375 -0.96875q0.296875 -0.5625 0.421875 -1.265625l4.359375 0.796875q-0.25 1.390625 -0.90625 2.484375q-0.65625 1.078125 -1.671875 1.859375q-1.015625 0.78125 -2.34375 1.1875q-1.3125 0.40625 -2.875 0.40625zm18.90625 0q-2.671875 0 -4.609375 -1.09375q-1.9375 -1.09375 -2.984375 -3.109375q-1.03125 -2.015625 -1.03125 -4.78125q0 -2.703125 1.03125 -4.734375q1.03125 -2.03125 2.921875 -3.171875q1.890625 -1.140625 4.4375 -1.140625q1.71875 0 3.203125 0.546875q1.484375 0.546875 2.609375 1.65625q1.125 1.09375 1.75 2.75q0.640625 1.65625 0.640625 3.90625l0 1.3125l-14.671875 0l0 -2.9375l12.375 0l-2.1875 0.78125q0 -1.359375 -0.421875 -2.359375q-0.40625 -1.015625 -1.234375 -1.5625q-0.8125 -0.5625 -2.015625 -0.5625q-1.21875 0 -2.078125 0.5625q-0.84375 0.5625 -1.28125 1.53125q-0.4375 0.953125 -0.4375 2.1875l0 2.078125q0 1.515625 0.5 2.546875q0.515625 1.03125 1.421875 1.546875q0.921875 0.515625 2.140625 0.515625q0.828125 0 1.5 -0.234375q0.671875 -0.234375 1.140625 -0.6875q0.484375 -0.46875 0.734375 -1.140625l4.25 0.796875q-0.421875 1.4375 -1.46875 2.53125q-1.046875 1.078125 -2.625 1.671875q-1.5625 0.59375 -3.609375 0.59375zm22.390625 -0.34375l-5.15625 -17.46875l4.921875 0l1.515625 6.453125q0.390625 1.734375 0.84375 3.78125q0.453125 2.03125 0.828125 4.5l-0.53125 0q0.40625 -2.40625 0.890625 -4.453125q0.484375 -2.0625 0.90625 -3.828125l1.59375 -6.453125l4.3125 0l1.5625 6.453125q0.390625 1.765625 0.875 3.8125q0.484375 2.03125 0.90625 4.46875l-0.53125 0q0.375 -2.421875 0.796875 -4.453125q0.4375 -2.046875 0.84375 -3.828125l1.515625 -6.453125l4.984375 0l-5.1875 17.46875l-4.765625 0l-1.9375 -6.734375q-0.28125 -1.015625 -0.5625 -2.234375q-0.28125 -1.234375 -0.546875 -2.5q-0.265625 -1.28125 -0.546875 -2.390625l0.828125 0q-0.265625 1.109375 -0.546875 2.390625q-0.265625 1.265625 -0.546875 2.5q-0.28125 1.234375 -0.5625 2.234375l-1.9375 6.734375l-4.765625 0zm23.5625 0l0 -17.46875l4.6875 0l0 17.46875l-4.6875 0zm2.34375 -19.75q-1.0625 0 -1.8125 -0.703125q-0.75 -0.703125 -0.75 -1.703125q0 -1.0 0.75 -1.703125q0.75 -0.703125 1.8125 -0.703125q1.0625 0 1.8125 0.703125q0.765625 0.6875 0.765625 1.703125q0 1.0 -0.765625 1.703125q-0.75 0.703125 -1.8125 0.703125zm15.0 2.28125l0 3.578125l-10.359375 0l0 -3.578125l10.359375 0zm-7.953125 -4.15625l4.6875 0l0 16.515625q0 0.828125 0.359375 1.234375q0.375 0.390625 1.234375 0.390625q0.265625 0 0.75 -0.0625q0.484375 -0.078125 0.734375 -0.140625l0.671875 3.515625q-0.78125 0.234375 -1.5625 0.328125q-0.765625 0.09375 -1.46875 0.09375q-2.625 0 -4.015625 -1.28125q-1.390625 -1.28125 -1.390625 -3.671875l0 -16.921875zm15.765625 11.515625l0 10.109375l-4.6875 0l0 -23.28125l4.59375 0l0 10.171875l-0.375 0q0.6875 -2.1875 2.078125 -3.375q1.40625 -1.203125 3.625 -1.203125q1.8125 0 3.15625 0.796875q1.359375 0.78125 2.109375 2.265625q0.75 1.46875 0.75 3.515625l0 11.109375l-4.703125 0l0 -10.296875q0 -1.625 -0.84375 -2.546875q-0.828125 -0.921875 -2.3125 -0.921875q-0.984375 0 -1.765625 0.4375q-0.765625 0.421875 -1.203125 1.234375q-0.421875 0.8125 -0.421875 1.984375zm27.6875 10.453125q-1.65625 0 -2.984375 -0.578125q-1.3125 -0.59375 -2.078125 -1.75q-0.75 -1.171875 -0.75 -2.90625q0 -1.453125 0.53125 -2.4375q0.546875 -0.984375 1.46875 -1.578125q0.9375 -0.59375 2.109375 -0.90625q1.1875 -0.3125 2.484375 -0.4375q1.515625 -0.15625 2.4375 -0.28125q0.9375 -0.140625 1.359375 -0.421875q0.4375 -0.296875 0.4375 -0.859375l0 -0.078125q0 -0.75 -0.3125 -1.265625q-0.3125 -0.515625 -0.9375 -0.78125q-0.609375 -0.28125 -1.484375 -0.28125q-0.90625 0 -1.578125 0.28125q-0.671875 0.265625 -1.09375 0.71875q-0.421875 0.453125 -0.625 1.015625l-4.296875 -0.703125q0.453125 -1.53125 1.5 -2.59375q1.046875 -1.0625 2.59375 -1.625q1.5625 -0.5625 3.515625 -0.5625q1.40625 0 2.734375 0.34375q1.328125 0.328125 2.375 1.03125q1.0625 0.703125 1.671875 1.84375q0.625 1.125 0.625 2.703125l0 11.765625l-4.4375 0l0 -2.421875l-0.15625 0q-0.421875 0.8125 -1.125 1.4375q-0.703125 0.609375 -1.703125 0.96875q-0.984375 0.359375 -2.28125 0.359375zm1.328125 -3.296875q1.109375 0 1.9375 -0.4375q0.84375 -0.4375 1.3125 -1.1875q0.46875 -0.75 0.46875 -1.671875l0 -1.890625q-0.203125 0.15625 -0.625 0.28125q-0.421875 0.125 -0.9375 0.21875q-0.515625 0.09375 -1.015625 0.171875q-0.5 0.078125 -0.890625 0.125q-0.859375 0.125 -1.515625 0.40625q-0.65625 0.28125 -1.015625 0.75q-0.359375 0.453125 -0.359375 1.171875q0 0.671875 0.34375 1.140625q0.34375 0.453125 0.9375 0.6875q0.59375 0.234375 1.359375 0.234375zm17.0625 -7.15625l0 10.109375l-4.6875 0l0 -17.46875l4.421875 0l0.078125 4.359375l-0.28125 0q0.6875 -2.1875 2.078125 -3.375q1.40625 -1.203125 3.625 -1.203125q1.8125 0 3.15625 0.796875q1.359375 0.78125 2.09375 2.265625q0.75 1.46875 0.75 3.515625l0 11.109375l-4.6875 0l0 -10.296875q0 -1.625 -0.84375 -2.546875q-0.828125 -0.921875 -2.3125 -0.921875q-0.984375 0 -1.765625 0.4375q-0.765625 0.421875 -1.203125 1.234375q-0.421875 0.8125 -0.421875 1.984375zm30.625 10.453125q-2.625 0 -4.546875 -1.125q-1.921875 -1.140625 -2.96875 -3.15625q-1.03125 -2.03125 -1.03125 -4.71875q0 -2.71875 1.03125 -4.734375q1.046875 -2.03125 2.96875 -3.15625q1.921875 -1.140625 4.546875 -1.140625q2.640625 0 4.546875 1.140625q1.921875 1.125 2.953125 3.15625q1.046875 2.015625 1.046875 4.734375q0 2.6875 -1.046875 4.71875q-1.03125 2.015625 -2.953125 3.15625q-1.90625 1.125 -4.546875 1.125zm0 -3.6875q1.25 0 2.09375 -0.6875q0.84375 -0.703125 1.265625 -1.90625q0.421875 -1.21875 0.421875 -2.734375q0 -1.546875 -0.421875 -2.75q-0.421875 -1.203125 -1.265625 -1.890625q-0.84375 -0.6875 -2.09375 -0.6875q-1.25 0 -2.09375 0.6875q-0.828125 0.6875 -1.25 1.890625q-0.421875 1.203125 -0.421875 2.75q0 1.515625 0.421875 2.734375q0.421875 1.203125 1.25 1.90625q0.84375 0.6875 2.09375 0.6875zm21.59375 3.640625q-1.421875 0 -2.40625 -0.484375q-0.984375 -0.484375 -1.609375 -1.1875q-0.609375 -0.71875 -0.9375 -1.421875l-0.21875 0l0 2.796875l-4.609375 0l0 -23.28125l4.6875 0l0 8.75l0.140625 0q0.328125 -0.6875 0.921875 -1.421875q0.609375 -0.734375 1.59375 -1.234375q0.984375 -0.5 2.46875 -0.5q1.9375 0 3.546875 1.0q1.609375 1.0 2.5625 3.0q0.96875 2.0 0.96875 4.984375q0 2.90625 -0.9375 4.921875q-0.9375 2.0 -2.546875 3.046875q-1.609375 1.03125 -3.625 1.03125zm-1.4375 -3.765625q1.21875 0 2.046875 -0.671875q0.84375 -0.671875 1.265625 -1.859375q0.4375 -1.1875 0.4375 -2.71875q0 -1.53125 -0.4375 -2.703125q-0.421875 -1.171875 -1.25 -1.84375q-0.828125 -0.671875 -2.0625 -0.671875q-1.203125 0 -2.046875 0.65625q-0.84375 0.640625 -1.28125 1.8125q-0.4375 1.15625 -0.4375 2.75q0 1.578125 0.4375 2.765625q0.453125 1.171875 1.296875 1.828125q0.84375 0.65625 2.03125 0.65625zm18.765625 3.8125q-2.109375 0 -3.734375 -0.59375q-1.625 -0.609375 -2.65625 -1.75q-1.03125 -1.15625 -1.328125 -2.78125l4.359375 -0.75q0.34375 1.21875 1.203125 1.828125q0.859375 0.609375 2.296875 0.609375q1.34375 0 2.109375 -0.5q0.78125 -0.515625 0.78125 -1.296875q0 -0.6875 -0.5625 -1.125q-0.546875 -0.4375 -1.6875 -0.671875l-3.015625 -0.625q-2.53125 -0.515625 -3.78125 -1.75q-1.25 -1.25 -1.25 -3.203125q0 -1.6875 0.921875 -2.890625q0.921875 -1.21875 2.5625 -1.875q1.640625 -0.65625 3.859375 -0.65625q2.0625 0 3.578125 0.578125q1.515625 0.5625 2.453125 1.609375q0.9375 1.046875 1.25 2.46875l-4.15625 0.734375q-0.265625 -0.890625 -1.03125 -1.453125q-0.75 -0.578125 -2.03125 -0.578125q-1.15625 0 -1.9375 0.484375q-0.78125 0.484375 -0.78125 1.296875q0 0.65625 0.5 1.109375q0.515625 0.453125 1.75 0.703125l3.140625 0.625q2.53125 0.515625 3.765625 1.6875q1.234375 1.15625 1.234375 3.03125q0 1.71875 -1.0 3.015625q-1.0 1.28125 -2.765625 2.0q-1.75 0.71875 -4.046875 0.71875zm18.875 0q-2.671875 0 -4.609375 -1.09375q-1.9375 -1.09375 -2.984375 -3.109375q-1.03125 -2.015625 -1.03125 -4.78125q0 -2.703125 1.03125 -4.734375q1.03125 -2.03125 2.921875 -3.171875q1.890625 -1.140625 4.4375 -1.140625q1.71875 0 3.203125 0.546875q1.484375 0.546875 2.609375 1.65625q1.125 1.09375 1.75 2.75q0.640625 1.65625 0.640625 3.90625l0 1.3125l-14.671875 0l0 -2.9375l12.375 0l-2.1875 0.78125q0 -1.359375 -0.421875 -2.359375q-0.40625 -1.015625 -1.234375 -1.5625q-0.8125 -0.5625 -2.015625 -0.5625q-1.21875 0 -2.078125 0.5625q-0.84375 0.5625 -1.28125 1.53125q-0.4375 0.953125 -0.4375 2.1875l0 2.078125q0 1.515625 0.5 2.546875q0.515625 1.03125 1.421875 1.546875q0.921875 0.515625 2.140625 0.515625q0.828125 0 1.5 -0.234375q0.671875 -0.234375 1.140625 -0.6875q0.484375 -0.46875 0.734375 -1.140625l4.25 0.796875q-0.421875 1.4375 -1.46875 2.53125q-1.046875 1.078125 -2.625 1.671875q-1.5625 0.59375 -3.609375 0.59375zm18.109375 0q-2.109375 0 -3.734375 -0.59375q-1.625 -0.609375 -2.65625 -1.75q-1.03125 -1.15625 -1.328125 -2.78125l4.359375 -0.75q0.34375 1.21875 1.203125 1.828125q0.859375 0.609375 2.296875 0.609375q1.34375 0 2.109375 -0.5q0.78125 -0.515625 0.78125 -1.296875q0 -0.6875 -0.5625 -1.125q-0.546875 -0.4375 -1.6875 -0.671875l-3.015625 -0.625q-2.53125 -0.515625 -3.78125 -1.75q-1.25 -1.25 -1.25 -3.203125q0 -1.6875 0.921875 -2.890625q0.921875 -1.21875 2.5625 -1.875q1.640625 -0.65625 3.859375 -0.65625q2.0625 0 3.578125 0.578125q1.515625 0.5625 2.453125 1.609375q0.9375 1.046875 1.25 2.46875l-4.15625 0.734375q-0.265625 -0.890625 -1.03125 -1.453125q-0.75 -0.578125 -2.03125 -0.578125q-1.15625 0 -1.9375 0.484375q-0.78125 0.484375 -0.78125 1.296875q0 0.65625 0.5 1.109375q0.515625 0.453125 1.75 0.703125l3.140625 0.625q2.53125 0.515625 3.765625 1.6875q1.234375 1.15625 1.234375 3.03125q0 1.71875 -1.0 3.015625q-1.0 1.28125 -2.765625 2.0q-1.75 0.71875 -4.046875 0.71875zm17.921875 0q-2.109375 0 -3.734375 -0.59375q-1.625 -0.609375 -2.65625 -1.75q-1.03125 -1.15625 -1.328125 -2.78125l4.359375 -0.75q0.34375 1.21875 1.203125 1.828125q0.859375 0.609375 2.296875 0.609375q1.34375 0 2.109375 -0.5q0.78125 -0.515625 0.78125 -1.296875q0 -0.6875 -0.5625 -1.125q-0.546875 -0.4375 -1.6875 -0.671875l-3.015625 -0.625q-2.53125 -0.515625 -3.78125 -1.75q-1.25 -1.25 -1.25 -3.203125q0 -1.6875 0.921875 -2.890625q0.921875 -1.21875 2.5625 -1.875q1.640625 -0.65625 3.859375 -0.65625q2.0625 0 3.578125 0.578125q1.515625 0.5625 2.453125 1.609375q0.9375 1.046875 1.25 2.46875l-4.15625 0.734375q-0.265625 -0.890625 -1.03125 -1.453125q-0.75 -0.578125 -2.03125 -0.578125q-1.15625 0 -1.9375 0.484375q-0.78125 0.484375 -0.78125 1.296875q0 0.65625 0.5 1.109375q0.515625 0.453125 1.75 0.703125l3.140625 0.625q2.53125 0.515625 3.765625 1.6875q1.234375 1.15625 1.234375 3.03125q0 1.71875 -1.0 3.015625q-1.0 1.28125 -2.765625 2.0q-1.75 0.71875 -4.046875 0.71875zm10.984375 -0.34375l0 -17.46875l4.6875 0l0 17.46875l-4.6875 0zm2.34375 -19.75q-1.0625 0 -1.8125 -0.703125q-0.75 -0.703125 -0.75 -1.703125q0 -1.0 0.75 -1.703125q0.75 -0.703125 1.8125 -0.703125q1.0625 0 1.8125 0.703125q0.765625 0.6875 0.765625 1.703125q0 1.0 -0.765625 1.703125q-0.75 0.703125 -1.8125 0.703125zm11.25 19.75l-6.4375 -17.46875l4.984375 0l2.9375 9.0625q0.53125 1.703125 0.921875 3.4375q0.40625 1.734375 0.828125 3.59375l-1.0 0q0.40625 -1.859375 0.796875 -3.59375q0.390625 -1.734375 0.921875 -3.4375l2.90625 -9.0625l4.921875 0l-6.453125 17.46875l-5.328125 0zm21.578125 0.34375q-2.671875 0 -4.609375 -1.09375q-1.9375 -1.09375 -2.984375 -3.109375q-1.03125 -2.015625 -1.03125 -4.78125q0 -2.703125 1.03125 -4.734375q1.03125 -2.03125 2.921875 -3.171875q1.890625 -1.140625 4.4375 -1.140625q1.71875 0 3.203125 0.546875q1.484375 0.546875 2.609375 1.65625q1.125 1.09375 1.75 2.75q0.640625 1.65625 0.640625 3.90625l0 1.3125l-14.671875 0l0 -2.9375l12.375 0l-2.1875 0.78125q0 -1.359375 -0.421875 -2.359375q-0.40625 -1.015625 -1.234375 -1.5625q-0.8125 -0.5625 -2.015625 -0.5625q-1.21875 0 -2.078125 0.5625q-0.84375 0.5625 -1.28125 1.53125q-0.4375 0.953125 -0.4375 2.1875l0 2.078125q0 1.515625 0.5 2.546875q0.515625 1.03125 1.421875 1.546875q0.921875 0.515625 2.140625 0.515625q0.828125 0 1.5 -0.234375q0.671875 -0.234375 1.140625 -0.6875q0.484375 -0.46875 0.734375 -1.140625l4.25 0.796875q-0.421875 1.4375 -1.46875 2.53125q-1.046875 1.078125 -2.625 1.671875q-1.5625 0.59375 -3.609375 0.59375zm28.46875 -17.8125l0 3.578125l-11.40625 0l0 -3.578125l11.40625 0zm-8.328125 17.46875l0 -18.8125q0 -1.859375 0.734375 -3.09375q0.75 -1.234375 2.03125 -1.84375q1.28125 -0.625 2.90625 -0.625q1.109375 0 2.015625 0.1875q0.921875 0.171875 1.34375 0.296875l-0.84375 3.53125q-0.296875 -0.078125 -0.703125 -0.15625q-0.390625 -0.078125 -0.859375 -0.078125q-1.0625 0 -1.515625 0.515625q-0.4375 0.5 -0.4375 1.421875l0 18.65625l-4.671875 0zm18.46875 0.34375q-2.625 0 -4.546875 -1.125q-1.921875 -1.140625 -2.96875 -3.15625q-1.03125 -2.03125 -1.03125 -4.71875q0 -2.71875 1.03125 -4.734375q1.046875 -2.03125 2.96875 -3.15625q1.921875 -1.140625 4.546875 -1.140625q2.640625 0 4.546875 1.140625q1.921875 1.125 2.953125 3.15625q1.046875 2.015625 1.046875 4.734375q0 2.6875 -1.046875 4.71875q-1.03125 2.015625 -2.953125 3.15625q-1.90625 1.125 -4.546875 1.125zm0 -3.6875q1.25 0 2.09375 -0.6875q0.84375 -0.703125 1.265625 -1.90625q0.421875 -1.21875 0.421875 -2.734375q0 -1.546875 -0.421875 -2.75q-0.421875 -1.203125 -1.265625 -1.890625q-0.84375 -0.6875 -2.09375 -0.6875q-1.25 0 -2.09375 0.6875q-0.828125 0.6875 -1.25 1.890625q-0.421875 1.203125 -0.421875 2.75q0 1.515625 0.421875 2.734375q0.421875 1.203125 1.25 1.90625q0.84375 0.6875 2.09375 0.6875zm19.625 3.6875q-2.640625 0 -4.5625 -1.125q-1.90625 -1.140625 -2.953125 -3.15625q-1.03125 -2.03125 -1.03125 -4.71875q0 -2.71875 1.03125 -4.734375q1.046875 -2.03125 2.953125 -3.15625q1.921875 -1.140625 4.5625 -1.140625q1.546875 0 2.859375 0.40625q1.3125 0.40625 2.328125 1.15625q1.015625 0.75 1.671875 1.828125q0.65625 1.078125 0.90625 2.421875l-4.359375 0.8125q-0.140625 -0.6875 -0.4375 -1.21875q-0.296875 -0.546875 -0.71875 -0.921875q-0.421875 -0.390625 -0.984375 -0.59375q-0.546875 -0.203125 -1.21875 -0.203125q-1.25 0 -2.109375 0.671875q-0.84375 0.671875 -1.28125 1.875q-0.421875 1.203125 -0.421875 2.78125q0 1.546875 0.421875 2.75q0.4375 1.203125 1.28125 1.890625q0.859375 0.6875 2.109375 0.6875q0.671875 0 1.234375 -0.203125q0.5625 -0.21875 1.0 -0.609375q0.4375 -0.40625 0.734375 -0.96875q0.296875 -0.5625 0.421875 -1.265625l4.359375 0.796875q-0.25 1.390625 -0.90625 2.484375q-0.65625 1.078125 -1.671875 1.859375q-1.015625 0.78125 -2.34375 1.1875q-1.3125 0.40625 -2.875 0.40625zm17.03125 -0.125q-1.8125 0 -3.171875 -0.78125q-1.359375 -0.796875 -2.109375 -2.265625q-0.734375 -1.484375 -0.734375 -3.53125l0 -11.109375l4.6875 0l0 10.296875q0 1.625 0.84375 2.546875q0.84375 0.921875 2.3125 0.921875q1.0 0 1.765625 -0.421875q0.765625 -0.4375 1.1875 -1.25q0.4375 -0.828125 0.4375 -1.984375l0 -10.109375l4.703125 0l0 17.46875l-4.4375 0l-0.0625 -4.359375l0.265625 0q-0.6875 2.203125 -2.109375 3.390625q-1.40625 1.1875 -3.578125 1.1875zm20.84375 0.125q-2.109375 0 -3.734375 -0.59375q-1.625 -0.609375 -2.65625 -1.75q-1.03125 -1.15625 -1.328125 -2.78125l4.359375 -0.75q0.34375 1.21875 1.203125 1.828125q0.859375 0.609375 2.296875 0.609375q1.34375 0 2.109375 -0.5q0.78125 -0.515625 0.78125 -1.296875q0 -0.6875 -0.5625 -1.125q-0.546875 -0.4375 -1.6875 -0.671875l-3.015625 -0.625q-2.53125 -0.515625 -3.78125 -1.75q-1.25 -1.25 -1.25 -3.203125q0 -1.6875 0.921875 -2.890625q0.921875 -1.21875 2.5625 -1.875q1.640625 -0.65625 3.859375 -0.65625q2.0625 0 3.578125 0.578125q1.515625 0.5625 2.453125 1.609375q0.9375 1.046875 1.25 2.46875l-4.15625 0.734375q-0.265625 -0.890625 -1.03125 -1.453125q-0.75 -0.578125 -2.03125 -0.578125q-1.15625 0 -1.9375 0.484375q-0.78125 0.484375 -0.78125 1.296875q0 0.65625 0.5 1.109375q0.515625 0.453125 1.75 0.703125l3.140625 0.625q2.53125 0.515625 3.765625 1.6875q1.234375 1.15625 1.234375 3.03125q0 1.71875 -1.0 3.015625q-1.0 1.28125 -2.765625 2.0q-1.75 0.71875 -4.046875 0.71875zm26.375 0q-2.625 0 -4.546875 -1.125q-1.921875 -1.140625 -2.96875 -3.15625q-1.03125 -2.03125 -1.03125 -4.71875q0 -2.71875 1.03125 -4.734375q1.046875 -2.03125 2.96875 -3.15625q1.921875 -1.140625 4.546875 -1.140625q2.640625 0 4.546875 1.140625q1.921875 1.125 2.953125 3.15625q1.046875 2.015625 1.046875 4.734375q0 2.6875 -1.046875 4.71875q-1.03125 2.015625 -2.953125 3.15625q-1.90625 1.125 -4.546875 1.125zm0 -3.6875q1.25 0 2.09375 -0.6875q0.84375 -0.703125 1.265625 -1.90625q0.421875 -1.21875 0.421875 -2.734375q0 -1.546875 -0.421875 -2.75q-0.421875 -1.203125 -1.265625 -1.890625q-0.84375 -0.6875 -2.09375 -0.6875q-1.25 0 -2.09375 0.6875q-0.828125 0.6875 -1.25 1.890625q-0.421875 1.203125 -0.421875 2.75q0 1.515625 0.421875 2.734375q0.421875 1.203125 1.25 1.90625q0.84375 0.6875 2.09375 0.6875zm16.5 -6.765625l0 10.109375l-4.6875 0l0 -17.46875l4.421875 0l0.078125 4.359375l-0.28125 0q0.6875 -2.1875 2.078125 -3.375q1.40625 -1.203125 3.625 -1.203125q1.8125 0 3.15625 0.796875q1.359375 0.78125 2.09375 2.265625q0.75 1.46875 0.75 3.515625l0 11.109375l-4.6875 0l0 -10.296875q0 -1.625 -0.84375 -2.546875q-0.828125 -0.921875 -2.3125 -0.921875q-0.984375 0 -1.765625 0.4375q-0.765625 0.421875 -1.203125 1.234375q-0.421875 0.8125 -0.421875 1.984375z" fill-rule="nonzero"/><path fill="#ffffff" d="m307.01562 267.72592q-2.671875 0 -4.609375 -1.09375q-1.9375 -1.09375 -2.984375 -3.109375q-1.03125 -2.015625 -1.03125 -4.78125q0 -2.703125 1.03125 -4.7343903q1.03125 -2.03125 2.921875 -3.171875q1.890625 -1.140625 4.4375 -1.140625q1.71875 0 3.203125 0.546875q1.484375 0.546875 2.609375 1.65625q1.125 1.09375 1.75 2.75q0.640625 1.6562653 0.640625 3.9062653l0 1.3125l-14.671875 0l0 -2.9375l12.375 0l-2.1875 0.78125q0 -1.359375 -0.421875 -2.3593903q-0.40625 -1.015625 -1.234375 -1.5625q-0.8125 -0.5625 -2.015625 -0.5625q-1.21875 0 -2.078125 0.5625q-0.84375 0.5625 -1.28125 1.53125q-0.4375 0.95314026 -0.4375 2.1875153l0 2.078125q0 1.515625 0.5 2.546875q0.515625 1.03125 1.421875 1.546875q0.921875 0.515625 2.140625 0.515625q0.828125 0 1.5 -0.234375q0.671875 -0.234375 1.140625 -0.6875q0.484375 -0.46875 0.734375 -1.140625l4.25 0.796875q-0.421875 1.4375 -1.46875 2.53125q-1.046875 1.078125 -2.625 1.671875q-1.5625 0.59375 -3.609375 0.59375zm15.859375 -10.453125l0 10.109375l-4.6875 0l0 -17.468765l4.421875 0l0.078125 4.359375l-0.28125 0q0.6875 -2.1875 2.078125 -3.375q1.40625 -1.203125 3.625 -1.203125q1.8125 0 3.15625 0.796875q1.359375 0.78125 2.09375 2.265625q0.75 1.46875 0.75 3.5156403l0 11.109375l-4.6875 0l0 -10.296875q0 -1.6250153 -0.84375 -2.5468903q-0.828125 -0.921875 -2.3125 -0.921875q-0.984375 0 -1.765625 0.4375q-0.765625 0.421875 -1.203125 1.234375q-0.421875 0.81251526 -0.421875 1.9843903zm21.609375 10.40625q-2.0 0 -3.625 -1.03125q-1.609375 -1.046875 -2.546875 -3.046875q-0.9375 -2.015625 -0.9375 -4.921875q0 -2.9843903 0.96875 -4.9843903q0.96875 -2.0 2.578125 -3.0q1.609375 -1.0 3.546875 -1.0q1.484375 0 2.46875 0.5q0.984375 0.5 1.59375 1.234375q0.609375 0.734375 0.90625 1.421875l0.15625 0l0 -8.75l4.6875 0l0 23.281265l-4.609375 0l0 -2.796875l-0.234375 0q-0.3125 0.703125 -0.9375 1.421875q-0.609375 0.703125 -1.59375 1.1875q-0.984375 0.484375 -2.421875 0.484375zm1.453125 -3.765625q1.1875 0 2.03125 -0.65625q0.84375 -0.65625 1.28125 -1.828125q0.4375 -1.1875 0.4375 -2.765625q0 -1.59375 -0.4375 -2.7500153q-0.421875 -1.171875 -1.265625 -1.8125q-0.84375 -0.65625 -2.046875 -0.65625q-1.234375 0 -2.078125 0.671875q-0.828125 0.671875 -1.25 1.84375q-0.421875 1.1718903 -0.421875 2.7031403q0 1.53125 0.421875 2.71875q0.4375 1.1875 1.265625 1.859375q0.84375 0.671875 2.0625 0.671875zm23.125 -7.9843903l0 3.7500153l-10.59375 0l0 -3.7500153l10.59375 0zm10.203125 11.67189q-1.8125 0 -3.171875 -0.78125q-1.359375 -0.796875 -2.109375 -2.265625q-0.734375 -1.484375 -0.734375 -3.53125l0 -11.10939l4.6875 0l0 10.29689q0 1.625 0.84375 2.546875q0.84375 0.921875 2.3125 0.921875q1.0 0 1.765625 -0.421875q0.765625 -0.4375 1.1875 -1.25q0.4375 -0.828125 0.4375 -1.984375l0 -10.10939l4.703125 0l0 17.468765l-4.4375 0l-0.0625 -4.359375l0.265625 0q-0.6875 2.203125 -2.109375 3.390625q-1.40625 1.1875 -3.578125 1.1875zm20.84375 0.125q-2.109375 0 -3.734375 -0.59375q-1.625 -0.609375 -2.65625 -1.75q-1.03125 -1.15625 -1.328125 -2.78125l4.359375 -0.75q0.34375 1.21875 1.203125 1.828125q0.859375 0.609375 2.296875 0.609375q1.34375 0 2.109375 -0.5q0.78125 -0.515625 0.78125 -1.296875q0 -0.6875 -0.5625 -1.125q-0.546875 -0.4375 -1.6875 -0.671875l-3.015625 -0.625q-2.53125 -0.515625 -3.78125 -1.75q-1.25 -1.25 -1.25 -3.2031403q0 -1.6875 0.921875 -2.890625q0.921875 -1.21875 2.5625 -1.875q1.640625 -0.65625 3.859375 -0.65625q2.0625 0 3.578125 0.578125q1.515625 0.5625 2.453125 1.609375q0.9375 1.046875 1.25 2.46875l-4.15625 0.734375q-0.265625 -0.890625 -1.03125 -1.453125q-0.75 -0.578125 -2.03125 -0.578125q-1.15625 0 -1.9375 0.484375q-0.78125 0.484375 -0.78125 1.296875q0 0.65625 0.5 1.109375q0.515625 0.45314026 1.75 0.70314026l3.140625 0.625q2.53125 0.515625 3.765625 1.6875q1.234375 1.15625 1.234375 3.03125q0 1.71875 -1.0 3.015625q-1.0 1.28125 -2.765625 2.0q-1.75 0.71875 -4.046875 0.71875zm18.875 0q-2.671875 0 -4.609375 -1.09375q-1.9375 -1.09375 -2.984375 -3.109375q-1.03125 -2.015625 -1.03125 -4.78125q0 -2.703125 1.03125 -4.7343903q1.03125 -2.03125 2.921875 -3.171875q1.890625 -1.140625 4.4375 -1.140625q1.71875 0 3.203125 0.546875q1.484375 0.546875 2.609375 1.65625q1.125 1.09375 1.75 2.75q0.640625 1.6562653 0.640625 3.9062653l0 1.3125l-14.671875 0l0 -2.9375l12.375 0l-2.1875 0.78125q0 -1.359375 -0.421875 -2.3593903q-0.40625 -1.015625 -1.234375 -1.5625q-0.8125 -0.5625 -2.015625 -0.5625q-1.21875 0 -2.078125 0.5625q-0.84375 0.5625 -1.28125 1.53125q-0.4375 0.95314026 -0.4375 2.1875153l0 2.078125q0 1.515625 0.5 2.546875q0.515625 1.03125 1.421875 1.546875q0.921875 0.515625 2.140625 0.515625q0.828125 0 1.5 -0.234375q0.671875 -0.234375 1.140625 -0.6875q0.484375 -0.46875 0.734375 -1.140625l4.25 0.796875q-0.421875 1.4375 -1.46875 2.53125q-1.046875 1.078125 -2.625 1.671875q-1.5625 0.59375 -3.609375 0.59375zm11.171875 -0.34375l0 -17.468765l4.53125 0l0 3.046875l0.1875 0q0.484375 -1.625 1.609375 -2.453125q1.140625 -0.828125 2.609375 -0.828125q0.359375 0 0.78125 0.046875q0.421875 0.03125 0.734375 0.109375l0 4.1875q-0.3125 -0.109375 -0.90625 -0.171875q-0.59375 -0.0625 -1.125 -0.0625q-1.0625 0 -1.921875 0.46875q-0.859375 0.453125 -1.34375 1.28125q-0.46875 0.81251526 -0.46875 1.9062653l0 9.9375l-4.6875 0zm20.609375 6.53125l0 -24.000015l4.609375 0l0 2.9375l0.21875 0q0.328125 -0.6875 0.921875 -1.421875q0.609375 -0.734375 1.59375 -1.234375q0.984375 -0.5 2.46875 -0.5q1.9375 0 3.546875 1.0q1.609375 1.0 2.5625 3.0q0.96875 2.0 0.96875 4.9843903q0 2.90625 -0.9375 4.921875q-0.9375 2.0 -2.546875 3.046875q-1.609375 1.03125 -3.625 1.03125q-1.421875 0 -2.40625 -0.484375q-0.984375 -0.484375 -1.609375 -1.1875q-0.609375 -0.71875 -0.9375 -1.421875l-0.140625 0l0 9.328125l-4.6875 0zm8.34375 -10.0q1.21875 0 2.046875 -0.671875q0.84375 -0.671875 1.265625 -1.859375q0.4375 -1.1875 0.4375 -2.71875q0 -1.53125 -0.4375 -2.7031403q-0.421875 -1.171875 -1.25 -1.84375q-0.828125 -0.671875 -2.0625 -0.671875q-1.203125 0 -2.046875 0.65625q-0.84375 0.640625 -1.28125 1.8125q-0.4375 1.1562653 -0.4375 2.7500153q0 1.578125 0.4375 2.765625q0.453125 1.171875 1.296875 1.828125q0.84375 0.65625 2.03125 0.65625zm19.71875 3.8125q-2.671875 0 -4.609375 -1.09375q-1.9375 -1.09375 -2.984375 -3.109375q-1.03125 -2.015625 -1.03125 -4.78125q0 -2.703125 1.03125 -4.7343903q1.03125 -2.03125 2.921875 -3.171875q1.890625 -1.140625 4.4375 -1.140625q1.71875 0 3.203125 0.546875q1.484375 0.546875 2.609375 1.65625q1.125 1.09375 1.75 2.75q0.640625 1.6562653 0.640625 3.9062653l0 1.3125l-14.671875 0l0 -2.9375l12.375 0l-2.1875 0.78125q0 -1.359375 -0.421875 -2.3593903q-0.40625 -1.015625 -1.234375 -1.5625q-0.8125 -0.5625 -2.015625 -0.5625q-1.21875 0 -2.078125 0.5625q-0.84375 0.5625 -1.28125 1.53125q-0.4375 0.95314026 -0.4375 2.1875153l0 2.078125q0 1.515625 0.5 2.546875q0.515625 1.03125 1.421875 1.546875q0.921875 0.515625 2.140625 0.515625q0.828125 0 1.5 -0.234375q0.671875 -0.234375 1.140625 -0.6875q0.484375 -0.46875 0.734375 -1.140625l4.25 0.796875q-0.421875 1.4375 -1.46875 2.53125q-1.046875 1.078125 -2.625 1.671875q-1.5625 0.59375 -3.609375 0.59375zm11.171875 -0.34375l0 -17.468765l4.53125 0l0 3.046875l0.1875 0q0.484375 -1.625 1.609375 -2.453125q1.140625 -0.828125 2.609375 -0.828125q0.359375 0 0.78125 0.046875q0.421875 0.03125 0.734375 0.109375l0 4.1875q-0.3125 -0.109375 -0.90625 -0.171875q-0.59375 -0.0625 -1.125 -0.0625q-1.0625 0 -1.921875 0.46875q-0.859375 0.453125 -1.34375 1.28125q-0.46875 0.81251526 -0.46875 1.9062653l0 9.9375l-4.6875 0zm23.375 -17.468765l0 3.578125l-11.40625 0l0 -3.578125l11.40625 0zm-8.328125 17.468765l0 -18.812515q0 -1.859375 0.734375 -3.09375q0.75 -1.234375 2.03125 -1.84375q1.28125 -0.625 2.90625 -0.625q1.109375 0 2.015625 0.1875q0.921875 0.171875 1.34375 0.296875l-0.84375 3.53125q-0.296875 -0.078125 -0.703125 -0.15625q-0.390625 -0.078125 -0.859375 -0.078125q-1.0625 0 -1.515625 0.515625q-0.4375 0.5 -0.4375 1.421875l0 18.656265l-4.671875 0zm18.46875 0.34375q-2.625 0 -4.546875 -1.125q-1.921875 -1.140625 -2.96875 -3.15625q-1.03125 -2.03125 -1.03125 -4.71875q0 -2.71875 1.03125 -4.7343903q1.046875 -2.03125 2.96875 -3.15625q1.921875 -1.140625 4.546875 -1.140625q2.640625 0 4.546875 1.140625q1.921875 1.125 2.953125 3.15625q1.046875 2.0156403 1.046875 4.7343903q0 2.6875 -1.046875 4.71875q-1.03125 2.015625 -2.953125 3.15625q-1.90625 1.125 -4.546875 1.125zm0 -3.6875q1.25 0 2.09375 -0.6875q0.84375 -0.703125 1.265625 -1.90625q0.421875 -1.21875 0.421875 -2.734375q0 -1.546875 -0.421875 -2.7500153q-0.421875 -1.203125 -1.265625 -1.890625q-0.84375 -0.6875 -2.09375 -0.6875q-1.25 0 -2.09375 0.6875q-0.828125 0.6875 -1.25 1.890625q-0.421875 1.2031403 -0.421875 2.7500153q0 1.515625 0.421875 2.734375q0.421875 1.203125 1.25 1.90625q0.84375 0.6875 2.09375 0.6875zm11.8125 3.34375l0 -17.468765l4.53125 0l0 3.046875l0.1875 0q0.484375 -1.625 1.609375 -2.453125q1.140625 -0.828125 2.609375 -0.828125q0.359375 0 0.78125 0.046875q0.421875 0.03125 0.734375 0.109375l0 4.1875q-0.3125 -0.109375 -0.90625 -0.171875q-0.59375 -0.0625 -1.125 -0.0625q-1.0625 0 -1.921875 0.46875q-0.859375 0.453125 -1.34375 1.28125q-0.46875 0.81251526 -0.46875 1.9062653l0 9.9375l-4.6875 0zm13.265625 0l0 -17.468765l4.34375 0l0.234375 4.34375l-0.34375 0q0.40625 -1.609375 1.1875 -2.625q0.796875 -1.015625 1.859375 -1.5q1.0625 -0.484375 2.234375 -0.484375q1.890625 0 3.046875 1.203125q1.15625 1.1875 1.703125 3.6875l-0.546875 0q0.390625 -1.671875 1.265625 -2.75q0.890625 -1.09375 2.09375 -1.609375q1.21875 -0.53125 2.546875 -0.53125q1.609375 0 2.859375 0.703125q1.265625 0.703125 1.984375 2.03125q0.734375 1.3125 0.734375 3.21875l0 11.781265l-4.6875 0l0 -10.890625q0 -1.4843903 -0.8125 -2.2031403q-0.796875 -0.71875 -1.96875 -0.71875q-0.875 0 -1.53125 0.390625q-0.640625 0.375 -1.0 1.0625q-0.34375 0.6875 -0.34375 1.6093903l0 10.75l-4.53125 0l0 -11.015625q0 -1.2812653 -0.765625 -2.0312653q-0.75 -0.765625 -1.953125 -0.765625q-0.828125 0 -1.5 0.375q-0.65625 0.375 -1.046875 1.109375q-0.375 0.71875 -0.375 1.7656403l0 10.5625l-4.6875 0zm34.078125 0.34375q-1.65625 0 -2.984375 -0.578125q-1.3125 -0.59375 -2.078125 -1.75q-0.75 -1.171875 -0.75 -2.90625q0 -1.453125 0.53125 -2.4375q0.546875 -0.984375 1.46875 -1.578125q0.9375 -0.59375 2.109375 -0.90625q1.1875 -0.3125 2.484375 -0.4375q1.515625 -0.15625 2.4375 -0.28125q0.9375 -0.140625 1.359375 -0.421875q0.4375 -0.296875 0.4375 -0.85939026l0 -0.078125q0 -0.75 -0.3125 -1.265625q-0.3125 -0.515625 -0.9375 -0.78125q-0.609375 -0.28125 -1.484375 -0.28125q-0.90625 0 -1.578125 0.28125q-0.671875 0.265625 -1.09375 0.71875q-0.421875 0.453125 -0.625 1.015625l-4.296875 -0.703125q0.453125 -1.53125 1.5 -2.59375q1.046875 -1.0625 2.59375 -1.625q1.5625 -0.5625 3.515625 -0.5625q1.40625 0 2.734375 0.34375q1.328125 0.328125 2.375 1.03125q1.0625 0.703125 1.671875 1.84375q0.625 1.125 0.625 2.703125l0 11.76564l-4.4375 0l0 -2.421875l-0.15625 0q-0.421875 0.8125 -1.125 1.4375q-0.703125 0.609375 -1.703125 0.96875q-0.984375 0.359375 -2.28125 0.359375zm1.328125 -3.296875q1.109375 0 1.9375 -0.4375q0.84375 -0.4375 1.3125 -1.1875q0.46875 -0.75 0.46875 -1.671875l0 -1.890625q-0.203125 0.15625 -0.625 0.28125q-0.421875 0.125 -0.9375 0.21875q-0.515625 0.09375 -1.015625 0.171875q-0.5 0.078125 -0.890625 0.125q-0.859375 0.125 -1.515625 0.40625q-0.65625 0.28125 -1.015625 0.75q-0.359375 0.453125 -0.359375 1.171875q0 0.671875 0.34375 1.140625q0.34375 0.453125 0.9375 0.6875q0.59375 0.234375 1.359375 0.234375zm17.0625 -7.15625l0 10.109375l-4.6875 0l0 -17.468765l4.421875 0l0.078125 4.359375l-0.28125 0q0.6875 -2.1875 2.078125 -3.375q1.40625 -1.203125 3.625 -1.203125q1.8125 0 3.15625 0.796875q1.359375 0.78125 2.09375 2.265625q0.75 1.46875 0.75 3.5156403l0 11.109375l-4.6875 0l0 -10.296875q0 -1.6250153 -0.84375 -2.5468903q-0.828125 -0.921875 -2.3125 -0.921875q-0.984375 0 -1.765625 0.4375q-0.765625 0.421875 -1.203125 1.234375q-0.421875 0.81251526 -0.421875 1.9843903zm23.046875 10.453125q-2.640625 0 -4.5625 -1.125q-1.90625 -1.140625 -2.953125 -3.15625q-1.03125 -2.03125 -1.03125 -4.71875q0 -2.71875 1.03125 -4.7343903q1.046875 -2.03125 2.953125 -3.15625q1.921875 -1.140625 4.5625 -1.140625q1.546875 0 2.859375 0.40625q1.3125 0.40625 2.328125 1.15625q1.015625 0.75 1.671875 1.828125q0.65625 1.078125 0.90625 2.421875l-4.359375 0.81251526q-0.140625 -0.68751526 -0.4375 -1.2187653q-0.296875 -0.546875 -0.71875 -0.921875q-0.421875 -0.390625 -0.984375 -0.59375q-0.546875 -0.203125 -1.21875 -0.203125q-1.25 0 -2.109375 0.671875q-0.84375 0.671875 -1.28125 1.875q-0.421875 1.2031403 -0.421875 2.7812653q0 1.546875 0.421875 2.75q0.4375 1.203125 1.28125 1.890625q0.859375 0.6875 2.109375 0.6875q0.671875 0 1.234375 -0.203125q0.5625 -0.21875 1.0 -0.609375q0.4375 -0.40625 0.734375 -0.96875q0.296875 -0.5625 0.421875 -1.265625l4.359375 0.796875q-0.25 1.390625 -0.90625 2.484375q-0.65625 1.078125 -1.671875 1.859375q-1.015625 0.78125 -2.34375 1.1875q-1.3125 0.40625 -2.875 0.40625zm18.90625 0q-2.671875 0 -4.609375 -1.09375q-1.9375 -1.09375 -2.984375 -3.109375q-1.03125 -2.015625 -1.03125 -4.78125q0 -2.703125 1.03125 -4.7343903q1.03125 -2.03125 2.921875 -3.171875q1.890625 -1.140625 4.4375 -1.140625q1.71875 0 3.203125 0.546875q1.484375 0.546875 2.609375 1.65625q1.125 1.09375 1.75 2.75q0.640625 1.6562653 0.640625 3.9062653l0 1.3125l-14.671875 0l0 -2.9375l12.375 0l-2.1875 0.78125q0 -1.359375 -0.421875 -2.3593903q-0.40625 -1.015625 -1.234375 -1.5625q-0.8125 -0.5625 -2.015625 -0.5625q-1.21875 0 -2.078125 0.5625q-0.84375 0.5625 -1.28125 1.53125q-0.4375 0.95314026 -0.4375 2.1875153l0 2.078125q0 1.515625 0.5 2.546875q0.515625 1.03125 1.421875 1.546875q0.921875 0.515625 2.140625 0.515625q0.828125 0 1.5 -0.234375q0.671875 -0.234375 1.140625 -0.6875q0.484375 -0.46875 0.734375 -1.140625l4.25 0.796875q-0.421875 1.4375 -1.46875 2.53125q-1.046875 1.078125 -2.625 1.671875q-1.5625 0.59375 -3.609375 0.59375zm14.515625 -0.046875q-1.140625 0 -1.921875 -0.765625q-0.78125 -0.78125 -0.78125 -1.921875q0 -1.140625 0.78125 -1.90625q0.78125 -0.78125 1.921875 -0.78125q1.140625 0 1.921875 0.78125q0.78125 0.765625 0.78125 1.90625q0 1.140625 -0.78125 1.921875q-0.78125 0.765625 -1.921875 0.765625z" fill-rule="nonzero"/><path fill="#ffffff" d="m185.45312 326.25467q-3.078125 0 -5.546875 -1.40625q-2.453125 -1.40625 -3.890625 -4.078125q-1.421875 -2.671875 -1.421875 -6.453125q0 -3.796875 1.421875 -6.46875q1.4375 -2.6875 3.890625 -4.09375q2.46875 -1.40625 5.546875 -1.40625q3.09375 0 5.546875 1.40625q2.453125 1.40625 3.875 4.09375q1.4375 2.671875 1.4375 6.46875q0 3.78125 -1.4375 6.453125q-1.421875 2.671875 -3.875 4.078125q-2.453125 1.40625 -5.546875 1.40625zm0 -4.234375q1.8125 0 3.15625 -0.875q1.359375 -0.890625 2.109375 -2.609375q0.75 -1.734375 0.75 -4.21875q0 -2.515625 -0.75 -4.234375q-0.75 -1.734375 -2.109375 -2.609375q-1.34375 -0.890625 -3.15625 -0.890625q-1.796875 0 -3.15625 0.890625q-1.359375 0.890625 -2.109375 2.625q-0.75 1.71875 -0.75 4.21875q0 2.484375 0.75 4.203125q0.75 1.71875 2.109375 2.609375q1.359375 0.890625 3.15625 0.890625zm20.34375 4.140625q-1.8125 0 -3.171875 -0.78125q-1.359375 -0.796875 -2.109375 -2.265625q-0.734375 -1.484375 -0.734375 -3.53125l0 -11.109375l4.6875 0l0 10.296875q0 1.625 0.84375 2.546875q0.84375 0.921875 2.3125 0.921875q1.0 0 1.765625 -0.421875q0.765625 -0.4375 1.1875 -1.25q0.4375 -0.828125 0.4375 -1.984375l0 -10.109375l4.703125 0l0 17.46875l-4.4375 0l-0.0625 -4.359375l0.265625 0q-0.6875 2.203125 -2.109375 3.390625q-1.40625 1.1875 -3.578125 1.1875zm13.90625 -0.21875l0 -17.46875l4.53125 0l0 3.046875l0.1875 0q0.484375 -1.625 1.609375 -2.453125q1.140625 -0.828125 2.609375 -0.828125q0.359375 0 0.78125 0.046875q0.421875 0.03125 0.734375 0.109375l0 4.1875q-0.3125 -0.109375 -0.90625 -0.171875q-0.59375 -0.0625 -1.125 -0.0625q-1.0625 0 -1.921875 0.46875q-0.859375 0.453125 -1.34375 1.28125q-0.46875 0.8125 -0.46875 1.90625l0 9.9375l-4.6875 0zm20.609375 6.53125l0 -24.0l4.609375 0l0 2.9375l0.21875 0q0.328125 -0.6875 0.921875 -1.421875q0.609375 -0.734375 1.59375 -1.234375q0.984375 -0.5 2.46875 -0.5q1.9375 0 3.546875 1.0q1.609375 1.0 2.5625 3.0q0.96875 2.0 0.96875 4.984375q0 2.90625 -0.9375 4.921875q-0.9375 2.0 -2.546875 3.046875q-1.609375 1.03125 -3.625 1.03125q-1.421875 0 -2.40625 -0.484375q-0.984375 -0.484375 -1.609375 -1.1875q-0.609375 -0.71875 -0.9375 -1.421875l-0.140625 0l0 9.328125l-4.6875 0zm8.34375 -10.0q1.21875 0 2.046875 -0.671875q0.84375 -0.671875 1.265625 -1.859375q0.4375 -1.1875 0.4375 -2.71875q0 -1.53125 -0.4375 -2.703125q-0.421875 -1.171875 -1.25 -1.84375q-0.828125 -0.671875 -2.0625 -0.671875q-1.203125 0 -2.046875 0.65625q-0.84375 0.640625 -1.28125 1.8125q-0.4375 1.15625 -0.4375 2.75q0 1.578125 0.4375 2.765625q0.453125 1.171875 1.296875 1.828125q0.84375 0.65625 2.03125 0.65625zm16.515625 -19.8125l0 23.28125l-4.6875 0l0 -23.28125l4.6875 0zm8.859375 23.625q-1.65625 0 -2.984375 -0.578125q-1.3125 -0.59375 -2.078125 -1.75q-0.75 -1.171875 -0.75 -2.90625q0 -1.453125 0.53125 -2.4375q0.546875 -0.984375 1.46875 -1.578125q0.9375 -0.59375 2.109375 -0.90625q1.1875 -0.3125 2.484375 -0.4375q1.515625 -0.15625 2.4375 -0.28125q0.9375 -0.140625 1.359375 -0.421875q0.4375 -0.296875 0.4375 -0.859375l0 -0.078125q0 -0.75 -0.3125 -1.265625q-0.3125 -0.515625 -0.9375 -0.78125q-0.609375 -0.28125 -1.484375 -0.28125q-0.90625 0 -1.578125 0.28125q-0.671875 0.265625 -1.09375 0.71875q-0.421875 0.453125 -0.625 1.015625l-4.296875 -0.703125q0.453125 -1.53125 1.5 -2.59375q1.046875 -1.0625 2.59375 -1.625q1.5625 -0.5625 3.515625 -0.5625q1.40625 0 2.734375 0.34375q1.328125 0.328125 2.375 1.03125q1.0625 0.703125 1.671875 1.84375q0.625 1.125 0.625 2.703125l0 11.765625l-4.4375 0l0 -2.421875l-0.15625 0q-0.421875 0.8125 -1.125 1.4375q-0.703125 0.609375 -1.703125 0.96875q-0.984375 0.359375 -2.28125 0.359375zm1.328125 -3.296875q1.109375 0 1.9375 -0.4375q0.84375 -0.4375 1.3125 -1.1875q0.46875 -0.75 0.46875 -1.671875l0 -1.890625q-0.203125 0.15625 -0.625 0.28125q-0.421875 0.125 -0.9375 0.21875q-0.515625 0.09375 -1.015625 0.171875q-0.5 0.078125 -0.890625 0.125q-0.859375 0.125 -1.515625 0.40625q-0.65625 0.28125 -1.015625 0.75q-0.359375 0.453125 -0.359375 1.171875q0 0.671875 0.34375 1.140625q0.34375 0.453125 0.9375 0.6875q0.59375 0.234375 1.359375 0.234375zm21.046875 -14.515625l0 3.578125l-10.359375 0l0 -3.578125l10.359375 0zm-7.953125 -4.15625l4.6875 0l0 16.515625q0 0.828125 0.359375 1.234375q0.375 0.390625 1.234375 0.390625q0.265625 0 0.75 -0.0625q0.484375 -0.078125 0.734375 -0.140625l0.671875 3.515625q-0.78125 0.234375 -1.5625 0.328125q-0.765625 0.09375 -1.46875 0.09375q-2.625 0 -4.015625 -1.28125q-1.390625 -1.28125 -1.390625 -3.671875l0 -16.921875zm19.6875 4.15625l0 3.578125l-11.40625 0l0 -3.578125l11.40625 0zm-8.328125 17.46875l0 -18.8125q0 -1.859375 0.734375 -3.09375q0.75 -1.234375 2.03125 -1.84375q1.28125 -0.625 2.90625 -0.625q1.109375 0 2.015625 0.1875q0.921875 0.171875 1.34375 0.296875l-0.84375 3.53125q-0.296875 -0.078125 -0.703125 -0.15625q-0.390625 -0.078125 -0.859375 -0.078125q-1.0625 0 -1.515625 0.515625q-0.4375 0.5 -0.4375 1.421875l0 18.65625l-4.671875 0zm18.46875 0.34375q-2.625 0 -4.546875 -1.125q-1.921875 -1.140625 -2.96875 -3.15625q-1.03125 -2.03125 -1.03125 -4.71875q0 -2.71875 1.03125 -4.734375q1.046875 -2.03125 2.96875 -3.15625q1.921875 -1.140625 4.546875 -1.140625q2.640625 0 4.546875 1.140625q1.921875 1.125 2.953125 3.15625q1.046875 2.015625 1.046875 4.734375q0 2.6875 -1.046875 4.71875q-1.03125 2.015625 -2.953125 3.15625q-1.90625 1.125 -4.546875 1.125zm0 -3.6875q1.25 0 2.09375 -0.6875q0.84375 -0.703125 1.265625 -1.90625q0.421875 -1.21875 0.421875 -2.734375q0 -1.546875 -0.421875 -2.75q-0.421875 -1.203125 -1.265625 -1.890625q-0.84375 -0.6875 -2.09375 -0.6875q-1.25 0 -2.09375 0.6875q-0.828125 0.6875 -1.25 1.890625q-0.421875 1.203125 -0.421875 2.75q0 1.515625 0.421875 2.734375q0.421875 1.203125 1.25 1.90625q0.84375 0.6875 2.09375 0.6875zm11.8125 3.34375l0 -17.46875l4.53125 0l0 3.046875l0.1875 0q0.484375 -1.625 1.609375 -2.453125q1.140625 -0.828125 2.609375 -0.828125q0.359375 0 0.78125 0.046875q0.421875 0.03125 0.734375 0.109375l0 4.1875q-0.3125 -0.109375 -0.90625 -0.171875q-0.59375 -0.0625 -1.125 -0.0625q-1.0625 0 -1.921875 0.46875q-0.859375 0.453125 -1.34375 1.28125q-0.46875 0.8125 -0.46875 1.90625l0 9.9375l-4.6875 0zm13.265625 0l0 -17.46875l4.34375 0l0.234375 4.34375l-0.34375 0q0.40625 -1.609375 1.1875 -2.625q0.796875 -1.015625 1.859375 -1.5q1.0625 -0.484375 2.234375 -0.484375q1.890625 0 3.046875 1.203125q1.15625 1.1875 1.703125 3.6875l-0.546875 0q0.390625 -1.671875 1.265625 -2.75q0.890625 -1.09375 2.09375 -1.609375q1.21875 -0.53125 2.546875 -0.53125q1.609375 0 2.859375 0.703125q1.265625 0.703125 1.984375 2.03125q0.734375 1.3125 0.734375 3.21875l0 11.78125l-4.6875 0l0 -10.890625q0 -1.484375 -0.8125 -2.203125q-0.796875 -0.71875 -1.96875 -0.71875q-0.875 0 -1.53125 0.390625q-0.640625 0.375 -1.0 1.0625q-0.34375 0.6875 -0.34375 1.609375l0 10.75l-4.53125 0l0 -11.015625q0 -1.28125 -0.765625 -2.03125q-0.75 -0.765625 -1.953125 -0.765625q-0.828125 0 -1.5 0.375q-0.65625 0.375 -1.046875 1.109375q-0.375 0.71875 -0.375 1.765625l0 10.5625l-4.6875 0zm44.671875 0.34375q-2.671875 0 -4.609375 -1.09375q-1.9375 -1.09375 -2.984375 -3.109375q-1.03125 -2.015625 -1.03125 -4.78125q0 -2.703125 1.03125 -4.734375q1.03125 -2.03125 2.921875 -3.171875q1.890625 -1.140625 4.4375 -1.140625q1.71875 0 3.203125 0.546875q1.484375 0.546875 2.609375 1.65625q1.125 1.09375 1.75 2.75q0.640625 1.65625 0.640625 3.90625l0 1.3125l-14.671875 0l0 -2.9375l12.375 0l-2.1875 0.78125q0 -1.359375 -0.421875 -2.359375q-0.40625 -1.015625 -1.234375 -1.5625q-0.8125 -0.5625 -2.015625 -0.5625q-1.21875 0 -2.078125 0.5625q-0.84375 0.5625 -1.28125 1.53125q-0.4375 0.953125 -0.4375 2.1875l0 2.078125q0 1.515625 0.5 2.546875q0.515625 1.03125 1.421875 1.546875q0.921875 0.515625 2.140625 0.515625q0.828125 0 1.5 -0.234375q0.671875 -0.234375 1.140625 -0.6875q0.484375 -0.46875 0.734375 -1.140625l4.25 0.796875q-0.421875 1.4375 -1.46875 2.53125q-1.046875 1.078125 -2.625 1.671875q-1.5625 0.59375 -3.609375 0.59375zm15.859375 -10.453125l0 10.109375l-4.6875 0l0 -17.46875l4.421875 0l0.078125 4.359375l-0.28125 0q0.6875 -2.1875 2.078125 -3.375q1.40625 -1.203125 3.625 -1.203125q1.8125 0 3.15625 0.796875q1.359375 0.78125 2.09375 2.265625q0.75 1.46875 0.75 3.515625l0 11.109375l-4.6875 0l0 -10.296875q0 -1.625 -0.84375 -2.546875q-0.828125 -0.921875 -2.3125 -0.921875q-0.984375 0 -1.765625 0.4375q-0.765625 0.421875 -1.203125 1.234375q-0.421875 0.8125 -0.421875 1.984375zm20.109375 10.453125q-1.65625 0 -2.984375 -0.578125q-1.3125 -0.59375 -2.078125 -1.75q-0.75 -1.171875 -0.75 -2.90625q0 -1.453125 0.53125 -2.4375q0.546875 -0.984375 1.46875 -1.578125q0.9375 -0.59375 2.109375 -0.90625q1.1875 -0.3125 2.484375 -0.4375q1.515625 -0.15625 2.4375 -0.28125q0.9375 -0.140625 1.359375 -0.421875q0.4375 -0.296875 0.4375 -0.859375l0 -0.078125q0 -0.75 -0.3125 -1.265625q-0.3125 -0.515625 -0.9375 -0.78125q-0.609375 -0.28125 -1.484375 -0.28125q-0.90625 0 -1.578125 0.28125q-0.671875 0.265625 -1.09375 0.71875q-0.421875 0.453125 -0.625 1.015625l-4.296875 -0.703125q0.453125 -1.53125 1.5 -2.59375q1.046875 -1.0625 2.59375 -1.625q1.5625 -0.5625 3.515625 -0.5625q1.40625 0 2.734375 0.34375q1.328125 0.328125 2.375 1.03125q1.0625 0.703125 1.671875 1.84375q0.625 1.125 0.625 2.703125l0 11.765625l-4.4375 0l0 -2.421875l-0.15625 0q-0.421875 0.8125 -1.125 1.4375q-0.703125 0.609375 -1.703125 0.96875q-0.984375 0.359375 -2.28125 0.359375zm1.328125 -3.296875q1.109375 0 1.9375 -0.4375q0.84375 -0.4375 1.3125 -1.1875q0.46875 -0.75 0.46875 -1.671875l0 -1.890625q-0.203125 0.15625 -0.625 0.28125q-0.421875 0.125 -0.9375 0.21875q-0.515625 0.09375 -1.015625 0.171875q-0.5 0.078125 -0.890625 0.125q-0.859375 0.125 -1.515625 0.40625q-0.65625 0.28125 -1.015625 0.75q-0.359375 0.453125 -0.359375 1.171875q0 0.671875 0.34375 1.140625q0.34375 0.453125 0.9375 0.6875q0.59375 0.234375 1.359375 0.234375zm22.15625 3.25q-1.421875 0 -2.40625 -0.484375q-0.984375 -0.484375 -1.609375 -1.1875q-0.609375 -0.71875 -0.9375 -1.421875l-0.21875 0l0 2.796875l-4.609375 0l0 -23.28125l4.6875 0l0 8.75l0.140625 0q0.328125 -0.6875 0.921875 -1.421875q0.609375 -0.734375 1.59375 -1.234375q0.984375 -0.5 2.46875 -0.5q1.9375 0 3.546875 1.0q1.609375 1.0 2.5625 3.0q0.96875 2.0 0.96875 4.984375q0 2.90625 -0.9375 4.921875q-0.9375 2.0 -2.546875 3.046875q-1.609375 1.03125 -3.625 1.03125zm-1.4375 -3.765625q1.21875 0 2.046875 -0.671875q0.84375 -0.671875 1.265625 -1.859375q0.4375 -1.1875 0.4375 -2.71875q0 -1.53125 -0.4375 -2.703125q-0.421875 -1.171875 -1.25 -1.84375q-0.828125 -0.671875 -2.0625 -0.671875q-1.203125 0 -2.046875 0.65625q-0.84375 0.640625 -1.28125 1.8125q-0.4375 1.15625 -0.4375 2.75q0 1.578125 0.4375 2.765625q0.453125 1.171875 1.296875 1.828125q0.84375 0.65625 2.03125 0.65625zm16.515625 -19.8125l0 23.28125l-4.6875 0l0 -23.28125l4.6875 0zm11.875 23.625q-2.671875 0 -4.609375 -1.09375q-1.9375 -1.09375 -2.984375 -3.109375q-1.03125 -2.015625 -1.03125 -4.78125q0 -2.703125 1.03125 -4.734375q1.03125 -2.03125 2.921875 -3.171875q1.890625 -1.140625 4.4375 -1.140625q1.71875 0 3.203125 0.546875q1.484375 0.546875 2.609375 1.65625q1.125 1.09375 1.75 2.75q0.640625 1.65625 0.640625 3.90625l0 1.3125l-14.671875 0l0 -2.9375l12.375 0l-2.1875 0.78125q0 -1.359375 -0.421875 -2.359375q-0.40625 -1.015625 -1.234375 -1.5625q-0.8125 -0.5625 -2.015625 -0.5625q-1.21875 0 -2.078125 0.5625q-0.84375 0.5625 -1.28125 1.53125q-0.4375 0.953125 -0.4375 2.1875l0 2.078125q0 1.515625 0.5 2.546875q0.515625 1.03125 1.421875 1.546875q0.921875 0.515625 2.140625 0.515625q0.828125 0 1.5 -0.234375q0.671875 -0.234375 1.140625 -0.6875q0.484375 -0.46875 0.734375 -1.140625l4.25 0.796875q-0.421875 1.4375 -1.46875 2.53125q-1.046875 1.078125 -2.625 1.671875q-1.5625 0.59375 -3.609375 0.59375zm18.109375 0q-2.109375 0 -3.734375 -0.59375q-1.625 -0.609375 -2.65625 -1.75q-1.03125 -1.15625 -1.328125 -2.78125l4.359375 -0.75q0.34375 1.21875 1.203125 1.828125q0.859375 0.609375 2.296875 0.609375q1.34375 0 2.109375 -0.5q0.78125 -0.515625 0.78125 -1.296875q0 -0.6875 -0.5625 -1.125q-0.546875 -0.4375 -1.6875 -0.671875l-3.015625 -0.625q-2.53125 -0.515625 -3.78125 -1.75q-1.25 -1.25 -1.25 -3.203125q0 -1.6875 0.921875 -2.890625q0.921875 -1.21875 2.5625 -1.875q1.640625 -0.65625 3.859375 -0.65625q2.0625 0 3.578125 0.578125q1.515625 0.5625 2.453125 1.609375q0.9375 1.046875 1.25 2.46875l-4.15625 0.734375q-0.265625 -0.890625 -1.03125 -1.453125q-0.75 -0.578125 -2.03125 -0.578125q-1.15625 0 -1.9375 0.484375q-0.78125 0.484375 -0.78125 1.296875q0 0.65625 0.5 1.109375q0.515625 0.453125 1.75 0.703125l3.140625 0.625q2.53125 0.515625 3.765625 1.6875q1.234375 1.15625 1.234375 3.03125q0 1.71875 -1.0 3.015625q-1.0 1.28125 -2.765625 2.0q-1.75 0.71875 -4.046875 0.71875zm28.28125 -17.8125l0 3.578125l-11.40625 0l0 -3.578125l11.40625 0zm-8.328125 17.46875l0 -18.8125q0 -1.859375 0.734375 -3.09375q0.75 -1.234375 2.03125 -1.84375q1.28125 -0.625 2.90625 -0.625q1.109375 0 2.015625 0.1875q0.921875 0.171875 1.34375 0.296875l-0.84375 3.53125q-0.296875 -0.078125 -0.703125 -0.15625q-0.390625 -0.078125 -0.859375 -0.078125q-1.0625 0 -1.515625 0.515625q-0.4375 0.5 -0.4375 1.421875l0 18.65625l-4.671875 0zm11.34375 0l0 -17.46875l4.53125 0l0 3.046875l0.1875 0q0.484375 -1.625 1.609375 -2.453125q1.140625 -0.828125 2.609375 -0.828125q0.359375 0 0.78125 0.046875q0.421875 0.03125 0.734375 0.109375l0 4.1875q-0.3125 -0.109375 -0.90625 -0.171875q-0.59375 -0.0625 -1.125 -0.0625q-1.0625 0 -1.921875 0.46875q-0.859375 0.453125 -1.34375 1.28125q-0.46875 0.8125 -0.46875 1.90625l0 9.9375l-4.6875 0zm20.0625 0.34375q-2.625 0 -4.546875 -1.125q-1.921875 -1.140625 -2.96875 -3.15625q-1.03125 -2.03125 -1.03125 -4.71875q0 -2.71875 1.03125 -4.734375q1.046875 -2.03125 2.96875 -3.15625q1.921875 -1.140625 4.546875 -1.140625q2.640625 0 4.546875 1.140625q1.921875 1.125 2.953125 3.15625q1.046875 2.015625 1.046875 4.734375q0 2.6875 -1.046875 4.71875q-1.03125 2.015625 -2.953125 3.15625q-1.90625 1.125 -4.546875 1.125zm0 -3.6875q1.25 0 2.09375 -0.6875q0.84375 -0.703125 1.265625 -1.90625q0.421875 -1.21875 0.421875 -2.734375q0 -1.546875 -0.421875 -2.75q-0.421875 -1.203125 -1.265625 -1.890625q-0.84375 -0.6875 -2.09375 -0.6875q-1.25 0 -2.09375 0.6875q-0.828125 0.6875 -1.25 1.890625q-0.421875 1.203125 -0.421875 2.75q0 1.515625 0.421875 2.734375q0.421875 1.203125 1.25 1.90625q0.84375 0.6875 2.09375 0.6875zm16.5 -6.765625l0 10.109375l-4.6875 0l0 -17.46875l4.421875 0l0.078125 4.359375l-0.28125 0q0.6875 -2.1875 2.078125 -3.375q1.40625 -1.203125 3.625 -1.203125q1.8125 0 3.15625 0.796875q1.359375 0.78125 2.09375 2.265625q0.75 1.46875 0.75 3.515625l0 11.109375l-4.6875 0l0 -10.296875q0 -1.625 -0.84375 -2.546875q-0.828125 -0.921875 -2.3125 -0.921875q-0.984375 0 -1.765625 0.4375q-0.765625 0.421875 -1.203125 1.234375q-0.421875 0.8125 -0.421875 1.984375zm23.90625 -7.359375l0 3.578125l-10.359375 0l0 -3.578125l10.359375 0zm-7.953125 -4.15625l4.6875 0l0 16.515625q0 0.828125 0.359375 1.234375q0.375 0.390625 1.234375 0.390625q0.265625 0 0.75 -0.0625q0.484375 -0.078125 0.734375 -0.140625l0.671875 3.515625q-0.78125 0.234375 -1.5625 0.328125q-0.765625 0.09375 -1.46875 0.09375q-2.625 0 -4.015625 -1.28125q-1.390625 -1.28125 -1.390625 -3.671875l0 -16.921875zm18.578125 21.96875q-2.671875 0 -4.609375 -1.09375q-1.9375 -1.09375 -2.984375 -3.109375q-1.03125 -2.015625 -1.03125 -4.78125q0 -2.703125 1.03125 -4.734375q1.03125 -2.03125 2.921875 -3.171875q1.890625 -1.140625 4.4375 -1.140625q1.71875 0 3.203125 0.546875q1.484375 0.546875 2.609375 1.65625q1.125 1.09375 1.75 2.75q0.640625 1.65625 0.640625 3.90625l0 1.3125l-14.671875 0l0 -2.9375l12.375 0l-2.1875 0.78125q0 -1.359375 -0.421875 -2.359375q-0.40625 -1.015625 -1.234375 -1.5625q-0.8125 -0.5625 -2.015625 -0.5625q-1.21875 0 -2.078125 0.5625q-0.84375 0.5625 -1.28125 1.53125q-0.4375 0.953125 -0.4375 2.1875l0 2.078125q0 1.515625 0.5 2.546875q0.515625 1.03125 1.421875 1.546875q0.921875 0.515625 2.140625 0.515625q0.828125 0 1.5 -0.234375q0.671875 -0.234375 1.140625 -0.6875q0.484375 -0.46875 0.734375 -1.140625l4.25 0.796875q-0.421875 1.4375 -1.46875 2.53125q-1.046875 1.078125 -2.625 1.671875q-1.5625 0.59375 -3.609375 0.59375zm15.859375 -10.453125l0 10.109375l-4.6875 0l0 -17.46875l4.421875 0l0.078125 4.359375l-0.28125 0q0.6875 -2.1875 2.078125 -3.375q1.40625 -1.203125 3.625 -1.203125q1.8125 0 3.15625 0.796875q1.359375 0.78125 2.09375 2.265625q0.75 1.46875 0.75 3.515625l0 11.109375l-4.6875 0l0 -10.296875q0 -1.625 -0.84375 -2.546875q-0.828125 -0.921875 -2.3125 -0.921875q-0.984375 0 -1.765625 0.4375q-0.765625 0.421875 -1.203125 1.234375q-0.421875 0.8125 -0.421875 1.984375zm21.609375 10.40625q-2.0 0 -3.625 -1.03125q-1.609375 -1.046875 -2.546875 -3.046875q-0.9375 -2.015625 -0.9375 -4.921875q0 -2.984375 0.96875 -4.984375q0.96875 -2.0 2.578125 -3.0q1.609375 -1.0 3.546875 -1.0q1.484375 0 2.46875 0.5q0.984375 0.5 1.59375 1.234375q0.609375 0.734375 0.90625 1.421875l0.15625 0l0 -8.75l4.6875 0l0 23.28125l-4.609375 0l0 -2.796875l-0.234375 0q-0.3125 0.703125 -0.9375 1.421875q-0.609375 0.703125 -1.59375 1.1875q-0.984375 0.484375 -2.421875 0.484375zm1.453125 -3.765625q1.1875 0 2.03125 -0.65625q0.84375 -0.65625 1.28125 -1.828125q0.4375 -1.1875 0.4375 -2.765625q0 -1.59375 -0.4375 -2.75q-0.421875 -1.171875 -1.265625 -1.8125q-0.84375 -0.65625 -2.046875 -0.65625q-1.234375 0 -2.078125 0.671875q-0.828125 0.671875 -1.25 1.84375q-0.421875 1.171875 -0.421875 2.703125q0 1.53125 0.421875 2.71875q0.4375 1.1875 1.265625 1.859375q0.84375 0.671875 2.0625 0.671875zm28.59375 -14.0l0 3.578125l-10.359375 0l0 -3.578125l10.359375 0zm-7.953125 -4.15625l4.6875 0l0 16.515625q0 0.828125 0.359375 1.234375q0.375 0.390625 1.234375 0.390625q0.265625 0 0.75 -0.0625q0.484375 -0.078125 0.734375 -0.140625l0.671875 3.515625q-0.78125 0.234375 -1.5625 0.328125q-0.765625 0.09375 -1.46875 0.09375q-2.625 0 -4.015625 -1.28125q-1.390625 -1.28125 -1.390625 -3.671875l0 -16.921875zm18.578125 21.96875q-2.671875 0 -4.609375 -1.09375q-1.9375 -1.09375 -2.984375 -3.109375q-1.03125 -2.015625 -1.03125 -4.78125q0 -2.703125 1.03125 -4.734375q1.03125 -2.03125 2.921875 -3.171875q1.890625 -1.140625 4.4375 -1.140625q1.71875 0 3.203125 0.546875q1.484375 0.546875 2.609375 1.65625q1.125 1.09375 1.75 2.75q0.640625 1.65625 0.640625 3.90625l0 1.3125l-14.671875 0l0 -2.9375l12.375 0l-2.1875 0.78125q0 -1.359375 -0.421875 -2.359375q-0.40625 -1.015625 -1.234375 -1.5625q-0.8125 -0.5625 -2.015625 -0.5625q-1.21875 0 -2.078125 0.5625q-0.84375 0.5625 -1.28125 1.53125q-0.4375 0.953125 -0.4375 2.1875l0 2.078125q0 1.515625 0.5 2.546875q0.515625 1.03125 1.421875 1.546875q0.921875 0.515625 2.140625 0.515625q0.828125 0 1.5 -0.234375q0.671875 -0.234375 1.140625 -0.6875q0.484375 -0.46875 0.734375 -1.140625l4.25 0.796875q-0.421875 1.4375 -1.46875 2.53125q-1.046875 1.078125 -2.625 1.671875q-1.5625 0.59375 -3.609375 0.59375zm16.359375 0q-1.65625 0 -2.984375 -0.578125q-1.3125 -0.59375 -2.078125 -1.75q-0.75 -1.171875 -0.75 -2.90625q0 -1.453125 0.53125 -2.4375q0.546875 -0.984375 1.46875 -1.578125q0.9375 -0.59375 2.109375 -0.90625q1.1875 -0.3125 2.484375 -0.4375q1.515625 -0.15625 2.4375 -0.28125q0.9375 -0.140625 1.359375 -0.421875q0.4375 -0.296875 0.4375 -0.859375l0 -0.078125q0 -0.75 -0.3125 -1.265625q-0.3125 -0.515625 -0.9375 -0.78125q-0.609375 -0.28125 -1.484375 -0.28125q-0.90625 0 -1.578125 0.28125q-0.671875 0.265625 -1.09375 0.71875q-0.421875 0.453125 -0.625 1.015625l-4.296875 -0.703125q0.453125 -1.53125 1.5 -2.59375q1.046875 -1.0625 2.59375 -1.625q1.5625 -0.5625 3.515625 -0.5625q1.40625 0 2.734375 0.34375q1.328125 0.328125 2.375 1.03125q1.0625 0.703125 1.671875 1.84375q0.625 1.125 0.625 2.703125l0 11.765625l-4.4375 0l0 -2.421875l-0.15625 0q-0.421875 0.8125 -1.125 1.4375q-0.703125 0.609375 -1.703125 0.96875q-0.984375 0.359375 -2.28125 0.359375zm1.328125 -3.296875q1.109375 0 1.9375 -0.4375q0.84375 -0.4375 1.3125 -1.1875q0.46875 -0.75 0.46875 -1.671875l0 -1.890625q-0.203125 0.15625 -0.625 0.28125q-0.421875 0.125 -0.9375 0.21875q-0.515625 0.09375 -1.015625 0.171875q-0.5 0.078125 -0.890625 0.125q-0.859375 0.125 -1.515625 0.40625q-0.65625 0.28125 -1.015625 0.75q-0.359375 0.453125 -0.359375 1.171875q0 0.671875 0.34375 1.140625q0.34375 0.453125 0.9375 0.6875q0.59375 0.234375 1.359375 0.234375zm12.375 2.953125l0 -17.46875l4.34375 0l0.234375 4.34375l-0.34375 0q0.40625 -1.609375 1.1875 -2.625q0.796875 -1.015625 1.859375 -1.5q1.0625 -0.484375 2.234375 -0.484375q1.890625 0 3.046875 1.203125q1.15625 1.1875 1.703125 3.6875l-0.546875 0q0.390625 -1.671875 1.265625 -2.75q0.890625 -1.09375 2.09375 -1.609375q1.21875 -0.53125 2.546875 -0.53125q1.609375 0 2.859375 0.703125q1.265625 0.703125 1.984375 2.03125q0.734375 1.3125 0.734375 3.21875l0 11.78125l-4.6875 0l0 -10.890625q0 -1.484375 -0.8125 -2.203125q-0.796875 -0.71875 -1.96875 -0.71875q-0.875 0 -1.53125 0.390625q-0.640625 0.375 -1.0 1.0625q-0.34375 0.6875 -0.34375 1.609375l0 10.75l-4.53125 0l0 -11.015625q0 -1.28125 -0.765625 -2.03125q-0.75 -0.765625 -1.953125 -0.765625q-0.828125 0 -1.5 0.375q-0.65625 0.375 -1.046875 1.109375q-0.375 0.71875 -0.375 1.765625l0 10.5625l-4.6875 0zm36.140625 0.34375q-2.109375 0 -3.734375 -0.59375q-1.625 -0.609375 -2.65625 -1.75q-1.03125 -1.15625 -1.328125 -2.78125l4.359375 -0.75q0.34375 1.21875 1.203125 1.828125q0.859375 0.609375 2.296875 0.609375q1.34375 0 2.109375 -0.5q0.78125 -0.515625 0.78125 -1.296875q0 -0.6875 -0.5625 -1.125q-0.546875 -0.4375 -1.6875 -0.671875l-3.015625 -0.625q-2.53125 -0.515625 -3.78125 -1.75q-1.25 -1.25 -1.25 -3.203125q0 -1.6875 0.921875 -2.890625q0.921875 -1.21875 2.5625 -1.875q1.640625 -0.65625 3.859375 -0.65625q2.0625 0 3.578125 0.578125q1.515625 0.5625 2.453125 1.609375q0.9375 1.046875 1.25 2.46875l-4.15625 0.734375q-0.265625 -0.890625 -1.03125 -1.453125q-0.75 -0.578125 -2.03125 -0.578125q-1.15625 0 -1.9375 0.484375q-0.78125 0.484375 -0.78125 1.296875q0 0.65625 0.5 1.109375q0.515625 0.453125 1.75 0.703125l3.140625 0.625q2.53125 0.515625 3.765625 1.6875q1.234375 1.15625 1.234375 3.03125q0 1.71875 -1.0 3.015625q-1.0 1.28125 -2.765625 2.0q-1.75 0.71875 -4.046875 0.71875zm27.234375 -17.8125l0 3.578125l-10.359375 0l0 -3.578125l10.359375 0zm-7.953125 -4.15625l4.6875 0l0 16.515625q0 0.828125 0.359375 1.234375q0.375 0.390625 1.234375 0.390625q0.265625 0 0.75 -0.0625q0.484375 -0.078125 0.734375 -0.140625l0.671875 3.515625q-0.78125 0.234375 -1.5625 0.328125q-0.765625 0.09375 -1.46875 0.09375q-2.625 0 -4.015625 -1.28125q-1.390625 -1.28125 -1.390625 -3.671875l0 -16.921875zm18.5 21.96875q-2.625 0 -4.546875 -1.125q-1.921875 -1.140625 -2.96875 -3.15625q-1.03125 -2.03125 -1.03125 -4.71875q0 -2.71875 1.03125 -4.734375q1.046875 -2.03125 2.96875 -3.15625q1.921875 -1.140625 4.546875 -1.140625q2.640625 0 4.546875 1.140625q1.921875 1.125 2.953125 3.15625q1.046875 2.015625 1.046875 4.734375q0 2.6875 -1.046875 4.71875q-1.03125 2.015625 -2.953125 3.15625q-1.90625 1.125 -4.546875 1.125zm0 -3.6875q1.25 0 2.09375 -0.6875q0.84375 -0.703125 1.265625 -1.90625q0.421875 -1.21875 0.421875 -2.734375q0 -1.546875 -0.421875 -2.75q-0.421875 -1.203125 -1.265625 -1.890625q-0.84375 -0.6875 -2.09375 -0.6875q-1.25 0 -2.09375 0.6875q-0.828125 0.6875 -1.25 1.890625q-0.421875 1.203125 -0.421875 2.75q0 1.515625 0.421875 2.734375q0.421875 1.203125 1.25 1.90625q0.84375 0.6875 2.09375 0.6875z" fill-rule="nonzero"/><path fill="#ffffff" d="m341.84375 360.79904q-2.0 0 -3.625 -1.03125q-1.609375 -1.046875 -2.546875 -3.046875q-0.9375 -2.015625 -0.9375 -4.921875q0 -2.984375 0.96875 -4.984375q0.96875 -2.0 2.578125 -3.0q1.609375 -1.0 3.546875 -1.0q1.484375 0 2.46875 0.5q0.984375 0.5 1.59375 1.234375q0.609375 0.734375 0.90625 1.421875l0.15625 0l0 -8.75l4.6875 0l0 23.28125l-4.609375 0l0 -2.796875l-0.234375 0q-0.3125 0.703125 -0.9375 1.421875q-0.609375 0.703125 -1.59375 1.1875q-0.984375 0.484375 -2.421875 0.484375zm1.453125 -3.765625q1.1875 0 2.03125 -0.65625q0.84375 -0.65625 1.28125 -1.828125q0.4375 -1.1875 0.4375 -2.765625q0 -1.59375 -0.4375 -2.75q-0.421875 -1.171875 -1.265625 -1.8125q-0.84375 -0.65625 -2.046875 -0.65625q-1.234375 0 -2.078125 0.671875q-0.828125 0.671875 -1.25 1.84375q-0.421875 1.171875 -0.421875 2.703125q0 1.53125 0.421875 2.71875q0.4375 1.1875 1.265625 1.859375q0.84375 0.671875 2.0625 0.671875zm20.15625 3.8125q-2.625 0 -4.546875 -1.125q-1.921875 -1.140625 -2.96875 -3.15625q-1.03125 -2.03125 -1.03125 -4.71875q0 -2.71875 1.03125 -4.734375q1.046875 -2.03125 2.96875 -3.15625q1.921875 -1.140625 4.546875 -1.140625q2.640625 0 4.546875 1.140625q1.921875 1.125 2.953125 3.15625q1.046875 2.015625 1.046875 4.734375q0 2.6875 -1.046875 4.71875q-1.03125 2.015625 -2.953125 3.15625q-1.90625 1.125 -4.546875 1.125zm0 -3.6875q1.25 0 2.09375 -0.6875q0.84375 -0.703125 1.265625 -1.90625q0.421875 -1.21875 0.421875 -2.734375q0 -1.546875 -0.421875 -2.75q-0.421875 -1.203125 -1.265625 -1.890625q-0.84375 -0.6875 -2.09375 -0.6875q-1.25 0 -2.09375 0.6875q-0.828125 0.6875 -1.25 1.890625q-0.421875 1.203125 -0.421875 2.75q0 1.515625 0.421875 2.734375q0.421875 1.203125 1.25 1.90625q0.84375 0.6875 2.09375 0.6875zm28.0625 -14.125l0 3.578125l-10.359375 0l0 -3.578125l10.359375 0zm-7.953125 -4.15625l4.6875 0l0 16.515625q0 0.828125 0.359375 1.234375q0.375 0.390625 1.234375 0.390625q0.265625 0 0.75 -0.0625q0.484375 -0.078125 0.734375 -0.140625l0.671875 3.515625q-0.78125 0.234375 -1.5625 0.328125q-0.765625 0.09375 -1.46875 0.09375q-2.625 0 -4.015625 -1.28125q-1.390625 -1.28125 -1.390625 -3.671875l0 -16.921875zm15.765625 11.515625l0 10.109375l-4.6875 0l0 -23.28125l4.59375 0l0 10.171875l-0.375 0q0.6875 -2.1875 2.078125 -3.375q1.40625 -1.203125 3.625 -1.203125q1.8125 0 3.15625 0.796875q1.359375 0.78125 2.109375 2.265625q0.75 1.46875 0.75 3.515625l0 11.109375l-4.703125 0l0 -10.296875q0 -1.625 -0.84375 -2.546875q-0.828125 -0.921875 -2.3125 -0.921875q-0.984375 0 -1.765625 0.4375q-0.765625 0.421875 -1.203125 1.234375q-0.421875 0.8125 -0.421875 1.984375zm23.125 10.453125q-2.671875 0 -4.609375 -1.09375q-1.9375 -1.09375 -2.984375 -3.109375q-1.03125 -2.015625 -1.03125 -4.78125q0 -2.703125 1.03125 -4.734375q1.03125 -2.03125 2.921875 -3.171875q1.890625 -1.140625 4.4375 -1.140625q1.71875 0 3.203125 0.546875q1.484375 0.546875 2.609375 1.65625q1.125 1.09375 1.75 2.75q0.640625 1.65625 0.640625 3.90625l0 1.3125l-14.671875 0l0 -2.9375l12.375 0l-2.1875 0.78125q0 -1.359375 -0.421875 -2.359375q-0.40625 -1.015625 -1.234375 -1.5625q-0.8125 -0.5625 -2.015625 -0.5625q-1.21875 0 -2.078125 0.5625q-0.84375 0.5625 -1.28125 1.53125q-0.4375 0.953125 -0.4375 2.1875l0 2.078125q0 1.515625 0.5 2.546875q0.515625 1.03125 1.421875 1.546875q0.921875 0.515625 2.140625 0.515625q0.828125 0 1.5 -0.234375q0.671875 -0.234375 1.140625 -0.6875q0.484375 -0.46875 0.734375 -1.140625l4.25 0.796875q-0.421875 1.4375 -1.46875 2.53125q-1.046875 1.078125 -2.625 1.671875q-1.5625 0.59375 -3.609375 0.59375zm11.171875 -0.34375l0 -17.46875l4.6875 0l0 17.46875l-4.6875 0zm2.34375 -19.75q-1.0625 0 -1.8125 -0.703125q-0.75 -0.703125 -0.75 -1.703125q0 -1.0 0.75 -1.703125q0.75 -0.703125 1.8125 -0.703125q1.0625 0 1.8125 0.703125q0.765625 0.6875 0.765625 1.703125q0 1.0 -0.765625 1.703125q-0.75 0.703125 -1.8125 0.703125zm6.328125 19.75l0 -17.46875l4.53125 0l0 3.046875l0.1875 0q0.484375 -1.625 1.609375 -2.453125q1.140625 -0.828125 2.609375 -0.828125q0.359375 0 0.78125 0.046875q0.421875 0.03125 0.734375 0.109375l0 4.1875q-0.3125 -0.109375 -0.90625 -0.171875q-0.59375 -0.0625 -1.125 -0.0625q-1.0625 0 -1.921875 0.46875q-0.859375 0.453125 -1.34375 1.28125q-0.46875 0.8125 -0.46875 1.90625l0 9.9375l-4.6875 0zm30.390625 0.296875q-1.421875 0 -2.40625 -0.484375q-0.984375 -0.484375 -1.609375 -1.1875q-0.609375 -0.71875 -0.9375 -1.421875l-0.21875 0l0 2.796875l-4.609375 0l0 -23.28125l4.6875 0l0 8.75l0.140625 0q0.328125 -0.6875 0.921875 -1.421875q0.609375 -0.734375 1.59375 -1.234375q0.984375 -0.5 2.46875 -0.5q1.9375 0 3.546875 1.0q1.609375 1.0 2.5625 3.0q0.96875 2.0 0.96875 4.984375q0 2.90625 -0.9375 4.921875q-0.9375 2.0 -2.546875 3.046875q-1.609375 1.03125 -3.625 1.03125zm-1.4375 -3.765625q1.21875 0 2.046875 -0.671875q0.84375 -0.671875 1.265625 -1.859375q0.4375 -1.1875 0.4375 -2.71875q0 -1.53125 -0.4375 -2.703125q-0.421875 -1.171875 -1.25 -1.84375q-0.828125 -0.671875 -2.0625 -0.671875q-1.203125 0 -2.046875 0.65625q-0.84375 0.640625 -1.28125 1.8125q-0.4375 1.15625 -0.4375 2.75q0 1.578125 0.4375 2.765625q0.453125 1.171875 1.296875 1.828125q0.84375 0.65625 2.03125 0.65625zm19.71875 3.8125q-2.671875 0 -4.609375 -1.09375q-1.9375 -1.09375 -2.984375 -3.109375q-1.03125 -2.015625 -1.03125 -4.78125q0 -2.703125 1.03125 -4.734375q1.03125 -2.03125 2.921875 -3.171875q1.890625 -1.140625 4.4375 -1.140625q1.71875 0 3.203125 0.546875q1.484375 0.546875 2.609375 1.65625q1.125 1.09375 1.75 2.75q0.640625 1.65625 0.640625 3.90625l0 1.3125l-14.671875 0l0 -2.9375l12.375 0l-2.1875 0.78125q0 -1.359375 -0.421875 -2.359375q-0.40625 -1.015625 -1.234375 -1.5625q-0.8125 -0.5625 -2.015625 -0.5625q-1.21875 0 -2.078125 0.5625q-0.84375 0.5625 -1.28125 1.53125q-0.4375 0.953125 -0.4375 2.1875l0 2.078125q0 1.515625 0.5 2.546875q0.515625 1.03125 1.421875 1.546875q0.921875 0.515625 2.140625 0.515625q0.828125 0 1.5 -0.234375q0.671875 -0.234375 1.140625 -0.6875q0.484375 -0.46875 0.734375 -1.140625l4.25 0.796875q-0.421875 1.4375 -1.46875 2.53125q-1.046875 1.078125 -2.625 1.671875q-1.5625 0.59375 -3.609375 0.59375zm18.109375 0q-2.109375 0 -3.734375 -0.59375q-1.625 -0.609375 -2.65625 -1.75q-1.03125 -1.15625 -1.328125 -2.78125l4.359375 -0.75q0.34375 1.21875 1.203125 1.828125q0.859375 0.609375 2.296875 0.609375q1.34375 0 2.109375 -0.5q0.78125 -0.515625 0.78125 -1.296875q0 -0.6875 -0.5625 -1.125q-0.546875 -0.4375 -1.6875 -0.671875l-3.015625 -0.625q-2.53125 -0.515625 -3.78125 -1.75q-1.25 -1.25 -1.25 -3.203125q0 -1.6875 0.921875 -2.890625q0.921875 -1.21875 2.5625 -1.875q1.640625 -0.65625 3.859375 -0.65625q2.0625 0 3.578125 0.578125q1.515625 0.5625 2.453125 1.609375q0.9375 1.046875 1.25 2.46875l-4.15625 0.734375q-0.265625 -0.890625 -1.03125 -1.453125q-0.75 -0.578125 -2.03125 -0.578125q-1.15625 0 -1.9375 0.484375q-0.78125 0.484375 -0.78125 1.296875q0 0.65625 0.5 1.109375q0.515625 0.453125 1.75 0.703125l3.140625 0.625q2.53125 0.515625 3.765625 1.6875q1.234375 1.15625 1.234375 3.03125q0 1.71875 -1.0 3.015625q-1.0 1.28125 -2.765625 2.0q-1.75 0.71875 -4.046875 0.71875zm19.65625 -17.8125l0 3.578125l-10.359375 0l0 -3.578125l10.359375 0zm-7.953125 -4.15625l4.6875 0l0 16.515625q0 0.828125 0.359375 1.234375q0.375 0.390625 1.234375 0.390625q0.265625 0 0.75 -0.0625q0.484375 -0.078125 0.734375 -0.140625l0.671875 3.515625q-0.78125 0.234375 -1.5625 0.328125q-0.765625 0.09375 -1.46875 0.09375q-2.625 0 -4.015625 -1.28125q-1.390625 -1.28125 -1.390625 -3.671875l0 -16.921875zm22.21875 21.625l-5.15625 -17.46875l4.921875 0l1.515625 6.453125q0.390625 1.734375 0.84375 3.78125q0.453125 2.03125 0.828125 4.5l-0.53125 0q0.40625 -2.40625 0.890625 -4.453125q0.484375 -2.0625 0.90625 -3.828125l1.59375 -6.453125l4.3125 0l1.5625 6.453125q0.390625 1.765625 0.875 3.8125q0.484375 2.03125 0.90625 4.46875l-0.53125 0q0.375 -2.421875 0.796875 -4.453125q0.4375 -2.046875 0.84375 -3.828125l1.515625 -6.453125l4.984375 0l-5.1875 17.46875l-4.765625 0l-1.9375 -6.734375q-0.28125 -1.015625 -0.5625 -2.234375q-0.28125 -1.234375 -0.546875 -2.5q-0.265625 -1.28125 -0.546875 -2.390625l0.828125 0q-0.265625 1.109375 -0.546875 2.390625q-0.265625 1.265625 -0.546875 2.5q-0.28125 1.234375 -0.5625 2.234375l-1.9375 6.734375l-4.765625 0zm30.9375 0.34375q-2.625 0 -4.546875 -1.125q-1.921875 -1.140625 -2.96875 -3.15625q-1.03125 -2.03125 -1.03125 -4.71875q0 -2.71875 1.03125 -4.734375q1.046875 -2.03125 2.96875 -3.15625q1.921875 -1.140625 4.546875 -1.140625q2.640625 0 4.546875 1.140625q1.921875 1.125 2.953125 3.15625q1.046875 2.015625 1.046875 4.734375q0 2.6875 -1.046875 4.71875q-1.03125 2.015625 -2.953125 3.15625q-1.90625 1.125 -4.546875 1.125zm0 -3.6875q1.25 0 2.09375 -0.6875q0.84375 -0.703125 1.265625 -1.90625q0.421875 -1.21875 0.421875 -2.734375q0 -1.546875 -0.421875 -2.75q-0.421875 -1.203125 -1.265625 -1.890625q-0.84375 -0.6875 -2.09375 -0.6875q-1.25 0 -2.09375 0.6875q-0.828125 0.6875 -1.25 1.890625q-0.421875 1.203125 -0.421875 2.75q0 1.515625 0.421875 2.734375q0.421875 1.203125 1.25 1.90625q0.84375 0.6875 2.09375 0.6875zm11.8125 3.34375l0 -17.46875l4.53125 0l0 3.046875l0.1875 0q0.484375 -1.625 1.609375 -2.453125q1.140625 -0.828125 2.609375 -0.828125q0.359375 0 0.78125 0.046875q0.421875 0.03125 0.734375 0.109375l0 4.1875q-0.3125 -0.109375 -0.90625 -0.171875q-0.59375 -0.0625 -1.125 -0.0625q-1.0625 0 -1.921875 0.46875q-0.859375 0.453125 -1.34375 1.28125q-0.46875 0.8125 -0.46875 1.90625l0 9.9375l-4.6875 0zm17.78125 -5.109375l0 -5.640625l0.703125 0l5.71875 -6.71875l5.421875 0l-7.546875 8.765625l-1.109375 0l-3.1875 3.59375zm-4.25 5.109375l0 -23.28125l4.6875 0l0 23.28125l-4.6875 0zm10.90625 0l-5.25 -7.65625l3.140625 -3.328125l7.625 10.984375l-5.515625 0zm11.0 0.296875q-1.140625 0 -1.921875 -0.765625q-0.78125 -0.78125 -0.78125 -1.921875q0 -1.140625 0.78125 -1.90625q0.78125 -0.78125 1.921875 -0.78125q1.140625 0 1.921875 0.78125q0.78125 0.765625 0.78125 1.90625q0 1.140625 -0.78125 1.921875q-0.78125 0.765625 -1.921875 0.765625z" fill-rule="nonzero"/></g></svg>