<svg version="1.1" viewBox="0.0 0.0 960.0 540.0" fill="none" stroke="none" stroke-linecap="square" stroke-miterlimit="10" xmlns:xlink="http://www.w3.org/1999/xlink" xmlns="http://www.w3.org/2000/svg"><clipPath id="g127d4a68445_0_234.0"><path d="m0 0l960.0 0l0 540.0l-960.0 0l0 -540.0z" clip-rule="nonzero"/></clipPath><g clip-path="url(#g127d4a68445_0_234.0)"><path fill="#000000" d="m0 0l960.0 0l0 540.0l-960.0 0z" fill-rule="evenodd"/><path fill="#000000" fill-opacity="0.0" d="m48.001434 228.41208l551.3701 0l0 89.19684l-551.3701 0z" fill-rule="evenodd"/><path fill="#ffffff" d="m52.220184 283.70807l0 -46.5625l30.625 0l0 7.90625l-21.09375 0l0 13.0l19.03125 0l0 7.78125l-19.03125 0l0 17.875l-9.53125 0zm51.28125 0.6875q-5.34375 0 -9.21875 -2.1875q-3.875 -2.1875 -5.953125 -6.21875q-2.078125 -4.03125 -2.078125 -9.5625q0 -5.40625 2.0625 -9.46875q2.0625 -4.0625 5.84375 -6.34375q3.78125 -2.28125 8.875 -2.28125q3.4375 0 6.40625 1.09375q2.96875 1.09375 5.21875 3.296875q2.25 2.203125 3.515625 5.515625q1.265625 3.3125 1.265625 7.8125l0 2.625l-29.34375 0l0 -5.875l24.75 0l-4.375 1.5625q0 -2.71875 -0.828125 -4.734375q-0.828125 -2.015625 -2.46875 -3.125q-1.640625 -1.109375 -4.046875 -1.109375q-2.4375 0 -4.140625 1.125q-1.703125 1.125 -2.578125 3.046875q-0.875 1.921875 -0.875 4.390625l0 4.15625q0 3.03125 1.015625 5.09375q1.015625 2.0625 2.84375 3.09375q1.828125 1.03125 4.265625 1.03125q1.65625 0 3.0 -0.46875q1.34375 -0.46875 2.296875 -1.390625q0.953125 -0.921875 1.453125 -2.265625l8.5 1.59375q-0.84375 2.875 -2.9375 5.046875q-2.09375 2.171875 -5.234375 3.359375q-3.140625 1.1875 -7.234375 1.1875zm32.71875 0q-3.3125 0 -5.953125 -1.171875q-2.640625 -1.171875 -4.15625 -3.5q-1.515625 -2.328125 -1.515625 -5.796875q0 -2.90625 1.078125 -4.875q1.078125 -1.96875 2.9375 -3.15625q1.859375 -1.1875 4.21875 -1.8125q2.359375 -0.625 4.953125 -0.875q3.03125 -0.3125 4.890625 -0.578125q1.859375 -0.265625 2.71875 -0.84375q0.859375 -0.578125 0.859375 -1.703125l0 -0.15625q0 -1.5 -0.625 -2.53125q-0.625 -1.03125 -1.859375 -1.578125q-1.234375 -0.546875 -2.984375 -0.546875q-1.8125 0 -3.15625 0.546875q-1.34375 0.546875 -2.1875 1.453125q-0.84375 0.90625 -1.25 2.03125l-8.59375 -1.40625q0.90625 -3.0625 3.0 -5.1875q2.09375 -2.125 5.203125 -3.25q3.109375 -1.125 7.015625 -1.125q2.8125 0 5.46875 0.671875q2.65625 0.671875 4.765625 2.078125q2.109375 1.40625 3.34375 3.671875q1.234375 2.265625 1.234375 5.421875l0 23.53125l-8.875 0l0 -4.84375l-0.3125 0q-0.84375 1.625 -2.25 2.859375q-1.40625 1.234375 -3.390625 1.953125q-1.984375 0.71875 -4.578125 0.71875zm2.65625 -6.59375q2.21875 0 3.890625 -0.875q1.671875 -0.875 2.609375 -2.375q0.9375 -1.5 0.9375 -3.34375l0 -3.78125q-0.40625 0.3125 -1.25 0.5625q-0.84375 0.25 -1.875 0.4375q-1.03125 0.1875 -2.03125 0.34375q-1.0 0.15625 -1.78125 0.25q-1.71875 0.25 -3.03125 0.8125q-1.3125 0.5625 -2.03125 1.484375q-0.71875 0.921875 -0.71875 2.359375q0 1.34375 0.6875 2.265625q0.6875 0.921875 1.875 1.390625q1.1875 0.46875 2.71875 0.46875zm42.09375 -29.03125l0 7.15625l-20.71875 0l0 -7.15625l20.71875 0zm-15.90625 -8.3125l9.375 0l0 33.03125q0 1.65625 0.734375 2.453125q0.734375 0.796875 2.453125 0.796875q0.53125 0 1.5 -0.140625q0.96875 -0.140625 1.46875 -0.265625l1.34375 7.03125q-1.5625 0.46875 -3.109375 0.65625q-1.546875 0.1875 -2.953125 0.1875q-5.25 0 -8.03125 -2.5625q-2.78125 -2.5625 -2.78125 -7.34375l0 -33.84375zm34.03125 43.6875q-3.625 0 -6.34375 -1.578125q-2.71875 -1.578125 -4.203125 -4.53125q-1.484375 -2.953125 -1.484375 -7.046875l0 -22.21875l9.375 0l0 20.59375q0 3.25 1.6875 5.09375q1.6875 1.84375 4.625 1.84375q2.0 0 3.53125 -0.859375q1.53125 -0.859375 2.390625 -2.5q0.859375 -1.640625 0.859375 -3.953125l0 -20.21875l9.40625 0l0 34.9375l-8.875 0l-0.125 -8.71875l0.53125 0q-1.375 4.40625 -4.203125 6.78125q-2.828125 2.375 -7.171875 2.375zm27.8125 -0.4375l0 -34.9375l9.0625 0l0 6.09375l0.375 0q0.96875 -3.25 3.234375 -4.90625q2.265625 -1.65625 5.203125 -1.65625q0.71875 0 1.5625 0.078125q0.84375 0.078125 1.46875 0.234375l0 8.375q-0.625 -0.21875 -1.8125 -0.34375q-1.1875 -0.125 -2.25 -0.125q-2.125 0 -3.84375 0.921875q-1.71875 0.921875 -2.671875 2.5625q-0.953125 1.640625 -0.953125 3.828125l0 19.875l-9.375 0zm40.28125 0.6875q-5.34375 0 -9.21875 -2.1875q-3.875 -2.1875 -5.953125 -6.21875q-2.078125 -4.03125 -2.078125 -9.5625q0 -5.40625 2.0625 -9.46875q2.0625 -4.0625 5.84375 -6.34375q3.78125 -2.28125 8.875 -2.28125q3.4375 0 6.40625 1.09375q2.96875 1.09375 5.21875 3.296875q2.25 2.203125 3.515625 5.515625q1.265625 3.3125 1.265625 7.8125l0 2.625l-29.34375 0l0 -5.875l24.75 0l-4.375 1.5625q0 -2.71875 -0.828125 -4.734375q-0.828125 -2.015625 -2.46875 -3.125q-1.640625 -1.109375 -4.046875 -1.109375q-2.4375 0 -4.140625 1.125q-1.703125 1.125 -2.578125 3.046875q-0.875 1.921875 -0.875 4.390625l0 4.15625q0 3.03125 1.015625 5.09375q1.015625 2.0625 2.84375 3.09375q1.828125 1.03125 4.265625 1.03125q1.65625 0 3.0 -0.46875q1.34375 -0.46875 2.296875 -1.390625q0.953125 -0.921875 1.453125 -2.265625l8.5 1.59375q-0.84375 2.875 -2.9375 5.046875q-2.09375 2.171875 -5.234375 3.359375q-3.140625 1.1875 -7.234375 1.1875zm51.375 0q-4.21875 0 -7.46875 -1.203125q-3.25 -1.203125 -5.3125 -3.5q-2.0625 -2.296875 -2.65625 -5.546875l8.71875 -1.5q0.6875 2.4375 2.40625 3.65625q1.71875 1.21875 4.59375 1.21875q2.6875 0 4.234375 -1.015625q1.546875 -1.015625 1.546875 -2.578125q0 -1.375 -1.109375 -2.25q-1.109375 -0.875 -3.390625 -1.34375l-6.03125 -1.25q-5.0625 -1.03125 -7.5625 -3.515625q-2.5 -2.484375 -2.5 -6.390625q0 -3.375 1.84375 -5.796875q1.84375 -2.421875 5.125 -3.734375q3.28125 -1.3125 7.71875 -1.3125q4.125 0 7.15625 1.140625q3.03125 1.140625 4.90625 3.234375q1.875 2.09375 2.5 4.9375l-8.3125 1.46875q-0.53125 -1.78125 -2.046875 -2.921875q-1.515625 -1.140625 -4.078125 -1.140625q-2.3125 0 -3.875 0.96875q-1.5625 0.96875 -1.5625 2.59375q0 1.3125 1.015625 2.21875q1.015625 0.90625 3.484375 1.40625l6.28125 1.25q5.0625 1.03125 7.53125 3.359375q2.46875 2.328125 2.46875 6.078125q0 3.4375 -2.0 6.015625q-2.0 2.578125 -5.515625 4.015625q-3.515625 1.4375 -8.109375 1.4375zm39.3125 -35.625l0 7.15625l-20.71875 0l0 -7.15625l20.71875 0zm-15.90625 -8.3125l9.375 0l0 33.03125q0 1.65625 0.734375 2.453125q0.734375 0.796875 2.453125 0.796875q0.53125 0 1.5 -0.140625q0.96875 -0.140625 1.46875 -0.265625l1.34375 7.03125q-1.5625 0.46875 -3.109375 0.65625q-1.546875 0.1875 -2.953125 0.1875q-5.25 0 -8.03125 -2.5625q-2.78125 -2.5625 -2.78125 -7.34375l0 -33.84375zm37.0 43.9375q-5.25 0 -9.09375 -2.265625q-3.84375 -2.265625 -5.921875 -6.3125q-2.078125 -4.046875 -2.078125 -9.421875q0 -5.4375 2.078125 -9.484375q2.078125 -4.046875 5.921875 -6.3125q3.84375 -2.265625 9.09375 -2.265625q5.28125 0 9.109375 2.265625q3.828125 2.265625 5.90625 6.3125q2.078125 4.046875 2.078125 9.484375q0 5.375 -2.078125 9.421875q-2.078125 4.046875 -5.90625 6.3125q-3.828125 2.265625 -9.109375 2.265625zm0 -7.375q2.5 0 4.1875 -1.390625q1.6875 -1.390625 2.53125 -3.8125q0.84375 -2.421875 0.84375 -5.453125q0 -3.09375 -0.84375 -5.5q-0.84375 -2.40625 -2.53125 -3.78125q-1.6875 -1.375 -4.1875 -1.375q-2.5 0 -4.171875 1.375q-1.671875 1.375 -2.515625 3.78125q-0.84375 2.40625 -0.84375 5.5q0 3.03125 0.84375 5.453125q0.84375 2.421875 2.515625 3.8125q1.671875 1.390625 4.171875 1.390625zm23.625 6.6875l0 -34.9375l9.0625 0l0 6.09375l0.375 0q0.96875 -3.25 3.234375 -4.90625q2.265625 -1.65625 5.203125 -1.65625q0.71875 0 1.5625 0.078125q0.84375 0.078125 1.46875 0.234375l0 8.375q-0.625 -0.21875 -1.8125 -0.34375q-1.1875 -0.125 -2.25 -0.125q-2.125 0 -3.84375 0.921875q-1.71875 0.921875 -2.671875 2.5625q-0.953125 1.640625 -0.953125 3.828125l0 19.875l-9.375 0zm26.8125 12.375l2.15625 -7.0625l1.15625 0.28125q1.875 0.5 3.34375 0.28125q1.46875 -0.21875 2.359375 -1.1875q0.890625 -0.96875 1.078125 -2.71875l0.25 -1.875l-13.125 -35.03125l9.96875 0l5.875 18.125q1.0625 3.4375 1.734375 6.875q0.671875 3.4375 1.546875 7.1875l-2.1875 0q0.84375 -3.75 1.6875 -7.203125q0.84375 -3.453125 1.96875 -6.859375l6.125 -18.125l9.84375 0l-14.84375 39.0625q-1.0625 2.8125 -2.71875 4.875q-1.65625 2.0625 -4.125 3.1875q-2.46875 1.125 -5.96875 1.125q-1.875 0 -3.5 -0.265625q-1.625 -0.265625 -2.625 -0.671875z" fill-rule="nonzero"/><path fill="#000000" fill-opacity="0.0" d="m48.0 201.6l240.50394 0l0 25.858261l-240.50394 0z" fill-rule="evenodd"/><path fill="#adadad" d="m55.3125 214.085q0 0.46875 -0.203125 0.8125q-0.203125 0.328125 -0.515625 0.546875q-0.328125 0.234375 -0.734375 0.34375q-0.40625 0.09375 -0.828125 0.09375q-0.53125 0 -0.984375 -0.140625q-0.453125 -0.140625 -0.796875 -0.4375q-0.34375 -0.28125 -0.5625 -0.6875q-0.21875 -0.40625 -0.28125 -0.9375l-1.484375 0q0.03125 0.734375 0.328125 1.328125q0.296875 0.59375 0.8125 1.046875q0.578125 0.515625 1.359375 0.796875q0.796875 0.265625 1.609375 0.265625q0.671875 0 1.34375 -0.1875q0.6875 -0.203125 1.234375 -0.578125q0.53125 -0.375 0.875 -0.9375q0.34375 -0.578125 0.34375 -1.34375q0 -0.765625 -0.328125 -1.34375q-0.3125 -0.578125 -0.828125 -0.96875q-0.515625 -0.4375 -1.15625 -0.703125q-0.625 -0.28125 -1.265625 -0.484375q-0.375 -0.109375 -0.8125 -0.265625q-0.4375 -0.15625 -0.796875 -0.390625q-0.375 -0.234375 -0.625 -0.578125q-0.234375 -0.34375 -0.25 -0.828125q0 -0.453125 0.1875 -0.796875q0.1875 -0.34375 0.5 -0.578125q0.296875 -0.234375 0.6875 -0.34375q0.40625 -0.125 0.8125 -0.125q0.515625 0 0.921875 0.15625q0.421875 0.15625 0.71875 0.453125q0.296875 0.28125 0.46875 0.6875q0.1875 0.40625 0.25 0.890625l1.484375 0q-0.015625 -0.78125 -0.34375 -1.40625q-0.3125 -0.640625 -0.84375 -1.078125q-0.53125 -0.453125 -1.21875 -0.6875q-0.6875 -0.25 -1.4375 -0.25q-0.671875 0 -1.34375 0.203125q-0.65625 0.203125 -1.171875 0.609375q-0.53125 0.390625 -0.859375 0.96875q-0.3125 0.578125 -0.3125 1.3125q0 0.734375 0.3125 1.28125q0.328125 0.546875 0.84375 0.9375q0.515625 0.390625 1.125 0.671875q0.625 0.28125 1.234375 0.46875q0.40625 0.140625 0.859375 0.3125q0.453125 0.15625 0.828125 0.390625q0.375 0.25 0.609375 0.609375q0.234375 0.359375 0.234375 0.890625zm9.2265625 2.875l1.3125 0l0 -8.453125l-1.453125 0l0 6.0625q-0.125 0.265625 -0.296875 0.5q-0.171875 0.234375 -0.40625 0.390625q-0.28125 0.203125 -0.671875 0.328125q-0.375 0.109375 -0.859375 0.109375q-0.421875 0 -0.734375 -0.109375q-0.3125 -0.109375 -0.53125 -0.390625q-0.21875 -0.265625 -0.328125 -0.71875q-0.109375 -0.453125 -0.109375 -1.140625l0 -5.03125l-1.453125 0l0 5.015625q0 0.953125 0.203125 1.625q0.21875 0.671875 0.59375 1.109375q0.390625 0.4375 0.921875 0.65625q0.546875 0.203125 1.203125 0.203125q0.828125 0 1.453125 -0.34375q0.640625 -0.359375 1.0625 -0.984375l0.09375 1.171875zm4.0234375 3.25l1.4375 0l0 -4.0625q0.15625 0.171875 0.328125 0.3125q0.1875 0.140625 0.390625 0.265625q0.34375 0.1875 0.75 0.28125q0.421875 0.109375 0.90625 0.109375q0.796875 0 1.421875 -0.328125q0.625 -0.328125 1.046875 -0.90625q0.421875 -0.578125 0.640625 -1.359375q0.21875 -0.796875 0.21875 -1.703125l0 -0.15625q0 -0.953125 -0.21875 -1.734375q-0.21875 -0.796875 -0.640625 -1.375q-0.421875 -0.5625 -1.046875 -0.875q-0.625 -0.328125 -1.4375 -0.328125q-0.46875 0 -0.875 0.09375q-0.390625 0.09375 -0.71875 0.28125q-0.234375 0.125 -0.4375 0.3125q-0.203125 0.171875 -0.375 0.390625l-0.078125 -0.921875l-1.3125 0l0 11.703125zm5.6875 -7.546875l0 0.15625q0 0.625 -0.140625 1.1875q-0.125 0.5625 -0.40625 0.984375q-0.28125 0.4375 -0.71875 0.6875q-0.4375 0.25 -1.046875 0.25q-0.375 0 -0.6875 -0.09375q-0.296875 -0.09375 -0.546875 -0.25q-0.21875 -0.140625 -0.390625 -0.34375q-0.171875 -0.203125 -0.3125 -0.4375l0 -4.078125q0.15625 -0.265625 0.34375 -0.484375q0.203125 -0.21875 0.453125 -0.359375q0.21875 -0.15625 0.5 -0.234375q0.296875 -0.078125 0.625 -0.078125q0.609375 0 1.046875 0.25q0.4375 0.25 0.734375 0.671875q0.28125 0.4375 0.40625 1.0q0.140625 0.546875 0.140625 1.171875zm3.9140625 7.546875l1.4375 0l0 -4.0625q0.15625 0.171875 0.328125 0.3125q0.1875 0.140625 0.390625 0.265625q0.34375 0.1875 0.75 0.28125q0.421875 0.109375 0.90625 0.109375q0.796875 0 1.421875 -0.328125q0.625 -0.328125 1.046875 -0.90625q0.421875 -0.578125 0.640625 -1.359375q0.21875 -0.796875 0.21875 -1.703125l0 -0.15625q0 -0.953125 -0.21875 -1.734375q-0.21875 -0.796875 -0.640625 -1.375q-0.421875 -0.5625 -1.046875 -0.875q-0.625 -0.328125 -1.4375 -0.328125q-0.46875 0 -0.875 0.09375q-0.390625 0.09375 -0.71875 0.28125q-0.234375 0.125 -0.4375 0.3125q-0.203125 0.171875 -0.375 0.390625l-0.078125 -0.921875l-1.3125 0l0 11.703125zm5.6875 -7.546875l0 0.15625q0 0.625 -0.140625 1.1875q-0.125 0.5625 -0.40625 0.984375q-0.28125 0.4375 -0.71875 0.6875q-0.4375 0.25 -1.046875 0.25q-0.375 0 -0.6875 -0.09375q-0.296875 -0.09375 -0.546875 -0.25q-0.21875 -0.140625 -0.390625 -0.34375q-0.171875 -0.203125 -0.3125 -0.4375l0 -4.078125q0.15625 -0.265625 0.34375 -0.484375q0.203125 -0.21875 0.453125 -0.359375q0.21875 -0.15625 0.5 -0.234375q0.296875 -0.078125 0.625 -0.078125q0.609375 0 1.046875 0.25q0.4375 0.25 0.734375 0.671875q0.28125 0.4375 0.40625 1.0q0.140625 0.546875 0.140625 1.171875zm3.5078125 -0.015625l0 0.171875q0 0.921875 0.265625 1.703125q0.265625 0.78125 0.765625 1.359375q0.5 0.578125 1.203125 0.90625q0.71875 0.328125 1.625 0.328125q0.890625 0 1.59375 -0.328125q0.71875 -0.328125 1.21875 -0.90625q0.484375 -0.578125 0.75 -1.359375q0.265625 -0.78125 0.265625 -1.703125l0 -0.171875q0 -0.90625 -0.265625 -1.6875q-0.265625 -0.796875 -0.75 -1.375q-0.5 -0.578125 -1.21875 -0.90625q-0.71875 -0.328125 -1.609375 -0.328125q-0.890625 0 -1.609375 0.328125q-0.703125 0.328125 -1.203125 0.90625q-0.5 0.578125 -0.765625 1.375q-0.265625 0.78125 -0.265625 1.6875zm1.453125 0.171875l0 -0.171875q0 -0.609375 0.140625 -1.171875q0.15625 -0.578125 0.453125 -1.0q0.296875 -0.4375 0.734375 -0.6875q0.453125 -0.25 1.0625 -0.25q0.59375 0 1.046875 0.25q0.453125 0.25 0.75 0.6875q0.296875 0.421875 0.453125 1.0q0.15625 0.5625 0.15625 1.171875l0 0.171875q0 0.625 -0.15625 1.203125q-0.140625 0.5625 -0.4375 0.984375q-0.3125 0.4375 -0.765625 0.6875q-0.4375 0.25 -1.03125 0.25q-0.609375 0 -1.0625 -0.25q-0.453125 -0.25 -0.75 -0.6875q-0.296875 -0.421875 -0.453125 -0.984375q-0.140625 -0.578125 -0.140625 -1.203125zm14.1015625 -4.46875q-0.921875 0 -1.65625 0.40625q-0.71875 0.390625 -1.234375 1.09375l0 -0.21875l-0.0625 -1.125l-1.375 0l0 8.453125l1.453125 0l0 -5.421875q0.140625 -0.390625 0.34375 -0.703125q0.21875 -0.328125 0.515625 -0.546875q0.3125 -0.25 0.734375 -0.375q0.4375 -0.125 0.96875 -0.125q0.421875 0 0.796875 0.046875q0.375 0.03125 0.796875 0.125l0.203125 -1.40625q-0.21875 -0.09375 -0.65625 -0.140625q-0.4375 -0.0625 -0.828125 -0.0625zm7.4765625 -1.890625l-1.453125 0l0 2.046875l-2.21875 0l0 1.109375l2.21875 0l0 4.59375q0 0.78125 0.203125 1.34375q0.21875 0.546875 0.578125 0.890625q0.359375 0.34375 0.84375 0.515625q0.484375 0.15625 1.046875 0.15625q0.34375 0 0.671875 -0.03125q0.34375 -0.03125 0.65625 -0.09375q0.296875 -0.0625 0.546875 -0.140625q0.265625 -0.078125 0.453125 -0.1875l-0.203125 -1.03125q-0.140625 0.03125 -0.34375 0.078125q-0.203125 0.046875 -0.4375 0.078125q-0.25 0.046875 -0.5 0.078125q-0.25 0.015625 -0.484375 0.015625q-0.3125 0 -0.609375 -0.078125q-0.28125 -0.078125 -0.5 -0.265625q-0.21875 -0.1875 -0.34375 -0.5q-0.125 -0.328125 -0.125 -0.828125l0 -4.59375l3.21875 0l0 -1.109375l-3.21875 0l0 -2.046875zm6.4140625 2.046875l0 1.25l2.875 0l0 5.953125l-2.875 0l0 1.25l7.078125 0l0 -1.25l-2.765625 0l0 -7.203125l-4.3125 0zm2.6875 -2.21875q0 0.34375 0.203125 0.578125q0.21875 0.234375 0.65625 0.234375q0.4375 0 0.65625 -0.234375q0.21875 -0.234375 0.21875 -0.578125q0 -0.203125 -0.0625 -0.359375q-0.0625 -0.171875 -0.1875 -0.28125q-0.109375 -0.09375 -0.265625 -0.15625q-0.15625 -0.0625 -0.359375 -0.0625q-0.203125 0 -0.359375 0.0625q-0.15625 0.0625 -0.265625 0.15625q-0.125 0.125 -0.1875 0.296875q-0.046875 0.15625 -0.046875 0.34375zm6.6796875 10.671875l1.453125 0l0 -6.0625q0.140625 -0.28125 0.34375 -0.5q0.203125 -0.234375 0.4375 -0.40625q0.28125 -0.1875 0.625 -0.296875q0.34375 -0.125 0.75 -0.125q0.453125 0 0.8125 0.109375q0.359375 0.109375 0.609375 0.359375q0.234375 0.234375 0.359375 0.625q0.125 0.390625 0.125 0.953125l0 5.34375l1.453125 0l0 -5.375q0 -0.84375 -0.21875 -1.453125q-0.203125 -0.609375 -0.578125 -1.015625q-0.390625 -0.390625 -0.9375 -0.578125q-0.53125 -0.1875 -1.203125 -0.1875q-0.484375 0 -0.9375 0.140625q-0.4375 0.140625 -0.8125 0.390625q-0.25 0.15625 -0.46875 0.390625q-0.21875 0.21875 -0.40625 0.484375l-0.109375 -1.25l-1.296875 0l0 8.453125zm9.3359375 -4.296875l0 0.15625q0 0.90625 0.234375 1.703125q0.234375 0.78125 0.671875 1.359375q0.4375 0.578125 1.0625 0.90625q0.625 0.328125 1.390625 0.328125q0.46875 0 0.859375 -0.109375q0.40625 -0.09375 0.734375 -0.265625q0.203125 -0.125 0.390625 -0.28125q0.1875 -0.15625 0.34375 -0.34375l0 0.734375q0 0.546875 -0.15625 0.96875q-0.15625 0.421875 -0.4375 0.703125q-0.296875 0.296875 -0.71875 0.4375q-0.40625 0.15625 -0.921875 0.15625q-0.296875 0 -0.59375 -0.0625q-0.28125 -0.0625 -0.5625 -0.1875q-0.296875 -0.140625 -0.578125 -0.359375q-0.28125 -0.21875 -0.546875 -0.546875l-0.75 0.875q0.296875 0.40625 0.6875 0.6875q0.40625 0.28125 0.84375 0.453125q0.4375 0.171875 0.859375 0.234375q0.421875 0.078125 0.75 0.078125q0.796875 0 1.453125 -0.234375q0.65625 -0.234375 1.125 -0.6875q0.46875 -0.453125 0.734375 -1.109375q0.265625 -0.640625 0.265625 -1.484375l0 -8.265625l-1.3125 0l-0.078125 0.921875q-0.140625 -0.1875 -0.3125 -0.34375q-0.171875 -0.15625 -0.359375 -0.28125q-0.34375 -0.21875 -0.765625 -0.328125q-0.421875 -0.125 -0.9375 -0.125q-0.78125 0 -1.40625 0.328125q-0.625 0.3125 -1.0625 0.875q-0.4375 0.578125 -0.671875 1.375q-0.234375 0.78125 -0.234375 1.734375zm1.453125 0.15625l0 -0.15625q0 -0.625 0.125 -1.171875q0.125 -0.5625 0.40625 -1.0q0.28125 -0.421875 0.703125 -0.671875q0.4375 -0.25 1.046875 -0.25q0.359375 0 0.65625 0.09375q0.296875 0.09375 0.546875 0.25q0.234375 0.15625 0.421875 0.375q0.1875 0.21875 0.328125 0.484375l0 3.875q-0.140625 0.28125 -0.328125 0.515625q-0.1875 0.21875 -0.421875 0.375q-0.234375 0.171875 -0.546875 0.265625q-0.296875 0.078125 -0.671875 0.078125q-0.59375 0 -1.03125 -0.234375q-0.421875 -0.25 -0.703125 -0.671875q-0.28125 -0.421875 -0.40625 -0.96875q-0.125 -0.5625 -0.125 -1.1875zm25.390625 0.71875l-1.453125 0q-0.0625 0.515625 -0.234375 0.953125q-0.171875 0.4375 -0.46875 0.765625q-0.28125 0.328125 -0.703125 0.515625q-0.421875 0.171875 -0.984375 0.171875q-0.53125 0 -0.921875 -0.171875q-0.390625 -0.171875 -0.671875 -0.46875q-0.296875 -0.28125 -0.484375 -0.65625q-0.1875 -0.390625 -0.296875 -0.828125q-0.125 -0.4375 -0.171875 -0.875q-0.046875 -0.453125 -0.046875 -0.875l0 -1.609375q0 -0.421875 0.046875 -0.859375q0.046875 -0.453125 0.171875 -0.890625q0.109375 -0.421875 0.296875 -0.796875q0.203125 -0.390625 0.484375 -0.6875q0.28125 -0.28125 0.671875 -0.453125q0.40625 -0.171875 0.921875 -0.171875q0.5625 0 0.984375 0.203125q0.421875 0.1875 0.703125 0.515625q0.296875 0.34375 0.46875 0.796875q0.171875 0.4375 0.234375 0.953125l1.453125 0q-0.09375 -0.8125 -0.390625 -1.484375q-0.296875 -0.671875 -0.78125 -1.15625q-0.484375 -0.484375 -1.15625 -0.734375q-0.671875 -0.265625 -1.515625 -0.265625q-0.71875 0 -1.296875 0.203125q-0.5625 0.1875 -1.0 0.546875q-0.453125 0.34375 -0.78125 0.828125q-0.328125 0.484375 -0.53125 1.046875q-0.21875 0.5625 -0.328125 1.1875q-0.109375 0.609375 -0.109375 1.234375l0 1.59375q0 0.625 0.109375 1.25q0.109375 0.609375 0.328125 1.171875q0.203125 0.5625 0.53125 1.046875q0.328125 0.46875 0.78125 0.828125q0.4375 0.34375 1.015625 0.546875q0.578125 0.203125 1.28125 0.203125q0.8125 0 1.484375 -0.265625q0.671875 -0.265625 1.15625 -0.734375q0.484375 -0.46875 0.78125 -1.125q0.3125 -0.671875 0.421875 -1.453125zm1.8203125 -0.890625l0 0.171875q0 0.921875 0.265625 1.703125q0.265625 0.78125 0.765625 1.359375q0.5 0.578125 1.203125 0.90625q0.71875 0.328125 1.625 0.328125q0.890625 0 1.59375 -0.328125q0.71875 -0.328125 1.21875 -0.90625q0.484375 -0.578125 0.75 -1.359375q0.265625 -0.78125 0.265625 -1.703125l0 -0.171875q0 -0.90625 -0.265625 -1.6875q-0.265625 -0.796875 -0.75 -1.375q-0.5 -0.578125 -1.21875 -0.90625q-0.71875 -0.328125 -1.609375 -0.328125q-0.890625 0 -1.609375 0.328125q-0.703125 0.328125 -1.203125 0.90625q-0.5 0.578125 -0.765625 1.375q-0.265625 0.78125 -0.265625 1.6875zm1.453125 0.171875l0 -0.171875q0 -0.609375 0.140625 -1.171875q0.15625 -0.578125 0.453125 -1.0q0.296875 -0.4375 0.734375 -0.6875q0.453125 -0.25 1.0625 -0.25q0.59375 0 1.046875 0.25q0.453125 0.25 0.75 0.6875q0.296875 0.421875 0.453125 1.0q0.15625 0.5625 0.15625 1.171875l0 0.171875q0 0.625 -0.15625 1.203125q-0.140625 0.5625 -0.4375 0.984375q-0.3125 0.4375 -0.765625 0.6875q-0.4375 0.25 -1.03125 0.25q-0.609375 0 -1.0625 -0.25q-0.453125 -0.25 -0.75 -0.6875q-0.296875 -0.421875 -0.453125 -0.984375q-0.140625 -0.578125 -0.140625 -1.203125zm8.5546875 7.390625l1.4375 0l0 -4.0625q0.15625 0.171875 0.328125 0.3125q0.1875 0.140625 0.390625 0.265625q0.34375 0.1875 0.75 0.28125q0.421875 0.109375 0.90625 0.109375q0.796875 0 1.421875 -0.328125q0.625 -0.328125 1.046875 -0.90625q0.421875 -0.578125 0.640625 -1.359375q0.21875 -0.796875 0.21875 -1.703125l0 -0.15625q0 -0.953125 -0.21875 -1.734375q-0.21875 -0.796875 -0.640625 -1.375q-0.421875 -0.5625 -1.046875 -0.875q-0.625 -0.328125 -1.4375 -0.328125q-0.46875 0 -0.875 0.09375q-0.390625 0.09375 -0.71875 0.28125q-0.234375 0.125 -0.4375 0.3125q-0.203125 0.171875 -0.375 0.390625l-0.078125 -0.921875l-1.3125 0l0 11.703125zm5.6875 -7.546875l0 0.15625q0 0.625 -0.140625 1.1875q-0.125 0.5625 -0.40625 0.984375q-0.28125 0.4375 -0.71875 0.6875q-0.4375 0.25 -1.046875 0.25q-0.375 0 -0.6875 -0.09375q-0.296875 -0.09375 -0.546875 -0.25q-0.21875 -0.140625 -0.390625 -0.34375q-0.171875 -0.203125 -0.3125 -0.4375l0 -4.078125q0.15625 -0.265625 0.34375 -0.484375q0.203125 -0.21875 0.453125 -0.359375q0.21875 -0.15625 0.5 -0.234375q0.296875 -0.078125 0.625 -0.078125q0.609375 0 1.046875 0.25q0.4375 0.25 0.734375 0.671875q0.28125 0.4375 0.40625 1.0q0.140625 0.546875 0.140625 1.171875zm4.6015625 7.71875q0.5625 0 1.0 -0.21875q0.4375 -0.203125 0.765625 -0.515625q0.328125 -0.3125 0.5625 -0.6875q0.234375 -0.359375 0.375 -0.6875l4.296875 -9.765625l-1.625 0l-2.171875 5.484375l-0.40625 0.984375l-0.375 -1.015625l-2.3125 -5.453125l-1.625 0l3.640625 8.046875l-0.578125 1.140625q-0.078125 0.15625 -0.21875 0.390625q-0.125 0.25 -0.3125 0.46875q-0.203125 0.234375 -0.453125 0.390625q-0.234375 0.171875 -0.53125 0.171875q-0.109375 0 -0.3125 -0.015625q-0.1875 -0.015625 -0.375 -0.03125l-0.234375 1.1875q0.140625 0.03125 0.40625 0.078125q0.28125 0.046875 0.484375 0.046875z" fill-rule="nonzero"/></g></svg>